<?xml version="1.0" encoding="utf-8"?>
<!-- Generator: Adobe Illustrator 16.0.0, SVG Export Plug-In . SVG Version: 6.00 Build 0)  -->
<!DOCTYPE svg PUBLIC "-//W3C//DTD SVG 1.1//EN" "http://www.w3.org/Graphics/SVG/1.1/DTD/svg11.dtd">
<svg version="1.1" id="Layer_1" xmlns="http://www.w3.org/2000/svg" xmlns:xlink="http://www.w3.org/1999/xlink" x="0px" y="0px"
	 width="321.047px" height="315.368px" viewBox="0 0 321.047 315.368" enable-background="new 0 0 321.047 315.368"
	 xml:space="preserve">
<g>
	<path fill-rule="evenodd" clip-rule="evenodd" d="M170.339,284.624c-7.662-1.221-15.225-3.436-21.881-8.781
		c2.536,8.299,4.667,16.412,8.181,24.092c-13.975-10.367-25.744-22.457-30.889-39.785c-1.012,1.057-1.88,2.174-2.954,3.031
		c-1.229,0.982-2.552,1.955-3.994,2.531c-1.934,0.773-3.271-0.639-2.965-2.693c1.093-7.336,2.118-14.684,3.157-22.029
		c0.061-0.432,0.03-0.879,0.03-1.318c0.001-14.959-0.076-29.92,0.048-44.877c0.037-4.436-1.541-8.082-4.212-11.402
		c-2.493-3.1-5.662-5.365-9.266-7.273c-0.651,1.334-1.179,2.711-1.952,3.934c-1.403,2.219-2.749,4.527-4.479,6.479
		c-4.641,5.234-10.135,5.65-15.711,1.42c-0.918-0.697-1.772-1.477-2.629-2.195c-0.988,1.459-1.838,3.008-2.963,4.322
		c-4.368,5.104-10.125,6.861-16.633,6.547c-8.559-0.414-16.149-3.807-23.497-7.855c-3.685-2.031-7.207-4.328-10.062-7.469
		c-5.273-5.805-4.86-11.592,1.246-16.521c1.943-1.568,4.141-2.822,6.319-4.287c-0.271-0.352-0.653-0.834-1.021-1.33
		c-2.462-3.314-4.322-6.882-4.709-11.083c-0.433-4.696,1.253-8.637,4.697-11.653c5.11-4.475,10.95-7.729,17.693-9.064
		c2.921-0.579,5.809-0.447,8.382,1.533c0.881-2.787,1.669-5.528,2.617-8.213c0.938-2.654,1.79-5.384,3.999-7.43
		c-1.202-1.364-2.473-2.684-3.599-4.118c-1.101-1.402-2.055-2.92-3.076-4.391c-1.524,1.231-3.096,2.637-4.802,3.854
		c-5.918,4.22-12.463,6.608-19.812,6.317c-5.755-0.228-11.031-2.093-15.841-5.204C12.936,105.293,7.077,99.875,2.919,92.8
		c-1.616-2.749-2.587-5.749-2.828-8.939c-0.289-3.824,0.787-7.275,3.149-10.286c0.482-0.615,0.551-1.085,0.318-1.807
		c-2.317-7.184-3.79-14.516-3.528-22.105c0.176-5.113,1.194-10.008,4.547-14.09c0.901-1.097,1.986-2.104,3.154-2.91
		c4.404-3.037,8.833-6.042,13.346-8.915c1.796-1.144,3.758-2.145,5.779-2.792c2.821-0.903,5.605-0.1,8.274,0.99
		c0.842,0.344,1.667,0.728,2.487,1.088c1.003-2.396,1.778-4.849,3.012-7.043c1.654-2.942,3.424-5.883,5.572-8.47
		c4.529-5.453,10.382-7.898,17.557-6.792c5.006,0.771,10.05,1.319,15.039,2.19c4.456,0.778,8.731,2.283,11.965,5.591
		c2.181,2.23,3.936,4.877,5.927,7.397c0.765-0.98,1.695-2.242,2.696-3.443c3.458-4.149,7.391-7.736,12.272-10.17
		c4.888-2.438,9.919-2.987,15.208-1.382c6.198,1.881,12.095,4.338,17.148,8.481c3.168,2.598,5.877,5.614,6.729,9.769
		c0.392,1.911,0.286,3.924,0.398,5.77c1.738-0.907,3.73-2.043,5.805-3.006c3.276-1.521,6.709-2.573,10.351-2.702
		c5.972-0.211,10.369,2.382,13.23,7.605c2.146,3.921,3.068,8.203,3.533,12.587c0.271,2.578,0.291,5.183,0.516,7.767
		c0.037,0.434,0.461,0.933,0.84,1.222c1.965,1.492,4.17,2.721,5.928,4.418c5.785,5.582,6.568,12.213,2.154,18.929
		c-1.693,2.579-3.961,4.782-5.979,7.148c-0.172,0.204-0.428,0.339-0.625,0.491c0.896,0.963,1.777,1.737,2.451,2.662
		c2.666,3.668,2.51,7.513,0.494,11.392c-1.629,3.136-4.027,5.649-6.701,7.902c-0.684,0.576-0.816,1.125-0.637,1.958
		c0.645,2.999,1.219,6.012,1.828,9.019c0.053,0.26,0.15,0.511,0.227,0.762c1.918-1.043,3.723-2.143,5.623-3.034
		c3.461-1.622,7.057-2.76,10.969-2.386c3.955,0.379,6.855,2.392,8.918,5.719c2.107,3.397,2.969,7.192,3.537,11.08
		c0.107,0.749,0.195,1.501,0.291,2.24c1.834,0.331,3.666,0.523,5.412,1.016c1.555,0.438,3.104,1.059,4.5,1.867
		c2.99,1.73,4.01,4.438,3.113,7.762c-0.822,3.044-2.57,5.578-4.615,7.889c-1.152,1.301-1.775,2.66-2.035,4.405
		c-0.615,4.125-1.908,8.06-4.203,11.603c-3.646,5.623-9.191,7.922-15.723,6.371c-2.273-0.541-4.471-1.398-6.811-2.146
		c-0.6,0.863-1.229,1.924-2.006,2.863c-4.348,5.26-10.111,6.51-16.582,3.633c-0.545-0.242-1.139-0.451-1.59-0.82
		c-1.629-1.334-3.395-1.229-5.358-0.934c-3.855,0.578-7.585,0.012-10.892-2.223c-3.461-2.342-5.054-5.852-5.893-9.793
		c-0.048-0.225-0.103-0.449-0.255-1.102c-1.602,1.824-3.112,3.334-4.38,5.027c-3.852,5.141-5.813,11.055-6.633,17.352
		c-1.075,8.262-0.476,16.512,0.423,24.748c1.742,15.967,5.445,31.48,10.844,46.594c3.051,8.541,6.625,16.852,11.559,24.506
		c1.102,1.709,2.332,3.344,3.619,4.918C167.67,281.808,169.095,283.255,170.339,284.624z M127.341,144.009
		c0.704-5.188,1.413-10.41,2.123-15.644c-3.467,1.144-6.767,2.232-9.854,3.25C122.126,135.65,124.716,139.801,127.341,144.009z
		 M139.673,144.177c-0.086,1.532-0.164,2.937-0.243,4.341C141.067,145.979,141.067,145.979,139.673,144.177z M122.237,169.29
		c0.442,0.82,0.809,1.5,1.312,2.434c0.17-1.334,0.301-2.355,0.456-3.563C123.318,168.599,122.827,168.913,122.237,169.29z"/>
	<path fill-rule="evenodd" clip-rule="evenodd" d="M308.204,234.479c0-1.959,0-3.633,0-5.404c4.281,0,8.496,0,12.813,0
		c0,16.953,0,33.922,0,51.004c-4.227,0-8.467,0-12.824,0c0-1.682,0-3.297,0-5.08c-1.371,1.063-2.541,2.068-3.807,2.932
		c-7.539,5.133-18.152,4.697-25.354-0.951c-5.857-4.594-9.488-10.514-10.387-17.904c-1.006-8.273,0.299-16.094,5.752-22.738
		c4.467-5.445,10.17-8.518,17.381-8.615c6.107-0.084,11.287,1.984,15.682,6.156C307.624,234.032,307.812,234.163,308.204,234.479z
		 M308.786,254.47c-0.125-1.229-0.148-2.475-0.389-3.68c-2.141-10.758-13.76-14.006-21.109-8.949
		c-3.938,2.709-5.727,6.65-6.102,11.359c-0.717,9.021,5.23,16.143,12.914,16.473c4.307,0.186,7.998-1.184,10.895-4.416
		C307.737,262.2,308.786,258.517,308.786,254.47z"/>
	<path fill-rule="evenodd" clip-rule="evenodd" d="M201.29,227.747c13.963-0.268,27.354,11.305,26.971,27.453
		c-0.332,13.979-11.281,26.275-27.047,26.34c-13.99,0.057-26.43-11.561-26.473-26.896
		C174.696,238.567,188.374,227.245,201.29,227.747z M215.337,254.108c-0.057-0.514-0.15-1.463-0.271-2.408
		c-0.754-5.877-4.814-10.426-10.596-11.613c-5.801-1.189-11.49,0.91-14.721,6.225c-2.242,3.689-2.559,7.719-1.813,11.861
		c1.773,9.822,11.93,13.988,19.963,9.73C213.155,265.118,215.251,260.345,215.337,254.108z"/>
	<path fill-rule="evenodd" clip-rule="evenodd" d="M79.475,280.132c-4.454,0-8.681,0-13.002,0c0-22.986,0-45.914,0-68.943
		c11.33,0,22.652,0,34.035,0c0,4.219,0,8.4,0,12.721c-6.99,0-13.959,0-20.994,0c0,4.199,0,8.26,0,12.451c6.968,0,13.939,0,20.982,0
		c0,4.273,0,8.414,0,12.688c-6.936,0-13.907,0-21.021,0C79.475,259.466,79.475,269.755,79.475,280.132z"/>
	<path fill-rule="evenodd" clip-rule="evenodd" d="M236.683,280.067c0-17.023,0-33.969,0-51.004c3.559,0,7.094,0,10.822,0
		c0,1.85,0,3.73,0,5.611c0.088,0.016,0.174,0.031,0.262,0.045c0.52-0.768,1.012-1.553,1.563-2.299
		c3.135-4.238,8.551-5.797,13.432-3.938c0.902,0.344,1.127,0.717,0.764,1.664c-1.164,3.035-2.23,6.109-3.338,9.168
		c-0.078,0.219-0.186,0.426-0.314,0.715c-0.555-0.221-1.055-0.432-1.564-0.619c-2.545-0.936-4.678-0.223-6.264,1.992
		c-1.693,2.365-2.336,5.102-2.393,7.877c-0.195,9.744-0.211,19.49-0.293,29.236c-0.004,0.477,0,0.951,0,1.551
		C245.126,280.067,240.96,280.067,236.683,280.067z"/>
	<path fill-rule="evenodd" clip-rule="evenodd" d="M218.731,181.3c4.172,0.287,8.262,0.281,12.248,0.926
		c3.744,0.605,5.752,3.406,6.277,7.076c0.482,3.383-0.717,6.186-3.529,8.227c-0.221,0.16-0.432,0.336-0.652,0.508
		c1.188,0.646,2.406,1.146,3.439,1.902c5.924,4.324,4.709,13.719-2.199,16.762c-1.428,0.629-3.043,1.074-4.592,1.145
		c-3.627,0.166-7.266,0.053-10.992,0.053C218.731,205.81,218.731,193.767,218.731,181.3z M222.337,214.267
		c3.209,0.049,6.369,0.303,9.43-0.576c2.598-0.746,4.203-2.59,4.617-5.252c0.436-2.805-0.84-5.191-3.375-6.563
		c-3.371-1.824-7.039-1.25-10.672-1.367C222.337,205.169,222.337,209.665,222.337,214.267z M222.37,185.466c0,3.717,0,7.48,0,11.32
		c0.861,0,1.631,0.09,2.369-0.018c1.838-0.268,3.752-0.377,5.467-1.008c2.285-0.84,3.611-3.574,3.316-5.959
		c-0.291-2.354-1.662-3.912-4.408-4.277C226.929,185.233,224.673,185.466,222.37,185.466z"/>
	<path fill-rule="evenodd" clip-rule="evenodd" d="M275.474,204.716c-8.061,0-16.043,0-24.018,0
		c-0.354,4.01,2.238,8.168,5.975,9.789c4.977,2.156,9.967,0.25,14.254-5.557c0.939,0.488,1.904,0.988,2.865,1.486
		c-3.244,7.146-10.57,9.563-17.713,7.383c-6.428-1.961-10.432-9.652-8.779-16.482c1.785-7.369,7.607-11.75,15.115-10.959
		C271.13,191.212,275.509,197.692,275.474,204.716z M271.411,201.55c-0.27-3.963-4.533-7.574-9.225-7.857
		c-5.014-0.305-9.521,3.09-10.359,7.857C258.362,201.55,264.884,201.55,271.411,201.55z"/>
	<path fill-rule="evenodd" clip-rule="evenodd" d="M317.763,195.714c0-1.73,0-3.145,0-4.621c1.135,0,2.16,0,3.283,0
		c0,8.869,0,17.758,0,26.734c-1.016,0-2.068,0-3.271,0c0-1.355,0-2.723,0-4.436c-3.645,4.102-7.922,5.752-13.023,4.984
		c-3.291-0.496-5.973-2.176-8.09-4.691c-4.916-5.842-4.297-14.42,1.133-19.682C302.478,189.464,312.075,188.28,317.763,195.714z
		 M307.329,215.282c5.996,0.006,10.59-4.67,10.566-10.754c-0.021-6.076-4.574-10.824-10.393-10.838
		c-5.787-0.016-10.594,4.826-10.613,10.693S301.685,215.278,307.329,215.282z"/>
	<path fill-rule="evenodd" clip-rule="evenodd" d="M312.228,308.563c-1.254,0-2.324,0-3.561,0c0-1.08,0.002-2.104,0-3.127
		c0-1.918,0.012-3.836-0.012-5.754c-0.016-1.205-0.621-2.025-1.766-2.42c-0.92-0.318-2.475,0.111-3.023,0.908
		c-0.201,0.291-0.244,0.736-0.248,1.113c-0.025,2.996-0.021,5.992-0.033,8.988c0,0.072-0.051,0.143-0.104,0.281
		c-1.074,0-2.172,0-3.361,0c0-4.648,0-9.264,0-13.982c1.086,0,2.221,0,3.402,0c0.053,0.182,0.123,0.428,0.211,0.74
		c2.262-1.73,4.43-1.58,6.617,0.025c0.252,0.184,0.883,0.109,1.188-0.082c1.506-0.949,3.092-1.41,4.869-1.094
		c2.711,0.486,4.344,2.172,4.447,4.943c0.115,3.109,0.025,6.227,0.025,9.43c-1.178,0-2.305,0-3.572,0c0-1.682,0-3.309,0-4.936
		c0-1.119,0.006-2.238,0-3.357c-0.016-2.693-1.936-3.857-4.346-2.639c-0.607,0.309-0.82,0.65-0.787,1.465
		C312.302,302.208,312.228,305.356,312.228,308.563z"/>
	<path fill-rule="evenodd" clip-rule="evenodd" d="M282.185,294.595c0,0.916,0,1.746,0,2.65c-0.461,0.063-0.881,0.117-1.301,0.174
		c0.93,4.287-0.678,6.691-5.045,7.639c-0.441,0.096-0.844,0.371-1.262,0.563c-0.021,0.117-0.043,0.232-0.063,0.348
		c0.42,0.184,0.83,0.408,1.266,0.541c1.432,0.439,2.996,0.615,4.283,1.313c2.389,1.289,2.436,4.59,0.248,6.182
		c-2.406,1.75-7.426,1.84-9.893,0.141c-1.184-0.818-1.924-1.957-1.807-3.434c0.154-1.939,1.363-3.051,3.16-3.598
		c-0.912-1.391-0.889-1.678,0.172-2.641c-0.727-0.773-1.594-1.457-2.152-2.338c-1.922-3.02,0.111-7.197,3.814-7.865
		c0.916-0.164,1.887-0.078,2.828-0.033C278.329,294.325,280.222,294.468,282.185,294.595z M275.192,297.104
		c-1.449-0.018-2.521,0.99-2.553,2.395c-0.031,1.43,1.102,2.656,2.459,2.662c1.391,0.008,2.59-1.178,2.598-2.568
		C277.704,298.269,276.546,297.12,275.192,297.104z M275.308,309.228c-0.754,0.178-1.52,0.254-2.184,0.553
		c-0.396,0.18-0.895,0.719-0.883,1.08c0.016,0.445,0.418,1.09,0.822,1.271c1.459,0.652,3.014,0.656,4.477-0.004
		c0.383-0.174,0.795-0.783,0.787-1.186c-0.008-0.395-0.453-0.945-0.848-1.135C276.825,309.493,276.056,309.413,275.308,309.228z"/>
	<path fill-rule="evenodd" clip-rule="evenodd" d="M225.142,294.765c0-2.131,0-4.24,0-6.43c1.203,0,2.332,0,3.533,0
		c0,6.725,0,13.418,0,20.262c-1.234-0.066-2.498,0.285-3.965-0.354c-2.264,1.328-5.619,0.861-7.836-1.73
		c-2.051-2.396-2.279-6.395-0.451-9.254C218.317,294.292,220.983,293.517,225.142,294.765z M225.147,301.368
		c0-0.799-0.063-1.602,0.018-2.391c0.086-0.842-0.305-1.211-1.023-1.479c-2.234-0.832-4.594,0.273-5.246,2.494
		c-0.766,2.611,0.5,5.189,2.811,5.725c2.131,0.494,3.441-0.525,3.441-2.674C225.147,302.485,225.147,301.927,225.147,301.368z"/>
	<path fill-rule="evenodd" clip-rule="evenodd" d="M282.099,180.767c1.17,0,2.27,0,3.434,0c0,12.381,0,24.699,0,37.084
		c-1.148,0-2.25,0-3.434,0C282.099,205.522,282.099,193.202,282.099,180.767z"/>
	<path fill-rule="evenodd" clip-rule="evenodd" d="M298.194,302.987c-3.664,0-7.289,0-10.934,0c0.436,2.246,2.762,3.396,5.256,2.691
		c0.039-0.01,0.078-0.025,0.107-0.051c1.926-1.525,2.914-0.025,3.979,1.23c-2.408,2.463-7.262,2.779-10.227,0.664
		c-2.838-2.023-3.875-6.051-2.367-9.189c1.576-3.277,5.465-5.021,8.932-3.979C296.19,295.331,299.046,298.325,298.194,302.987z
		 M294.476,300.038c-0.395-1.666-2.031-2.945-3.672-2.9c-1.387,0.037-3.428,1.15-3.58,2.9
		C289.636,300.038,292.046,300.038,294.476,300.038z"/>
	<path fill-rule="evenodd" clip-rule="evenodd" d="M201.11,308.665c-1.328-0.217-2.594,0.313-3.699-0.373
		c-1.311,0.191-2.697,0.52-4.092,0.568c-2.279,0.082-3.789-1.176-4.303-3.342c-0.451-1.902,0.504-4.031,2.5-4.758
		c1.492-0.543,3.16-0.615,4.754-0.869c0.379-0.059,0.777-0.008,1.197-0.008c0.141-1.066-0.266-1.773-1.064-2.18
		c-1.758-0.893-3.389-0.477-5.004,0.736c-0.609-0.717-1.217-1.434-1.846-2.174c1.268-1.705,4.643-2.672,7.348-1.977
		c2.357,0.605,4.041,2.52,4.176,5.207C201.228,302.479,201.11,305.476,201.11,308.665z M197.546,302.192
		c-1.529,0.273-2.848,0.377-4.074,0.771c-1.057,0.338-1.289,1.426-0.686,2.236c0.797,1.07,3.971,0.934,4.66-0.207
		c0.076-0.127,0.094-0.303,0.096-0.457C197.552,303.868,197.546,303.2,197.546,302.192z"/>
	<path fill-rule="evenodd" clip-rule="evenodd" d="M262.411,299.884c-0.309-2.842-2.912-3.438-6.041-1.521
		c-0.684-0.674-1.379-1.355-2.115-2.078c2.418-2.02,5.053-2.791,8.039-1.801c2.246,0.748,3.568,2.58,3.635,4.953
		c0.072,2.674,0.086,5.352,0.113,8.027c0.004,0.346-0.053,0.695-0.094,1.178c-1.23-0.223-2.479,0.412-3.457-0.342
		c-1.529,0.197-3.039,0.504-4.557,0.559c-1.877,0.066-3.445-1.195-3.926-2.906c-0.539-1.93,0.115-4.063,1.854-4.865
		c1.402-0.645,3.014-0.861,4.551-1.182C261.021,299.778,261.677,299.884,262.411,299.884z M262.388,302.315
		c-1.197,0.131-2.355,0.162-3.467,0.406c-0.834,0.184-1.568,0.703-1.482,1.74c0.084,1.027,0.852,1.395,1.729,1.51
		C261.624,306.29,262.851,304.993,262.388,302.315z"/>
	<path fill-rule="evenodd" clip-rule="evenodd" d="M251.009,308.573c-1.123,0-2.15,0-3.328,0c0-2.791,0.016-5.535-0.006-8.279
		c-0.012-1.672-0.943-3.045-2.387-3.078c-1.002-0.025-2.043,0.455-3.008,0.85c-0.236,0.096-0.344,0.742-0.348,1.137
		c-0.027,3.072-0.016,6.146-0.016,9.32c-1.18,0-2.277,0-3.479,0c0-4.588,0-9.238,0-14.057c1.195,0.295,2.576-0.611,3.799,0.682
		c1.559-0.994,3.377-1.426,5.385-0.766c1.85,0.609,3.186,1.914,3.314,3.725C251.183,301.55,251.009,305.022,251.009,308.573z"/>
	<path fill-rule="evenodd" clip-rule="evenodd" d="M180.53,311.343c2.373,0.26,3.063-0.377,3.068-2.771
		c0.01-4.232,0.002-8.465,0.002-12.697c0-0.428,0-0.855,0-1.346c1.221,0,2.322,0,3.525,0c0.025,0.35,0.068,0.693,0.068,1.037
		c0.004,4.393,0.029,8.785-0.016,13.176c-0.012,0.982-0.158,1.994-0.438,2.936c-0.635,2.133-2.107,3.123-4.301,2.939
		c-0.35-0.029-0.803-0.402-0.965-0.734C181.093,313.103,180.856,312.251,180.53,311.343z"/>
	<path fill-rule="evenodd" clip-rule="evenodd" d="M207.8,308.571c-1.211,0-2.281,0-3.439,0c0-4.666,0-9.281,0-14.002
		c1.084,0,2.217,0,3.428,0c0.033,0.291,0.072,0.623,0.131,1.121c1.182-1.207,2.404-2.037,4.074-1.447
		c0.225,0.08,0.449,0.164,0.66,0.27c1.848,0.932,1.939,1.264,0.832,3.002c-0.275,0.432-0.563,0.855-0.887,1.348
		c-0.213-0.141-0.393-0.219-0.518-0.348c-0.746-0.773-1.656-1.275-2.672-0.801c-1.096,0.514-1.551,1.566-1.557,2.77
		c-0.014,2.438-0.004,4.875-0.006,7.313C207.845,308.028,207.819,308.261,207.8,308.571z"/>
	<path fill-rule="evenodd" clip-rule="evenodd" d="M235.396,308.558c-1.174,0-2.271,0-3.447,0c0-4.678,0-9.293,0-14
		c1.119,0,2.248,0,3.447,0C235.396,299.192,235.396,303.812,235.396,308.558z"/>
	<path fill-rule="evenodd" clip-rule="evenodd" d="M235.481,288.335c0,1.252,0,2.426,0,3.662c-1.221,0-2.357,0-3.559,0
		c0-1.223,0-2.4,0-3.662C233.067,288.335,234.2,288.335,235.481,288.335z"/>
	<path fill-rule="evenodd" clip-rule="evenodd" d="M183.585,288.296c1.25,0,2.354,0,3.541,0c0,1.213,0,2.393,0,3.67
		c-1.125,0-2.291,0-3.541,0C183.585,290.761,183.585,289.587,183.585,288.296z"/>
	<path fill-rule="evenodd" clip-rule="evenodd" fill="#FFFFFF" d="M225.147,301.368c0,0.559,0,1.117,0,1.676
		c0,2.148-1.311,3.168-3.441,2.674c-2.311-0.535-3.576-3.113-2.811-5.725c0.652-2.221,3.012-3.326,5.246-2.494
		c0.719,0.268,1.109,0.637,1.023,1.479C225.085,299.767,225.147,300.569,225.147,301.368z"/>
</g>
</svg>
