<svg xmlns="http://www.w3.org/2000/svg" width="321.047" height="315.368" xml:space="preserve"><g fill-rule="evenodd" clip-rule="evenodd"><path d="M170.339 284.624c-7.662-1.221-15.225-3.436-21.881-8.781 2.536 8.299 4.667 16.412 8.181 24.092-13.975-10.367-25.744-22.457-30.889-39.785-1.012 1.057-1.88 2.174-2.954 3.031-1.229.982-2.552 1.955-3.994 2.531-1.934.773-3.271-.639-2.965-2.693 1.093-7.336 2.118-14.684 3.157-22.029.061-.432.03-.879.03-1.318.001-14.959-.076-29.92.048-44.877.037-4.436-1.541-8.082-4.212-11.402-2.493-3.1-5.662-5.365-9.266-7.273-.651 1.334-1.179 2.711-1.952 3.934-1.403 2.219-2.749 4.527-4.479 6.479-4.641 5.234-10.135 5.65-15.711 1.42-.918-.697-1.772-1.477-2.629-2.195-.988 1.459-1.838 3.008-2.963 4.322-4.368 5.104-10.125 6.861-16.633 6.547-8.559-.414-16.149-3.807-23.497-7.855-3.685-2.031-7.207-4.328-10.062-7.469-5.273-5.805-4.86-11.592 1.246-16.521 1.943-1.568 4.141-2.822 6.319-4.287-.271-.352-.653-.834-1.021-1.33-2.462-3.314-4.322-6.882-4.709-11.083-.433-4.696 1.253-8.637 4.697-11.653 5.11-4.475 10.95-7.729 17.693-9.064 2.921-.579 5.809-.447 8.382 1.533.881-2.787 1.669-5.528 2.617-8.213.938-2.654 1.79-5.384 3.999-7.43-1.202-1.364-2.473-2.684-3.599-4.118-1.101-1.402-2.055-2.92-3.076-4.391-1.524 1.231-3.096 2.637-4.802 3.854-5.918 4.22-12.463 6.608-19.812 6.317-5.755-.228-11.031-2.093-15.841-5.204-6.825-4.42-12.684-9.838-16.842-16.913C1.303 90.051.332 87.051.091 83.861c-.289-3.824.787-7.275 3.149-10.286.482-.615.551-1.085.318-1.807C1.241 64.584-.232 57.252.03 49.663c.176-5.113 1.194-10.008 4.547-14.09a15.618 15.618 0 0 1 3.154-2.91c4.404-3.037 8.833-6.042 13.346-8.915 1.796-1.144 3.758-2.145 5.779-2.792 2.821-.903 5.605-.1 8.274.99.842.344 1.667.728 2.487 1.088 1.003-2.396 1.778-4.849 3.012-7.043 1.654-2.942 3.424-5.883 5.572-8.47C50.73 2.068 56.583-.377 63.758.729c5.006.771 10.05 1.319 15.039 2.19 4.456.778 8.731 2.283 11.965 5.591 2.181 2.23 3.936 4.877 5.927 7.397.765-.98 1.695-2.242 2.696-3.443 3.458-4.149 7.391-7.736 12.272-10.17 4.888-2.438 9.919-2.987 15.208-1.382 6.198 1.881 12.095 4.338 17.148 8.481 3.168 2.598 5.877 5.614 6.729 9.769.392 1.911.286 3.924.398 5.77 1.738-.907 3.73-2.043 5.805-3.006 3.276-1.521 6.709-2.573 10.351-2.702 5.972-.211 10.369 2.382 13.23 7.605 2.146 3.921 3.068 8.203 3.533 12.587.271 2.578.291 5.183.516 7.767.037.434.461.933.84 1.222 1.965 1.492 4.17 2.721 5.928 4.418 5.785 5.582 6.568 12.213 2.154 18.929-1.693 2.579-3.961 4.782-5.979 7.148-.172.204-.428.339-.625.491.896.963 1.777 1.737 2.451 2.662 2.666 3.668 2.51 7.513.494 11.392-1.629 3.136-4.027 5.649-6.701 7.902-.684.576-.816 1.125-.637 1.958.645 2.999 1.219 6.012 1.828 9.019.053.26.15.511.227.762 1.918-1.043 3.723-2.143 5.623-3.034 3.461-1.622 7.057-2.76 10.969-2.386 3.955.379 6.855 2.392 8.918 5.719 2.107 3.397 2.969 7.192 3.537 11.08.107.749.195 1.501.291 2.24 1.834.331 3.666.523 5.412 1.016 1.555.438 3.104 1.059 4.5 1.867 2.99 1.73 4.01 4.438 3.113 7.762-.822 3.044-2.57 5.578-4.615 7.889-1.152 1.301-1.775 2.66-2.035 4.405-.615 4.125-1.908 8.06-4.203 11.603-3.646 5.623-9.191 7.922-15.723 6.371-2.273-.541-4.471-1.398-6.811-2.146-.6.863-1.229 1.924-2.006 2.863-4.348 5.26-10.111 6.51-16.582 3.633-.545-.242-1.139-.451-1.59-.82-1.629-1.334-3.395-1.229-5.358-.934-3.855.578-7.585.012-10.892-2.223-3.461-2.342-5.054-5.852-5.893-9.793-.048-.225-.103-.449-.255-1.102-1.602 1.824-3.112 3.334-4.38 5.027-3.852 5.141-5.813 11.055-6.633 17.352-1.075 8.262-.476 16.512.423 24.748 1.742 15.967 5.445 31.48 10.844 46.594 3.051 8.541 6.625 16.852 11.559 24.506 1.102 1.709 2.332 3.344 3.619 4.918 1.283 1.567 2.708 3.014 3.952 4.383zm-42.998-140.615 2.123-15.644-9.854 3.25 7.731 12.394zm12.332.168-.243 4.341c1.637-2.539 1.637-2.539.243-4.341zm-17.436 25.113 1.312 2.434.456-3.563-1.768 1.129zm185.967 65.189v-5.404h12.813v51.004h-12.824v-5.08c-1.371 1.063-2.541 2.068-3.807 2.932-7.539 5.133-18.152 4.697-25.354-.951-5.857-4.594-9.488-10.514-10.387-17.904-1.006-8.273.299-16.094 5.752-22.738 4.467-5.445 10.17-8.518 17.381-8.615 6.107-.084 11.287 1.984 15.682 6.156.164.153.352.284.744.6zm.582 19.991c-.125-1.229-.148-2.475-.389-3.68-2.141-10.758-13.76-14.006-21.109-8.949-3.938 2.709-5.727 6.65-6.102 11.359-.717 9.021 5.23 16.143 12.914 16.473 4.307.186 7.998-1.184 10.895-4.416 2.742-3.057 3.791-6.74 3.791-10.787z"/><path d="M201.29 227.747c13.963-.268 27.354 11.305 26.971 27.453-.332 13.979-11.281 26.275-27.047 26.34-13.99.057-26.43-11.561-26.473-26.896-.045-16.077 13.633-27.399 26.549-26.897zm14.047 26.361c-.057-.514-.15-1.463-.271-2.408-.754-5.877-4.814-10.426-10.596-11.613-5.801-1.189-11.49.91-14.721 6.225-2.242 3.689-2.559 7.719-1.813 11.861 1.773 9.822 11.93 13.988 19.963 9.73 5.256-2.785 7.352-7.558 7.438-13.795zM79.475 280.132H66.473v-68.943h34.035v12.721H79.514v12.451h20.982v12.688H79.475v31.083zm157.208-.065v-51.004h10.822v5.611c.088.016.174.031.262.045.52-.768 1.012-1.553 1.563-2.299 3.135-4.238 8.551-5.797 13.432-3.938.902.344 1.127.717.764 1.664-1.164 3.035-2.23 6.109-3.338 9.168-.078.219-.186.426-.314.715-.555-.221-1.055-.432-1.564-.619-2.545-.936-4.678-.223-6.264 1.992-1.693 2.365-2.336 5.102-2.393 7.877-.195 9.744-.211 19.49-.293 29.236-.004.477 0 .951 0 1.551l-12.677.001zM218.731 181.3c4.172.287 8.262.281 12.248.926 3.744.605 5.752 3.406 6.277 7.076.482 3.383-.717 6.186-3.529 8.227-.221.16-.432.336-.652.508 1.188.646 2.406 1.146 3.439 1.902 5.924 4.324 4.709 13.719-2.199 16.762-1.428.629-3.043 1.074-4.592 1.145-3.627.166-7.266.053-10.992.053V181.3zm3.606 32.967c3.209.049 6.369.303 9.43-.576 2.598-.746 4.203-2.59 4.617-5.252.436-2.805-.84-5.191-3.375-6.563-3.371-1.824-7.039-1.25-10.672-1.367v13.758zm.033-28.801v11.32c.861 0 1.631.09 2.369-.018 1.838-.268 3.752-.377 5.467-1.008 2.285-.84 3.611-3.574 3.316-5.959-.291-2.354-1.662-3.912-4.408-4.277-2.185-.291-4.441-.058-6.744-.058zm53.104 19.25h-24.018c-.354 4.01 2.238 8.168 5.975 9.789 4.977 2.156 9.967.25 14.254-5.557l2.865 1.486c-3.244 7.146-10.57 9.563-17.713 7.383-6.428-1.961-10.432-9.652-8.779-16.482 1.785-7.369 7.607-11.75 15.115-10.959 7.957.836 12.336 7.316 12.301 14.34zm-4.063-3.166c-.27-3.963-4.533-7.574-9.225-7.857-5.014-.305-9.521 3.09-10.359 7.857h19.584zm46.352-5.836v-4.621h3.283v26.734h-3.271v-4.436c-3.645 4.102-7.922 5.752-13.023 4.984-3.291-.496-5.973-2.176-8.09-4.691-4.916-5.842-4.297-14.42 1.133-19.682 4.683-4.538 14.28-5.722 19.968 1.712zm-10.434 19.568c5.996.006 10.59-4.67 10.566-10.754-.021-6.076-4.574-10.824-10.393-10.838-5.787-.016-10.594 4.826-10.613 10.693s4.796 10.895 10.44 10.899zm4.899 93.281h-3.561c0-1.08.002-2.104 0-3.127 0-1.918.012-3.836-.012-5.754-.016-1.205-.621-2.025-1.766-2.42-.92-.318-2.475.111-3.023.908-.201.291-.244.736-.248 1.113-.025 2.996-.021 5.992-.033 8.988 0 .072-.051.143-.104.281h-3.361V294.57h3.402c.053.182.123.428.211.74 2.262-1.73 4.43-1.58 6.617.025.252.184.883.109 1.188-.082 1.506-.949 3.092-1.41 4.869-1.094 2.711.486 4.344 2.172 4.447 4.943.115 3.109.025 6.227.025 9.43h-3.572v-4.936c0-1.119.006-2.238 0-3.357-.016-2.693-1.936-3.857-4.346-2.639-.607.309-.82.65-.787 1.465.128 3.143.054 6.291.054 9.498zm-30.043-13.968v2.65c-.461.063-.881.117-1.301.174.93 4.287-.678 6.691-5.045 7.639-.441.096-.844.371-1.262.563l-.063.348c.42.184.83.408 1.266.541 1.432.439 2.996.615 4.283 1.313 2.389 1.289 2.436 4.59.248 6.182-2.406 1.75-7.426 1.84-9.893.141-1.184-.818-1.924-1.957-1.807-3.434.154-1.939 1.363-3.051 3.16-3.598-.912-1.391-.889-1.678.172-2.641-.727-.773-1.594-1.457-2.152-2.338-1.922-3.02.111-7.197 3.814-7.865.916-.164 1.887-.078 2.828-.033 1.896.088 3.789.231 5.752.358zm-6.993 2.509c-1.449-.018-2.521.99-2.553 2.395-.031 1.43 1.102 2.656 2.459 2.662 1.391.008 2.59-1.178 2.598-2.568.008-1.324-1.15-2.473-2.504-2.489zm.116 12.124c-.754.178-1.52.254-2.184.553-.396.18-.895.719-.883 1.08.016.445.418 1.09.822 1.271 1.459.652 3.014.656 4.477-.004.383-.174.795-.783.787-1.186-.008-.395-.453-.945-.848-1.135-.654-.314-1.423-.394-2.171-.579zm-50.166-14.463v-6.43h3.533v20.262c-1.234-.066-2.498.285-3.965-.354-2.264 1.328-5.619.861-7.836-1.73-2.051-2.396-2.279-6.395-.451-9.254 1.894-2.967 4.56-3.742 8.719-2.494zm.005 6.603c0-.799-.063-1.602.018-2.391.086-.842-.305-1.211-1.023-1.479-2.234-.832-4.594.273-5.246 2.494-.766 2.611.5 5.189 2.811 5.725 2.131.494 3.441-.525 3.441-2.674l-.001-1.675zm56.952-120.601h3.434v37.084h-3.434v-37.084zm16.095 122.22H287.26c.436 2.246 2.762 3.396 5.256 2.691a.253.253 0 0 0 .107-.051c1.926-1.525 2.914-.025 3.979 1.23-2.408 2.463-7.262 2.779-10.227.664-2.838-2.023-3.875-6.051-2.367-9.189 1.576-3.277 5.465-5.021 8.932-3.979 3.25.978 6.106 3.972 5.254 8.634zm-3.718-2.949c-.395-1.666-2.031-2.945-3.672-2.9-1.387.037-3.428 1.15-3.58 2.9h7.252zm-93.366 8.627c-1.328-.217-2.594.313-3.699-.373-1.311.191-2.697.52-4.092.568-2.279.082-3.789-1.176-4.303-3.342-.451-1.902.504-4.031 2.5-4.758 1.492-.543 3.16-.615 4.754-.869.379-.059.777-.008 1.197-.008.141-1.066-.266-1.773-1.064-2.18-1.758-.893-3.389-.477-5.004.736l-1.846-2.174c1.268-1.705 4.643-2.672 7.348-1.977 2.357.605 4.041 2.52 4.176 5.207.151 2.984.033 5.981.033 9.17zm-3.564-6.473c-1.529.273-2.848.377-4.074.771-1.057.338-1.289 1.426-.686 2.236.797 1.07 3.971.934 4.66-.207.076-.127.094-.303.096-.457.01-.667.004-1.335.004-2.343zm64.865-2.308c-.309-2.842-2.912-3.438-6.041-1.521-.684-.674-1.379-1.355-2.115-2.078 2.418-2.02 5.053-2.791 8.039-1.801 2.246.748 3.568 2.58 3.635 4.953.072 2.674.086 5.352.113 8.027.004.346-.053.695-.094 1.178-1.23-.223-2.479.412-3.457-.342-1.529.197-3.039.504-4.557.559-1.877.066-3.445-1.195-3.926-2.906-.539-1.93.115-4.063 1.854-4.865 1.402-.645 3.014-.861 4.551-1.182.608-.128 1.264-.022 1.998-.022zm-.023 2.431c-1.197.131-2.355.162-3.467.406-.834.184-1.568.703-1.482 1.74.084 1.027.852 1.395 1.729 1.51 2.456.319 3.683-.978 3.22-3.656zm-11.379 6.258h-3.328c0-2.791.016-5.535-.006-8.279-.012-1.672-.943-3.045-2.387-3.078-1.002-.025-2.043.455-3.008.85-.236.096-.344.742-.348 1.137-.027 3.072-.016 6.146-.016 9.32h-3.479v-14.057c1.195.295 2.576-.611 3.799.682 1.559-.994 3.377-1.426 5.385-.766 1.85.609 3.186 1.914 3.314 3.725.248 3.443.074 6.915.074 10.466zm-70.479 2.77c2.373.26 3.063-.377 3.068-2.771.01-4.232.002-8.465.002-12.697v-1.346h3.525c.025.35.068.693.068 1.037.004 4.393.029 8.785-.016 13.176a10.89 10.89 0 0 1-.438 2.936c-.635 2.133-2.107 3.123-4.301 2.939-.35-.029-.803-.402-.965-.734-.38-.78-.617-1.632-.943-2.54zm27.27-2.772h-3.439v-14.002h3.428l.131 1.121c1.182-1.207 2.404-2.037 4.074-1.447.225.08.449.164.66.27 1.848.932 1.939 1.264.832 3.002-.275.432-.563.855-.887 1.348-.213-.141-.393-.219-.518-.348-.746-.773-1.656-1.275-2.672-.801-1.096.514-1.551 1.566-1.557 2.77-.014 2.438-.004 4.875-.006 7.313-.001.231-.027.464-.046.774zm27.596-.013h-3.447v-14h3.447v14zm.085-20.223v3.662h-3.559v-3.662h3.559zm-51.896-.039h3.541v3.67h-3.541v-3.67z"/><path fill="#FFF" d="M225.147 301.368v1.676c0 2.148-1.311 3.168-3.441 2.674-2.311-.535-3.576-3.113-2.811-5.725.652-2.221 3.012-3.326 5.246-2.494.719.268 1.109.637 1.023 1.479-.079.789-.017 1.591-.017 2.39z"/></g></svg>