<svg xmlns="http://www.w3.org/2000/svg" width="889.055" height="246.694" xml:space="preserve"><path fill-rule="evenodd" clip-rule="evenodd" d="M533.002-2.06c-12.97 5.022-25.941 10.043-38.91 15.069-2.004.777-4 1.577-7.435 2.934l402.398 151.149-.221 1.002h-19.319c-19.167 0-38.335.059-57.502-.066-2.755-.018-5.659-.51-8.235-1.476-118.46-44.435-236.885-88.964-355.368-133.339-2.351-.88-5.615-.84-7.978.045-118.481 44.384-236.911 88.91-355.358 133.387-1.841.691-3.836 1.374-5.761 1.381-26.326.091-52.652.062-79.313-.854 1.931-.764 3.851-1.556 5.794-2.286C152.052 109.925 298.313 54.972 444.566 0c1.517-.57 2.946-1.368 4.417-2.06h84.019zm-29.721 198.744c-.723 16.562-1.444 33.124-2.178 49.92H488.59l3.742-66.477h18.52l11.031 44.853c1.13-4.501 2.067-8.503 3.142-12.468 2.648-9.767 5.425-19.501 7.998-29.288.661-2.515 1.804-3.532 4.478-3.413 4.623.206 9.263.057 14.379.057l3.34 66.711h-13.329l-1.622-51.202c-.686 1.851-1.084 2.721-1.336 3.633-4.01 14.558-8.132 29.086-11.921 43.7-1.195 4.606-4.491 2.813-7.146 3.137-2.661.326-4.562-.016-5.314-3.446-2.991-13.611-6.335-27.146-9.554-40.707-.409-1.72-.856-3.43-1.286-5.144-.145.044-.287.089-.431.134zm-65.35 21.625c-9.1 8.21-3.047 18.751-5.694 28.145h-12.756v-66.136h13.363v28.715c5.689-9.255 10.739-17.166 15.441-25.28 1.727-2.979 3.703-4.229 7.134-3.952 3.624.294 7.29.066 11.982.066-4.175 6.03-7.247 12.046-11.763 16.644-8.056 8.201-7.534 15.578-1.233 24.582 5.377 7.686 9.219 16.444 14.292 25.741-5.372 0-9.912.184-14.417-.135-1.063-.075-2.328-1.67-2.953-2.854-3.646-6.902-7.113-13.898-10.679-20.842-.804-1.564-1.759-3.047-2.717-4.694zm-87.72-38.44c5.443 0 10.116-.156 14.765.1 1.32.072 3.441 1.094 3.73 2.102 6.138 21.347 12.066 42.753 18.141 64.526H372.31l-4.801-16.872h-17.17l-4.614 16.97h-13.942c6.176-22.392 12.269-44.488 18.428-66.826zm15.183 38.062-6.748-26.459-6.199 26.459h12.947zm-99.299-37.865h36.532v11.869h-22.766v14.045h21.654v11.946h-21.778v16.101h24.032v12.559h-37.674v-66.52zm-34.323 1.365-2.93 11.908c-10.354-3.354-19.783-3.862-26.708 5.412-5.704 7.639-5.386 21.493.097 29.27 4.981 7.065 13.245 8.822 26.462 5.353.702 3.301 1.578 6.567 1.971 9.89.094.79-1.271 2.305-2.229 2.586-18.592 5.448-42.199.322-44.343-28.17-1.022-13.598 2.362-25.952 14.685-33.833 10.24-6.552 21.233-6.241 32.995-2.416zm369.076 65.249h-11.287l-1.429-4.289c-1.063.775-1.916 1.4-2.771 2.021-5.699 4.145-12.379 4.543-17.689 1.057-4.928-3.236-7.348-9.848-5.946-16.253 1.725-7.883 7.356-12.736 16.523-14.184 2.773-.438 5.563-.773 8.332-1.153-.425-7.616-6.856-8.754-19.108-3.506-.207-.222-.528-.42-.631-.697-3.247-8.876-2.651-9.911 6.708-11.728.814-.158 1.625-.342 2.44-.49 14.675-2.661 23.918 4.092 24.752 18.833.561 9.927.106 19.91.106 30.389zm-13.638-22.51c-4.839-.606-9.448-.311-11.647 4.349-.881 1.865-.179 5.529 1.228 7.087 1.094 1.209 4.793 1.248 6.644.362 4.983-2.386 4.258-7.133 3.775-11.798zm50.338-25.904h13.513v48.278h-10.738l-1.539-5.918c-3.989 4.715-8.701 7.63-14.741 7.139-7.813-.638-13.355-6.474-13.808-15.719-.544-11.107-.129-22.261-.129-33.718h13.396c0 7.632-.038 15.081.02 22.531.021 2.656.123 5.329.456 7.962.458 3.611 2.142 6.529 6.194 6.562 4.355.034 6.818-2.77 7.188-6.854.406-4.463.171-8.985.185-13.482.017-5.475.003-10.95.003-16.781zm49.061 15.06c-1.577-7.165-6.377-8.011-19.874-2.926l-2.491-9.112c8.357-4.231 16.828-5.855 25.62-2.711 6.438 2.302 9.852 7.599 10.089 14.197.399 11.126.109 22.276.109 33.758h-10.738l-1.448-3.857c-2.424 1.422-4.683 3.246-7.263 4.164-7.694 2.738-15.404-.62-18.318-7.63-3.498-8.416.062-18.371 8.502-21.806 4.994-2.031 10.518-2.76 15.812-4.077zm.037 10.728c-8.056-.199-12.212 2.326-12.042 7.303.125 3.658 1.884 5.923 5.898 5.634 5.226-.377 7.33-4.688 6.144-12.937zM408.95 238.63c-.031 5.018-3.625 9.184-7.943 9.208-4.314.023-7.941-4.114-8.012-9.14-.073-5.271 3.676-9.592 8.21-9.463 4.34.125 7.776 4.292 7.745 9.395zm-153.907.157c-.08 5.25-3.527 9.158-7.988 9.053-4.347-.102-7.989-4.341-7.976-9.284.013-5.129 4.039-9.552 8.472-9.308 4.497.247 7.573 4.164 7.492 9.539zm54.806-.609c.121-5.158 3.689-9.076 8.138-8.936 4.322.137 7.875 4.413 7.821 9.414-.053 4.971-3.726 9.15-8.071 9.185-4.631.036-8.018-4.112-7.888-9.663zm386.331-61.312c-3.688 5.147-6.269 9.944-10.024 13.502-1.964 1.86-5.992 1.54-10.597 2.528 3.042-6.008 5.118-10.778 7.889-15.104.678-1.058 3.623-.766 5.54-.896 1.98-.136 3.976-.03 7.192-.03z"/></svg>