<?xml version="1.0" encoding="utf-8"?>
<!-- Generator: Adobe Illustrator 16.0.0, SVG Export Plug-In . SVG Version: 6.00 Build 0)  -->
<!DOCTYPE svg PUBLIC "-//W3C//DTD SVG 1.1//EN" "http://www.w3.org/Graphics/SVG/1.1/DTD/svg11.dtd">
<svg version="1.1" id="Layer_1" xmlns="http://www.w3.org/2000/svg" xmlns:xlink="http://www.w3.org/1999/xlink" x="0px" y="0px"
	 width="889.055px" height="246.694px" viewBox="0 0 889.055 246.694" enable-background="new 0 0 889.055 246.694"
	 xml:space="preserve">
<path fill-rule="evenodd" clip-rule="evenodd" d="M533.002-2.06c-12.97,5.022-25.941,10.043-38.91,15.069
	c-2.004,0.777-4,1.577-7.435,2.934C621.564,66.617,755.31,116.854,889.055,167.092c-0.073,0.334-0.147,0.668-0.221,1.002
	c-6.439,0-12.88,0-19.319,0c-19.167,0-38.335,0.059-57.502-0.066c-2.755-0.018-5.659-0.51-8.235-1.476
	C685.318,122.117,566.893,77.588,448.41,33.213c-2.351-0.88-5.615-0.84-7.978,0.045c-118.481,44.384-236.911,88.91-355.358,133.387
	c-1.841,0.691-3.836,1.374-5.761,1.381c-26.326,0.091-52.652,0.062-79.313-0.854c1.931-0.764,3.851-1.556,5.794-2.286
	C152.052,109.925,298.313,54.972,444.566,0c1.517-0.57,2.946-1.368,4.417-2.06C476.989-2.06,504.996-2.06,533.002-2.06z"/>
<path fill-rule="evenodd" clip-rule="evenodd" d="M503.281,196.684c-0.723,16.562-1.444,33.124-2.178,49.92
	c-4.299,0-8.042,0-12.513,0c1.254-22.265,2.491-44.25,3.742-66.477c6.138,0,11.912,0,18.52,0
	c3.577,14.545,7.205,29.293,11.031,44.853c1.13-4.501,2.067-8.503,3.142-12.468c2.648-9.767,5.425-19.501,7.998-29.288
	c0.661-2.515,1.804-3.532,4.478-3.413c4.623,0.206,9.263,0.057,14.379,0.057c1.121,22.386,2.223,44.389,3.34,66.711
	c-4.542,0-8.478,0-13.329,0c-0.526-16.611-1.056-33.315-1.622-51.202c-0.686,1.851-1.084,2.721-1.336,3.633
	c-4.01,14.558-8.132,29.086-11.921,43.7c-1.195,4.606-4.491,2.813-7.146,3.137c-2.661,0.326-4.562-0.016-5.314-3.446
	c-2.991-13.611-6.335-27.146-9.554-40.707c-0.409-1.72-0.856-3.43-1.286-5.144C503.567,196.594,503.425,196.639,503.281,196.684z"/>
<path fill-rule="evenodd" clip-rule="evenodd" d="M437.931,218.309c-9.1,8.21-3.047,18.751-5.694,28.145c-3.947,0-8.16,0-12.756,0
	c0-21.898,0-43.79,0-66.136c4.2,0,8.531,0,13.363,0c0,9.194,0,18.238,0,28.715c5.689-9.255,10.739-17.166,15.441-25.28
	c1.727-2.979,3.703-4.229,7.134-3.952c3.624,0.294,7.29,0.066,11.982,0.066c-4.175,6.03-7.247,12.046-11.763,16.644
	c-8.056,8.201-7.534,15.578-1.233,24.582c5.377,7.686,9.219,16.444,14.292,25.741c-5.372,0-9.912,0.184-14.417-0.135
	c-1.063-0.075-2.328-1.67-2.953-2.854c-3.646-6.902-7.113-13.898-10.679-20.842C439.844,221.439,438.889,219.956,437.931,218.309z"
	/>
<path fill-rule="evenodd" clip-rule="evenodd" d="M350.211,179.869c5.443,0,10.116-0.156,14.765,0.1
	c1.32,0.072,3.441,1.094,3.73,2.102c6.138,21.347,12.066,42.753,18.141,64.526c-5.077,0-9.662,0-14.537,0
	c-1.59-5.589-3.169-11.137-4.801-16.872c-5.632,0-11.094,0-17.17,0c-1.502,5.524-3.044,11.199-4.614,16.97
	c-4.541,0-8.845,0-13.942,0C337.959,224.303,344.052,202.207,350.211,179.869z M365.394,217.931
	c-2.227-8.73-4.337-17.006-6.748-26.459c-2.246,9.587-4.187,17.871-6.199,26.459C356.828,217.931,360.615,217.931,365.394,217.931z"
	/>
<path fill-rule="evenodd" clip-rule="evenodd" d="M266.095,180.066c12.368,0,24.298,0,36.532,0c0,3.927,0,7.66,0,11.869
	c-7.493,0-14.914,0-22.766,0c0,4.832,0,9.208,0,14.045c7.185,0,14.272,0,21.654,0c0,4.036,0,7.628,0,11.946
	c-7.09,0-14.286,0-21.778,0c0,5.64,0,10.564,0,16.101c7.99,0,15.873,0,24.032,0c0,4.5,0,8.393,0,12.559c-12.633,0-25.02,0-37.674,0
	C266.095,224.396,266.095,202.488,266.095,180.066z"/>
<path fill-rule="evenodd" clip-rule="evenodd" d="M231.772,181.431c-1.107,4.501-2,8.129-2.93,11.908
	c-10.354-3.354-19.783-3.862-26.708,5.412c-5.704,7.639-5.386,21.493,0.097,29.27c4.981,7.065,13.245,8.822,26.462,5.353
	c0.702,3.301,1.578,6.567,1.971,9.89c0.094,0.79-1.271,2.305-2.229,2.586c-18.592,5.448-42.199,0.322-44.343-28.17
	c-1.022-13.598,2.362-25.952,14.685-33.833C209.017,177.295,220.01,177.606,231.772,181.431z"/>
<path fill-rule="evenodd" clip-rule="evenodd" d="M600.848,246.68c-3.927,0-7.387,0-11.287,0c-0.373-1.121-0.813-2.438-1.429-4.289
	c-1.063,0.775-1.916,1.4-2.771,2.021c-5.699,4.145-12.379,4.543-17.689,1.057c-4.928-3.236-7.348-9.848-5.946-16.253
	c1.725-7.883,7.356-12.736,16.523-14.184c2.773-0.438,5.563-0.773,8.332-1.153c-0.425-7.616-6.856-8.754-19.108-3.506
	c-0.207-0.222-0.528-0.42-0.631-0.697c-3.247-8.876-2.651-9.911,6.708-11.728c0.814-0.158,1.625-0.342,2.44-0.49
	c14.675-2.661,23.918,4.092,24.752,18.833C601.303,226.218,600.848,236.201,600.848,246.68z M587.21,224.17
	c-4.839-0.606-9.448-0.311-11.647,4.349c-0.881,1.865-0.179,5.529,1.228,7.087c1.094,1.209,4.793,1.248,6.644,0.362
	C588.418,233.582,587.693,228.835,587.21,224.17z"/>
<path fill-rule="evenodd" clip-rule="evenodd" d="M637.548,198.266c4.929,0,9.02,0,13.513,0c0,16.158,0,32.056,0,48.278
	c-3.568,0-7,0-10.738,0c-0.448-1.723-0.937-3.601-1.539-5.918c-3.989,4.715-8.701,7.63-14.741,7.139
	c-7.813-0.638-13.355-6.474-13.808-15.719c-0.544-11.107-0.129-22.261-0.129-33.718c4.373,0,8.596,0,13.396,0
	c0,7.632-0.038,15.081,0.02,22.531c0.021,2.656,0.123,5.329,0.456,7.962c0.458,3.611,2.142,6.529,6.194,6.562
	c4.355,0.034,6.818-2.77,7.188-6.854c0.406-4.463,0.171-8.985,0.185-13.482C637.562,209.572,637.548,204.097,637.548,198.266z"/>
<path fill-rule="evenodd" clip-rule="evenodd" d="M686.609,213.326c-1.577-7.165-6.377-8.011-19.874-2.926
	c-0.811-2.964-1.607-5.879-2.491-9.112c8.357-4.231,16.828-5.855,25.62-2.711c6.438,2.302,9.852,7.599,10.089,14.197
	c0.399,11.126,0.109,22.276,0.109,33.758c-3.059,0-6.817,0-10.738,0c-0.476-1.266-0.998-2.659-1.448-3.857
	c-2.424,1.422-4.683,3.246-7.263,4.164c-7.694,2.738-15.404-0.62-18.318-7.63c-3.498-8.416,0.062-18.371,8.502-21.806
	C675.791,215.372,681.315,214.643,686.609,213.326z M686.646,224.054c-8.056-0.199-12.212,2.326-12.042,7.303
	c0.125,3.658,1.884,5.923,5.898,5.634C685.728,236.614,687.832,232.303,686.646,224.054z"/>
<path fill-rule="evenodd" clip-rule="evenodd" d="M408.95,238.63c-0.031,5.018-3.625,9.184-7.943,9.208
	c-4.314,0.023-7.941-4.114-8.012-9.14c-0.073-5.271,3.676-9.592,8.21-9.463C405.545,229.36,408.981,233.527,408.95,238.63z"/>
<path fill-rule="evenodd" clip-rule="evenodd" d="M255.043,238.787c-0.08,5.25-3.527,9.158-7.988,9.053
	c-4.347-0.102-7.989-4.341-7.976-9.284c0.013-5.129,4.039-9.552,8.472-9.308C252.048,229.495,255.124,233.412,255.043,238.787z"/>
<path fill-rule="evenodd" clip-rule="evenodd" d="M309.849,238.178c0.121-5.158,3.689-9.076,8.138-8.936
	c4.322,0.137,7.875,4.413,7.821,9.414c-0.053,4.971-3.726,9.15-8.071,9.185C313.106,247.877,309.719,243.729,309.849,238.178z"/>
<path fill-rule="evenodd" clip-rule="evenodd" d="M696.18,176.866c-3.688,5.147-6.269,9.944-10.024,13.502
	c-1.964,1.86-5.992,1.54-10.597,2.528c3.042-6.008,5.118-10.778,7.889-15.104c0.678-1.058,3.623-0.766,5.54-0.896
	C690.968,176.76,692.964,176.866,696.18,176.866z"/>
</svg>
