<svg xmlns="http://www.w3.org/2000/svg" width="370.317" height="438.926" xml:space="preserve"><g fill-rule="evenodd" clip-rule="evenodd"><path d="M296.364 134.076c-3.622.705-5.651 3.062-7.025 6.042-2.613 5.66-2.938 11.726-2.412 17.776 1.082 12.46 2.656 24.881 3.616 37.348.755 9.795.927 19.635 1.289 29.458.203 5.456.328 10.917.34 16.377.002.97-.727 1.942-1.119 2.913l-1.112-.247-8.008-80.864c-2.988 1.165-4.782 3.087-6.166 5.356-2.65 4.347-3.731 9.197-3.627 14.21.224 10.832 1.066 21.665.924 32.489-.14 10.65-1.148 21.291-1.886 31.929-.072 1.051-.712 2.203-1.406 3.045-3.397 4.112-6.295 8.474-7.856 13.647-.23.763-.938 1.65-1.65 1.961-26.812 11.663-42.915 32.517-51.247 59.913-5.499 18.084-6.396 36.625-4.665 55.35.425 4.593.938 9.177 1.426 13.934h-7.803c-.491-4.955-1.223-9.925-1.435-14.916-.905-21.41 1.19-42.425 8.943-62.604 9.5-24.727 25.855-43.297 49.638-55.21 1.029-.516 1.973-1.534 2.554-2.548 2.574-4.487 4.354-9.47 8.466-12.972.385-.327.406-1.214.406-1.841 0-22.454.084-44.909-.098-67.362-.074-9.191 4.061-15.524 11.976-19.602 1.998-1.029 2.944-2.089 2.906-4.497-.08-5.117.239-10.241.44-15.36.106-2.66 1.575-4.661 3.689-5.987 3.102-1.945 6.389-3.591 9.545-5.336.332-2.847.426-5.897 1.081-8.823 1.641-7.326 5.213-10.227 13.062-10.94 1.583-.144 3.226-.236 4.774.031 1.053.182 2.449.782 2.905 1.622 4.353 8.02 8.562 16.119 12.744 24.231.567 1.1.761 2.393 1.162 3.713.612.058 1.271.085 1.919.188 2.984.467 5.007 1.722 6.247 4.888 9.136 23.341 16.051 47.285 19.883 72.067 2.354 15.237 3.178 30.574 1.574 45.96-1.065 10.236-3.564 20.147-7.578 29.622-3.855 9.099-7.763 18.187-12.015 27.104-5.307 11.126-13.841 18.865-25.24 23.813-7.199 3.125-14.371 6.674-20.809 11.114-11.572 7.984-17.57 19.785-20.065 33.43-.603 3.292-.847 6.649-1.281 10.188h-10.897c1.214-5.588 2.162-11.164 3.66-16.588 2.818-10.208 6.938-19.805 14.631-27.447.949-.943 1.919-1.994 3.09-2.56 2.389-1.154 3.098-2.876 3.276-5.476.544-7.866 3.558-15.064 7.618-21.636 5.505-8.907 11.662-17.411 17.514-26.106 2.295-3.409 4.512-6.872 6.78-10.298 3.649-5.509 3.955-12.026 5.509-18.168 1.97-7.784 3.66-15.625 7.071-23.005 1.407-3.046 2.073-6.549 2.473-9.916.403-3.391-.744-4.397-4.087-5.175-6.906-1.604-12.281.997-16.282 6.395-2.118 2.858-3.996 6.098-5.123 9.453-4.346 12.957-11.965 23.909-20.045 34.7-3.343 4.464-7.449 6.418-12.705 7.844-26.619 7.218-42.039 25.31-48.65 51.557-.41 1.625-.714 3.277-1.026 4.925-.286 1.501-.517 3.011-.771 4.518l-.703-.087c.338-4.107.467-8.246 1.051-12.318 2.061-14.4 8.021-26.979 18.421-37.219 9.653-9.507 21.264-15.762 34.334-19.17 3.205-.835 4.928-3.101 6.782-5.284 5.986-7.05 9.858-15.316 13.578-23.71 2.401-5.423 5.502-10.533 8.229-15.815.435-.841.84-1.87.771-2.774-.844-11.054-1.688-22.108-2.723-33.146-.775-8.271-1.673-16.537-2.798-24.767-1.717-12.548-3.676-25.062-5.542-37.588-.083-.558-.274-1.098-.442-1.749zm-.779 205.96c4.306-1.594 8.373-3.374 12.604-4.583 3.572-1.02 6.735-2.545 9.426-5.039 3.451-3.201 6.627-6.736 10.312-9.629 3.125-2.454 5.604-5.275 7.508-8.67 7.245-12.919 12.724-26.646 17.279-40.659 4.272-13.14 3.92-26.924 2.369-40.472-1.572-13.728-3.812-27.403-6.359-40.989-2.347-12.511-5.527-24.868-10.624-36.613-2.035-4.689-4.276-9.303-8.414-13.096-2.46 1.551-4.911 3.121-7.389 4.65-1.748 1.08-2.479 2.574-2.327 4.644.637 8.707 1.021 17.436 1.859 26.123 1.08 11.192 2.487 22.354 3.794 33.524.523 4.474 1.155 8.934 1.745 13.456.666 0 1.08-.003 1.495.001 5.846.054 9.266 2.819 9.712 8.613.252 3.284-.15 6.706-.82 9.95-.792 3.84-2.202 7.553-3.323 11.327-1.764 5.939-4.134 11.782-5.129 17.85-1.851 11.288-7.01 20.876-13.5 29.963-3.849 5.389-8.03 10.57-11.49 16.196a64.287 64.287 0 0 0-8.728 23.453zm27.486-117.382c-.995-5.702-2.346-11.334-2.907-17.043-1.839-18.703-3.403-37.433-5.013-56.158-.07-.827.19-1.922.719-2.522 2.954-3.354 6.037-6.593 9.519-10.35-2.479-5.701-5.188-12.278-8.185-18.721-2.664-5.727-3.834-8.982-11.605-3.542-.136.096-.268.258-.413.273-2.495.247-2.945 2.181-3.32 4.103-.256 1.311-.563 2.673-.461 3.982.627 8.018.799 16.126 2.177 24.021 3.593 20.58 7.087 41.155 8.023 62.061.291 6.499.045 13.023.045 19.818 3.46-3.202 7.003-5.832 11.421-5.922zM108.014 394.767H97.592c-.608-4.275-.946-8.54-1.852-12.681-3.874-17.713-14.239-30.213-30.73-37.702-4.731-2.149-9.417-4.399-14.099-6.655-8.055-3.881-14.213-9.856-18.537-17.596-8.988-16.091-16.296-32.905-20.262-50.975-2.554-11.635-2.843-23.478-2.099-35.355 2.035-32.486 10.672-63.379 22.426-93.536.693-1.778 1.858-2.749 3.528-3.221 1.356-.383 2.773-.554 4.171-.821 2.972-10.149 8.602-19.005 13.997-27.964.493-.818 1.952-1.569 2.907-1.506 3.57.233 7.283.302 10.633 1.387 5.337 1.73 6.67 6.684 7.547 11.586.412 2.301-.259 5.15.886 6.865 1.064 1.593 3.959 1.887 5.923 2.979 1.599.89 3.073 2.04 4.491 3.208 1.785 1.472 2.485 3.398 2.496 5.776.024 5.123.294 10.245.467 15.366.046 1.383.313 2.44 1.846 3.165 9.337 4.418 13.529 11.601 13.104 22.188-.549 13.688-.138 27.413-.139 41.122-.001 7.906-.053 15.812.063 23.717.016 1.071.766 2.196 1.36 3.187 2.408 4.012 4.85 8.006 7.37 11.946.641 1.003 1.451 2.125 2.464 2.632 28.682 14.313 45.826 37.749 54.033 68.237 3.599 13.371 5.077 27.055 4.977 40.86-.052 7.205-.919 14.404-1.453 21.604-.053.726-.339 1.434-.518 2.153h-7.54c.464-4.067.99-7.96 1.339-11.868 2.242-25.105.638-49.723-10.385-72.889-9.617-20.211-24.328-35.429-45.126-44.387-.766-.33-1.41-1.222-1.84-2.001-2.054-3.729-3.53-7.896-6.146-11.158-2.542-3.17-3.655-6.42-3.821-10.263-.492-11.41-1.28-22.815-1.417-34.23-.09-7.456.882-14.919 1.137-22.387.217-6.353-.396-12.647-4.234-18.035-1.295-1.817-3.191-3.208-4.813-4.794l-.824.445-7.996 80.618-.987.215c-.392-.917-1.14-1.84-1.122-2.749.216-11.427.308-22.862.904-34.271.608-11.651 1.742-23.275 2.64-34.912.529-6.857 1.222-13.708 1.51-20.576.199-4.749-.837-9.344-3.518-13.422-1.397-2.127-3.252-3.58-5.955-4.013-1.016 7.355-1.963 14.669-3.052 21.962-1.201 8.044-2.765 16.04-3.748 24.107-1.199 9.834-2.014 19.716-2.887 29.586-.629 7.111-1.127 14.235-1.567 21.361-.065 1.069.324 2.271.818 3.254 2.75 5.457 5.844 10.752 8.354 16.314 4.264 9.447 8.649 18.774 16.259 26.096.966.93 2.318 1.638 3.617 2.014 19.826 5.738 36.039 16.272 46.012 34.907 5.999 11.207 8.091 23.333 7.58 35.964-1.053-8.314-2.991-16.391-6.273-24.123-9.433-22.226-26.288-35.255-49.699-40.215-1.083-.229-2.371-.658-3.053-1.44-9.544-10.935-18.042-22.583-23.208-36.294-1.964-5.215-3.854-10.381-7.782-14.507-4.536-4.763-9.886-6.333-16.251-4.348-1.687.526-2.451 1.498-2.657 3.206-.493 4.085.647 7.874 2.297 11.453 4.643 10.076 6.768 20.831 8.889 31.599 1.148 5.829 4.186 10.771 7.482 15.535 5.636 8.144 11.682 16.014 17.091 24.303 5.145 7.885 9.707 16.27 10.801 25.773.477 4.143 2.153 6.43 5.206 8.932 8.149 6.682 12.324 16.021 15.281 25.837 1.758 5.838 2.769 11.903 4.092 17.872.103.462.014.963.014 1.563zM43.412 222.619c.188-.942.416-1.758.505-2.588 2.355-21.951 4.615-43.912 7.094-65.85.624-5.527-.901-9.371-6.134-11.779-4.617-2.126-3.624-3.07-7.013 1.688-4.626 6.495-7.305 13.949-9.541 21.527-6.445 21.854-11.018 44.08-12.642 66.842-1.166 16.331-1.309 32.555 5.66 47.97 4.484 9.918 8.579 20.017 13.182 29.879 1.459 3.127 3.712 6.02 6.104 8.544 3.396 3.582 7.153 6.85 10.956 10.011 2.555 2.124 5.247 4.315 8.25 5.617 4.996 2.165 10.291 3.64 15.404 5.386-.019-.143-.057-.718-.175-1.274-2.909-13.686-9.372-25.578-18.289-36.229-6.719-8.026-11.523-17.068-14.287-27.163-1.878-6.859-3.652-13.748-5.457-20.628-1.654-6.308-3.894-12.537-4.763-18.952-.936-6.899 1.173-13.46 11.146-13.001zm1.777-85.14c.959.619 1.602.999 2.208 1.43 5.62 3.991 9.181 8.515 8.059 16.344-1.604 11.191-1.828 22.574-2.934 33.847-1.101 11.229-1.861 22.531-5.064 33.568 4.666.027 8.117 2.689 11.621 5.63 0-5.146-.112-10.005.02-14.856.559-20.683 3.735-41.052 7.232-61.398 1.489-8.663 2.521-17.426 3.267-26.185.687-8.065-1.074-10.69-7.604-13.596-2.955-1.315-4.747-.843-6.359 1.908a59.193 59.193 0 0 0-3.213 6.26c-2.466 5.652-4.825 11.352-7.233 17.048z"/><path d="M212.257 251.933c2.633 2.083 4.961 4.304 7.637 5.96 4.744 2.937 9.791 3.274 14.877.67 3.116-1.595 5.401-5.516 4.907-8.646-.566-3.592-3.176-5.128-6.351-6.002-6.023-1.659-12.018-.432-18.022.183-19.56 2-39.079 4.732-58.801 4.231-6.267-.159-12.628-.724-18.742-2.048-12.702-2.753-18.17-11.21-20.012-22.705-1.05-6.558-1.454-13.198 1.218-19.559 4.737-11.277 13.491-18.079 24.718-22.179 11.639-4.249 23.781-5.788 36.006-6.946.329-.031.656-.075 1.169-.135-.46-2.675-2.242-4.24-4.448-4.949-2.519-.81-5.232-1.015-7.863-1.469-2.631-.455-5.384-.553-7.867-1.426-3.113-1.095-4.879-3.67-4.581-7.07.283-3.222 1.736-5.893 4.957-7.201 1.718-.697 2.491-1.85 3.266-3.67 1.24-2.917 3.368-5.532 5.466-7.979 1.102-1.284 1.484-2.13.685-3.661-.927-1.776-1.504-3.731-2.357-5.55-1.05-2.239-2.333-4.714.399-6.325 1.539-.907 3.777-.625 5.701-.879l.247.778c.16-.683.206-1.419.497-2.04 1.915-4.073 2.574-4.427 6.592-2.145 4.662 2.648 9.121 5.657 13.656 8.529.751.475 1.438 1.052 2.295 1.688 2.69-24.639 16.177-42.989 32.497-59.755l.832.304-.837 8.982c2.646-2.287 4.64-4.33 6.957-5.893 1.375-.926 3.26-1.094 4.915-1.604-.575 1.469-1.113 2.953-1.732 4.402-1.3 3.046-2.817 6.011-3.918 9.125-1.142 3.228.149 5.844 2.749 7.937 7.138 5.744 15.42 9.132 24.068 11.766 4.779 1.456 5.057 1.745 2.617 6.274a50.507 50.507 0 0 1-5.756 8.5c-3.128 3.718-7.326 5.294-12.247 5.514-3.114.139-6.328.773-9.244 1.864-3.127 1.171-3.567 3.162-2.303 6.231 3.762 9.141 5.354 18.682 4.627 28.509-.517 6.973-2.506 13.62-5.723 19.883-4.049 7.885-8.29 15.673-10.508 24.376-1.445 5.667-.749 10.927 1.868 16.045 2.305 4.505 2.302 4.506-1.252 8.575-3.367-4.764-5.227-9.821-5.087-15.666.21-8.761 4.179-16.258 7.636-23.963 2.798-6.238 6.231-12.352 7.921-18.896 3.083-11.945 1.233-23.751-3.438-35.149-.569-1.389-.78-3.393-.214-4.705 3.633-8.41 8.109-12.892 17.844-12.72 6.598.115 11.179-2.862 13.098-8.185-4.153-1.497-8.514-2.595-12.415-4.587-5.652-2.885-11.448-5.841-16.306-9.833-4.98-4.091-7.946-9.911-7.961-16.748-.002-.721 0-1.441 0-2.162l-.67-.357c-3.535 4.413-7.262 8.686-10.563 13.266-6.444 8.939-10.961 18.799-12.804 29.725a46.066 46.066 0 0 0-.594 10.011c.093 1.74.988 3.748 2.156 5.072 9.889 11.199 14.126 24.252 12.769 39.019-.755 8.214-3.327 16.009-6.858 23.485-2.227 4.714-4.426 9.626-3.52 14.932.549 3.218-.916 4.929-2.852 7.054-1.688-2.486-1.72-5.16-1.07-7.568 1.254-4.658 2.691-9.317 4.608-13.734 3.718-8.559 6.233-17.397 6.128-26.714-.129-11.472-4.277-21.6-11.758-30.319-5.77-6.72-12.721-11.951-20.504-16.113-.354-.189-.752-.291-1.434-.548.219 4.896-.877 9.217-4.106 12.708-1.645 1.776-3.602 3.262-5.355 4.943-.71.681-1.564 1.441-1.827 2.321-1.348 4.529-4.072 8.017-7.842 10.857.866 2.705 2.997 3.9 5.442 4.303 3.386.56 6.85.622 10.252 1.097 6.024.843 9.59 4.96 9.5 10.74-.049 3.272-2.816 6.055-6.025 6.323-14.167 1.185-28.281 2.725-41.466 8.587-2.823 1.255-5.503 2.891-8.1 4.582-7.382 4.807-9.394 12.095-8.9 20.341.169 2.818.769 5.626 1.356 8.398 2.407 11.36 9.84 17.379 20.943 19.202 12.019 1.974 24.125 1.928 36.211.812 15.731-1.452 31.431-3.232 47.168-4.613 3.278-.287 6.746.187 9.97.961 5.418 1.302 7.848 4.842 6.771 10.311-1.196 6.084-4.2 11.352-9.718 14.666-5.282 3.173-10.744 2.986-16.077.066-1.753-.959-3.398-2.188-4.908-3.506-4.071-3.556-4.043-4.021-.26-8.186zm23.988-172.254c-5.448 3.292-5.8 4.05-3.56 7.5l3.56-7.5zm-61.727 56.727c1.222-3.437.871-4.245-2.912-7.043l2.912 7.043zM152.12 78.063c2.543-5.487 4.793-10.362 9.815-13.403l1.3 1.774c.38-.451.712-.795.988-1.179 2.748-3.828 6.203-6.63 11.014-7.274 1.065-.143 2.201.248 3.304.393-.408 1.035-.658 2.177-1.269 3.073-.626.918-1.477 1.983-2.453 2.305-3.092 1.02-3.176 3.49-2.556 5.717 2.253 8.08.104 15.552-2.622 23.007-.225.613-.414 1.241-.643 1.932 3.976.788 7.094-.111 9.237-3.616.654-1.066 1.469-2.052 2.314-2.979 3.115-3.414 6.755-3.21 9.596.42 1.744 2.229 3.592 4.376 5.562 6.764-1.159 1.856-2.511 3.62-5.345 4.219-1.884.397-3.512 2.011-5.575 3.277.224-3.11 2.63-4.61 4.516-6.809-1.323-1.585-2.534-3.399-4.102-4.817-1.832-1.657-3.649-1.284-5.166.669-1.28 1.648-2.542 3.312-3.958 5.161 1.553.94 3.045 1.979 4.653 2.788 2.462 1.236 3.019 2.996 2.213 5.578-2.843 9.105-9.181 14.593-17.955 17.572-12.073 4.1-23.311 2.908-33.437-5.361-.5-.408-1.609-.355-2.333-.154-2.162.6-4.239 1.535-6.419 2.024-1.073.242-2.34-.076-3.453-.378-2.332-.634-4.467-2.044-4.496-4.493-.02-1.708 1.417-3.434 2.118-4.966 1.735 1.865 2.838 3.811 4.497 4.623 1.72.842 3.979.586 6.001.81l.215-.701c-1.917-2.468-3.938-4.863-5.728-7.42-2.624-3.752-2.422-4.704 1.077-7.889l9.958 12.246 3.772-2.679c-.788-.927-1.708-1.643-2.126-2.583-.758-1.708-2.072-3.812-1.621-5.281.923-3.01-.092-5.528-.782-8.167-.811-3.102.061-5.74 1.56-8.384.579-1.022 1.041-2.29 1.025-3.438-.057-4.176.744-7.971 3.743-11.107.47-.491.632-1.306.863-1.995 2.114-6.296 5.604-11.319 12.536-12.791 1.389-.295 2.989.41 4.492.652-.52 1.23-1.013 2.473-1.578 3.684-.17.364-.481.753-.83.929-5.255 2.641-4.456 7.377-3.937 11.852.238 2.022 1.222 3.96 2.015 6.395zm4.289 30.478c.515-.833.729-1.385 1.111-1.767 2.58-2.572 2.616-5.556 1.096-8.532-1.634-3.198-3.572-6.243-5.427-9.325-1.427-2.37-3.145-4.589-4.364-7.058-3.746-7.587-4.554-15.057 1.578-21.986.169-.192.167-.536.268-.888-5.504.652-7.759 2.915-7.726 8.163.016 2.439-1.261 4.098-2.792 5.346-1.109.905-1.264 1.693-1.347 2.86-.14 1.967.281 4.471-.756 5.782-2.95 3.727-2.625 7.341-1.043 11.309.338.847.67 2.08.305 2.757-1.505 2.781-.696 5.087 1.234 7.091 1.382 1.436 3.116 2.525 4.627 3.845.49.428 1.157 1.53 1.093 1.587-1.383 1.216-1.578 3.821-4.398 3.455-1.293-.169-2.709.607-4.588 1.088 1.14.889 1.648 1.313 2.184 1.699 12.765 9.188 29.207 5.313 38.25-1.309 1.407-1.031 2.51-2.685 3.283-4.279.36-.74-.086-2.637-.714-2.966-3.688-1.934-7.442-3.833-11.364-5.198-2.712-.944-2.95-.816-1.715-3.584 2.795-6.269 4.909-12.786 3.853-19.694-.664-4.338-1.742-8.483 1.527-12.63-6.366 1.282-6.634 7.736-10.758 10.794-.375-1.545-.677-2.792-.981-4.039l-.777-.237c-.853 2.263-1.638 4.555-2.577 6.781-1.253 2.97-.66 5.292 1.439 7.839 3.141 3.814 5.78 8.044 6.329 13.201.432 4.051-2.908 9.296-6.85 9.895zm150.93-61.712c3.578-5.65 7.151-11.301 10.733-16.949 1.258-1.981 4.944-2.132 6.267-.177.263.389.117 1.315-.175 1.782a4552.222 4552.222 0 0 1-15.48 24.438c-1.186 1.862-2.842 1.708-4.661 1.062-2.317-.823-4.342-1.675-4.125-4.803.509-7.359.853-14.729 1.292-22.627-.977 1.577-1.723 2.806-2.491 4.021-3.184 5.031-6.361 10.065-9.565 15.083-1.215 1.903-4.98 1.883-6.161-.087-.241-.404-.043-1.292.254-1.768 5.071-8.102 10.192-16.172 15.297-24.252.992-1.572 2.295-1.988 4.091-1.413 5.176 1.656 5.613 2.332 5.244 8.009-.38 5.848-.666 11.701-.993 17.552l.473.129zm-82.766-11.237c3.799-9.873 7.383-19.355 11.165-28.758.367-.914 2.011-1.959 2.969-1.875 3.243.282 6.468.936 9.655 1.649 5.045 1.129 7.452 3.253 7.644 6.452.285 4.724-2.242 8.651-6.729 10.433-.693.275-1.41.489-1.524.528l1.537 15.795c-2.575-.34-4.47-.437-6.262-.917-.563-.151-1.145-1.313-1.204-2.054-.228-2.842-.135-5.711-.406-8.547-.094-.984-.688-2.115-1.411-2.806-2.001-1.912-3.851-1.395-4.837 1.16-.905 2.346-2.025 4.634-2.665 7.05-.721 2.736-2.272 3.475-4.804 2.803-.945-.25-1.878-.546-3.128-.913zm13.182-15.712c2.985-.226 5.596-.033 7.956-.71 2.372-.68 3.57-4.182 2.606-6.038-.635-1.22-5.649-2.917-6.824-2.251-.314.177-.539.61-.68.973-.937 2.402-1.841 4.816-3.058 8.026zM100.667 32.96c-3.718.708-7.256 1.33-10.763 2.098-.576.126-1.214.802-1.47 1.381-.502 1.137-.749 2.388-1.114 3.587-1.046 3.439-1.597 3.821-5.278 4.188-1.847.185-2.499-.243-1.852-2.211 2.405-7.313 4.713-14.658 7.049-21.993.965-3.028 1.874-6.073 2.875-9.089.654-1.972 7.075-4.193 8.737-2.996.487.351.764 1.088.98 1.704 3.08 8.761 6.142 17.527 9.185 26.301.87 2.509.52 3.062-2.08 3.582-3.754.75-3.749.748-5.008-2.99-.371-1.103-.775-2.193-1.261-3.562zm-5.926-18.022-4.432 14.674 8.813-1.792-4.381-12.882zm-67.6 44.154c.573-3.021 1.123-6.025 1.715-9.021 1.578-7.981 3.237-15.946 4.722-23.944.404-2.179 1.334-3.502 3.537-3.931.98-.191 1.965-.481 2.873-.891 1.771-.801 2.617.063 3.327 1.546 4.053 8.469 8.108 16.937 12.24 25.367.91 1.856.377 2.747-1.437 3.398-3.997 1.437-3.977 1.477-5.767-2.362-.489-1.051-1.018-2.083-1.606-3.283-3.618 1.112-7.142 2.138-10.612 3.32-.535.182-1.003 1.033-1.188 1.666-.35 1.2-.44 2.473-.693 3.704-.739 3.606-2.743 4.955-7.111 4.431zm8.969-15.351 8.546-2.692-5.438-11.545-.552.098-2.556 14.139zm297.922 26.644c.71-.519 1.376-1.122 2.142-1.544a9206.45 9206.45 0 0 1 27.544-15.124c2.201-1.204 7.851.847 8.727 3.247.217.592-.039 1.474-.323 2.115-3.805 8.573-7.69 17.109-11.463 25.696-.887 2.017-1.977 2.133-3.713 1.12-3.533-2.061-3.494-1.99-1.81-5.778 1.708-3.837 2.341-2.941-1.663-5.484-.991-.629-2.101-1.134-2.947-1.92-2.772-2.575-5.33-2.379-8.365-.209-3.066 2.192-5.587 1.383-8.129-2.119zm17.515-3.281 7.533 4.834c1.882-4.051 3.655-7.873 5.751-12.387-4.773 2.715-8.871 5.044-13.284 7.553zm-77.86-28.564c-3.709-1.019-7.24-2.033-10.804-2.916-.497-.123-1.274.272-1.712.662-.873.777-1.699 1.647-2.365 2.605-1.648 2.374-3.707 2.763-6.335 1.792-2.473-.915-2.688-1.276-.933-3.143 5.177-5.5 10.384-10.971 15.591-16.44 2.026-2.127 4.219-4.114 6.091-6.367 1.455-1.751 2.93-2.106 5.058-1.481 5.619 1.652 5.226.94 4.517 6.408-1.09 8.395-1.932 16.822-2.939 25.228-.146 1.213.056 2.868-2.181 2.523-3.893-.602-4.729-1.15-4.557-3.534.126-1.74.366-3.47.569-5.337zm.846-5.307 1.67-12.713-.445-.226-9.714 10.501c.646.271 1.085.517 1.557.643 2.242.6 4.492 1.167 6.932 1.795zm73.1 16.884c-.868-1.296-1.49-2.641-2.478-3.618-2.614-2.589-5.786-3.314-9.26-1.992-4.809 1.833-8.107 5.359-10.174 9.945-1.998 4.435.709 8.502 6.006 9.302 1.637.247 3.307.282 4.965.414-.585 4.653-3.427 5.694-10.361 3.804-.229.569-.508 1.147-.7 1.752-1.299 4.088-4.127 5.394-7.981 3.594-1.056-.494-2.197-1.028-2.958-1.859-.578-.632-.612-1.762-.89-2.67 1.016-.278 2.021-.625 3.055-.798.332-.057.737.488 1.115.498.885.023 2.427.116 2.545-.224.388-1.112.816-2.949.24-3.539-4.037-4.128-4.156-8.705-1.69-13.426 3.836-7.345 9.31-12.76 18.137-13.379 4.772-.334 8.948 1.326 12.293 4.72 2.872 2.915 2.174 5.629-1.864 7.476zM172.988 32.591c.974-4.613 1.901-9.099 2.871-13.575 1.116-5.147 2.321-10.275 3.385-15.433.489-2.371 1.666-3.449 4.173-3.242 2.921.242 5.866.159 8.791.354 6.358.424 9.447 4.682 7.971 10.867-1.508 6.313-6.468 10.218-13.096 10.308-4.945.067-4.949.066-6.076 4.931-.132.569-.201 1.153-.322 1.726-1.035 4.9-2.245 5.596-7.697 4.064zm10.375-16.334c5.383 1.305 9.271-.875 9.853-5.697.154-1.277-.464-3.501-1.332-3.873-1.804-.771-4.012-.613-6.059-.75-.146-.01-.417.667-.501 1.054-.672 3.087-1.311 6.181-1.961 9.266zM33.069 420.789c-1.05 5.162-2.114 10.32-3.144 15.486-.679 3.408-1.397 3.818-5.188 2.646.936-4.805 1.872-9.637 2.82-14.467.419-2.135.985-4.249 1.269-6.401.352-2.667 2.143-2.856 4.21-2.78 2.015.074 4.091-.188 4.492 2.758.607 4.459 1.451 8.886 2.291 13.906.713-1.052 1.183-1.66 1.564-2.319 2.266-3.919 4.487-7.863 6.773-11.771 1.369-2.339 5.617-3.605 7.949-2.274.518.297.945 1.421.828 2.055-1.248 6.757-2.467 13.525-4.018 20.217-.655 2.826-3.021 1.35-4.983 1.335l3.612-18.195a62.236 62.236 0 0 0-.367-.181c-.955 1.671-1.922 3.333-2.86 5.015-2.125 3.805-4.33 7.567-6.311 11.447-.985 1.931-2.416 2.344-4.323 2.175-1.99-.177-1.691-1.736-1.88-3.007-.777-5.207-1.55-10.415-2.324-15.623l-.41-.022zm106.133 18.132c.545-2.73 1.097-5.496 1.651-8.261.838-4.188 1.827-8.354 2.469-12.571.499-3.274 2.793-2.769 4.932-2.808 2.051-.036 3.498.468 3.809 2.961.548 4.396 1.398 8.753 2.194 13.56.575-.743 1.001-1.183 1.299-1.696 2.318-3.989 4.596-8.004 6.921-11.991 1.518-2.604 5.426-3.891 8.063-2.567.475.237.949 1.214.852 1.745-1.257 6.84-2.502 13.686-4.007 20.475-.647 2.919-2.969 1.402-4.964 1.43l3.613-18.452-.313-.129c-3.105 5.55-6.189 11.111-9.337 16.638-.433.761-1.059 1.604-1.808 1.953-2.171 1.015-3.871.042-4.24-2.342-.833-5.381-1.598-10.772-2.768-16.191-1.044 5.16-2.117 10.315-3.123 15.483-.683 3.505-1.329 3.913-5.243 2.763zm80.705-408.802c.423 4.12-.455 5.128-4.229 4.871-4.356-.297-8.703-.746-13.06-1.041-2.053-.139-2.676-1.167-2.14-2.999 2.656-9.088 5.312-18.176 8.077-27.231.242-.791 1.313-1.938 1.941-1.904 5.834.313 11.654.849 17.457 1.318-.264 4.829-1.001 5.474-5.111 4.971-1.25-.153-2.504-.296-3.76-.359-4.757-.241-4.76-.228-6.15 4.377-.243.801-.471 1.607-.814 2.785 2.723.292 5.35.562 7.974.861.99.113 2.563-.294 2.261 1.451-.273 1.58-.123 3.825-2.803 3.639-2.846-.197-5.689-.46-8.89-.724l-2.722 8.775 11.969 1.21zm-87.211-14.166 8.112-.708c1.147-.1 2.609-.549 2.499 1.371-.089 1.552.313 3.536-2.233 3.767-2.835.257-5.66.626-8.761.977l-1 9.187c3.218-.349 6.252-.676 9.286-1.007 3.183-.347 4.162.899 2.843 3.87-.297.67-1.264 1.369-1.999 1.463-4.824.619-9.671 1.056-14.506 1.592-2.03.226-2.778-.681-2.593-2.623.855-9.02 1.727-18.038 2.519-27.063.206-2.344 1.05-3.65 3.644-3.817 4.517-.292 9.011-.928 13.527-1.273.747-.057 2.193.596 2.216.985.092 1.557.56 3.679-1.728 4.095-2.88.524-5.821.769-8.747.97-1.705.117-2.587.592-2.534 2.521.048 1.735-.314 3.483-.545 5.693zm-62.508-2.709c4.185-.013 5.191.922 4.566 4.521-.089.51-1.094 1.183-1.71 1.22-1.818.113-3.695-.323-5.471-.044-2.124.332-3.688 1.697-3.863 4.034-.17 2.275 1.429 3.25 3.266 3.898 1.262.445 2.557.799 3.846 1.16 8.091 2.269 8.392 10.546 4.857 15.297-3.132 4.209-10.492 6.801-15.606 5.445-2.134-.566-3.561-3.86-2.264-5.569.313-.413 1.494-.419 2.186-.248 2.592.644 5.115.858 7.615-.345 1.965-.946 3.281-2.301 3.195-4.649-.083-2.28-1.714-3.098-3.523-3.725a70.253 70.253 0 0 0-3.352-1.047c-3.678-1.069-6.229-3.199-6.819-7.19-.644-4.36.903-7.926 4.587-10.124 2.506-1.496 5.487-2.196 8.255-3.251.079.204.157.41.235.617zm86.062 21.631c-2.611-.691-4.782-1.051-6.746-1.894-.79-.339-1.575-1.734-1.586-2.658-.042-3.542.644-3.894 3.894-2.468 2.544 1.116 5.258 1.756 7.739.316 1.286-.746 2.646-2.37 2.808-3.736.139-1.165-1.185-2.74-2.235-3.744-1.056-1.009-2.536-1.609-3.892-2.262-6.468-3.111-6.362-12.129-.584-16.032 4.105-2.773 8.651-2.945 13.263-1.513 1.856.576 2.62 4.101 1.184 5.454-.4.376-1.458.123-2.204.054-2.191-.202-4.434-.838-6.544-.532-1.076.156-2.508 1.878-2.687 3.058-.175 1.154.777 2.774 1.709 3.723 1.012 1.028 2.553 1.556 3.897 2.235 8.199 4.144 6.362 13.778.138 17.194-2.565 1.409-5.602 1.956-8.154 2.805zM24.502 53.029c1.998 3.908 1.897 5.933-1.312 8.04-2.735 1.796-5.881 3.241-9.047 4.033-3.571.895-6.741-.661-9.113-3.572-5.471-6.716-5.557-19.703-.1-26.407 2.96-3.637 6.862-5.6 11.541-5.89 4.185-.259 5.885 2.113 4.542 6.204-.417-.001-.871.109-1.245-.017-5.46-1.847-11.107 1.756-11.539 8.421-.216 3.346.15 6.907 1.119 10.109 1.43 4.724 5.292 6.023 9.575 3.558 1.981-1.141 3.619-2.877 5.579-4.479zm269.325 372.055c-.498 5.139-2.049 11.03-8.576 13.563-2.586 1.003-5.775 1.068-8.585.719-3.821-.476-5.791-3.134-5.986-6.979-.19-3.751.506-7.342 2.332-10.673 3.038-5.543 9.13-8.123 15.239-6.443 3.957 1.088 5.705 3.792 5.576 9.813zm-18.351 5.409c.734 1.381 1.23 3.391 2.512 4.463 1.721 1.441 4.029.961 5.893-.28.952-.633 2.054-1.487 2.407-2.482.991-2.804 2.077-5.7 2.292-8.621.265-3.593-2.951-5.668-6.396-4.205-1.712.727-3.393 2.27-4.334 3.883-1.141 1.956-1.485 4.376-2.374 7.242zM72.771 414.818c7.227.129 9.765 3.229 9.093 11.226-.827 9.856-9.014 16.017-17.795 13.094-1.761-.586-3.682-2.291-4.452-3.974-3.241-7.082 2.003-17.79 9.442-19.802 1.2-.323 2.474-.37 3.712-.544zm-9.087 15.399c-.051 5.371 4.596 6.363 7.603 4.876 1.209-.597 2.592-1.605 3.069-2.766 1.089-2.65 2.09-5.469 2.355-8.293.383-4.076-2.781-6.213-6.582-4.612-1.442.607-2.997 1.794-3.694 3.136-1.241 2.384-1.868 5.088-2.751 7.659zm253.1 8.764c.599-3.081 1.158-6.013 1.738-8.939.83-4.191 1.611-8.395 2.574-12.555.181-.78 1.126-1.98 1.71-1.976 3.831.032 7.729-.026 11.468.675 3.221.604 4.841 3.374 4.999 6.741.401 8.554-3.406 14.671-10.617 15.938-3.708.654-7.626.116-11.872.116zm5.703-3.874c5.993 1.162 10.021-1.632 11.312-7.642 1.336-6.222-1.78-9.327-8.186-8.024l-3.126 15.666zm-223.843-7 2.736 10.551c-4.186 1.716-5.281 1.154-5.987-2.678-.212-1.151-.405-2.308-.69-3.442-.583-2.321-1.986-3.384-4.596-2.729-.408 2.092-.827 4.209-1.232 6.329-.659 3.44-1.827 4.046-5.558 2.732 1.433-7.193 2.807-14.425 4.396-21.607.175-.794 1.531-1.791 2.417-1.876 2.406-.228 4.856-.073 7.285.038 2.454.111 4.72.783 5.654 3.364 1.018 2.811.097 5.298-1.855 7.375-.842.896-1.983 1.51-2.57 1.943zm-7.764-2.128c1.697-.191 3.063-.149 4.299-.531 1.961-.607 3.073-2.071 2.801-4.201-.231-1.809-1.722-1.922-3.187-2.168-2.277-.384-2.925.784-3.117 2.729-.12 1.229-.456 2.439-.796 4.171zm142.988 2.147 2.832 11.054c-1.657.114-2.859.437-3.929.187-.753-.176-1.659-1.019-1.906-1.761-.495-1.489-.532-3.126-.857-4.681-.494-2.368-1.744-3.791-4.663-3.157-.402 2.012-.834 4.119-1.243 6.231-.705 3.637-1.569 4.129-5.581 2.933.939-4.791 1.881-9.609 2.83-14.428.436-2.213.955-4.413 1.305-6.641.262-1.677 1.065-2.592 2.793-2.569 2.43.03 4.863.034 7.29.141 2.374.103 4.564.766 5.508 3.21 1.034 2.68.225 5.149-1.562 7.229-.849.988-2.062 1.663-2.817 2.252zm-7.816-1.929c2.107-.463 3.995-.403 5.192-1.282 1.052-.773 2.043-2.803 1.729-3.896-.265-.922-2.387-1.491-3.78-1.865-2.014-.539-1.979 1.172-2.235 2.44-.264 1.299-.514 2.598-.906 4.603zm84.419 1.837c.962 3.78 1.854 7.298 2.821 11.097-1.492.138-2.557.279-3.626.322-1.382.056-2.151-.513-2.271-2.038-.119-1.494-.55-2.963-.801-4.45-.418-2.482-1.721-3.75-4.603-3.231-.424 2.11-.845 4.309-1.313 6.497-.737 3.447-1.646 3.908-5.523 2.652.947-4.883 1.891-9.803 2.859-14.718.42-2.137 1.033-4.245 1.295-6.399.223-1.836 1.207-2.474 2.84-2.47 2.351.007 4.711-.042 7.052.136 3.537.268 5.288 1.493 5.848 3.806.678 2.796-.565 6.1-2.956 7.788-.613.433-1.277.795-1.622 1.008zm-7.699-2.327c2.576.193 4.93.338 6.312-1.876.558-.895.783-3.046.341-3.324-1.467-.924-3.306-1.256-5.248-1.896l-1.405 7.096zm-286.295 8.239c-2.691 0-5.385-.196-8.019.118-.806.095-1.602 1.502-2.133 2.459-1.723 3.109-2.46 3.473-6.326 2.455.376-.847.68-1.677 1.096-2.444a5535.492 5535.492 0 0 1 10.355-18.99c1.26-2.301 4.447-3.393 6.644-2.13.579.332.993 1.302 1.107 2.037 1.018 6.544 1.935 13.105 2.925 19.654.188 1.246.136 2.342-1.411 2.274-1.299-.058-3.203 1.026-3.587-1.439-.191-1.234-.401-2.466-.651-3.994zm-.398-3.961-1.223-8.978-.527-.007-4.67 8.984 6.42.001zm348.184 3.94c-1.387 0-2.666.163-3.889-.031-3.415-.541-5.663.506-6.938 3.938-.956 2.579-3.221 1.548-5.488 1.325.459-1.095.734-1.943 1.15-2.717 3.465-6.41 6.949-12.811 10.445-19.205 1.106-2.025 4.912-3.004 6.771-1.739.299.204.577.623.63.979 1.108 7.366 2.184 14.737 3.372 22.847-1.855-.094-3.973.408-4.762-.396-.98-.999-.864-3.075-1.291-5.001zm-1.467-12.916-.468-.13-4.77 9.076h6.441l-1.203-8.946zm-154.466 4.03h7.226c.366 3.262.057 3.641-2.784 3.654-1.673.009-3.345.002-5.236.002l-1.386 6.765h8.648c.479 3.563.259 3.826-2.917 3.831-3.107.006-6.216-.039-9.321.017-1.453.026-2.025-.54-1.74-1.964 1.342-6.736 2.614-13.486 4.114-20.188.172-.769 1.577-1.728 2.464-1.786 3.262-.215 6.549-.162 9.818-.027.645.025 1.74.827 1.777 1.333.077 1.068-.027 2.453-1.767 2.43-1.679-.022-3.374.14-5.036-.033-2.182-.227-3.322.472-3.357 2.78-.014.967-.296 1.932-.503 3.186zm-89.475 10.519h8.655c.287 3.402.026 3.724-2.854 3.733-3.108.01-6.218-.047-9.324.019-1.85.04-2.31-.633-1.923-2.453 1.34-6.3 2.585-12.623 3.761-18.956.336-1.812 1.198-2.644 3.019-2.628 3.191.029 6.387-.07 9.573.068.667.029 1.3.854 1.948 1.312-.642.815-1.162 2.154-1.951 2.338-1.595.371-3.353.269-5.01.079-2.211-.255-3.264.569-3.395 2.77-.058.98-.295 1.95-.492 3.182h7.127c.582 3.162.257 3.632-2.339 3.675-5.682.092-5.684.091-6.726 5.661-.044.232-.029.478-.069 1.2zm79.521-15.469c-1.311-.395-2.625-.924-3.99-1.167-1.775-.317-3.403.066-4.152 1.968-.728 1.843.557 2.775 1.844 3.646.695.471 1.432.878 2.129 1.345 5.007 3.356 4.838 9.479-.427 12.459-3.334 1.887-6.884 1.896-10.448.587-1.334-.49-2.018-1.305-1.73-2.884.312-1.709.767-2.364 2.648-1.48 1.455.685 3.259 1.226 4.775.987 1.219-.19 2.707-1.451 3.178-2.603.307-.748-.896-2.236-1.634-3.236-.413-.559-1.257-.796-1.907-1.18-2.675-1.582-4.332-3.767-3.813-7.026.511-3.219 2.442-5.385 5.604-6.062 1.924-.412 4.021-.539 5.958-.248 3.132.469 3.527 1.669 1.965 4.894zm70.708.928c-6.981-5.007-11.458 1.017-12.607 6.89-.08.407-.051.836-.092 1.253-.511 5.267 2.754 7.694 7.7 5.711.844-.338 1.659-.747 2.503-1.13.803 2.819.183 4.19-2.257 5.164-5.058 2.02-10.71.718-12.404-3.199-2.338-5.402-.927-10.562 2.087-15.251 2.73-4.246 6.849-5.991 11.897-5.43 4.298.477 5.509 2.637 3.173 5.992zm71.072 17.894c1.504-7.422 2.834-14.91 4.621-22.288.629-2.595 3.022-1.323 5.065-1.114-1.307 6.551-2.562 12.834-3.814 19.118-.082.41-.166.819-.242 1.23-.697 3.818-1.594 4.331-5.63 3.054zm-158.01-23.17c-1.496 7.509-2.788 14.929-4.527 22.242-.639 2.688-3.109 1.118-5.15 1.311 1.213-6.113 2.35-11.851 3.493-17.587.213-1.067.462-2.128.677-3.195.726-3.602 1.493-4.033 5.507-2.771zm57.966 23.172c1.385-6.862 2.728-13.581 4.102-20.293.752-3.681 1.474-4.094 5.482-2.919-.579 2.943-1.174 5.935-1.756 8.929-.73 3.774-1.432 7.554-2.181 11.324-.732 3.688-1.551 4.147-5.647 2.959zm42.518-25.632c3.207-4.984 5.207-6.42 8.522-4.682-2.49 3.849-5.256 5.422-8.522 4.682z"/></g></svg>