<?xml version="1.0" encoding="utf-8"?>
<!-- Generator: Adobe Illustrator 16.0.0, SVG Export Plug-In . SVG Version: 6.00 Build 0)  -->
<!DOCTYPE svg PUBLIC "-//W3C//DTD SVG 1.1//EN" "http://www.w3.org/Graphics/SVG/1.1/DTD/svg11.dtd">
<svg version="1.1" id="Layer_1" xmlns="http://www.w3.org/2000/svg" xmlns:xlink="http://www.w3.org/1999/xlink" x="0px" y="0px"
	 width="370.317px" height="438.926px" viewBox="0 0 370.317 438.926" enable-background="new 0 0 370.317 438.926"
	 xml:space="preserve">
<g>
	<path fill-rule="evenodd" clip-rule="evenodd" d="M296.364,134.076c-3.622,0.705-5.651,3.062-7.025,6.042
		c-2.613,5.66-2.938,11.726-2.412,17.776c1.082,12.46,2.656,24.881,3.616,37.348c0.755,9.795,0.927,19.635,1.289,29.458
		c0.203,5.456,0.328,10.917,0.34,16.377c0.002,0.97-0.727,1.942-1.119,2.913c-0.37-0.082-0.741-0.165-1.112-0.247
		c-2.655-26.82-5.312-53.64-8.008-80.864c-2.988,1.165-4.782,3.087-6.166,5.356c-2.65,4.347-3.731,9.197-3.627,14.21
		c0.224,10.832,1.066,21.665,0.924,32.489c-0.14,10.65-1.148,21.291-1.886,31.929c-0.072,1.051-0.712,2.203-1.406,3.045
		c-3.397,4.112-6.295,8.474-7.856,13.647c-0.23,0.763-0.938,1.65-1.65,1.961c-26.812,11.663-42.915,32.517-51.247,59.913
		c-5.499,18.084-6.396,36.625-4.665,55.35c0.425,4.593,0.938,9.177,1.426,13.934c-2.448,0-4.926,0-7.803,0
		c-0.491-4.955-1.223-9.925-1.435-14.916c-0.905-21.41,1.19-42.425,8.943-62.604c9.5-24.727,25.855-43.297,49.638-55.21
		c1.029-0.516,1.973-1.534,2.554-2.548c2.574-4.487,4.354-9.47,8.466-12.972c0.385-0.327,0.406-1.214,0.406-1.841
		c0-22.454,0.084-44.909-0.098-67.362c-0.074-9.191,4.061-15.524,11.976-19.602c1.998-1.029,2.944-2.089,2.906-4.497
		c-0.08-5.117,0.239-10.241,0.44-15.36c0.106-2.66,1.575-4.661,3.689-5.987c3.102-1.945,6.389-3.591,9.545-5.336
		c0.332-2.847,0.426-5.897,1.081-8.823c1.641-7.326,5.213-10.227,13.062-10.94c1.583-0.144,3.226-0.236,4.774,0.031
		c1.053,0.182,2.449,0.782,2.905,1.622c4.353,8.02,8.562,16.119,12.744,24.231c0.567,1.1,0.761,2.393,1.162,3.713
		c0.612,0.058,1.271,0.085,1.919,0.188c2.984,0.467,5.007,1.722,6.247,4.888c9.136,23.341,16.051,47.285,19.883,72.067
		c2.354,15.237,3.178,30.574,1.574,45.96c-1.065,10.236-3.564,20.147-7.578,29.622c-3.855,9.099-7.763,18.187-12.015,27.104
		c-5.307,11.126-13.841,18.865-25.24,23.813c-7.199,3.125-14.371,6.674-20.809,11.114c-11.572,7.984-17.57,19.785-20.065,33.43
		c-0.603,3.292-0.847,6.649-1.281,10.188c-3.345,0-6.826,0-10.897,0c1.214-5.588,2.162-11.164,3.66-16.588
		c2.818-10.208,6.938-19.805,14.631-27.447c0.949-0.943,1.919-1.994,3.09-2.56c2.389-1.154,3.098-2.876,3.276-5.476
		c0.544-7.866,3.558-15.064,7.618-21.636c5.505-8.907,11.662-17.411,17.514-26.106c2.295-3.409,4.512-6.872,6.78-10.298
		c3.649-5.509,3.955-12.026,5.509-18.168c1.97-7.784,3.66-15.625,7.071-23.005c1.407-3.046,2.073-6.549,2.473-9.916
		c0.403-3.391-0.744-4.397-4.087-5.175c-6.906-1.604-12.281,0.997-16.282,6.395c-2.118,2.858-3.996,6.098-5.123,9.453
		c-4.346,12.957-11.965,23.909-20.045,34.7c-3.343,4.464-7.449,6.418-12.705,7.844c-26.619,7.218-42.039,25.31-48.65,51.557
		c-0.41,1.625-0.714,3.277-1.026,4.925c-0.286,1.501-0.517,3.011-0.771,4.518c-0.234-0.029-0.469-0.058-0.703-0.087
		c0.338-4.107,0.467-8.246,1.051-12.318c2.061-14.4,8.021-26.979,18.421-37.219c9.653-9.507,21.264-15.762,34.334-19.17
		c3.205-0.835,4.928-3.101,6.782-5.284c5.986-7.05,9.858-15.316,13.578-23.71c2.401-5.423,5.502-10.533,8.229-15.815
		c0.435-0.841,0.84-1.87,0.771-2.774c-0.844-11.054-1.688-22.108-2.723-33.146c-0.775-8.271-1.673-16.537-2.798-24.767
		c-1.717-12.548-3.676-25.062-5.542-37.588C296.723,135.267,296.532,134.727,296.364,134.076z M295.585,340.036
		c4.306-1.594,8.373-3.374,12.604-4.583c3.572-1.02,6.735-2.545,9.426-5.039c3.451-3.201,6.627-6.736,10.312-9.629
		c3.125-2.454,5.604-5.275,7.508-8.67c7.245-12.919,12.724-26.646,17.279-40.659c4.272-13.14,3.92-26.924,2.369-40.472
		c-1.572-13.728-3.812-27.403-6.359-40.989c-2.347-12.511-5.527-24.868-10.624-36.613c-2.035-4.689-4.276-9.303-8.414-13.096
		c-2.46,1.551-4.911,3.121-7.389,4.65c-1.748,1.08-2.479,2.574-2.327,4.644c0.637,8.707,1.021,17.436,1.859,26.123
		c1.08,11.192,2.487,22.354,3.794,33.524c0.523,4.474,1.155,8.934,1.745,13.456c0.666,0,1.08-0.003,1.495,0.001
		c5.846,0.054,9.266,2.819,9.712,8.613c0.252,3.284-0.15,6.706-0.82,9.95c-0.792,3.84-2.202,7.553-3.323,11.327
		c-1.764,5.939-4.134,11.782-5.129,17.85c-1.851,11.288-7.01,20.876-13.5,29.963c-3.849,5.389-8.03,10.57-11.49,16.196
		C299.857,323.827,296.926,331.763,295.585,340.036z M323.071,222.654c-0.995-5.702-2.346-11.334-2.907-17.043
		c-1.839-18.703-3.403-37.433-5.013-56.158c-0.07-0.827,0.19-1.922,0.719-2.522c2.954-3.354,6.037-6.593,9.519-10.35
		c-2.479-5.701-5.188-12.278-8.185-18.721c-2.664-5.727-3.834-8.982-11.605-3.542c-0.136,0.096-0.268,0.258-0.413,0.273
		c-2.495,0.247-2.945,2.181-3.32,4.103c-0.256,1.311-0.563,2.673-0.461,3.982c0.627,8.018,0.799,16.126,2.177,24.021
		c3.593,20.58,7.087,41.155,8.023,62.061c0.291,6.499,0.045,13.023,0.045,19.818C315.11,225.374,318.653,222.744,323.071,222.654z"
		/>
	<path fill-rule="evenodd" clip-rule="evenodd" d="M108.014,394.767c-3.544,0-6.965,0-10.422,0
		c-0.608-4.275-0.946-8.54-1.852-12.681c-3.874-17.713-14.239-30.213-30.73-37.702c-4.731-2.149-9.417-4.399-14.099-6.655
		c-8.055-3.881-14.213-9.856-18.537-17.596c-8.988-16.091-16.296-32.905-20.262-50.975c-2.554-11.635-2.843-23.478-2.099-35.355
		c2.035-32.486,10.672-63.379,22.426-93.536c0.693-1.778,1.858-2.749,3.528-3.221c1.356-0.383,2.773-0.554,4.171-0.821
		c2.972-10.149,8.602-19.005,13.997-27.964c0.493-0.818,1.952-1.569,2.907-1.506c3.57,0.233,7.283,0.302,10.633,1.387
		c5.337,1.73,6.67,6.684,7.547,11.586c0.412,2.301-0.259,5.15,0.886,6.865c1.064,1.593,3.959,1.887,5.923,2.979
		c1.599,0.89,3.073,2.04,4.491,3.208c1.785,1.472,2.485,3.398,2.496,5.776c0.024,5.123,0.294,10.245,0.467,15.366
		c0.046,1.383,0.313,2.44,1.846,3.165c9.337,4.418,13.529,11.601,13.104,22.188c-0.549,13.688-0.138,27.413-0.139,41.122
		c-0.001,7.906-0.053,15.812,0.063,23.717c0.016,1.071,0.766,2.196,1.36,3.187c2.408,4.012,4.85,8.006,7.37,11.946
		c0.641,1.003,1.451,2.125,2.464,2.632c28.682,14.313,45.826,37.749,54.033,68.237c3.599,13.371,5.077,27.055,4.977,40.86
		c-0.052,7.205-0.919,14.404-1.453,21.604c-0.053,0.726-0.339,1.434-0.518,2.153c-2.533,0-4.935,0-7.54,0
		c0.464-4.067,0.99-7.96,1.339-11.868c2.242-25.105,0.638-49.723-10.385-72.889c-9.617-20.211-24.328-35.429-45.126-44.387
		c-0.766-0.33-1.41-1.222-1.84-2.001c-2.054-3.729-3.53-7.896-6.146-11.158c-2.542-3.17-3.655-6.42-3.821-10.263
		c-0.492-11.41-1.28-22.815-1.417-34.23c-0.09-7.456,0.882-14.919,1.137-22.387c0.217-6.353-0.396-12.647-4.234-18.035
		c-1.295-1.817-3.191-3.208-4.813-4.794c-0.274,0.148-0.549,0.297-0.824,0.445c-2.665,26.873-5.33,53.746-7.996,80.618
		c-0.329,0.071-0.658,0.143-0.987,0.215c-0.392-0.917-1.14-1.84-1.122-2.749c0.216-11.427,0.308-22.862,0.904-34.271
		c0.608-11.651,1.742-23.275,2.64-34.912c0.529-6.857,1.222-13.708,1.51-20.576c0.199-4.749-0.837-9.344-3.518-13.422
		c-1.397-2.127-3.252-3.58-5.955-4.013c-1.016,7.355-1.963,14.669-3.052,21.962c-1.201,8.044-2.765,16.04-3.748,24.107
		c-1.199,9.834-2.014,19.716-2.887,29.586c-0.629,7.111-1.127,14.235-1.567,21.361c-0.065,1.069,0.324,2.271,0.818,3.254
		c2.75,5.457,5.844,10.752,8.354,16.314c4.264,9.447,8.649,18.774,16.259,26.096c0.966,0.93,2.318,1.638,3.617,2.014
		c19.826,5.738,36.039,16.272,46.012,34.907c5.999,11.207,8.091,23.333,7.58,35.964c-1.053-8.314-2.991-16.391-6.273-24.123
		c-9.433-22.226-26.288-35.255-49.699-40.215c-1.083-0.229-2.371-0.658-3.053-1.44c-9.544-10.935-18.042-22.583-23.208-36.294
		c-1.964-5.215-3.854-10.381-7.782-14.507c-4.536-4.763-9.886-6.333-16.251-4.348c-1.687,0.526-2.451,1.498-2.657,3.206
		c-0.493,4.085,0.647,7.874,2.297,11.453c4.643,10.076,6.768,20.831,8.889,31.599c1.148,5.829,4.186,10.771,7.482,15.535
		c5.636,8.144,11.682,16.014,17.091,24.303c5.145,7.885,9.707,16.27,10.801,25.773c0.477,4.143,2.153,6.43,5.206,8.932
		c8.149,6.682,12.324,16.021,15.281,25.837c1.758,5.838,2.769,11.903,4.092,17.872C108.103,393.666,108.014,394.167,108.014,394.767
		z M43.412,222.619c0.188-0.942,0.416-1.758,0.505-2.588c2.355-21.951,4.615-43.912,7.094-65.85
		c0.624-5.527-0.901-9.371-6.134-11.779c-4.617-2.126-3.624-3.07-7.013,1.688c-4.626,6.495-7.305,13.949-9.541,21.527
		c-6.445,21.854-11.018,44.08-12.642,66.842c-1.166,16.331-1.309,32.555,5.66,47.97c4.484,9.918,8.579,20.017,13.182,29.879
		c1.459,3.127,3.712,6.02,6.104,8.544c3.396,3.582,7.153,6.85,10.956,10.011c2.555,2.124,5.247,4.315,8.25,5.617
		c4.996,2.165,10.291,3.64,15.404,5.386c-0.019-0.143-0.057-0.718-0.175-1.274c-2.909-13.686-9.372-25.578-18.289-36.229
		c-6.719-8.026-11.523-17.068-14.287-27.163c-1.878-6.859-3.652-13.748-5.457-20.628c-1.654-6.308-3.894-12.537-4.763-18.952
		C31.33,228.721,33.439,222.16,43.412,222.619z M45.189,137.479c0.959,0.619,1.602,0.999,2.208,1.43
		c5.62,3.991,9.181,8.515,8.059,16.344c-1.604,11.191-1.828,22.574-2.934,33.847c-1.101,11.229-1.861,22.531-5.064,33.568
		c4.666,0.027,8.117,2.689,11.621,5.63c0-5.146-0.112-10.005,0.02-14.856c0.559-20.683,3.735-41.052,7.232-61.398
		c1.489-8.663,2.521-17.426,3.267-26.185c0.687-8.065-1.074-10.69-7.604-13.596c-2.955-1.315-4.747-0.843-6.359,1.908
		c-1.186,2.021-2.276,4.113-3.213,6.26C49.956,126.083,47.597,131.783,45.189,137.479z"/>
	<path fill-rule="evenodd" clip-rule="evenodd" d="M212.257,251.933c2.633,2.083,4.961,4.304,7.637,5.96
		c4.744,2.937,9.791,3.274,14.877,0.67c3.116-1.595,5.401-5.516,4.907-8.646c-0.566-3.592-3.176-5.128-6.351-6.002
		c-6.023-1.659-12.018-0.432-18.022,0.183c-19.56,2-39.079,4.732-58.801,4.231c-6.267-0.159-12.628-0.724-18.742-2.048
		c-12.702-2.753-18.17-11.21-20.012-22.705c-1.05-6.558-1.454-13.198,1.218-19.559c4.737-11.277,13.491-18.079,24.718-22.179
		c11.639-4.249,23.781-5.788,36.006-6.946c0.329-0.031,0.656-0.075,1.169-0.135c-0.46-2.675-2.242-4.24-4.448-4.949
		c-2.519-0.81-5.232-1.015-7.863-1.469c-2.631-0.455-5.384-0.553-7.867-1.426c-3.113-1.095-4.879-3.67-4.581-7.07
		c0.283-3.222,1.736-5.893,4.957-7.201c1.718-0.697,2.491-1.85,3.266-3.67c1.24-2.917,3.368-5.532,5.466-7.979
		c1.102-1.284,1.484-2.13,0.685-3.661c-0.927-1.776-1.504-3.731-2.357-5.55c-1.05-2.239-2.333-4.714,0.399-6.325
		c1.539-0.907,3.777-0.625,5.701-0.879c0.082,0.26,0.165,0.519,0.247,0.778c0.16-0.683,0.206-1.419,0.497-2.04
		c1.915-4.073,2.574-4.427,6.592-2.145c4.662,2.648,9.121,5.657,13.656,8.529c0.751,0.475,1.438,1.052,2.295,1.688
		c2.69-24.639,16.177-42.989,32.497-59.755c0.277,0.101,0.555,0.203,0.832,0.304c-0.262,2.806-0.522,5.611-0.837,8.982
		c2.646-2.287,4.64-4.33,6.957-5.893c1.375-0.926,3.26-1.094,4.915-1.604c-0.575,1.469-1.113,2.953-1.732,4.402
		c-1.3,3.046-2.817,6.011-3.918,9.125c-1.142,3.228,0.149,5.844,2.749,7.937c7.138,5.744,15.42,9.132,24.068,11.766
		c4.779,1.456,5.057,1.745,2.617,6.274c-1.617,3.001-3.563,5.892-5.756,8.5c-3.128,3.718-7.326,5.294-12.247,5.514
		c-3.114,0.139-6.328,0.773-9.244,1.864c-3.127,1.171-3.567,3.162-2.303,6.231c3.762,9.141,5.354,18.682,4.627,28.509
		c-0.517,6.973-2.506,13.62-5.723,19.883c-4.049,7.885-8.29,15.673-10.508,24.376c-1.445,5.667-0.749,10.927,1.868,16.045
		c2.305,4.505,2.302,4.506-1.252,8.575c-3.367-4.764-5.227-9.821-5.087-15.666c0.21-8.761,4.179-16.258,7.636-23.963
		c2.798-6.238,6.231-12.352,7.921-18.896c3.083-11.945,1.233-23.751-3.438-35.149c-0.569-1.389-0.78-3.393-0.214-4.705
		c3.633-8.41,8.109-12.892,17.844-12.72c6.598,0.115,11.179-2.862,13.098-8.185c-4.153-1.497-8.514-2.595-12.415-4.587
		c-5.652-2.885-11.448-5.841-16.306-9.833c-4.98-4.091-7.946-9.911-7.961-16.748c-0.002-0.721,0-1.441,0-2.162
		c-0.223-0.119-0.445-0.238-0.67-0.357c-3.535,4.413-7.262,8.686-10.563,13.266c-6.444,8.939-10.961,18.799-12.804,29.725
		c-0.555,3.284-0.768,6.69-0.594,10.011c0.093,1.74,0.988,3.748,2.156,5.072c9.889,11.199,14.126,24.252,12.769,39.019
		c-0.755,8.214-3.327,16.009-6.858,23.485c-2.227,4.714-4.426,9.626-3.52,14.932c0.549,3.218-0.916,4.929-2.852,7.054
		c-1.688-2.486-1.72-5.16-1.07-7.568c1.254-4.658,2.691-9.317,4.608-13.734c3.718-8.559,6.233-17.397,6.128-26.714
		c-0.129-11.472-4.277-21.6-11.758-30.319c-5.77-6.72-12.721-11.951-20.504-16.113c-0.354-0.189-0.752-0.291-1.434-0.548
		c0.219,4.896-0.877,9.217-4.106,12.708c-1.645,1.776-3.602,3.262-5.355,4.943c-0.71,0.681-1.564,1.441-1.827,2.321
		c-1.348,4.529-4.072,8.017-7.842,10.857c0.866,2.705,2.997,3.9,5.442,4.303c3.386,0.56,6.85,0.622,10.252,1.097
		c6.024,0.843,9.59,4.96,9.5,10.74c-0.049,3.272-2.816,6.055-6.025,6.323c-14.167,1.185-28.281,2.725-41.466,8.587
		c-2.823,1.255-5.503,2.891-8.1,4.582c-7.382,4.807-9.394,12.095-8.9,20.341c0.169,2.818,0.769,5.626,1.356,8.398
		c2.407,11.36,9.84,17.379,20.943,19.202c12.019,1.974,24.125,1.928,36.211,0.812c15.731-1.452,31.431-3.232,47.168-4.613
		c3.278-0.287,6.746,0.187,9.97,0.961c5.418,1.302,7.848,4.842,6.771,10.311c-1.196,6.084-4.2,11.352-9.718,14.666
		c-5.282,3.173-10.744,2.986-16.077,0.066c-1.753-0.959-3.398-2.188-4.908-3.506C208.446,256.563,208.474,256.098,212.257,251.933z
		 M236.245,79.679c-5.448,3.292-5.8,4.05-3.56,7.5C233.843,84.741,234.958,82.391,236.245,79.679z M174.518,136.406
		c1.222-3.437,0.871-4.245-2.912-7.043C172.638,131.859,173.499,133.941,174.518,136.406z"/>
	<path fill-rule="evenodd" clip-rule="evenodd" d="M152.12,78.063c2.543-5.487,4.793-10.362,9.815-13.403
		c0.472,0.645,0.838,1.144,1.3,1.774c0.38-0.451,0.712-0.795,0.988-1.179c2.748-3.828,6.203-6.63,11.014-7.274
		c1.065-0.143,2.201,0.248,3.304,0.393c-0.408,1.035-0.658,2.177-1.269,3.073c-0.626,0.918-1.477,1.983-2.453,2.305
		c-3.092,1.02-3.176,3.49-2.556,5.717c2.253,8.08,0.104,15.552-2.622,23.007c-0.225,0.613-0.414,1.241-0.643,1.932
		c3.976,0.788,7.094-0.111,9.237-3.616c0.654-1.066,1.469-2.052,2.314-2.979c3.115-3.414,6.755-3.21,9.596,0.42
		c1.744,2.229,3.592,4.376,5.562,6.764c-1.159,1.856-2.511,3.62-5.345,4.219c-1.884,0.397-3.512,2.011-5.575,3.277
		c0.224-3.11,2.63-4.61,4.516-6.809c-1.323-1.585-2.534-3.399-4.102-4.817c-1.832-1.657-3.649-1.284-5.166,0.669
		c-1.28,1.648-2.542,3.312-3.958,5.161c1.553,0.94,3.045,1.979,4.653,2.788c2.462,1.236,3.019,2.996,2.213,5.578
		c-2.843,9.105-9.181,14.593-17.955,17.572c-12.073,4.1-23.311,2.908-33.437-5.361c-0.5-0.408-1.609-0.355-2.333-0.154
		c-2.162,0.6-4.239,1.535-6.419,2.024c-1.073,0.242-2.34-0.076-3.453-0.378c-2.332-0.634-4.467-2.044-4.496-4.493
		c-0.02-1.708,1.417-3.434,2.118-4.966c1.735,1.865,2.838,3.811,4.497,4.623c1.72,0.842,3.979,0.586,6.001,0.81
		c0.072-0.233,0.144-0.467,0.215-0.701c-1.917-2.468-3.938-4.863-5.728-7.42c-2.624-3.752-2.422-4.704,1.077-7.889
		c3.293,4.05,6.595,8.109,9.958,12.246c1.511-1.073,2.578-1.831,3.772-2.679c-0.788-0.927-1.708-1.643-2.126-2.583
		c-0.758-1.708-2.072-3.812-1.621-5.281c0.923-3.01-0.092-5.528-0.782-8.167c-0.811-3.102,0.061-5.74,1.56-8.384
		c0.579-1.022,1.041-2.29,1.025-3.438c-0.057-4.176,0.744-7.971,3.743-11.107c0.47-0.491,0.632-1.306,0.863-1.995
		c2.114-6.296,5.604-11.319,12.536-12.791c1.389-0.295,2.989,0.41,4.492,0.652c-0.52,1.23-1.013,2.473-1.578,3.684
		c-0.17,0.364-0.481,0.753-0.83,0.929c-5.255,2.641-4.456,7.377-3.937,11.852C150.343,73.69,151.327,75.628,152.12,78.063z
		 M156.409,108.541c0.515-0.833,0.729-1.385,1.111-1.767c2.58-2.572,2.616-5.556,1.096-8.532c-1.634-3.198-3.572-6.243-5.427-9.325
		c-1.427-2.37-3.145-4.589-4.364-7.058c-3.746-7.587-4.554-15.057,1.578-21.986c0.169-0.192,0.167-0.536,0.268-0.888
		c-5.504,0.652-7.759,2.915-7.726,8.163c0.016,2.439-1.261,4.098-2.792,5.346c-1.109,0.905-1.264,1.693-1.347,2.86
		c-0.14,1.967,0.281,4.471-0.756,5.782c-2.95,3.727-2.625,7.341-1.043,11.309c0.338,0.847,0.67,2.08,0.305,2.757
		c-1.505,2.781-0.696,5.087,1.234,7.091c1.382,1.436,3.116,2.525,4.627,3.845c0.49,0.428,1.157,1.53,1.093,1.587
		c-1.383,1.216-1.578,3.821-4.398,3.455c-1.293-0.169-2.709,0.607-4.588,1.088c1.14,0.889,1.648,1.313,2.184,1.699
		c12.765,9.188,29.207,5.313,38.25-1.309c1.407-1.031,2.51-2.685,3.283-4.279c0.36-0.74-0.086-2.637-0.714-2.966
		c-3.688-1.934-7.442-3.833-11.364-5.198c-2.712-0.944-2.95-0.816-1.715-3.584c2.795-6.269,4.909-12.786,3.853-19.694
		c-0.664-4.338-1.742-8.483,1.527-12.63c-6.366,1.282-6.634,7.736-10.758,10.794c-0.375-1.545-0.677-2.792-0.981-4.039
		c-0.259-0.079-0.518-0.158-0.777-0.237c-0.853,2.263-1.638,4.555-2.577,6.781c-1.253,2.97-0.66,5.292,1.439,7.839
		c3.141,3.814,5.78,8.044,6.329,13.201C163.691,102.697,160.351,107.942,156.409,108.541z"/>
	<path fill-rule="evenodd" clip-rule="evenodd" d="M307.339,46.829c3.578-5.65,7.151-11.301,10.733-16.949
		c1.258-1.981,4.944-2.132,6.267-0.177c0.263,0.389,0.117,1.315-0.175,1.782c-5.128,8.167-10.301,16.305-15.48,24.438
		c-1.186,1.862-2.842,1.708-4.661,1.062c-2.317-0.823-4.342-1.675-4.125-4.803c0.509-7.359,0.853-14.729,1.292-22.627
		c-0.977,1.577-1.723,2.806-2.491,4.021c-3.184,5.031-6.361,10.065-9.565,15.083c-1.215,1.903-4.98,1.883-6.161-0.087
		c-0.241-0.404-0.043-1.292,0.254-1.768c5.071-8.102,10.192-16.172,15.297-24.252c0.992-1.572,2.295-1.988,4.091-1.413
		c5.176,1.656,5.613,2.332,5.244,8.009c-0.38,5.848-0.666,11.701-0.993,17.552C307.022,46.742,307.181,46.785,307.339,46.829z"/>
	<path fill-rule="evenodd" clip-rule="evenodd" d="M224.573,35.592c3.799-9.873,7.383-19.355,11.165-28.758
		c0.367-0.914,2.011-1.959,2.969-1.875c3.243,0.282,6.468,0.936,9.655,1.649c5.045,1.129,7.452,3.253,7.644,6.452
		c0.285,4.724-2.242,8.651-6.729,10.433c-0.693,0.275-1.41,0.489-1.524,0.528c0.503,5.16,0.987,10.142,1.537,15.795
		c-2.575-0.34-4.47-0.437-6.262-0.917c-0.563-0.151-1.145-1.313-1.204-2.054c-0.228-2.842-0.135-5.711-0.406-8.547
		c-0.094-0.984-0.688-2.115-1.411-2.806c-2.001-1.912-3.851-1.395-4.837,1.16c-0.905,2.346-2.025,4.634-2.665,7.05
		c-0.721,2.736-2.272,3.475-4.804,2.803C226.756,36.255,225.823,35.959,224.573,35.592z M237.755,19.88
		c2.985-0.226,5.596-0.033,7.956-0.71c2.372-0.68,3.57-4.182,2.606-6.038c-0.635-1.22-5.649-2.917-6.824-2.251
		c-0.314,0.177-0.539,0.61-0.68,0.973C239.876,14.256,238.972,16.67,237.755,19.88z"/>
	<path fill-rule="evenodd" clip-rule="evenodd" d="M100.667,32.96c-3.718,0.708-7.256,1.33-10.763,2.098
		c-0.576,0.126-1.214,0.802-1.47,1.381c-0.502,1.137-0.749,2.388-1.114,3.587c-1.046,3.439-1.597,3.821-5.278,4.188
		c-1.847,0.185-2.499-0.243-1.852-2.211c2.405-7.313,4.713-14.658,7.049-21.993c0.965-3.028,1.874-6.073,2.875-9.089
		c0.654-1.972,7.075-4.193,8.737-2.996c0.487,0.351,0.764,1.088,0.98,1.704c3.08,8.761,6.142,17.527,9.185,26.301
		c0.87,2.509,0.52,3.062-2.08,3.582c-3.754,0.75-3.749,0.748-5.008-2.99C101.557,35.419,101.153,34.329,100.667,32.96z
		 M94.741,14.938c-1.572,5.205-2.939,9.732-4.432,14.674c3.152-0.641,5.93-1.206,8.813-1.792
		C97.656,23.508,96.315,19.566,94.741,14.938z"/>
	<path fill-rule="evenodd" clip-rule="evenodd" d="M27.141,59.092c0.573-3.021,1.123-6.025,1.715-9.021
		c1.578-7.981,3.237-15.946,4.722-23.944c0.404-2.179,1.334-3.502,3.537-3.931c0.98-0.191,1.965-0.481,2.873-0.891
		c1.771-0.801,2.617,0.063,3.327,1.546c4.053,8.469,8.108,16.937,12.24,25.367c0.91,1.856,0.377,2.747-1.437,3.398
		c-3.997,1.437-3.977,1.477-5.767-2.362c-0.489-1.051-1.018-2.083-1.606-3.283c-3.618,1.112-7.142,2.138-10.612,3.32
		c-0.535,0.182-1.003,1.033-1.188,1.666c-0.35,1.2-0.44,2.473-0.693,3.704C33.513,58.267,31.509,59.616,27.141,59.092z
		 M36.11,43.741c3.112-0.98,5.708-1.798,8.546-2.692c-1.883-3.997-3.66-7.771-5.438-11.545c-0.184,0.033-0.368,0.066-0.552,0.098
		C37.845,34.148,37.023,38.693,36.11,43.741z"/>
	<path fill-rule="evenodd" clip-rule="evenodd" d="M334.032,70.385c0.71-0.519,1.376-1.122,2.142-1.544
		c9.173-5.059,18.355-10.097,27.544-15.124c2.201-1.204,7.851,0.847,8.727,3.247c0.217,0.592-0.039,1.474-0.323,2.115
		c-3.805,8.573-7.69,17.109-11.463,25.696c-0.887,2.017-1.977,2.133-3.713,1.12c-3.533-2.061-3.494-1.99-1.81-5.778
		c1.708-3.837,2.341-2.941-1.663-5.484c-0.991-0.629-2.101-1.134-2.947-1.92c-2.772-2.575-5.33-2.379-8.365-0.209
		C339.095,74.696,336.574,73.887,334.032,70.385z M351.547,67.104c2.627,1.686,4.991,3.202,7.533,4.834
		c1.882-4.051,3.655-7.873,5.751-12.387C360.058,62.266,355.96,64.595,351.547,67.104z"/>
	<path fill-rule="evenodd" clip-rule="evenodd" d="M273.687,38.54c-3.709-1.019-7.24-2.033-10.804-2.916
		c-0.497-0.123-1.274,0.272-1.712,0.662c-0.873,0.777-1.699,1.647-2.365,2.605c-1.648,2.374-3.707,2.763-6.335,1.792
		c-2.473-0.915-2.688-1.276-0.933-3.143c5.177-5.5,10.384-10.971,15.591-16.44c2.026-2.127,4.219-4.114,6.091-6.367
		c1.455-1.751,2.93-2.106,5.058-1.481c5.619,1.652,5.226,0.94,4.517,6.408c-1.09,8.395-1.932,16.822-2.939,25.228
		c-0.146,1.213,0.056,2.868-2.181,2.523c-3.893-0.602-4.729-1.15-4.557-3.534C273.244,42.137,273.484,40.407,273.687,38.54z
		 M274.533,33.233c0.573-4.364,1.122-8.539,1.67-12.713c-0.148-0.075-0.297-0.151-0.445-0.226
		c-3.204,3.463-6.407,6.926-9.714,10.501c0.646,0.271,1.085,0.517,1.557,0.643C269.843,32.038,272.093,32.605,274.533,33.233z"/>
	<path fill-rule="evenodd" clip-rule="evenodd" d="M347.633,50.117c-0.868-1.296-1.49-2.641-2.478-3.618
		c-2.614-2.589-5.786-3.314-9.26-1.992c-4.809,1.833-8.107,5.359-10.174,9.945c-1.998,4.435,0.709,8.502,6.006,9.302
		c1.637,0.247,3.307,0.282,4.965,0.414c-0.585,4.653-3.427,5.694-10.361,3.804c-0.229,0.569-0.508,1.147-0.7,1.752
		c-1.299,4.088-4.127,5.394-7.981,3.594c-1.056-0.494-2.197-1.028-2.958-1.859c-0.578-0.632-0.612-1.762-0.89-2.67
		c1.016-0.278,2.021-0.625,3.055-0.798c0.332-0.057,0.737,0.488,1.115,0.498c0.885,0.023,2.427,0.116,2.545-0.224
		c0.388-1.112,0.816-2.949,0.24-3.539c-4.037-4.128-4.156-8.705-1.69-13.426c3.836-7.345,9.31-12.76,18.137-13.379
		c4.772-0.334,8.948,1.326,12.293,4.72C352.369,45.556,351.671,48.27,347.633,50.117z"/>
	<path fill-rule="evenodd" clip-rule="evenodd" d="M172.988,32.591c0.974-4.613,1.901-9.099,2.871-13.575
		c1.116-5.147,2.321-10.275,3.385-15.433c0.489-2.371,1.666-3.449,4.173-3.242c2.921,0.242,5.866,0.159,8.791,0.354
		c6.358,0.424,9.447,4.682,7.971,10.867c-1.508,6.313-6.468,10.218-13.096,10.308c-4.945,0.067-4.949,0.066-6.076,4.931
		c-0.132,0.569-0.201,1.153-0.322,1.726C179.65,33.427,178.44,34.123,172.988,32.591z M183.363,16.257
		c5.383,1.305,9.271-0.875,9.853-5.697c0.154-1.277-0.464-3.501-1.332-3.873c-1.804-0.771-4.012-0.613-6.059-0.75
		c-0.146-0.01-0.417,0.667-0.501,1.054C184.652,10.078,184.013,13.172,183.363,16.257z"/>
	<path fill-rule="evenodd" clip-rule="evenodd" d="M33.069,420.789c-1.05,5.162-2.114,10.32-3.144,15.486
		c-0.679,3.408-1.397,3.818-5.188,2.646c0.936-4.805,1.872-9.637,2.82-14.467c0.419-2.135,0.985-4.249,1.269-6.401
		c0.352-2.667,2.143-2.856,4.21-2.78c2.015,0.074,4.091-0.188,4.492,2.758c0.607,4.459,1.451,8.886,2.291,13.906
		c0.713-1.052,1.183-1.66,1.564-2.319c2.266-3.919,4.487-7.863,6.773-11.771c1.369-2.339,5.617-3.605,7.949-2.274
		c0.518,0.297,0.945,1.421,0.828,2.055c-1.248,6.757-2.467,13.525-4.018,20.217c-0.655,2.826-3.021,1.35-4.983,1.335
		c1.236-6.227,2.424-12.21,3.612-18.195c-0.123-0.061-0.244-0.121-0.367-0.181c-0.955,1.671-1.922,3.333-2.86,5.015
		c-2.125,3.805-4.33,7.567-6.311,11.447c-0.985,1.931-2.416,2.344-4.323,2.175c-1.99-0.177-1.691-1.736-1.88-3.007
		c-0.777-5.207-1.55-10.415-2.324-15.623C33.343,420.804,33.207,420.797,33.069,420.789z"/>
	<path fill-rule="evenodd" clip-rule="evenodd" d="M139.202,438.921c0.545-2.73,1.097-5.496,1.651-8.261
		c0.838-4.188,1.827-8.354,2.469-12.571c0.499-3.274,2.793-2.769,4.932-2.808c2.051-0.036,3.498,0.468,3.809,2.961
		c0.548,4.396,1.398,8.753,2.194,13.56c0.575-0.743,1.001-1.183,1.299-1.696c2.318-3.989,4.596-8.004,6.921-11.991
		c1.518-2.604,5.426-3.891,8.063-2.567c0.475,0.237,0.949,1.214,0.852,1.745c-1.257,6.84-2.502,13.686-4.007,20.475
		c-0.647,2.919-2.969,1.402-4.964,1.43c1.239-6.325,2.426-12.388,3.613-18.452c-0.104-0.043-0.208-0.086-0.313-0.129
		c-3.105,5.55-6.189,11.111-9.337,16.638c-0.433,0.761-1.059,1.604-1.808,1.953c-2.171,1.015-3.871,0.042-4.24-2.342
		c-0.833-5.381-1.598-10.772-2.768-16.191c-1.044,5.16-2.117,10.315-3.123,15.483C143.762,439.663,143.116,440.071,139.202,438.921z
		"/>
	<path fill-rule="evenodd" clip-rule="evenodd" d="M219.907,30.119c0.423,4.12-0.455,5.128-4.229,4.871
		c-4.356-0.297-8.703-0.746-13.06-1.041c-2.053-0.139-2.676-1.167-2.14-2.999c2.656-9.088,5.312-18.176,8.077-27.231
		c0.242-0.791,1.313-1.938,1.941-1.904c5.834,0.313,11.654,0.849,17.457,1.318c-0.264,4.829-1.001,5.474-5.111,4.971
		c-1.25-0.153-2.504-0.296-3.76-0.359c-4.757-0.241-4.76-0.228-6.15,4.377c-0.243,0.801-0.471,1.607-0.814,2.785
		c2.723,0.292,5.35,0.562,7.974,0.861c0.99,0.113,2.563-0.294,2.261,1.451c-0.273,1.58-0.123,3.825-2.803,3.639
		c-2.846-0.197-5.689-0.46-8.89-0.724c-0.867,2.796-1.747,5.633-2.722,8.775C211.987,29.318,215.868,29.71,219.907,30.119z"/>
	<path fill-rule="evenodd" clip-rule="evenodd" d="M132.696,15.953c2.975-0.26,5.543-0.483,8.112-0.708
		c1.147-0.1,2.609-0.549,2.499,1.371c-0.089,1.552,0.313,3.536-2.233,3.767c-2.835,0.257-5.66,0.626-8.761,0.977
		c-0.32,2.935-0.634,5.819-1,9.187c3.218-0.349,6.252-0.676,9.286-1.007c3.183-0.347,4.162,0.899,2.843,3.87
		c-0.297,0.67-1.264,1.369-1.999,1.463c-4.824,0.619-9.671,1.056-14.506,1.592c-2.03,0.226-2.778-0.681-2.593-2.623
		c0.855-9.02,1.727-18.038,2.519-27.063c0.206-2.344,1.05-3.65,3.644-3.817c4.517-0.292,9.011-0.928,13.527-1.273
		c0.747-0.057,2.193,0.596,2.216,0.985c0.092,1.557,0.56,3.679-1.728,4.095c-2.88,0.524-5.821,0.769-8.747,0.97
		c-1.705,0.117-2.587,0.592-2.534,2.521C133.289,11.995,132.927,13.743,132.696,15.953z"/>
	<path fill-rule="evenodd" clip-rule="evenodd" d="M70.188,13.244c4.185-0.013,5.191,0.922,4.566,4.521
		c-0.089,0.51-1.094,1.183-1.71,1.22c-1.818,0.113-3.695-0.323-5.471-0.044c-2.124,0.332-3.688,1.697-3.863,4.034
		c-0.17,2.275,1.429,3.25,3.266,3.898c1.262,0.445,2.557,0.799,3.846,1.16c8.091,2.269,8.392,10.546,4.857,15.297
		c-3.132,4.209-10.492,6.801-15.606,5.445c-2.134-0.566-3.561-3.86-2.264-5.569c0.313-0.413,1.494-0.419,2.186-0.248
		c2.592,0.644,5.115,0.858,7.615-0.345c1.965-0.946,3.281-2.301,3.195-4.649c-0.083-2.28-1.714-3.098-3.523-3.725
		c-1.106-0.383-2.229-0.72-3.352-1.047c-3.678-1.069-6.229-3.199-6.819-7.19c-0.644-4.36,0.903-7.926,4.587-10.124
		c2.506-1.496,5.487-2.196,8.255-3.251C70.032,12.831,70.11,13.037,70.188,13.244z"/>
	<path fill-rule="evenodd" clip-rule="evenodd" d="M156.25,34.875c-2.611-0.691-4.782-1.051-6.746-1.894
		c-0.79-0.339-1.575-1.734-1.586-2.658c-0.042-3.542,0.644-3.894,3.894-2.468c2.544,1.116,5.258,1.756,7.739,0.316
		c1.286-0.746,2.646-2.37,2.808-3.736c0.139-1.165-1.185-2.74-2.235-3.744c-1.056-1.009-2.536-1.609-3.892-2.262
		c-6.468-3.111-6.362-12.129-0.584-16.032c4.105-2.773,8.651-2.945,13.263-1.513c1.856,0.576,2.62,4.101,1.184,5.454
		c-0.4,0.376-1.458,0.123-2.204,0.054c-2.191-0.202-4.434-0.838-6.544-0.532c-1.076,0.156-2.508,1.878-2.687,3.058
		c-0.175,1.154,0.777,2.774,1.709,3.723c1.012,1.028,2.553,1.556,3.897,2.235c8.199,4.144,6.362,13.778,0.138,17.194
		C161.839,33.479,158.802,34.026,156.25,34.875z"/>
	<path fill-rule="evenodd" clip-rule="evenodd" d="M24.502,53.029c1.998,3.908,1.897,5.933-1.312,8.04
		c-2.735,1.796-5.881,3.241-9.047,4.033c-3.571,0.895-6.741-0.661-9.113-3.572c-5.471-6.716-5.557-19.703-0.1-26.407
		c2.96-3.637,6.862-5.6,11.541-5.89c4.185-0.259,5.885,2.113,4.542,6.204c-0.417-0.001-0.871,0.109-1.245-0.017
		c-5.46-1.847-11.107,1.756-11.539,8.421c-0.216,3.346,0.15,6.907,1.119,10.109c1.43,4.724,5.292,6.023,9.575,3.558
		C20.904,56.367,22.542,54.631,24.502,53.029z"/>
	<path fill-rule="evenodd" clip-rule="evenodd" d="M293.827,425.084c-0.498,5.139-2.049,11.03-8.576,13.563
		c-2.586,1.003-5.775,1.068-8.585,0.719c-3.821-0.476-5.791-3.134-5.986-6.979c-0.19-3.751,0.506-7.342,2.332-10.673
		c3.038-5.543,9.13-8.123,15.239-6.443C292.208,416.359,293.956,419.063,293.827,425.084z M275.476,430.493
		c0.734,1.381,1.23,3.391,2.512,4.463c1.721,1.441,4.029,0.961,5.893-0.28c0.952-0.633,2.054-1.487,2.407-2.482
		c0.991-2.804,2.077-5.7,2.292-8.621c0.265-3.593-2.951-5.668-6.396-4.205c-1.712,0.727-3.393,2.27-4.334,3.883
		C276.709,425.207,276.365,427.627,275.476,430.493z"/>
	<path fill-rule="evenodd" clip-rule="evenodd" d="M72.771,414.818c7.227,0.129,9.765,3.229,9.093,11.226
		c-0.827,9.856-9.014,16.017-17.795,13.094c-1.761-0.586-3.682-2.291-4.452-3.974c-3.241-7.082,2.003-17.79,9.442-19.802
		C70.259,415.039,71.533,414.992,72.771,414.818z M63.684,430.217c-0.051,5.371,4.596,6.363,7.603,4.876
		c1.209-0.597,2.592-1.605,3.069-2.766c1.089-2.65,2.09-5.469,2.355-8.293c0.383-4.076-2.781-6.213-6.582-4.612
		c-1.442,0.607-2.997,1.794-3.694,3.136C65.194,424.942,64.567,427.646,63.684,430.217z"/>
	<path fill-rule="evenodd" clip-rule="evenodd" d="M316.784,438.981c0.599-3.081,1.158-6.013,1.738-8.939
		c0.83-4.191,1.611-8.395,2.574-12.555c0.181-0.78,1.126-1.98,1.71-1.976c3.831,0.032,7.729-0.026,11.468,0.675
		c3.221,0.604,4.841,3.374,4.999,6.741c0.401,8.554-3.406,14.671-10.617,15.938C324.948,439.519,321.03,438.981,316.784,438.981z
		 M322.487,435.107c5.993,1.162,10.021-1.632,11.312-7.642c1.336-6.222-1.78-9.327-8.186-8.024
		C324.577,424.635,323.532,429.871,322.487,435.107z"/>
	<path fill-rule="evenodd" clip-rule="evenodd" d="M98.644,428.107c0.938,3.617,1.844,7.113,2.736,10.551
		c-4.186,1.716-5.281,1.154-5.987-2.678c-0.212-1.151-0.405-2.308-0.69-3.442c-0.583-2.321-1.986-3.384-4.596-2.729
		c-0.408,2.092-0.827,4.209-1.232,6.329c-0.659,3.44-1.827,4.046-5.558,2.732c1.433-7.193,2.807-14.425,4.396-21.607
		c0.175-0.794,1.531-1.791,2.417-1.876c2.406-0.228,4.856-0.073,7.285,0.038c2.454,0.111,4.72,0.783,5.654,3.364
		c1.018,2.811,0.097,5.298-1.855,7.375C100.372,427.06,99.231,427.674,98.644,428.107z M90.88,425.979
		c1.697-0.191,3.063-0.149,4.299-0.531c1.961-0.607,3.073-2.071,2.801-4.201c-0.231-1.809-1.722-1.922-3.187-2.168
		c-2.277-0.384-2.925,0.784-3.117,2.729C91.556,423.037,91.22,424.247,90.88,425.979z"/>
	<path fill-rule="evenodd" clip-rule="evenodd" d="M233.868,428.126c0.946,3.694,1.845,7.201,2.832,11.054
		c-1.657,0.114-2.859,0.437-3.929,0.187c-0.753-0.176-1.659-1.019-1.906-1.761c-0.495-1.489-0.532-3.126-0.857-4.681
		c-0.494-2.368-1.744-3.791-4.663-3.157c-0.402,2.012-0.834,4.119-1.243,6.231c-0.705,3.637-1.569,4.129-5.581,2.933
		c0.939-4.791,1.881-9.609,2.83-14.428c0.436-2.213,0.955-4.413,1.305-6.641c0.262-1.677,1.065-2.592,2.793-2.569
		c2.43,0.03,4.863,0.034,7.29,0.141c2.374,0.103,4.564,0.766,5.508,3.21c1.034,2.68,0.225,5.149-1.562,7.229
		C235.836,426.862,234.623,427.537,233.868,428.126z M226.052,426.197c2.107-0.463,3.995-0.403,5.192-1.282
		c1.052-0.773,2.043-2.803,1.729-3.896c-0.265-0.922-2.387-1.491-3.78-1.865c-2.014-0.539-1.979,1.172-2.235,2.44
		C226.694,422.893,226.444,424.192,226.052,426.197z"/>
	<path fill-rule="evenodd" clip-rule="evenodd" d="M310.471,428.034c0.962,3.78,1.854,7.298,2.821,11.097
		c-1.492,0.138-2.557,0.279-3.626,0.322c-1.382,0.056-2.151-0.513-2.271-2.038c-0.119-1.494-0.55-2.963-0.801-4.45
		c-0.418-2.482-1.721-3.75-4.603-3.231c-0.424,2.11-0.845,4.309-1.313,6.497c-0.737,3.447-1.646,3.908-5.523,2.652
		c0.947-4.883,1.891-9.803,2.859-14.718c0.42-2.137,1.033-4.245,1.295-6.399c0.223-1.836,1.207-2.474,2.84-2.47
		c2.351,0.007,4.711-0.042,7.052,0.136c3.537,0.268,5.288,1.493,5.848,3.806c0.678,2.796-0.565,6.1-2.956,7.788
		C311.48,427.459,310.816,427.821,310.471,428.034z M302.772,425.707c2.576,0.193,4.93,0.338,6.312-1.876
		c0.558-0.895,0.783-3.046,0.341-3.324c-1.467-0.924-3.306-1.256-5.248-1.896C303.626,421.396,303.215,423.473,302.772,425.707z"/>
	<path fill-rule="evenodd" clip-rule="evenodd" d="M16.477,433.946c-2.691,0-5.385-0.196-8.019,0.118
		c-0.806,0.095-1.602,1.502-2.133,2.459c-1.723,3.109-2.46,3.473-6.326,2.455c0.376-0.847,0.68-1.677,1.096-2.444
		c3.438-6.337,6.892-12.666,10.355-18.99c1.26-2.301,4.447-3.393,6.644-2.13c0.579,0.332,0.993,1.302,1.107,2.037
		c1.018,6.544,1.935,13.105,2.925,19.654c0.188,1.246,0.136,2.342-1.411,2.274c-1.299-0.058-3.203,1.026-3.587-1.439
		C16.937,436.706,16.727,435.474,16.477,433.946z M16.079,429.985c-0.436-3.201-0.829-6.09-1.223-8.978
		c-0.176-0.003-0.352-0.005-0.527-0.007c-1.519,2.921-3.037,5.841-4.67,8.984C11.942,429.985,13.831,429.985,16.079,429.985z"/>
	<path fill-rule="evenodd" clip-rule="evenodd" d="M364.263,433.925c-1.387,0-2.666,0.163-3.889-0.031
		c-3.415-0.541-5.663,0.506-6.938,3.938c-0.956,2.579-3.221,1.548-5.488,1.325c0.459-1.095,0.734-1.943,1.15-2.717
		c3.465-6.41,6.949-12.811,10.445-19.205c1.106-2.025,4.912-3.004,6.771-1.739c0.299,0.204,0.577,0.623,0.63,0.979
		c1.108,7.366,2.184,14.737,3.372,22.847c-1.855-0.094-3.973,0.408-4.762-0.396C364.574,437.927,364.69,435.851,364.263,433.925z
		 M362.796,421.009c-0.156-0.044-0.312-0.087-0.468-0.13c-1.548,2.944-3.095,5.889-4.77,9.076c2.416,0,4.313,0,6.441,0
		C363.584,426.862,363.19,423.936,362.796,421.009z"/>
	<path fill-rule="evenodd" clip-rule="evenodd" d="M208.33,425.039c2.624,0,4.944,0,7.226,0c0.366,3.262,0.057,3.641-2.784,3.654
		c-1.673,0.009-3.345,0.002-5.236,0.002c-0.45,2.197-0.878,4.288-1.386,6.765c3.101,0,5.902,0,8.648,0
		c0.479,3.563,0.259,3.826-2.917,3.831c-3.107,0.006-6.216-0.039-9.321,0.017c-1.453,0.026-2.025-0.54-1.74-1.964
		c1.342-6.736,2.614-13.486,4.114-20.188c0.172-0.769,1.577-1.728,2.464-1.786c3.262-0.215,6.549-0.162,9.818-0.027
		c0.645,0.025,1.74,0.827,1.777,1.333c0.077,1.068-0.027,2.453-1.767,2.43c-1.679-0.022-3.374,0.14-5.036-0.033
		c-2.182-0.227-3.322,0.472-3.357,2.78C208.819,422.82,208.537,423.785,208.33,425.039z"/>
	<path fill-rule="evenodd" clip-rule="evenodd" d="M118.855,435.558c3.041,0,5.864,0,8.655,0c0.287,3.402,0.026,3.724-2.854,3.733
		c-3.108,0.01-6.218-0.047-9.324,0.019c-1.85,0.04-2.31-0.633-1.923-2.453c1.34-6.3,2.585-12.623,3.761-18.956
		c0.336-1.812,1.198-2.644,3.019-2.628c3.191,0.029,6.387-0.07,9.573,0.068c0.667,0.029,1.3,0.854,1.948,1.312
		c-0.642,0.815-1.162,2.154-1.951,2.338c-1.595,0.371-3.353,0.269-5.01,0.079c-2.211-0.255-3.264,0.569-3.395,2.77
		c-0.058,0.98-0.295,1.95-0.492,3.182c2.527,0,4.85,0,7.127,0c0.582,3.162,0.257,3.632-2.339,3.675
		c-5.682,0.092-5.684,0.091-6.726,5.661C118.88,434.59,118.895,434.836,118.855,435.558z"/>
	<path fill-rule="evenodd" clip-rule="evenodd" d="M198.376,420.089c-1.311-0.395-2.625-0.924-3.99-1.167
		c-1.775-0.317-3.403,0.066-4.152,1.968c-0.728,1.843,0.557,2.775,1.844,3.646c0.695,0.471,1.432,0.878,2.129,1.345
		c5.007,3.356,4.838,9.479-0.427,12.459c-3.334,1.887-6.884,1.896-10.448,0.587c-1.334-0.49-2.018-1.305-1.73-2.884
		c0.312-1.709,0.767-2.364,2.648-1.48c1.455,0.685,3.259,1.226,4.775,0.987c1.219-0.19,2.707-1.451,3.178-2.603
		c0.307-0.748-0.896-2.236-1.634-3.236c-0.413-0.559-1.257-0.796-1.907-1.18c-2.675-1.582-4.332-3.767-3.813-7.026
		c0.511-3.219,2.442-5.385,5.604-6.062c1.924-0.412,4.021-0.539,5.958-0.248C199.543,415.664,199.938,416.864,198.376,420.089z"/>
	<path fill-rule="evenodd" clip-rule="evenodd" d="M269.084,421.017c-6.981-5.007-11.458,1.017-12.607,6.89
		c-0.08,0.407-0.051,0.836-0.092,1.253c-0.511,5.267,2.754,7.694,7.7,5.711c0.844-0.338,1.659-0.747,2.503-1.13
		c0.803,2.819,0.183,4.19-2.257,5.164c-5.058,2.02-10.71,0.718-12.404-3.199c-2.338-5.402-0.927-10.562,2.087-15.251
		c2.73-4.246,6.849-5.991,11.897-5.43C270.209,415.502,271.42,417.662,269.084,421.017z"/>
	<path fill-rule="evenodd" clip-rule="evenodd" d="M340.156,438.911c1.504-7.422,2.834-14.91,4.621-22.288
		c0.629-2.595,3.022-1.323,5.065-1.114c-1.307,6.551-2.562,12.834-3.814,19.118c-0.082,0.41-0.166,0.819-0.242,1.23
		C345.089,439.675,344.192,440.188,340.156,438.911z"/>
	<path fill-rule="evenodd" clip-rule="evenodd" d="M182.146,415.741c-1.496,7.509-2.788,14.929-4.527,22.242
		c-0.639,2.688-3.109,1.118-5.15,1.311c1.213-6.113,2.35-11.851,3.493-17.587c0.213-1.067,0.462-2.128,0.677-3.195
		C177.365,414.91,178.132,414.479,182.146,415.741z"/>
	<path fill-rule="evenodd" clip-rule="evenodd" d="M240.112,438.913c1.385-6.862,2.728-13.581,4.102-20.293
		c0.752-3.681,1.474-4.094,5.482-2.919c-0.579,2.943-1.174,5.935-1.756,8.929c-0.73,3.774-1.432,7.554-2.181,11.324
		C245.027,439.642,244.208,440.101,240.112,438.913z"/>
	<path fill-rule="evenodd" clip-rule="evenodd" d="M282.63,413.281c3.207-4.984,5.207-6.42,8.522-4.682
		C288.662,412.448,285.896,414.021,282.63,413.281z"/>
</g>
</svg>
