<?xml version="1.0" encoding="utf-8"?>
<!-- Generator: Adobe Illustrator 16.0.0, SVG Export Plug-In . SVG Version: 6.00 Build 0)  -->
<!DOCTYPE svg PUBLIC "-//W3C//DTD SVG 1.1//EN" "http://www.w3.org/Graphics/SVG/1.1/DTD/svg11.dtd">
<svg version="1.1" id="Layer_1" xmlns="http://www.w3.org/2000/svg" xmlns:xlink="http://www.w3.org/1999/xlink" x="0px" y="0px"
	 width="322.75px" height="204.75px" viewBox="0 0 322.75 204.75" enable-background="new 0 0 322.75 204.75" xml:space="preserve">
<path fill-rule="evenodd" clip-rule="evenodd" d="M91.5,39.247c-1.193,0.08-2.37,0.21-3.548,0.226
	c-3.045,0.042-4.886-2.269-4.186-5.23c0.329-1.389,1.278-2.143,2.644-2.42c3.48-0.706,6.959-1.412,10.673-2.166
	c-0.177-0.906-0.305-1.803-0.532-2.674c-0.457-1.753-0.033-3.068,1.503-4.177c2.733-1.972,5.723-3.076,9.079-3.174
	c1.433-0.042,2.868-0.007,4.692-0.007c-0.923-0.794-1.582-1.333-2.208-1.905c-1.031-0.944-1.339-2.106-1.004-3.461
	c0.343-1.389,1.322-2.386,2.757-2.379c4.446,0.022,8.893,0.118,13.335,0.273c0.927,0.033,1.518-0.007,2.051-0.93
	c1.276-2.209,3.328-2.915,6.313-2.182c5.294,1.299,10.564,2.699,15.849,4.036c0.892,0.226,1.81,0.346,2.877,0.269
	c-0.84-1.026-1.701-2.036-2.515-3.083c-0.571-0.734-1.146-1.479-1.599-2.287c-0.828-1.479-0.743-2.663,0.257-3.749
	c1.071-1.162,2.404-1.846,3.98-1.266c0.93,0.342,1.784,0.954,2.592,1.552c2.72,2.013,5.404,4.075,8.156,6.159
	c0.411-0.781,0.729-1.464,1.114-2.107c1.371-2.288,3.069-2.869,5.322-1.459c1.812,1.133,3.389,2.644,5.061,3.999
	c0.355,0.288,0.669,0.627,1.017,0.956c0.364-0.226,0.648-0.402,0.933-0.579c2.476-1.54,4.92-1.491,7.172,0.405
	c4.313,3.63,8.541,7.36,12.805,11.048c0.277,0.24,0.558,0.476,0.874,0.746c0.364-0.758,0.632-1.467,1.022-2.099
	c0.948-1.533,2.337-2.109,3.912-1.242c3.931,2.163,7.116,5.02,8.043,9.729c0.208,1.057,0.646,2.069,1.023,3.241
	c0.535-0.787,0.884-1.42,1.345-1.958c1.781-2.08,4.052-2.091,5.682,0.102c0.923,1.242,1.678,2.648,2.289,4.075
	c0.982,2.289,1.769,4.66,2.668,6.984c0.335,0.863,0.594,1.827,1.164,2.515c3.112,3.753,3.488,7.935,2.189,12.442
	c-0.397,1.377-0.872,2.751-1.07,4.161c-0.129,0.922-0.026,1.985,0.319,2.845c1.343,3.333,2.805,6.62,4.283,9.896
	c0.159,0.351,0.704,0.711,1.099,0.746c15.956,1.397,31.499,4.925,46.882,9.202c5.745,1.598,11.147,4.045,15.604,8.166
	c0.952,0.881,1.876,1.902,2.465,3.039c0.615,1.19,1.439,1.398,2.613,1.491c4.841,0.382,9.543,1.397,13.933,3.546
	c4.617,2.259,8.131,5.535,9.208,10.792c0.907,4.421-0.185,8.61-2.046,12.57c-1.273,2.71-2.951,5.227-4.373,7.871
	c-0.75,1.396-1.526,2.824-1.966,4.332c-1.608,5.52-3.135,11.064-4.571,16.631c-0.461,1.79-0.421,3.705-0.831,5.514
	c-1.205,5.3-4.797,8.563-9.613,10.539c-4.221,1.732-8.609,3.058-12.805,4.845c-5.287,2.252-10.473,4.748-15.657,7.233
	c-1.281,0.614-2.396,1.581-3.573,2.404c-2.822,1.976-5.879,3.45-9.065,4.777c-2.187,0.91-4.28,0.419-6.415,0.548
	c-0.61,0.037-1.234-0.042-1.834,0.049c-1.818,0.276-3.487-0.826-4.376-2.958c-1.288-3.088-2.88-3.861-6.151-4.232
	c-3.631-0.412-7.267-1.16-10.776-2.188c-11.758-3.444-23.454-7.104-35.191-10.619c-2.4-0.72-3.958-2.377-5.379-4.239
	c-2.442-3.199-4.009-6.848-5.3-10.628c-0.12-0.351-0.241-0.7-0.397-1.153c-2.022,1.593-3.943,3.179-5.938,4.665
	c-14.697,10.95-31.116,18.211-48.824,22.677c-13.342,3.363-26.901,4.981-40.654,4.523c-18.077-0.602-35.412-4.277-51.441-13.055
	c-0.626-0.344-1.542-0.306-2.303-0.234c-4.896,0.457-9.787,1.012-14.689,0.104c-4.326-0.8-6.437-3.605-5.852-7.713
	c0.273-1.917,1.397-3.105,3.132-3.819c1.398-0.576,1.788-2.18,0.802-3.315c-6.226-7.174-10.532-15.302-12.33-24.689
	c-2.074-10.827-0.567-21.236,3.695-31.3c4.769-11.259,12.188-20.6,21.253-28.658C45.282,56.624,65.439,47.47,87.553,42.281
	c0.453-0.106,0.91-0.195,1.366-0.286C91.084,41.563,91.084,41.564,91.5,39.247z M280.243,88.321
	c-1.075-0.347-2.138-0.738-3.227-1.035c-14.989-4.09-30.081-7.645-45.618-8.974c-6.994-0.598-13.965-0.586-20.918,0.402
	c-11.47,1.631-21.429,6.846-30.928,13.128c-1.611,1.066-2.623,2.198-2.611,4.541c0.033,7.014-2.309,13.464-5.782,19.498
	c-0.559,0.97-0.713,1.824-0.385,2.858c0.702,2.217,1.137,4.649,2.921,6.246c2.229,1.996,3.791,4.366,4.679,7.131
	c1.796,5.59,3.456,11.225,5.104,16.861c1.406,4.811,2.956,9.546,6.019,13.612c1.13,1.5,2.409,2.737,4.338,3.314
	c11.498,3.436,22.954,7.013,34.462,10.415c4.026,1.189,8.081,2.467,12.376,2.21c-0.218-2.404-0.568-4.79-0.625-7.183
	c-0.203-8.621-1.781-16.972-4.593-25.114c-0.516-1.495-1.346-2.607-2.53-3.657c-5.223-4.629-7.508-10.413-6.448-17.399
	c0.808-5.321,3.322-9.848,6.756-13.859c7.757-9.063,17.572-15.165,28.604-19.408C267.734,89.641,273.864,88.477,280.243,88.321z
	 M151.194,52.035c-0.692,0.329-1.271,0.691-1.901,0.884c-1.642,0.501-3.292,1.224-4.966,1.308c-2.067,0.104-4.01,0.199-5.821,1.363
	c-1.157,0.744-2.686,1.09-3.671,0.008c-1.773-1.948-3.124-1.075-4.626,0.204c-0.544,0.463-1.196,0.8-1.799,1.194
	c-1.107,0.724-2.305,1.05-3.625,0.8c-1.906-0.36-3.661,0.033-5.413,0.842c-2.299,1.061-4.009,0.645-5.761-1.16
	c-0.223-0.229-0.462-0.443-0.712-0.682c-1.18,1.41-2.249,2.786-3.422,4.065c-1.653,1.803-3.563,3.278-5.971,3.94
	c-2.437,0.669-4.656-0.624-4.494-2.712c0.129-1.665-0.042-3.483,1.367-4.965c-1.302-0.088-2.569-0.166-3.775,0.07
	c-2.932,0.575-5.015,2.526-6.992,4.607c-0.962,1.014-1.909,2.054-2.961,2.968c-1.796,1.559-4.245,1.386-5.967-0.317
	c-1.524-1.507-1.589-3.469,0.006-5.357c1.749-2.07,3.49-4.179,5.481-6.001c2.411-2.207,3.5-4.869,3.735-8.083
	c-0.333,0.032-0.629,0.027-0.909,0.091c-14.798,3.353-28.83,8.663-41.826,16.547c-12.692,7.7-23.761,17.193-31.905,29.757
	c-7.256,11.195-11.166,23.314-9.493,36.825c1.133,9.148,4.808,17.218,10.589,24.358c0.109,0.134,0.299,0.201,0.718,0.474
	c0.466-5.855,0.898-11.469,1.372-17.077c0.094-1.114-0.191-1.711-1.364-2.094c-1.996-0.653-3.042-2.206-3.204-4.312
	c-0.264-3.448,1.328-6.124,4.699-7.08c2.248-0.638,4.656-0.811,7.007-0.958c3.76-0.235,7.533-0.29,11.3-0.394
	c3.507-0.097,7.038-0.443,10.519-0.176c6.503,0.498,10.885,4.577,11.837,10.979c0.395,2.652,0.065,5.411,0.065,7.739
	c1.894-1.847,4.047-3.947,6.157-6.005c-2.777-1.058-3.999-2.307-4.485-4.677c-1.29-6.286,3.124-11.686,9.65-11.827
	c2.992-0.065,5.759,0.81,8.493,1.895c0.391,0.155,1.022,0.211,1.321,0c1.073-0.758,2.051-1.65,3.058-2.487
	c-0.249-0.129-0.626-0.314-0.994-0.518c-4.916-2.719-7.604-6.858-7.469-12.504c0.21-8.785,4.263-15.339,11.995-19.556
	c1.211-0.661,2.524-1.134,3.839-1.715c-1.521-3.009-0.589-5.404,1.746-7.505c0.375-0.337,0.69-0.967,0.686-1.458
	c-0.017-1.918,0.818-3.327,2.49-4.094c4.22-1.935,8.547-2.066,12.791-0.147c2.766,1.25,3.704,3.959,2.639,6.84
	c-0.768,2.078-2.269,3.551-4.043,4.774c-0.828,0.571-1.709,1.065-2.684,1.666c3.953,1.337,6.992,3.617,8.902,7.244
	c0.673-0.485,1.246-0.898,1.856-1.338c-0.11-0.493-0.243-0.98-0.328-1.475c-0.795-4.62,0.372-8.586,4.037-11.636
	c2.948-2.454,6.446-3.489,10.229-3.639c3.322-0.131,6.398,0.621,9.051,2.716c5.391,4.258,3.599,12.597-1.802,14.426
	c-0.167,0.057-0.296,0.224-0.354,0.27c1.329,0.678,2.628,1.341,4.057,2.071c3.019-2.462,6.549-4.609,10.604-5.781
	c3.643-1.052,6.771,0.15,8.76,3.361c0.54,0.871,0.958,1.816,1.459,2.779c2.383-6.474,11.876-7.247,15.171-0.983
	c7.354-5.068,15.091-9.414,23.703-12.39c-0.951-1.494-1.847-2.876-2.719-4.274c-1.667-2.671-3.589-5.023-6.863-5.808
	c-0.48-0.115-0.94-0.395-1.356-0.677c-0.336-0.229-0.727-0.524-0.863-0.878c-0.896-2.326-2.751-3.276-5.027-3.794
	c-1.347-0.306-2.737-0.678-3.928-1.343c-1.547-0.862-3.107-1.314-4.848-1.192c-1.563,0.11-3.122,0.338-4.685,0.357
	c-2.314,0.027-3.338-1.007-3.385-3.322c-0.023-1.157,0.089-2.316,0.148-3.665c-2.437,1.119-4.697,2.287-7.059,3.196
	c-1.55,0.597-3.227,0.982-4.879,1.159c-1.466,0.157-2.399-0.664-2.743-2.126C151.379,54.533,151.35,53.378,151.194,52.035z
	 M255.969,185.115c3.052-0.942,5.615-2.395,8.063-4.072c1.291-0.885,2.473-1.995,3.869-2.648c6.626-3.097,13.277-6.146,19.985-9.058
	c3.174-1.377,6.56-2.265,9.736-3.636c4.039-1.744,6.807-4.691,7.472-9.24c0.208-1.423,0.2-2.895,0.558-4.274
	c1.433-5.522,2.999-11.011,4.455-16.527c0.602-2.278,1.582-4.313,2.929-6.26c2.563-3.708,4.727-7.668,5.506-12.173
	c1.193-6.901-1.184-10.924-8.052-12.373c-4.285-0.904-8.526-0.572-12.715,0.435c-10.017,2.408-19.06,6.923-27.277,13.076
	c-4.591,3.437-8.498,7.53-11.044,12.77c-3.13,6.439-2.467,12.941,1.928,17.755c0.917,1.004,1.02,1.833,0.508,3.062
	c-2.646,6.36-4.384,12.971-5.106,19.83c-0.372,3.529-0.681,7.066-0.961,10.604C255.753,183.25,255.909,184.132,255.969,185.115z
	 M38.021,169.785c0.513,0.279,0.87,0.49,1.24,0.674c14.826,7.365,30.657,10.475,47.073,10.997
	c10.153,0.322,20.221-0.592,30.207-2.442c15.595-2.891,30.383-8.03,44.213-15.837c6.659-3.759,12.932-8.08,18.677-13.138
	c0.393-0.346,0.798-1.115,0.677-1.539c-1.431-4.995-2.835-10.005-4.528-14.913c-0.672-1.948-1.767-3.918-3.171-5.402
	c-1.653-1.746-2.915-3.591-3.709-5.814c-0.188-0.526-0.403-1.042-0.664-1.71c-3.049,3.898-6.491,7.091-10.811,9.297
	c4.579,3.988,2.717,11.431-2.274,13.061c0.233,0.274,0.436,0.532,0.657,0.772c6.419,6.993,4.774,15.98-3.697,20.27
	c-3.354,1.698-6.933,2.581-10.65,2.584c-5.265,0.003-10.416-0.521-13.548-5.671c-5.17,4.253-10.991,6.826-17.708,7.115
	c-4.229,0.182-8.318-0.39-11.874-2.906c-1.185-0.838-2.178-1.946-3.285-2.956c-2.932,3.361-6.737,5.336-10.98,6.462
	c-3.431,0.91-6.69,0.793-8.819-2.51c-1.447,0.918-2.767,1.94-4.237,2.657c-6.99,3.412-14.123,0.403-15.997-6.895
	c-0.587-2.287-0.612-4.79-0.483-7.171c0.134-2.488,0.764-4.949,1.184-7.465c-4.662,5.439-10.94,7.231-17.891,7.716
	c0,0.781,0.052,1.456-0.013,2.12c-0.084,0.86,0.083,1.36,1.053,1.649c1.765,0.527,2.848,1.848,3.164,3.65
	C42.241,164.812,42.132,167.387,38.021,169.785z M243.477,176.159c0.399-8.997,2.289-17.632,5.5-25.992
	c0.313-0.811,0.277-1.321-0.289-2.009c-2.872-3.485-4.382-7.493-4.325-12.041c0.067-5.372,2.128-10.043,5.155-14.343
	c4.213-5.982,9.748-10.565,15.731-14.65c6.743-4.604,14.003-8.031,22.1-9.473c1.882-0.335,3.79-0.523,5.726-0.784
	c-1.378-2.205-2.764-3.285-5.013-3.949c-4.501-1.328-9.095-1.491-13.713-0.934c-6.842,0.826-13.238,3.091-19.289,6.33
	c-7.715,4.13-14.834,9.043-20.282,16.044c-2.854,3.667-4.989,7.699-5.412,12.397c-0.544,6.05,2.046,10.728,6.681,14.442
	c0.599,0.479,1.178,1.142,1.454,1.842c3.444,8.735,5.314,17.799,5.569,27.196C243.123,172.213,243.337,174.185,243.477,176.159z
	 M34.581,152.154c2.476-0.241,4.757-0.364,7.007-0.7c9.791-1.459,15.508-8.396,14.855-17.931c-0.325-4.743-3.1-8.125-7.715-9.218
	c-1.43-0.338-2.938-0.569-4.398-0.515c-4.061,0.151-8.112,0.528-12.172,0.719c-3.298,0.155-6.612,0.05-9.9,0.303
	c-1.375,0.106-2.797,0.666-4.025,1.335c-1.28,0.697-1.516,2.077-1.236,3.472c0.255,1.271,1.273,1.549,2.358,1.763
	c1.838,0.363,2.186,0.752,2.127,2.668c-0.091,2.963-0.124,5.939-0.44,8.882c-0.58,5.386-1.333,10.754-2.05,16.124
	c-0.235,1.759-1.038,3.114-2.923,3.578c-1.006,0.247-1.415,0.968-1.45,1.977c-0.06,1.698,0.471,2.653,2.084,3.226
	c0.986,0.35,2.053,0.667,3.082,0.662c3.805-0.015,7.62-0.021,11.407-0.331c1.985-0.163,3.976-0.797,5.859-1.499
	c1.512-0.564,1.986-1.776,1.828-3.28c-0.144-1.367-1.116-1.776-2.256-2.029c-1.234-0.275-1.964-1.121-2.013-2.317
	C34.514,156.727,34.581,154.406,34.581,152.154z M151.763,117.848c0.041,2.332-0.275,3.979-1.831,5.051
	c-0.386,0.266-1.114,0.354-1.521,0.167c-0.297-0.137-0.447-0.858-0.446-1.318c0.001-0.669,0.212-1.335,0.307-2.005
	c0.233-1.647-0.064-3.143-1.39-4.27c-3.212-2.731-8.689-0.77-9.433,3.367c-0.688,3.832,1.56,7.708,5.254,8.996
	c0.367,0.128,0.812,0.044,1.22,0.037c2.363-0.043,4.771-0.396,7.075-0.054c2.228,0.331,4.092-0.047,5.889-1.206
	c1.28-0.825,2.604-1.618,3.748-2.612c6.74-5.86,10.684-13.37,12.631-21.979c0.691-3.059,1.1-6.186,0.292-9.311
	c-0.446-1.728-1.496-2.913-3.289-3.349c-2.161-0.526-4.087-0.097-5.525,1.633c-1.409,1.696-1.151,3.597-0.102,5.342
	c2.188,3.638,1.459,7.239,0.008,10.84c-0.177,0.439-0.682,0.906-1.12,1.016c-0.234,0.059-0.812-0.563-0.961-0.976
	c-0.718-1.987-1.361-4.003-1.998-6.019c-1.043-3.306-1.906-6.678-3.134-9.913c-1.167-3.075-3.466-3.993-6.561-2.917
	c-3.605,1.253-6.826,3.195-9.605,5.813c-0.728,0.686-1.364,1.521-1.857,2.392c-0.69,1.22-0.224,2.815,0.912,3.763
	c1.131,0.942,2.114,0.484,3.078-0.293c0.231-0.186,0.489-0.338,0.719-0.524c0.771-0.626,1.398-0.431,1.923,0.331
	c0.215,0.313,0.439,0.627,0.605,0.967C149.368,106.388,150.925,112.295,151.763,117.848z M57.168,157.114
	c0.093,0.901,0.144,1.962,0.32,3.001c0.943,5.564,5.482,8.24,10.833,6.427c2.361-0.801,4.139-2.407,5.898-4.084
	c0.606-0.578,1.451-0.904,2.187-1.346c0.306,0.738,0.707,1.454,0.898,2.222c0.437,1.746,1.267,2.563,3.054,2.674
	c0.709,0.044,1.449,0.004,2.139-0.153c2.929-0.667,5.629-1.892,7.978-3.757c0.938-0.745,1.791-1.709,2.389-2.743
	c0.842-1.455,0.161-2.732-1.473-2.914c-1.101-0.121-1.351-0.773-1.347-1.63c0.009-2.285,0.006-4.575,0.145-6.855
	c0.242-3.972,0.63-7.936,0.867-11.907c0.109-1.828-0.567-2.396-2.433-2.393c-2.086,0.003-3.877,0.906-5.53,2.009
	c-1.505,1.005-2.842,1.054-4.336,0.063c-2.57-1.706-5.38-1.817-8.143-0.698c-1.781,0.721-3.596,1.62-5.043,2.853
	C59.731,142.855,57.616,149.547,57.168,157.114z M135.714,98.886c0.381-1.497,0.557-2.712,1.002-3.82
	c0.846-2.103,0.633-2.616-1.542-2.7c-0.884-0.034-1.266-0.355-1.668-1.172c-0.504-1.021-1.267-2.046-2.182-2.699
	c-1.112-0.792-2.521-1.157-3.762-1.786c-0.776-0.393-1.602-0.815-2.186-1.432c-0.847-0.896-0.78-2.232-0.024-2.86
	c1.015-0.843,1.798-0.198,2.57,0.452c0.971,0.816,1.861,1.767,2.934,2.415c2.902,1.756,6.231,0.557,7.265-2.507
	c0.988-2.93-0.394-5.861-3.59-7.198c-4.457-1.866-8.769-1.186-12.729,1.359c-4.348,2.793-5.29,7.958-2.462,12.339
	c0.115,0.178,0.233,0.355,0.333,0.541c0.608,1.125,0.356,1.583-0.898,1.596c-0.507,0.005-1.019-0.024-1.523-0.083
	c-0.899-0.105-1.457,0.142-1.563,1.159c-0.128,1.22-0.323,2.435-0.554,3.64c-0.218,1.14,0.312,1.609,1.353,1.613
	c4.256,0.018,3.635,0.6,3.282,4.263c-0.008,0.084-0.03,0.167-0.05,0.25c-1.2,5.02-2.422,10.035-3.586,15.063
	c-0.316,1.368-0.837,2.504-1.976,3.424c-1.374,1.111-1.341,3.123,0.083,4.196c0.815,0.615,1.848,1.112,2.847,1.279
	c3.439,0.575,6.741-0.139,9.894-1.524c1.376-0.604,2.154-1.741,2.303-3.269c0.115-1.179,0.158-2.372,0.366-3.535
	c0.947-5.293,1.955-10.576,2.914-15.867c0.518-2.86,0.493-2.865,3.292-3.24C135.894,98.777,135.926,98.736,135.714,98.886z
	 M108.869,165.049c5.25,0.003,11.385-2.106,15.469-5.327c1.225-0.966,2.224-2.097,2.528-3.69c0.265-1.385-0.763-3.045-2.13-3.098
	c-0.815-0.031-1.69,0.4-2.47,0.769c-1.831,0.865-3.576,1.924-5.44,2.701c-1.521,0.635-3.159,0.661-4.662-0.219
	c-0.844-0.493-1.5-1.19-1.298-2.263c0.209-1.11,1.222-1.008,2.026-1.149c1.163-0.203,2.385-0.206,3.494-0.566
	c5.5-1.788,9.725-5.001,11.198-10.892c1.204-4.813-1.285-8.584-6.156-9.171c-2.144-0.258-4.419-0.124-6.545,0.288
	c-9.791,1.897-18.375,9.797-19.092,20.201c-0.3,4.36,0.802,8.091,4.771,10.47C103.104,164.625,105.944,165.062,108.869,165.049z
	 M91.639,115.149c9.919-0.005,17.73-6.185,19.684-15.27c1.58-7.347-1.458-12.815-8.324-14.682
	c-10.902-2.964-23.328,3.499-24.839,16.64c-0.416,3.623,0.36,6.926,3.107,9.541C84.281,114.248,88.022,115.077,91.639,115.149z
	 M304.418,101.16c-0.461-0.039-0.939-0.011-1.38-0.127c-6.549-1.728-13.019-1.121-19.438,0.669
	c-8.268,2.307-15.408,6.706-22.033,12.024c-4.596,3.689-8.669,7.855-11.521,13.085c-4.003,7.34-3.408,14.491,1.793,20.234
	c0.917,1.014,1.028,1.836,0.517,3.054c-4.093,9.745-5.719,19.964-5.667,30.483c0.017,3.464,3.574,5.632,6.185,4.869
	c-0.044-0.687-0.165-1.366-0.113-2.033c0.119-1.554,0.46-3.101,0.471-4.651c0.063-9.167,1.929-17.979,5.186-26.508
	c0.417-1.092,0.229-1.727-0.422-2.574c-3.11-4.057-4.09-8.672-3.286-13.672c0.976-6.062,4.202-10.917,8.375-15.224
	c5.748-5.932,12.695-10.112,20.099-13.6C289.923,104.013,296.893,101.626,304.418,101.16z M148.042,130.266
	c-0.028,0.111-0.056,0.223-0.084,0.334c-3.697,0.001-7.62,1.144-10.447,3.083c-1.929,1.323-3.492,2.962-4.194,5.262
	c-1.118,3.662,0.05,6.762,2.484,9.475c1.526,1.699,3.258,3.219,4.716,4.97c0.477,0.572,0.669,1.688,0.483,2.43
	c-0.259,1.036-1.383,1.454-2.369,1.28c-0.839-0.148-1.686-0.643-2.366-1.187c-0.572-0.458-0.862-1.25-1.361-1.821
	c-0.875-1.002-2.045-1.129-3.03-0.249c-0.547,0.488-1.032,1.147-1.302,1.826c-1.195,3.01,0.262,5.834,3.839,6.939
	c6.336,1.957,12.393,1.14,17.989-2.472c1.706-1.101,2.976-2.641,3.591-4.63c1.152-3.727-0.061-6.846-2.616-9.527
	c-1.371-1.438-2.951-2.676-4.361-4.08c-0.709-0.706-1.378-1.518-1.832-2.401c-0.467-0.91-0.444-1.95,0.611-2.56
	c0.957-0.552,1.889-0.387,2.648,0.428c0.46,0.495,0.84,1.064,1.292,1.568c1.349,1.502,2.989,1.382,4.14-0.286
	c1.772-2.569,1.107-5.592-1.761-6.787C152.202,131.063,150.074,130.779,148.042,130.266z M91.801,118.332
	c2.65,4.441,1.555,8.49-1.335,12.353c2.734,0.932,3.835,2.82,3.682,5.516c-0.058,1.015-0.112,2.03-0.191,3.043
	c-0.217,2.764-0.446,5.525-0.67,8.288c1.731-4.861,4.51-8.919,8.456-12.176c3.904-3.222,8.405-5.204,13.691-6.246
	c-0.758-0.333-1.146-0.49-1.523-0.671c-4.316-2.071-5.079-6.997-1.602-10.236c0.291-0.27,0.554-0.651,0.657-1.028
	c0.932-3.43,1.869-6.859,2.713-10.312c0.476-1.947,0.781-3.936,1.168-5.937c-0.599-0.094-0.971-0.151-1.344-0.212
	c-0.365-0.06-0.729-0.123-1.059-0.179C111.156,111.96,103.5,117.688,91.801,118.332z M216.44,60.076
	c-3.812-1.102-6.723,0.256-9.643,1.7c-1.816,0.898-3.679,1.721-5.571,2.444c-2.604,0.996-5.191,0.972-7.751-0.328
	c-0.629-0.319-1.466-0.229-2.208-0.321c-0.938-0.116-1.191,0.385-1.076,1.388c5.036,1.661,10.132,3.334,15.222,5.021
	c3.175,1.052,6.191,0.638,9.046-1.007c1.642-0.946,3.219-2.002,4.879-3.042c0.194,0.285,0.419,0.541,0.564,0.836
	c1.173,2.39,2.317,4.795,3.511,7.175c0.179,0.358,0.531,0.808,0.867,0.871c0.714,0.134,1.47,0.041,2.47,0.041
	c-1.365-2.948-2.627-5.664-3.879-8.383c-0.389-0.845-0.827-1.677-1.104-2.559c-0.566-1.804-0.141-3.497,0.709-5.14
	c1.563-3.023,2.145-6.125,0.694-9.395c-1.132-2.551-2.147-5.154-3.299-7.696c-1.353-2.986-2.796-5.932-4.142-8.772
	c-1.314,0.125-1.354,0.691-1.12,1.464c0.344,1.133,0.602,2.292,0.956,3.421c1.316,4.188,1.006,8.112-1.392,11.927
	c-2.107,3.354-1.867,4.539,0.732,7.599c0.357,0.419,0.782,0.792,1.071,1.253C216.189,58.909,216.229,59.354,216.44,60.076z
	 M83.561,63.084c1.622-1.489,3.109-2.807,4.544-4.18c3.377-3.231,7.159-5.469,12.028-5.557c2.633-0.047,4.899-1.226,6.281-3.531
	c1.613-2.691,1.791-5.836,2.586-8.833c-1.702-0.539-3.213-1.104-4.767-1.494c-6.884-1.729-11.931,2.281-12.007,8.839
	c-0.012,1.001-0.378,2.15-0.957,2.961c-1.269,1.78-2.625,3.558-4.231,5.021c-1.827,1.663-3.25,3.535-4.438,5.833
	C82.849,62.388,83.114,62.646,83.561,63.084z M177.959,14.454c0.821,0.671,1.59,1.422,2.473,1.998
	c3.755,2.452,6.425,5.658,7.029,10.226c0.266,2.008,0.225,4.056,0.367,6.082c0.432,6.119,4.789,10.857,11.109,11.883
	c0.096-3.618,0.367-7.211,0.228-10.788c-0.105-2.688-1.375-5.039-3.382-6.915c-0.896-0.839-1.791-1.681-2.697-2.51
	c-3.248-2.975-6.478-5.972-9.763-8.906C181.884,14.239,180.224,13.458,177.959,14.454z M82.327,123.432
	c-1.014-0.301-1.918-0.559-2.815-0.837c-2.456-0.763-4.862-1.81-7.374-2.243c-4.843-0.834-8.507,2.477-8.283,7.161
	c0.074,1.562,0.771,2.591,2.064,3.05c1.546,0.548,3.709,0.185,4.51-0.825c0.245-0.309,0.395-0.752,0.438-1.15
	c0.203-1.892,0.3-2.043,2.133-1.493c2.063,0.619,4.05,1.492,6.115,2.103c1.61,0.476,3.3,1.053,4.935,0.999
	c3.943-0.131,6.823-4.019,6.027-7.939c-0.168-0.826-0.701-1.823-1.377-2.258C86.083,118.311,82.752,119.986,82.327,123.432z
	 M138.857,129.372c-4.594-4.667-5.804-9.195-3.633-13.493c1.109-2.198,2.895-3.65,5.25-4.315c2.282-0.645,4.563-0.43,7.098,0.538
	c-1.071-3.165-2.037-6.019-3.03-8.956c-2.771,1.324-4.988,0.94-6.934-1.117c-0.601-0.636-1.838-0.168-2.016,0.7
	c-0.306,1.494-0.591,2.991-0.85,4.493c-0.776,4.504-1.754,8.988-2.235,13.524c-0.436,4.122-2.505,6.501-6.34,7.597
	c-0.488,0.139-0.975,0.285-1.465,0.414c-0.486,0.128-0.977,0.239-1.785,0.435c4.239,1.111,6.8,3.518,7.811,7.774
	C132.526,133.163,135.426,130.983,138.857,129.372z M99.152,25.394c0.392,1.09,0.58,1.232,1.701,0.96
	c0.778-0.189,1.534-0.478,2.295-0.736c3.907-1.326,7.81-1.465,11.397,0.759c1.876,1.164,3.469,2.812,5.095,4.341
	c1.23,1.157,2.445,2.367,4.239,2.24c3.464-0.245,6.918-0.634,10.372-1.008c0.391-0.042,1.012-0.321,1.065-0.584
	c0.082-0.401-0.114-1.001-0.408-1.314c-2.061-2.195-4.21-4.307-6.262-6.51c-1.147-1.233-2.541-1.634-4.125-1.561
	c-4.784,0.22-9.571,0.396-14.348,0.727C106.399,22.969,102.468,22.695,99.152,25.394z M151.244,5.934
	c-0.154,0.018-0.307,0.037-0.46,0.055c0.021,0.369-0.08,0.811,0.087,1.093c0.363,0.615,0.838,1.172,1.312,1.714
	c4.209,4.817,7.292,10.291,9.411,16.306c1.688,4.792,5.267,7.411,9.908,8.862c0.405,0.127,0.859,0.099,1.374,0.151
	c-0.442-3.182-0.959-6.149-1.241-9.139c-0.3-3.167-1.905-5.319-4.559-6.902c-1.488-0.887-2.922-1.887-4.287-2.955
	C158.915,12.09,155.089,9,151.244,5.934z M168.999,56.189c0.013,1.184,0.457,1.485,1.45,1.249c2.51-0.598,5.047-1.08,7.555-1.685
	c3.768-0.91,7.546-1.634,11.432-0.909c3.781,0.706,8.729-2.007,10.185-5.777c-1.602-1.022-3.175-2.185-4.886-3.086
	c-4.084-2.149-7.861-2.083-11.588,1.182C178.923,50.863,174.612,54.569,168.999,56.189z M200.915,23.851
	c0.227,0.532,0.351,0.873,0.512,1.196c2.61,5.213,2.973,10.505,0.642,15.926c-0.293,0.681-0.47,1.463-0.487,2.204
	c-0.108,4.555,4.887,9.412,9.438,9.148c0.432-0.025,1.013-0.553,1.214-0.991c1.373-2.994,0.813-5.957-0.349-8.863
	c-1.301-3.258-2.61-6.513-3.983-9.742c-0.841-1.979-1.697-3.968-2.753-5.835C204.285,25.368,202.878,24.355,200.915,23.851z
	 M157.242,30.323c2.209,0.159,2.864-0.444,2.504-2.107c-0.577-2.674-1.562-5.192-3.247-7.384c-2.091-2.719-4.897-4.118-8.242-4.818
	c-5.173-1.082-10.285-2.457-15.443-3.616c-0.858-0.192-1.828,0.028-2.729,0.17c-0.275,0.043-0.493,0.461-0.736,0.707
	c0.245,0.239,0.452,0.612,0.742,0.695c1.625,0.467,3.25,0.975,4.91,1.264c4.894,0.85,8.666,3.226,11.042,7.682
	C148.506,27.534,152.509,29.799,157.242,30.323z M183.636,39.147c-2.446-0.567-4.869-0.897-7.214-0.18
	c-1.447,0.443-3.023,1.142-4.032,2.208c-2.813,2.972-6.129,5.167-9.616,7.207c-2.591,1.515-5.08,3.204-7.588,4.855
	c-0.321,0.211-0.482,0.666-0.717,1.008c0.416,0.078,0.844,0.257,1.246,0.211c0.619-0.071,1.32-0.148,1.814-0.48
	c4.102-2.751,8.702-3.407,13.476-3.224C178.445,51.037,183.101,44.819,183.636,39.147z M112.219,15.445
	c-0.001,0.139-0.001,0.278-0.002,0.417c2.521,0.225,5.039,0.489,7.563,0.666c5.328,0.371,9.613,2.419,12.288,7.29
	c1.303,2.373,3.309,4.063,5.774,5.16c2.896,1.289,5.938,1.776,9.283,1.586c-1.405-5.825-4.469-10.245-10.063-12.001
	c-5.75-1.805-11.718-2.944-17.632-4.175C116.983,13.878,114.479,14.192,112.219,15.445z M143.453,51.388
	c1.128-0.219,2.13-0.333,3.085-0.611c4.267-1.24,8.445-3.003,12.796-3.684c6.304-0.985,9.36-5.752,13.281-9.773
	c-0.459-0.307-0.766-0.531-1.092-0.725c-0.436-0.261-0.874-0.522-1.33-0.743c-3.877-1.877-6.759-1.39-9.808,1.639
	c-0.572,0.567-1.16,1.118-1.742,1.675c-3.902,3.737-7.948,7.294-13.011,9.401C144.368,49.092,143.835,49.975,143.453,51.388z
	 M211.126,57.669c-0.197-0.333-0.324-0.599-0.496-0.831c-3.361-4.541-8.595-5.722-13.656-3.109c-1.918,0.99-3.819,2.021-5.795,2.882
	c-3.198,1.393-6.524,1.829-9.895,0.668c-0.982-0.338-1.58-0.062-2.236,0.693C189.816,61.802,200.464,63.871,211.126,57.669z
	 M165.759,9.924c1.557,2.226,2.885,3.987,4.064,5.841c2.511,3.946,4.51,8.082,5.294,12.792c0.817,4.914,4.103,7.718,8.883,7.972
	c0.137-0.767,0.282-1.548,0.416-2.331c0.542-3.194,0.446-6.202-1.947-8.798c-3.959-4.293-7.788-8.706-11.752-12.994
	c-0.955-1.032-2.192-1.821-3.373-2.613C167.063,9.605,166.489,9.849,165.759,9.924z M121.621,37.645
	c-1.565,0.485-2.886,0.897-4.208,1.303c-3.94,1.209-6.184,3.876-6.667,7.948c-0.634,5.344-3.254,9.433-7.602,12.512
	c-0.646,0.458-1.162,1.102-1.738,1.66c0.699,0.238,1.204,0.245,1.695,0.163c2.509-0.418,4.108-2.102,5.427-4.078
	c1.868-2.797,4.191-4.63,7.76-4.78c2.251-0.094,4.063-1.313,4.749-3.617C122.109,45.155,121.438,41.468,121.621,37.645z
	 M86.724,34.905c0.062,0.53,0.113,0.968,0.174,1.494c0.663-0.049,1.205-0.084,1.747-0.131c6.169-0.534,12.268-0.336,18.208,1.671
	c2.287,0.773,4.563,0.788,6.806-0.251c1.881-0.872,3.809-1.644,5.667-2.56c0.484-0.238,0.785-0.847,1.329-1.466
	c-3.313-1.188-6.222-2.223-9.125-3.273c-1.605-0.581-3.206-0.612-4.857-0.163c-4.081,1.111-8.157,2.243-12.268,3.234
	C91.907,34.063,89.351,34.419,86.724,34.905z M125.158,53.838c0.375,0.866,0.777,1.113,1.497,0.589
	c0.785-0.572,1.655-1.031,2.421-1.625c3.813-2.958,7.495-6.098,11.434-8.876c3.957-2.791,5.908-6.598,6.74-11.175
	c-4.09-1.688-8.701-0.093-10.598,3.82c-0.785,1.618-1.275,3.395-1.767,5.137c-0.843,2.985-2.396,5.445-4.785,7.453
	C128.359,50.623,126.787,52.284,125.158,53.838z M134.869,51.911c1.889,1.191,3.208,0.551,4.479-0.581
	c3.141-2.797,6.499-5.248,10.359-7.022c4.59-2.109,7.424-6.184,10.515-9.929c0.636-0.771,0.332-1.551-0.507-2.015
	c-0.469-0.26-1.017-0.418-1.548-0.52c-3.726-0.709-6.674,0.47-8.719,3.706c-1.717,2.718-3.386,5.467-5.096,8.19
	c-1.771,2.819-4.013,5.101-7.141,6.45C136.396,50.542,135.739,51.257,134.869,51.911z M117.111,56.48
	c1.937-1.484,3.845-2.817,5.604-4.324c2.504-2.146,4.876-4.443,7.346-6.63c3.321-2.942,4.337-6.887,5.118-11.332
	c-1.5,0-2.806-0.057-4.105,0.011c-3.987,0.208-5.996,1.987-6.702,5.962c-0.191,1.078-0.246,2.188-0.268,3.286
	c-0.076,3.908-1.554,7.047-4.861,9.267c-1.106,0.743-2.121,1.622-3.223,2.473C116.396,55.637,116.666,55.955,117.111,56.48z
	 M102.744,70.616c-1.792,0.403-3.49,0.715-5.142,1.187c-0.792,0.227-1.528,0.84-1.063,1.811c0.54,1.126,0.081,1.845-0.697,2.543
	c-0.629,0.565-1.399,1.044-1.836,1.732c-0.408,0.643-0.709,1.547-0.607,2.273c0.138,0.981,1.1,1.296,2.045,1.363
	c0.294,0.021,0.594,0.025,0.887-0.006c3.66-0.39,6.984-1.678,9.854-3.97c0.862-0.688,1.581-1.661,2.101-2.644
	c0.694-1.308,0.289-2.469-1.086-3.024C105.775,71.308,104.232,71.025,102.744,70.616z M218.582,70.219
	c-6.01,4.195-12.35,3.765-19.031,1.475c0.852,1.365,1.539,2.43,2.188,3.518c1.139,1.91,1.109,1.795,3.324,1.444
	c5.049-0.8,10.118-1.469,15.227-2.198C219.809,73.265,219.215,71.792,218.582,70.219z M128.885,151.951
	c1.396-0.693,2.719-1.352,3.913-1.945c-0.921-1.76-1.899-3.63-2.796-5.345c-1.167,1.726-2.408,3.558-3.625,5.355
	C127.203,150.654,128.093,151.339,128.885,151.951z"/>
<path fill-rule="evenodd" clip-rule="evenodd" d="M156.966,180.405c1.365,2.513,2.59,4.769,3.856,7.1
	c-0.674,0.363-1.294,0.697-2.058,1.109c-1.768-3.298-3.518-6.561-5.329-9.938c0.727-0.406,1.385-0.869,2.115-1.14
	c0.349-0.129,0.909-0.013,1.245,0.197c2.08,1.3,4.123,2.658,6.376,4.125c-1.22-2.236-2.352-4.313-3.548-6.508
	c0.703-0.383,1.314-0.714,2.053-1.115c1.795,3.349,3.543,6.612,5.286,9.867c-2.089,1.502-2.096,1.514-4.122,0.195
	C160.962,183.074,159.103,181.822,156.966,180.405z"/>
<path fill-rule="evenodd" clip-rule="evenodd" d="M117.792,189.912c3.101-0.004,5.322,2.559,5.351,6.172
	c0.026,3.241-2.335,5.563-5.64,5.545c-3.041-0.016-5.292-2.611-5.293-6.101C112.209,192.247,114.526,189.916,117.792,189.912z
	 M120.624,196.288c-0.354-1.018-0.608-2.086-1.088-3.04c-0.493-0.977-1.421-1.462-2.545-1.243c-1.101,0.215-1.863,0.943-1.962,2.048
	c-0.092,1.023-0.059,2.11,0.193,3.1c0.429,1.686,1.669,2.579,2.965,2.399C119.62,199.351,120.415,198.213,120.624,196.288z"/>
<path fill-rule="evenodd" clip-rule="evenodd" d="M179.181,175.683c-2.997-0.034-5.921-3.223-5.86-6.39
	c0.054-2.79,2.646-5.329,5.441-5.33c2.98-0.001,6.022,3.309,5.956,6.48C184.661,173.168,181.97,175.714,179.181,175.683z
	 M182.22,170.931c0.007-1.813-1.743-4.104-3.481-4.56c-1.438-0.376-2.841,0.648-2.926,2.137c-0.11,1.918,1.371,4.131,3.169,4.734
	C180.613,173.79,182.215,172.647,182.22,170.931z"/>
<path fill-rule="evenodd" clip-rule="evenodd" d="M49.228,194.625c0.019-3.646,2.366-6.278,5.577-6.257
	c3.165,0.021,5.404,2.216,5.419,5.313c0.018,3.54-2.508,6.449-5.533,6.373C51.417,199.973,49.211,197.782,49.228,194.625z
	 M57.769,193.614c-0.246-1.751-0.958-2.882-2.184-3.16c-1.25-0.283-2.576,0.347-3.075,1.846c-0.395,1.185-0.483,2.526-0.432,3.787
	c0.04,0.991,0.832,1.604,1.854,1.81c1.035,0.209,1.926-0.142,2.416-0.984C56.945,195.884,57.306,194.719,57.769,193.614z"/>
<path fill-rule="evenodd" clip-rule="evenodd" d="M144.373,190.877c-0.014,3.025-2.415,5.33-5.587,5.365
	c-2.9,0.032-5.46-2.979-5.428-6.384c0.03-3.063,2.417-5.368,5.565-5.373C142.045,184.482,144.39,187.232,144.373,190.877z
	 M141.754,191.188c-0.068-1.526-0.502-2.92-1.674-3.958c-1.403-1.242-3.397-0.677-3.943,1.112c-0.495,1.619,0.008,3.087,0.924,4.415
	c0.801,1.162,1.981,1.614,3.068,1.173C141.327,193.442,141.803,192.458,141.754,191.188z"/>
<path fill-rule="evenodd" clip-rule="evenodd" d="M167.205,175.942c1.23-0.759,2.344-1.445,3.564-2.199
	c-0.746-1.223-1.462-2.397-2.25-3.69c0.728-0.468,1.38-0.89,2.124-1.369c2.001,3.239,3.952,6.4,5.94,9.62
	c-0.733,0.458-1.398,0.874-2.132,1.331c-0.874-1.382-1.684-2.662-2.522-3.989c-1.204,0.75-2.346,1.46-3.556,2.213
	c0.825,1.366,1.607,2.66,2.43,4.021c-0.73,0.442-1.403,0.851-2.151,1.304c-1.982-3.211-3.91-6.333-5.918-9.585
	c0.686-0.438,1.311-0.838,2.1-1.343C165.615,173.47,166.377,174.655,167.205,175.942z"/>
<path fill-rule="evenodd" clip-rule="evenodd" d="M110.382,196.987c0.886,1.828,1.694,3.496,2.56,5.281
	c-0.871,0.131-1.488,0.295-2.103,0.286c-0.287-0.005-0.684-0.281-0.83-0.545c-0.324-0.588-0.523-1.244-0.768-1.875
	c-0.621-1.596-0.951-1.781-2.787-1.473c0.136,1.396,0.273,2.805,0.423,4.345c-0.844,0.079-1.587,0.148-2.46,0.23
	c-0.294-2.549-0.581-5.016-0.863-7.484c-0.096-0.842-0.135-1.692-0.28-2.525c-0.154-0.884,0.193-1.23,1.047-1.307
	c1.221-0.107,2.433-0.386,3.653-0.418c1.738-0.045,2.994,0.715,3.385,1.959C111.828,194.953,111.468,196.227,110.382,196.987z
	 M106.089,196.729c1.342-0.112,2.543-0.072,2.892-1.406c0.118-0.45-0.175-1.383-0.495-1.497c-0.729-0.261-1.589-0.152-2.396-0.193
	C106.089,194.64,106.089,195.648,106.089,196.729z"/>
<path fill-rule="evenodd" clip-rule="evenodd" d="M44.309,185.359c3.223,0.908,3.223,0.908,3.223,4.055c0,2.868,0,5.736,0,8.724
	c-0.616-0.163-1.091-0.325-1.58-0.41c-0.897-0.154-1.137-0.675-1.058-1.532c0.056-0.607,0.153-1.584-0.157-1.778
	c-0.792-0.499-1.792-0.695-2.732-0.908c-0.183-0.042-0.524,0.349-0.704,0.603c-1.299,1.833-1.292,1.838-3.596,0.911
	C39.929,191.768,42.13,188.547,44.309,185.359z M45.14,192.372c0-1.582,0-2.927,0-4.528c-0.868,1.377-1.605,2.546-2.405,3.815
	C43.564,191.905,44.233,192.103,45.14,192.372z"/>
<path fill-rule="evenodd" clip-rule="evenodd" d="M71.553,202.828c1.4-3.534,2.758-6.984,4.148-10.42
	c0.082-0.201,0.41-0.374,0.65-0.421c0.323-0.063,0.675,0.041,1.01,0.018c1.515-0.108,2.033,0.655,2.296,2.094
	c0.574,3.148,1.371,6.256,2.076,9.377c-2.199,0.532-2.746,0.291-3.043-1.805c-0.205-1.443-1.183-1.151-2.027-1.269
	c-0.843-0.116-1.585-0.21-1.923,0.979C74.214,203.233,74.115,203.206,71.553,202.828z M77.277,193.973
	c-0.572,1.656-1.034,2.992-1.551,4.488c0.88,0.043,1.606,0.078,2.435,0.119C77.869,197.062,77.608,195.703,77.277,193.973z"/>
<path fill-rule="evenodd" clip-rule="evenodd" d="M94.19,199.061c0,0.933,0,1.682,0,2.536c1.524,0,2.983,0,4.539,0
	c0.075,0.701,0.139,1.309,0.213,2.006c-2.205,0.097-4.308,0.226-6.412,0.239c-0.299,0.002-0.859-0.552-0.865-0.855
	c-0.062-3.422-0.039-6.846-0.039-10.436c2.016,0,4.269,0,6.592,0c0.047,0.545,0.097,1.121,0.165,1.903c-1.473,0-2.883,0-4.33,0
	c-0.053,0.345-0.098,0.5-0.098,0.655c0.008,1.843,0.009,1.829,1.822,1.74c0.752-0.037,1.509-0.006,2.353-0.006
	c0,0.657,0,1.265,0,1.958C96.826,198.888,95.534,198.973,94.19,199.061z"/>
<path fill-rule="evenodd" clip-rule="evenodd" d="M33.73,181.383c1.52,0.604,2.931,1.056,4.244,1.708
	c2.009,0.997,2.69,2.67,1.993,4.489c-0.728,1.897-2.396,2.747-4.528,2.257c-0.689-0.158-1.351-0.433-2.11-0.682
	c-0.494,1.177-0.98,2.336-1.525,3.636c-0.766-0.311-1.489-0.604-2.311-0.938C30.896,188.388,32.269,184.995,33.73,181.383z
	 M35.516,183.675c-0.604,1.54-0.996,2.538-1.387,3.534c0.979,0.597,1.922,1.001,2.8,0.296c0.421-0.338,0.895-1.263,0.722-1.561
	C37.193,185.157,36.396,184.565,35.516,183.675z"/>
<path fill-rule="evenodd" clip-rule="evenodd" d="M90.122,192.905c-0.227,0.702-0.406,1.255-0.594,1.836
	c-0.843-0.149-1.638-0.447-2.393-0.371c-0.568,0.059-1.087,0.598-1.628,0.923c0.34,0.436,0.603,0.986,1.039,1.279
	c0.694,0.465,1.534,0.709,2.259,1.136c1.213,0.714,1.727,1.802,1.547,3.221c-0.175,1.385-1,2.418-2.252,2.608
	c-1.539,0.233-3.165,0.104-4.726-0.086c-0.892-0.109-0.872-0.353-0.183-2.168c0.931,0.192,1.867,0.543,2.795,0.52
	c0.596-0.015,1.46-0.438,1.704-0.929c0.397-0.799-0.394-1.248-1.072-1.569c-0.649-0.308-1.315-0.587-1.944-0.933
	c-1.269-0.697-1.957-1.748-1.726-3.237c0.22-1.418,1.171-2.227,2.468-2.623C86.971,192.037,88.5,192.225,90.122,192.905z"/>
<path fill-rule="evenodd" clip-rule="evenodd" d="M70.682,200.49c0.398,2.054,0.267,2.21-1.703,2.121
	c-2.872-0.13-5.054-1.481-5.792-3.589c-0.846-2.414-0.118-5.225,1.77-6.84c1.875-1.604,5.185-1.738,7.579-0.257
	c-0.234,0.559-0.474,1.131-0.744,1.777c-1.89-0.808-3.737-1.28-5.306,0.429c-1.009,1.099-1.265,3.323-0.555,4.555
	C66.989,200.522,68.778,200.578,70.682,200.49z"/>
<path fill-rule="evenodd" clip-rule="evenodd" d="M143.09,183.006c2.294-0.872,4.302-1.635,6.408-2.436
	c0.254,0.639,0.481,1.213,0.751,1.893c-1.335,0.537-2.612,1.05-4.018,1.615c0.296,0.791,0.569,1.521,0.891,2.381
	c1.29-0.474,2.493-0.916,3.804-1.397c0.244,0.63,0.465,1.202,0.728,1.878c-1.254,0.502-2.451,0.98-3.753,1.502
	c0.516,1.387,1.009,2.713,1.558,4.187c-0.743,0.31-1.458,0.607-2.327,0.969C145.778,190.051,144.451,186.572,143.09,183.006z"/>
<path fill-rule="evenodd" clip-rule="evenodd" d="M129.171,194.293c0.375,1.536,0.712,2.92,1.069,4.38
	c-0.813,0.205-1.543,0.389-2.423,0.61c-0.933-3.612-1.857-7.189-2.821-10.92c2.245-0.586,4.391-1.146,6.666-1.741
	c0.164,0.659,0.311,1.255,0.494,1.992c-1.383,0.38-2.712,0.744-4.158,1.141c0.209,0.825,0.409,1.615,0.628,2.48
	c1.329-0.329,2.553-0.632,3.88-0.96c0.183,0.607,0.363,1.203,0.578,1.917C131.799,193.554,130.554,193.905,129.171,194.293z"/>
<path fill-rule="evenodd" clip-rule="evenodd" d="M150.105,180.226c0.813-0.382,1.494-0.701,2.294-1.076
	c1.622,3.399,3.219,6.745,4.852,10.169c-0.742,0.372-1.447,0.727-2.262,1.136C153.366,187.054,151.769,183.708,150.105,180.226z"/>
<path fill-rule="evenodd" clip-rule="evenodd" d="M99.325,192.255c0.935,0,1.641,0,2.51,0c0.258,3.651,0.516,7.297,0.787,11.123
	c-0.85,0.055-1.623,0.104-2.53,0.163C99.836,199.771,99.586,196.091,99.325,192.255z"/>
<path fill-rule="evenodd" clip-rule="evenodd" d="M49.142,183.825c-0.861,2.039-1.386,2.082-3.252,0.629
	c-0.681,0.072-1.222,0.13-1.867,0.198c0.687-2.02,1.413-2.255,2.771-1.092c0.384,0.329,0.673,0.776,1.243,0.186
	C48.184,183.592,48.688,183.782,49.142,183.825z"/>
<path fill-rule="evenodd" clip-rule="evenodd" fill="#FFFFFF" d="M218.582,70.219c0.633,1.573,1.227,3.045,1.707,4.238
	c-5.108,0.729-10.178,1.398-15.227,2.198c-2.215,0.351-2.186,0.466-3.324-1.444c-0.648-1.088-1.336-2.153-2.188-3.518
	C206.232,73.984,212.572,74.414,218.582,70.219z"/>
<path fill-rule="evenodd" clip-rule="evenodd" d="M74.091,88.268c-0.361,2.695-0.633,5.341-1.102,7.953
	c-0.236,1.314-0.717,2.619-1.288,3.833c-1.882,4-4.434,5.23-8.944,4.45c3.951,2.849,2.582,8.693-2.276,10.222
	c-1.518,0.478-3.138,0.796-4.725,0.859c-4.833,0.191-9.663,0.025-14.407-1.04c-1.099-0.247-2.188-0.686-3.185-1.216
	c-2.457-1.308-3.35-3.486-3.086-6.173c0.241-2.465,1.645-3.953,3.967-4.764c0.545-0.191,1.129-0.913,1.277-1.497
	c1.103-4.343,2.167-8.699,3.105-13.08c0.495-2.313,0.746-4.68,1.022-7.033c0.045-0.382-0.241-1.018-0.562-1.193
	c-2.254-1.226-3.144-3.157-2.937-5.602c0.221-2.612,1.524-4.522,3.997-5.572c2.484-1.055,5.074-0.797,7.647-0.624
	c5.324,0.36,10.642,0.815,15.967,1.131c1.637,0.097,3.31-0.019,4.938-0.246c2.157-0.3,4.031,0.263,5.434,1.81
	c3.322,3.666,4.542,8.008,3.294,12.828c-0.899,3.471-3.554,5.192-7.135,5.021C74.719,88.318,74.346,88.286,74.091,88.268z
	 M53.083,112.901c2.056-0.378,4.476-0.709,6.829-1.304c1.262-0.319,2.017-1.414,2.04-2.784c0.023-1.322-1.098-1.614-2.014-2.159
	c-0.669-0.397-1.646-1.162-1.612-1.709c0.178-2.897,0.583-5.784,1.021-8.658c0.13-0.852,1.002-1.095,1.721-0.839
	c0.502,0.179,1.089,0.685,1.236,1.167c0.252,0.83,0.194,1.754,0.261,2.64c0.146,1.938,1.505,2.979,3.327,2.314
	c0.893-0.326,1.899-0.976,2.353-1.767c2.361-4.116,2.993-8.599,2.159-13.241c-0.336-1.875-1.468-2.788-2.935-2.872
	c-1.629-0.093-2.335,0.498-3.171,2.521c-0.271,0.654-0.539,1.515-1.069,1.806c-0.741,0.407-1.727,0.369-2.607,0.521
	c-0.085-0.625-0.325-1.276-0.227-1.871c0.281-1.709,0.675-3.403,1.069-5.092c0.633-2.71,0.934-2.774,3.681-2.966
	c3.653-0.254,6.286,0.774,7.424,4.569c0.425,1.419,1.598,2.13,3.146,2.101c1.758-0.032,3.128-0.984,3.583-2.856
	c0.883-3.634-0.097-6.883-2.481-9.688c-0.728-0.856-1.748-1.114-2.979-1.004c-2.225,0.198-4.482,0.264-6.712,0.142
	c-5.75-0.316-11.491-0.823-17.242-1.121c-1.309-0.068-2.7,0.239-3.955,0.666c-1.31,0.446-1.874,1.629-1.936,3.02
	c-0.06,1.339,0.634,2.119,1.811,2.606c1.297,0.538,1.857,1.57,1.747,2.938c-0.137,1.686-0.178,3.401-0.535,5.045
	c-1.274,5.865-2.652,11.708-4.021,17.552c-0.35,1.496-1.354,2.41-2.846,2.764c-1.089,0.258-1.853,0.827-2,2.004
	c-0.159,1.265,0.113,2.418,1.248,3.116c0.744,0.458,1.59,0.891,2.438,1.014C45.43,111.999,49.044,112.401,53.083,112.901z"/>
<path fill-rule="evenodd" clip-rule="evenodd" d="M41.483,134.686c-0.204,3.207-0.354,5.837-1.628,8.221
	c-0.778,1.454-1.884,2.467-3.678,2.51c-0.81,0.019-1.211-0.214-1.136-1.066c0.37-4.213,0.712-8.429,1.122-12.638
	c0.079-0.812,0.438-1.541,1.479-1.619c1.47-0.109,2.809,0.45,3.247,1.697C41.273,132.886,41.367,134.083,41.483,134.686z"/>
<path fill-rule="evenodd" clip-rule="evenodd" d="M70.743,154.619c0.618-4.792,1.931-8.721,4.623-12.098
	c0.656-0.823,1.496-1.814,2.634-1.37c1.193,0.467,0.985,1.786,0.857,2.813c-0.521,4.177-1.86,8.073-4.292,11.538
	c-0.632,0.9-1.542,2.05-2.645,1.438C71.189,156.533,70.994,155.162,70.743,154.619z"/>
<path fill-rule="evenodd" clip-rule="evenodd" d="M110.095,145.74c0.405-2.305,0.941-4.373,2.184-6.192
	c0.552-0.809,1.293-1.661,2.391-1.204c1.023,0.427,1.166,1.52,1.072,2.507c-0.209,2.201-1.055,4.187-2.548,5.804
	c-0.5,0.542-1.418,1.031-2.084,0.961C110.709,147.573,110.428,146.403,110.095,145.74z"/>
<path fill-rule="evenodd" clip-rule="evenodd" d="M90.947,105.823c0.892-3.994,1.741-7.999,2.708-11.975
	c0.211-0.87,0.764-1.693,1.3-2.438c0.572-0.795,1.56-1.131,2.365-0.644c0.572,0.346,1.203,1.278,1.139,1.877
	c-0.329,3.06-0.821,6.105-1.367,9.135c-0.276,1.535-0.715,3.051-1.221,4.528c-0.266,0.775-0.693,1.633-1.313,2.105
	c-0.548,0.418-1.543,0.614-2.191,0.417c-0.483-0.147-0.798-1.05-1.051-1.672c-0.147-0.363-0.027-0.834-0.027-1.257
	C91.174,105.874,91.061,105.849,90.947,105.823z"/>
</svg>
