<svg xmlns="http://www.w3.org/2000/svg" width="322.75" height="204.75" xml:space="preserve"><path fill-rule="evenodd" clip-rule="evenodd" d="M91.5 39.247c-1.193.08-2.37.21-3.548.226-3.045.042-4.886-2.269-4.186-5.23.329-1.389 1.278-2.143 2.644-2.42l10.673-2.166c-.177-.906-.305-1.803-.532-2.674-.457-1.753-.033-3.068 1.503-4.177 2.733-1.972 5.723-3.076 9.079-3.174 1.433-.042 2.868-.007 4.692-.007-.923-.794-1.582-1.333-2.208-1.905-1.031-.944-1.339-2.106-1.004-3.461.343-1.389 1.322-2.386 2.757-2.379a445.7 445.7 0 0 1 13.335.273c.927.033 1.518-.007 2.051-.93 1.276-2.209 3.328-2.915 6.313-2.182 5.294 1.299 10.564 2.699 15.849 4.036a8.8 8.8 0 0 0 2.877.269c-.84-1.026-1.701-2.036-2.515-3.083-.571-.734-1.146-1.479-1.599-2.287-.828-1.479-.743-2.663.257-3.749 1.071-1.162 2.404-1.846 3.98-1.266.93.342 1.784.954 2.592 1.552 2.72 2.013 5.404 4.075 8.156 6.159.411-.781.729-1.464 1.114-2.107 1.371-2.288 3.069-2.869 5.322-1.459 1.812 1.133 3.389 2.644 5.061 3.999.355.288.669.627 1.017.956l.933-.579c2.476-1.54 4.92-1.491 7.172.405 4.313 3.63 8.541 7.36 12.805 11.048.277.24.558.476.874.746.364-.758.632-1.467 1.022-2.099.948-1.533 2.337-2.109 3.912-1.242 3.931 2.163 7.116 5.02 8.043 9.729.208 1.057.646 2.069 1.023 3.241.535-.787.884-1.42 1.345-1.958 1.781-2.08 4.052-2.091 5.682.102.923 1.242 1.678 2.648 2.289 4.075.982 2.289 1.769 4.66 2.668 6.984.335.863.594 1.827 1.164 2.515 3.112 3.753 3.488 7.935 2.189 12.442-.397 1.377-.872 2.751-1.07 4.161-.129.922-.026 1.985.319 2.845 1.343 3.333 2.805 6.62 4.283 9.896.159.351.704.711 1.099.746 15.956 1.397 31.499 4.925 46.882 9.202 5.745 1.598 11.147 4.045 15.604 8.166.952.881 1.876 1.902 2.465 3.039.615 1.19 1.439 1.398 2.613 1.491 4.841.382 9.543 1.397 13.933 3.546 4.617 2.259 8.131 5.535 9.208 10.792.907 4.421-.185 8.61-2.046 12.57-1.273 2.71-2.951 5.227-4.373 7.871-.75 1.396-1.526 2.824-1.966 4.332a556.165 556.165 0 0 0-4.571 16.631c-.461 1.79-.421 3.705-.831 5.514-1.205 5.3-4.797 8.563-9.613 10.539-4.221 1.732-8.609 3.058-12.805 4.845-5.287 2.252-10.473 4.748-15.657 7.233-1.281.614-2.396 1.581-3.573 2.404-2.822 1.976-5.879 3.45-9.065 4.777-2.187.91-4.28.419-6.415.548-.61.037-1.234-.042-1.834.049-1.818.276-3.487-.826-4.376-2.958-1.288-3.088-2.88-3.861-6.151-4.232a64.3 64.3 0 0 1-10.776-2.188c-11.758-3.444-23.454-7.104-35.191-10.619-2.4-.72-3.958-2.377-5.379-4.239-2.442-3.199-4.009-6.848-5.3-10.628l-.397-1.153c-2.022 1.593-3.943 3.179-5.938 4.665-14.697 10.95-31.116 18.211-48.824 22.677-13.342 3.363-26.901 4.981-40.654 4.523-18.077-.602-35.412-4.277-51.441-13.055-.626-.344-1.542-.306-2.303-.234-4.896.457-9.787 1.012-14.689.104-4.326-.8-6.437-3.605-5.852-7.713.273-1.917 1.397-3.105 3.132-3.819 1.398-.576 1.788-2.18.802-3.315-6.226-7.174-10.532-15.302-12.33-24.689-2.074-10.827-.567-21.236 3.695-31.3 4.769-11.259 12.188-20.6 21.253-28.658 17.113-15.212 37.27-24.366 59.384-29.555.453-.106.91-.195 1.366-.286 2.165-.432 2.165-.431 2.581-2.748zm188.743 49.074c-1.075-.347-2.138-.738-3.227-1.035-14.989-4.09-30.081-7.645-45.618-8.974-6.994-.598-13.965-.586-20.918.402-11.47 1.631-21.429 6.846-30.928 13.128-1.611 1.066-2.623 2.198-2.611 4.541.033 7.014-2.309 13.464-5.782 19.498-.559.97-.713 1.824-.385 2.858.702 2.217 1.137 4.649 2.921 6.246 2.229 1.996 3.791 4.366 4.679 7.131 1.796 5.59 3.456 11.225 5.104 16.861 1.406 4.811 2.956 9.546 6.019 13.612 1.13 1.5 2.409 2.737 4.338 3.314 11.498 3.436 22.954 7.013 34.462 10.415 4.026 1.189 8.081 2.467 12.376 2.21-.218-2.404-.568-4.79-.625-7.183-.203-8.621-1.781-16.972-4.593-25.114-.516-1.495-1.346-2.607-2.53-3.657-5.223-4.629-7.508-10.413-6.448-17.399.808-5.321 3.322-9.848 6.756-13.859 7.757-9.063 17.572-15.165 28.604-19.408 5.897-2.267 12.027-3.431 18.406-3.587zM151.194 52.035c-.692.329-1.271.691-1.901.884-1.642.501-3.292 1.224-4.966 1.308-2.067.104-4.01.199-5.821 1.363-1.157.744-2.686 1.09-3.671.008-1.773-1.948-3.124-1.075-4.626.204-.544.463-1.196.8-1.799 1.194-1.107.724-2.305 1.05-3.625.8-1.906-.36-3.661.033-5.413.842-2.299 1.061-4.009.645-5.761-1.16-.223-.229-.462-.443-.712-.682-1.18 1.41-2.249 2.786-3.422 4.065-1.653 1.803-3.563 3.278-5.971 3.94-2.437.669-4.656-.624-4.494-2.712.129-1.665-.042-3.483 1.367-4.965-1.302-.088-2.569-.166-3.775.07-2.932.575-5.015 2.526-6.992 4.607-.962 1.014-1.909 2.054-2.961 2.968-1.796 1.559-4.245 1.386-5.967-.317-1.524-1.507-1.589-3.469.006-5.357 1.749-2.07 3.49-4.179 5.481-6.001 2.411-2.207 3.5-4.869 3.735-8.083-.333.032-.629.027-.909.091-14.798 3.353-28.83 8.663-41.826 16.547-12.692 7.7-23.761 17.193-31.905 29.757C8.01 102.601 4.1 114.72 5.773 128.231c1.133 9.148 4.808 17.218 10.589 24.358.109.134.299.201.718.474.466-5.855.898-11.469 1.372-17.077.094-1.114-.191-1.711-1.364-2.094-1.996-.653-3.042-2.206-3.204-4.312-.264-3.448 1.328-6.124 4.699-7.08 2.248-.638 4.656-.811 7.007-.958 3.76-.235 7.533-.29 11.3-.394 3.507-.097 7.038-.443 10.519-.176 6.503.498 10.885 4.577 11.837 10.979.395 2.652.065 5.411.065 7.739l6.157-6.005c-2.777-1.058-3.999-2.307-4.485-4.677-1.29-6.286 3.124-11.686 9.65-11.827 2.992-.065 5.759.81 8.493 1.895.391.155 1.022.211 1.321 0 1.073-.758 2.051-1.65 3.058-2.487-.249-.129-.626-.314-.994-.518-4.916-2.719-7.604-6.858-7.469-12.504.21-8.785 4.263-15.339 11.995-19.556 1.211-.661 2.524-1.134 3.839-1.715-1.521-3.009-.589-5.404 1.746-7.505.375-.337.69-.967.686-1.458-.017-1.918.818-3.327 2.49-4.094 4.22-1.935 8.547-2.066 12.791-.147 2.766 1.25 3.704 3.959 2.639 6.84-.768 2.078-2.269 3.551-4.043 4.774-.828.571-1.709 1.065-2.684 1.666 3.953 1.337 6.992 3.617 8.902 7.244l1.856-1.338c-.11-.493-.243-.98-.328-1.475-.795-4.62.372-8.586 4.037-11.636 2.948-2.454 6.446-3.489 10.229-3.639 3.322-.131 6.398.621 9.051 2.716 5.391 4.258 3.599 12.597-1.802 14.426-.167.057-.296.224-.354.27l4.057 2.071c3.019-2.462 6.549-4.609 10.604-5.781 3.643-1.052 6.771.15 8.76 3.361.54.871.958 1.816 1.459 2.779 2.383-6.474 11.876-7.247 15.171-.983 7.354-5.068 15.091-9.414 23.703-12.39-.951-1.494-1.847-2.876-2.719-4.274-1.667-2.671-3.589-5.023-6.863-5.808-.48-.115-.94-.395-1.356-.677-.336-.229-.727-.524-.863-.878-.896-2.326-2.751-3.276-5.027-3.794-1.347-.306-2.737-.678-3.928-1.343-1.547-.862-3.107-1.314-4.848-1.192-1.563.11-3.122.338-4.685.357-2.314.027-3.338-1.007-3.385-3.322-.023-1.157.089-2.316.148-3.665-2.437 1.119-4.697 2.287-7.059 3.196-1.55.597-3.227.982-4.879 1.159-1.466.157-2.399-.664-2.743-2.126-.26-1.097-.289-2.252-.445-3.595zm104.775 133.08c3.052-.942 5.615-2.395 8.063-4.072 1.291-.885 2.473-1.995 3.869-2.648 6.626-3.097 13.277-6.146 19.985-9.058 3.174-1.377 6.56-2.265 9.736-3.636 4.039-1.744 6.807-4.691 7.472-9.24.208-1.423.2-2.895.558-4.274 1.433-5.522 2.999-11.011 4.455-16.527.602-2.278 1.582-4.313 2.929-6.26 2.563-3.708 4.727-7.668 5.506-12.173 1.193-6.901-1.184-10.924-8.052-12.373-4.285-.904-8.526-.572-12.715.435-10.017 2.408-19.06 6.923-27.277 13.076-4.591 3.437-8.498 7.53-11.044 12.77-3.13 6.439-2.467 12.941 1.928 17.755.917 1.004 1.02 1.833.508 3.062-2.646 6.36-4.384 12.971-5.106 19.83a408.831 408.831 0 0 0-.961 10.604c-.07.864.086 1.746.146 2.729zm-217.948-15.33c.513.279.87.49 1.24.674 14.826 7.365 30.657 10.475 47.073 10.997 10.153.322 20.221-.592 30.207-2.442 15.595-2.891 30.383-8.03 44.213-15.837 6.659-3.759 12.932-8.08 18.677-13.138.393-.346.798-1.115.677-1.539-1.431-4.995-2.835-10.005-4.528-14.913-.672-1.948-1.767-3.918-3.171-5.402-1.653-1.746-2.915-3.591-3.709-5.814-.188-.526-.403-1.042-.664-1.71-3.049 3.898-6.491 7.091-10.811 9.297 4.579 3.988 2.717 11.431-2.274 13.061.233.274.436.532.657.772 6.419 6.993 4.774 15.98-3.697 20.27-3.354 1.698-6.933 2.581-10.65 2.584-5.265.003-10.416-.521-13.548-5.671-5.17 4.253-10.991 6.826-17.708 7.115-4.229.182-8.318-.39-11.874-2.906-1.185-.838-2.178-1.946-3.285-2.956-2.932 3.361-6.737 5.336-10.98 6.462-3.431.91-6.69.793-8.819-2.51-1.447.918-2.767 1.94-4.237 2.657-6.99 3.412-14.123.403-15.997-6.895-.587-2.287-.612-4.79-.483-7.171.134-2.488.764-4.949 1.184-7.465-4.662 5.439-10.94 7.231-17.891 7.716 0 .781.052 1.456-.013 2.12-.084.86.083 1.36 1.053 1.649 1.765.527 2.848 1.848 3.164 3.65.414 2.372.305 4.947-3.806 7.345zm205.456 6.374c.399-8.997 2.289-17.632 5.5-25.992.313-.811.277-1.321-.289-2.009-2.872-3.485-4.382-7.493-4.325-12.041.067-5.372 2.128-10.043 5.155-14.343 4.213-5.982 9.748-10.565 15.731-14.65 6.743-4.604 14.003-8.031 22.1-9.473 1.882-.335 3.79-.523 5.726-.784-1.378-2.205-2.764-3.285-5.013-3.949-4.501-1.328-9.095-1.491-13.713-.934-6.842.826-13.238 3.091-19.289 6.33-7.715 4.13-14.834 9.043-20.282 16.044-2.854 3.667-4.989 7.699-5.412 12.397-.544 6.05 2.046 10.728 6.681 14.442.599.479 1.178 1.142 1.454 1.842 3.444 8.735 5.314 17.799 5.569 27.196.053 1.978.267 3.95.407 5.924zM34.581 152.154c2.476-.241 4.757-.364 7.007-.7 9.791-1.459 15.508-8.396 14.855-17.931-.325-4.743-3.1-8.125-7.715-9.218-1.43-.338-2.938-.569-4.398-.515-4.061.151-8.112.528-12.172.719-3.298.155-6.612.05-9.9.303-1.375.106-2.797.666-4.025 1.335-1.28.697-1.516 2.077-1.236 3.472.255 1.271 1.273 1.549 2.358 1.763 1.838.363 2.186.752 2.127 2.668-.091 2.963-.124 5.939-.44 8.882-.58 5.386-1.333 10.754-2.05 16.124-.235 1.759-1.038 3.114-2.923 3.578-1.006.247-1.415.968-1.45 1.977-.06 1.698.471 2.653 2.084 3.226.986.35 2.053.667 3.082.662 3.805-.015 7.62-.021 11.407-.331 1.985-.163 3.976-.797 5.859-1.499 1.512-.564 1.986-1.776 1.828-3.28-.144-1.367-1.116-1.776-2.256-2.029-1.234-.275-1.964-1.121-2.013-2.317-.096-2.316-.029-4.637-.029-6.889zm117.182-34.306c.041 2.332-.275 3.979-1.831 5.051-.386.266-1.114.354-1.521.167-.297-.137-.447-.858-.446-1.318.001-.669.212-1.335.307-2.005.233-1.647-.064-3.143-1.39-4.27-3.212-2.731-8.689-.77-9.433 3.367-.688 3.832 1.56 7.708 5.254 8.996.367.128.812.044 1.22.037 2.363-.043 4.771-.396 7.075-.054 2.228.331 4.092-.047 5.889-1.206 1.28-.825 2.604-1.618 3.748-2.612 6.74-5.86 10.684-13.37 12.631-21.979.691-3.059 1.1-6.186.292-9.311-.446-1.728-1.496-2.913-3.289-3.349-2.161-.526-4.087-.097-5.525 1.633-1.409 1.696-1.151 3.597-.102 5.342 2.188 3.638 1.459 7.239.008 10.84-.177.439-.682.906-1.12 1.016-.234.059-.812-.563-.961-.976-.718-1.987-1.361-4.003-1.998-6.019-1.043-3.306-1.906-6.678-3.134-9.913-1.167-3.075-3.466-3.993-6.561-2.917a26.634 26.634 0 0 0-9.605 5.813 10.277 10.277 0 0 0-1.857 2.392c-.69 1.22-.224 2.815.912 3.763 1.131.942 2.114.484 3.078-.293.231-.186.489-.338.719-.524.771-.626 1.398-.431 1.923.331.215.313.439.627.605.967 2.717 5.571 4.274 11.478 5.112 17.031zm-94.595 39.266c.093.901.144 1.962.32 3.001.943 5.564 5.482 8.24 10.833 6.427 2.361-.801 4.139-2.407 5.898-4.084.606-.578 1.451-.904 2.187-1.346.306.738.707 1.454.898 2.222.437 1.746 1.267 2.563 3.054 2.674a7.632 7.632 0 0 0 2.139-.153c2.929-.667 5.629-1.892 7.978-3.757a9.968 9.968 0 0 0 2.389-2.743c.842-1.455.161-2.732-1.473-2.914-1.101-.121-1.351-.773-1.347-1.63.009-2.285.006-4.575.145-6.855.242-3.972.63-7.936.867-11.907.109-1.828-.567-2.396-2.433-2.393-2.086.003-3.877.906-5.53 2.009-1.505 1.005-2.842 1.054-4.336.063-2.57-1.706-5.38-1.817-8.143-.698-1.781.721-3.596 1.62-5.043 2.853-5.84 4.972-7.955 11.664-8.403 19.231zm78.546-58.228c.381-1.497.557-2.712 1.002-3.82.846-2.103.633-2.616-1.542-2.7-.884-.034-1.266-.355-1.668-1.172-.504-1.021-1.267-2.046-2.182-2.699-1.112-.792-2.521-1.157-3.762-1.786-.776-.393-1.602-.815-2.186-1.432-.847-.896-.78-2.232-.024-2.86 1.015-.843 1.798-.198 2.57.452.971.816 1.861 1.767 2.934 2.415 2.902 1.756 6.231.557 7.265-2.507.988-2.93-.394-5.861-3.59-7.198-4.457-1.866-8.769-1.186-12.729 1.359-4.348 2.793-5.29 7.958-2.462 12.339.115.178.233.355.333.541.608 1.125.356 1.583-.898 1.596a12.116 12.116 0 0 1-1.523-.083c-.899-.105-1.457.142-1.563 1.159a43.435 43.435 0 0 1-.554 3.64c-.218 1.14.312 1.609 1.353 1.613 4.256.018 3.635.6 3.282 4.263-.008.084-.03.167-.05.25-1.2 5.02-2.422 10.035-3.586 15.063-.316 1.368-.837 2.504-1.976 3.424-1.374 1.111-1.341 3.123.083 4.196.815.615 1.848 1.112 2.847 1.279 3.439.575 6.741-.139 9.894-1.524 1.376-.604 2.154-1.741 2.303-3.269.115-1.179.158-2.372.366-3.535.947-5.293 1.955-10.576 2.914-15.867.518-2.86.493-2.865 3.292-3.24.037-.006.069-.047-.143.103zm-26.845 66.163c5.25.003 11.385-2.106 15.469-5.327 1.225-.966 2.224-2.097 2.528-3.69.265-1.385-.763-3.045-2.13-3.098-.815-.031-1.69.4-2.47.769-1.831.865-3.576 1.924-5.44 2.701-1.521.635-3.159.661-4.662-.219-.844-.493-1.5-1.19-1.298-2.263.209-1.11 1.222-1.008 2.026-1.149 1.163-.203 2.385-.206 3.494-.566 5.5-1.788 9.725-5.001 11.198-10.892 1.204-4.813-1.285-8.584-6.156-9.171-2.144-.258-4.419-.124-6.545.288-9.791 1.897-18.375 9.797-19.092 20.201-.3 4.36.802 8.091 4.771 10.47 2.542 1.522 5.382 1.959 8.307 1.946zm-17.23-49.9c9.919-.005 17.73-6.185 19.684-15.27 1.58-7.347-1.458-12.815-8.324-14.682-10.902-2.964-23.328 3.499-24.839 16.64-.416 3.623.36 6.926 3.107 9.541 3.014 2.87 6.755 3.699 10.372 3.771zm212.779-13.989c-.461-.039-.939-.011-1.38-.127-6.549-1.728-13.019-1.121-19.438.669-8.268 2.307-15.408 6.706-22.033 12.024-4.596 3.689-8.669 7.855-11.521 13.085-4.003 7.34-3.408 14.491 1.793 20.234.917 1.014 1.028 1.836.517 3.054-4.093 9.745-5.719 19.964-5.667 30.483.017 3.464 3.574 5.632 6.185 4.869-.044-.687-.165-1.366-.113-2.033.119-1.554.46-3.101.471-4.651.063-9.167 1.929-17.979 5.186-26.508.417-1.092.229-1.727-.422-2.574-3.11-4.057-4.09-8.672-3.286-13.672.976-6.062 4.202-10.917 8.375-15.224 5.748-5.932 12.695-10.112 20.099-13.6 6.739-3.176 13.709-5.563 21.234-6.029zm-156.376 29.106-.084.334c-3.697.001-7.62 1.144-10.447 3.083-1.929 1.323-3.492 2.962-4.194 5.262-1.118 3.662.05 6.762 2.484 9.475 1.526 1.699 3.258 3.219 4.716 4.97.477.572.669 1.688.483 2.43-.259 1.036-1.383 1.454-2.369 1.28-.839-.148-1.686-.643-2.366-1.187-.572-.458-.862-1.25-1.361-1.821-.875-1.002-2.045-1.129-3.03-.249-.547.488-1.032 1.147-1.302 1.826-1.195 3.01.262 5.834 3.839 6.939 6.336 1.957 12.393 1.14 17.989-2.472 1.706-1.101 2.976-2.641 3.591-4.63 1.152-3.727-.061-6.846-2.616-9.527-1.371-1.438-2.951-2.676-4.361-4.08-.709-.706-1.378-1.518-1.832-2.401-.467-.91-.444-1.95.611-2.56.957-.552 1.889-.387 2.648.428.46.495.84 1.064 1.292 1.568 1.349 1.502 2.989 1.382 4.14-.286 1.772-2.569 1.107-5.592-1.761-6.787-1.91-.798-4.038-1.082-6.07-1.595zm-56.241-11.934c2.65 4.441 1.555 8.49-1.335 12.353 2.734.932 3.835 2.82 3.682 5.516-.058 1.015-.112 2.03-.191 3.043-.217 2.764-.446 5.525-.67 8.288 1.731-4.861 4.51-8.919 8.456-12.176 3.904-3.222 8.405-5.204 13.691-6.246-.758-.333-1.146-.49-1.523-.671-4.316-2.071-5.079-6.997-1.602-10.236.291-.27.554-.651.657-1.028.932-3.43 1.869-6.859 2.713-10.312.476-1.947.781-3.936 1.168-5.937-.599-.094-.971-.151-1.344-.212-.365-.06-.729-.123-1.059-.179-3.288 11.425-10.944 17.153-22.643 17.797zM216.44 60.076c-3.812-1.102-6.723.256-9.643 1.7a64.696 64.696 0 0 1-5.571 2.444c-2.604.996-5.191.972-7.751-.328-.629-.319-1.466-.229-2.208-.321-.938-.116-1.191.385-1.076 1.388 5.036 1.661 10.132 3.334 15.222 5.021 3.175 1.052 6.191.638 9.046-1.007 1.642-.946 3.219-2.002 4.879-3.042.194.285.419.541.564.836 1.173 2.39 2.317 4.795 3.511 7.175.179.358.531.808.867.871.714.134 1.47.041 2.47.041-1.365-2.948-2.627-5.664-3.879-8.383-.389-.845-.827-1.677-1.104-2.559-.566-1.804-.141-3.497.709-5.14 1.563-3.023 2.145-6.125.694-9.395-1.132-2.551-2.147-5.154-3.299-7.696-1.353-2.986-2.796-5.932-4.142-8.772-1.314.125-1.354.691-1.12 1.464.344 1.133.602 2.292.956 3.421 1.316 4.188 1.006 8.112-1.392 11.927-2.107 3.354-1.867 4.539.732 7.599.357.419.782.792 1.071 1.253.213.336.253.781.464 1.503zM83.561 63.084c1.622-1.489 3.109-2.807 4.544-4.18 3.377-3.231 7.159-5.469 12.028-5.557 2.633-.047 4.899-1.226 6.281-3.531 1.613-2.691 1.791-5.836 2.586-8.833-1.702-.539-3.213-1.104-4.767-1.494-6.884-1.729-11.931 2.281-12.007 8.839-.012 1.001-.378 2.15-.957 2.961-1.269 1.78-2.625 3.558-4.231 5.021-1.827 1.663-3.25 3.535-4.438 5.833l.961.941zm94.398-48.63c.821.671 1.59 1.422 2.473 1.998 3.755 2.452 6.425 5.658 7.029 10.226.266 2.008.225 4.056.367 6.082.432 6.119 4.789 10.857 11.109 11.883.096-3.618.367-7.211.228-10.788-.105-2.688-1.375-5.039-3.382-6.915-.896-.839-1.791-1.681-2.697-2.51-3.248-2.975-6.478-5.972-9.763-8.906-1.439-1.285-3.099-2.066-5.364-1.07zM82.327 123.432c-1.014-.301-1.918-.559-2.815-.837-2.456-.763-4.862-1.81-7.374-2.243-4.843-.834-8.507 2.477-8.283 7.161.074 1.562.771 2.591 2.064 3.05 1.546.548 3.709.185 4.51-.825.245-.309.395-.752.438-1.15.203-1.892.3-2.043 2.133-1.493 2.063.619 4.05 1.492 6.115 2.103 1.61.476 3.3 1.053 4.935.999 3.943-.131 6.823-4.019 6.027-7.939-.168-.826-.701-1.823-1.377-2.258-2.617-1.689-5.948-.014-6.373 3.432zm56.53 5.94c-4.594-4.667-5.804-9.195-3.633-13.493 1.109-2.198 2.895-3.65 5.25-4.315 2.282-.645 4.563-.43 7.098.538l-3.03-8.956c-2.771 1.324-4.988.94-6.934-1.117-.601-.636-1.838-.168-2.016.7a146.226 146.226 0 0 0-.85 4.493c-.776 4.504-1.754 8.988-2.235 13.524-.436 4.122-2.505 6.501-6.34 7.597-.488.139-.975.285-1.465.414-.486.128-.977.239-1.785.435 4.239 1.111 6.8 3.518 7.811 7.774 1.798-3.803 4.698-5.983 8.129-7.594zM99.152 25.394c.392 1.09.58 1.232 1.701.96.778-.189 1.534-.478 2.295-.736 3.907-1.326 7.81-1.465 11.397.759 1.876 1.164 3.469 2.812 5.095 4.341 1.23 1.157 2.445 2.367 4.239 2.24 3.464-.245 6.918-.634 10.372-1.008.391-.042 1.012-.321 1.065-.584.082-.401-.114-1.001-.408-1.314-2.061-2.195-4.21-4.307-6.262-6.51-1.147-1.233-2.541-1.634-4.125-1.561-4.784.22-9.571.396-14.348.727-3.774.261-7.705-.013-11.021 2.686zm52.092-19.46-.46.055c.021.369-.08.811.087 1.093.363.615.838 1.172 1.312 1.714 4.209 4.817 7.292 10.291 9.411 16.306 1.688 4.792 5.267 7.411 9.908 8.862.405.127.859.099 1.374.151-.442-3.182-.959-6.149-1.241-9.139-.3-3.167-1.905-5.319-4.559-6.902a41.336 41.336 0 0 1-4.287-2.955c-3.874-3.029-7.7-6.119-11.545-9.185zm17.755 50.255c.013 1.184.457 1.485 1.45 1.249 2.51-.598 5.047-1.08 7.555-1.685 3.768-.91 7.546-1.634 11.432-.909 3.781.706 8.729-2.007 10.185-5.777-1.602-1.022-3.175-2.185-4.886-3.086-4.084-2.149-7.861-2.083-11.588 1.182-4.224 3.7-8.535 7.406-14.148 9.026zm31.916-32.338c.227.532.351.873.512 1.196 2.61 5.213 2.973 10.505.642 15.926a6.066 6.066 0 0 0-.487 2.204c-.108 4.555 4.887 9.412 9.438 9.148.432-.025 1.013-.553 1.214-.991 1.373-2.994.813-5.957-.349-8.863-1.301-3.258-2.61-6.513-3.983-9.742-.841-1.979-1.697-3.968-2.753-5.835-.864-1.526-2.271-2.539-4.234-3.043zm-43.673 6.472c2.209.159 2.864-.444 2.504-2.107-.577-2.674-1.562-5.192-3.247-7.384-2.091-2.719-4.897-4.118-8.242-4.818-5.173-1.082-10.285-2.457-15.443-3.616-.858-.192-1.828.028-2.729.17-.275.043-.493.461-.736.707.245.239.452.612.742.695 1.625.467 3.25.975 4.91 1.264 4.894.85 8.666 3.226 11.042 7.682 2.463 4.618 6.466 6.883 11.199 7.407zm26.394 8.824c-2.446-.567-4.869-.897-7.214-.18-1.447.443-3.023 1.142-4.032 2.208-2.813 2.972-6.129 5.167-9.616 7.207-2.591 1.515-5.08 3.204-7.588 4.855-.321.211-.482.666-.717 1.008.416.078.844.257 1.246.211.619-.071 1.32-.148 1.814-.48 4.102-2.751 8.702-3.407 13.476-3.224 7.44.285 12.096-5.933 12.631-11.605zm-71.417-23.702-.002.417c2.521.225 5.039.489 7.563.666 5.328.371 9.613 2.419 12.288 7.29 1.303 2.373 3.309 4.063 5.774 5.16 2.896 1.289 5.938 1.776 9.283 1.586-1.405-5.825-4.469-10.245-10.063-12.001-5.75-1.805-11.718-2.944-17.632-4.175-2.447-.51-4.951-.196-7.211 1.057zm31.234 35.943c1.128-.219 2.13-.333 3.085-.611 4.267-1.24 8.445-3.003 12.796-3.684 6.304-.985 9.36-5.752 13.281-9.773-.459-.307-.766-.531-1.092-.725a17.326 17.326 0 0 0-1.33-.743c-3.877-1.877-6.759-1.39-9.808 1.639-.572.567-1.16 1.118-1.742 1.675-3.902 3.737-7.948 7.294-13.011 9.401-1.264.525-1.797 1.408-2.179 2.821zm67.673 6.281c-.197-.333-.324-.599-.496-.831-3.361-4.541-8.595-5.722-13.656-3.109-1.918.99-3.819 2.021-5.795 2.882-3.198 1.393-6.524 1.829-9.895.668-.982-.338-1.58-.062-2.236.693 10.768 3.83 21.416 5.899 32.078-.303zM165.759 9.924c1.557 2.226 2.885 3.987 4.064 5.841 2.511 3.946 4.51 8.082 5.294 12.792.817 4.914 4.103 7.718 8.883 7.972.137-.767.282-1.548.416-2.331.542-3.194.446-6.202-1.947-8.798-3.959-4.293-7.788-8.706-11.752-12.994-.955-1.032-2.192-1.821-3.373-2.613-.281-.188-.855.056-1.585.131zm-44.138 27.721c-1.565.485-2.886.897-4.208 1.303-3.94 1.209-6.184 3.876-6.667 7.948-.634 5.344-3.254 9.433-7.602 12.512-.646.458-1.162 1.102-1.738 1.66.699.238 1.204.245 1.695.163 2.509-.418 4.108-2.102 5.427-4.078 1.868-2.797 4.191-4.63 7.76-4.78 2.251-.094 4.063-1.313 4.749-3.617 1.072-3.601.401-7.288.584-11.111zm-34.897-2.74.174 1.494c.663-.049 1.205-.084 1.747-.131 6.169-.534 12.268-.336 18.208 1.671 2.287.773 4.563.788 6.806-.251 1.881-.872 3.809-1.644 5.667-2.56.484-.238.785-.847 1.329-1.466-3.313-1.188-6.222-2.223-9.125-3.273-1.605-.581-3.206-.612-4.857-.163-4.081 1.111-8.157 2.243-12.268 3.234-2.498.603-5.054.959-7.681 1.445zm38.434 18.933c.375.866.777 1.113 1.497.589.785-.572 1.655-1.031 2.421-1.625 3.813-2.958 7.495-6.098 11.434-8.876 3.957-2.791 5.908-6.598 6.74-11.175-4.09-1.688-8.701-.093-10.598 3.82-.785 1.618-1.275 3.395-1.767 5.137-.843 2.985-2.396 5.445-4.785 7.453-1.741 1.462-3.313 3.123-4.942 4.677zm9.711-1.927c1.889 1.191 3.208.551 4.479-.581 3.141-2.797 6.499-5.248 10.359-7.022 4.59-2.109 7.424-6.184 10.515-9.929.636-.771.332-1.551-.507-2.015-.469-.26-1.017-.418-1.548-.52-3.726-.709-6.674.47-8.719 3.706-1.717 2.718-3.386 5.467-5.096 8.19-1.771 2.819-4.013 5.101-7.141 6.45-.815.352-1.472 1.067-2.342 1.721zm-17.758 4.569c1.937-1.484 3.845-2.817 5.604-4.324 2.504-2.146 4.876-4.443 7.346-6.63 3.321-2.942 4.337-6.887 5.118-11.332-1.5 0-2.806-.057-4.105.011-3.987.208-5.996 1.987-6.702 5.962-.191 1.078-.246 2.188-.268 3.286-.076 3.908-1.554 7.047-4.861 9.267-1.106.743-2.121 1.622-3.223 2.473l1.091 1.287zm-14.367 14.136c-1.792.403-3.49.715-5.142 1.187-.792.227-1.528.84-1.063 1.811.54 1.126.081 1.845-.697 2.543-.629.565-1.399 1.044-1.836 1.732-.408.643-.709 1.547-.607 2.273.138.981 1.1 1.296 2.045 1.363.294.021.594.025.887-.006 3.66-.39 6.984-1.678 9.854-3.97.862-.688 1.581-1.661 2.101-2.644.694-1.308.289-2.469-1.086-3.024-1.425-.573-2.968-.856-4.456-1.265zm115.838-.397c-6.01 4.195-12.35 3.765-19.031 1.475.852 1.365 1.539 2.43 2.188 3.518 1.139 1.91 1.109 1.795 3.324 1.444 5.049-.8 10.118-1.469 15.227-2.198l-1.708-4.239zm-89.697 81.732 3.913-1.945-2.796-5.345c-1.167 1.726-2.408 3.558-3.625 5.355l2.508 1.935z"/><path fill-rule="evenodd" clip-rule="evenodd" d="m156.966 180.405 3.856 7.1-2.058 1.109-5.329-9.938c.727-.406 1.385-.869 2.115-1.14.349-.129.909-.013 1.245.197 2.08 1.3 4.123 2.658 6.376 4.125l-3.548-6.508c.703-.383 1.314-.714 2.053-1.115l5.286 9.867c-2.089 1.502-2.096 1.514-4.122.195-1.878-1.223-3.737-2.475-5.874-3.892zm-39.174 9.507c3.101-.004 5.322 2.559 5.351 6.172.026 3.241-2.335 5.563-5.64 5.545-3.041-.016-5.292-2.611-5.293-6.101-.001-3.281 2.316-5.612 5.582-5.616zm2.832 6.376c-.354-1.018-.608-2.086-1.088-3.04-.493-.977-1.421-1.462-2.545-1.243-1.101.215-1.863.943-1.962 2.048-.092 1.023-.059 2.11.193 3.1.429 1.686 1.669 2.579 2.965 2.399 1.433-.201 2.228-1.339 2.437-3.264zm58.557-20.605c-2.997-.034-5.921-3.223-5.86-6.39.054-2.79 2.646-5.329 5.441-5.33 2.98-.001 6.022 3.309 5.956 6.48-.057 2.725-2.748 5.271-5.537 5.24zm3.039-4.752c.007-1.813-1.743-4.104-3.481-4.56a2.331 2.331 0 0 0-2.926 2.137c-.11 1.918 1.371 4.131 3.169 4.734 1.631.548 3.233-.595 3.238-2.311zM49.228 194.625c.019-3.646 2.366-6.278 5.577-6.257 3.165.021 5.404 2.216 5.419 5.313.018 3.54-2.508 6.449-5.533 6.373-3.274-.081-5.48-2.272-5.463-5.429zm8.541-1.011c-.246-1.751-.958-2.882-2.184-3.16-1.25-.283-2.576.347-3.075 1.846-.395 1.185-.483 2.526-.432 3.787.04.991.832 1.604 1.854 1.81 1.035.209 1.926-.142 2.416-.984.597-1.029.958-2.194 1.421-3.299zm86.604-2.737c-.014 3.025-2.415 5.33-5.587 5.365-2.9.032-5.46-2.979-5.428-6.384.03-3.063 2.417-5.368 5.565-5.373 3.122-.003 5.467 2.747 5.45 6.392zm-2.619.311c-.068-1.526-.502-2.92-1.674-3.958-1.403-1.242-3.397-.677-3.943 1.112-.495 1.619.008 3.087.924 4.415.801 1.162 1.981 1.614 3.068 1.173 1.198-.488 1.674-1.472 1.625-2.742zm25.451-15.246c1.23-.759 2.344-1.445 3.564-2.199l-2.25-3.69c.728-.468 1.38-.89 2.124-1.369l5.94 9.62c-.733.458-1.398.874-2.132 1.331l-2.522-3.989-3.556 2.213 2.43 4.021-2.151 1.304-5.918-9.585 2.1-1.343 2.371 3.686zm-56.823 21.045 2.56 5.281c-.871.131-1.488.295-2.103.286-.287-.005-.684-.281-.83-.545-.324-.588-.523-1.244-.768-1.875-.621-1.596-.951-1.781-2.787-1.473l.423 4.345-2.46.23c-.294-2.549-.581-5.016-.863-7.484-.096-.842-.135-1.692-.28-2.525-.154-.884.193-1.23 1.047-1.307 1.221-.107 2.433-.386 3.653-.418 1.738-.045 2.994.715 3.385 1.959.469 1.492.109 2.766-.977 3.526zm-4.293-.258c1.342-.112 2.543-.072 2.892-1.406.118-.45-.175-1.383-.495-1.497-.729-.261-1.589-.152-2.396-.193l-.001 3.096zm-61.78-11.37c3.223.908 3.223.908 3.223 4.055v8.724c-.616-.163-1.091-.325-1.58-.41-.897-.154-1.137-.675-1.058-1.532.056-.607.153-1.584-.157-1.778-.792-.499-1.792-.695-2.732-.908-.183-.042-.524.349-.704.603-1.299 1.833-1.292 1.838-3.596.911l6.604-9.665zm.831 7.013v-4.528l-2.405 3.815 2.405.713zm26.413 10.456c1.4-3.534 2.758-6.984 4.148-10.42.082-.201.41-.374.65-.421.323-.063.675.041 1.01.018 1.515-.108 2.033.655 2.296 2.094.574 3.148 1.371 6.256 2.076 9.377-2.199.532-2.746.291-3.043-1.805-.205-1.443-1.183-1.151-2.027-1.269-.843-.116-1.585-.21-1.923.979-.526 1.852-.625 1.825-3.187 1.447zm5.724-8.855-1.551 4.488 2.435.119-.884-4.607zm16.913 5.088v2.536h4.539l.213 2.006c-2.205.097-4.308.226-6.412.239-.299.002-.859-.552-.865-.855-.062-3.422-.039-6.846-.039-10.436h6.592l.165 1.903h-4.33c-.053.345-.098.5-.098.655.008 1.843.009 1.829 1.822 1.74.752-.037 1.509-.006 2.353-.006v1.958l-3.94.26zm-60.46-17.678c1.52.604 2.931 1.056 4.244 1.708 2.009.997 2.69 2.67 1.993 4.489-.728 1.897-2.396 2.747-4.528 2.257-.689-.158-1.351-.433-2.11-.682l-1.525 3.636-2.311-.938a30826.9 30826.9 0 0 0 4.237-10.47zm1.786 2.292-1.387 3.534c.979.597 1.922 1.001 2.8.296.421-.338.895-1.263.722-1.561-.458-.787-1.255-1.379-2.135-2.269zm54.606 9.23-.594 1.836c-.843-.149-1.638-.447-2.393-.371-.568.059-1.087.598-1.628.923.34.436.603.986 1.039 1.279.694.465 1.534.709 2.259 1.136 1.213.714 1.727 1.802 1.547 3.221-.175 1.385-1 2.418-2.252 2.608-1.539.233-3.165.104-4.726-.086-.892-.109-.872-.353-.183-2.168.931.192 1.867.543 2.795.52.596-.015 1.46-.438 1.704-.929.397-.799-.394-1.248-1.072-1.569-.649-.308-1.315-.587-1.944-.933-1.269-.697-1.957-1.748-1.726-3.237.22-1.418 1.171-2.227 2.468-2.623 1.555-.475 3.084-.287 4.706.393zm-19.44 7.585c.398 2.054.267 2.21-1.703 2.121-2.872-.13-5.054-1.481-5.792-3.589-.846-2.414-.118-5.225 1.77-6.84 1.875-1.604 5.185-1.738 7.579-.257l-.744 1.777c-1.89-.808-3.737-1.28-5.306.429-1.009 1.099-1.265 3.323-.555 4.555 1.058 1.836 2.847 1.892 4.751 1.804zm72.408-17.484 6.408-2.436.751 1.893-4.018 1.615.891 2.381 3.804-1.397.728 1.878-3.753 1.502 1.558 4.187-2.327.969-4.042-10.592zm-13.919 11.287 1.069 4.38-2.423.61-2.821-10.92 6.666-1.741.494 1.992-4.158 1.141.628 2.48 3.88-.96.578 1.917c-1.285.362-2.53.713-3.913 1.101zm20.934-14.067 2.294-1.076 4.852 10.169-2.262 1.136c-1.623-3.401-3.22-6.747-4.884-10.229zm-50.78 12.029h2.51l.787 11.123-2.53.163-.767-11.286zm-50.183-8.43c-.861 2.039-1.386 2.082-3.252.629l-1.867.198c.687-2.02 1.413-2.255 2.771-1.092.384.329.673.776 1.243.186.147-.154.651.036 1.105.079z"/><path fill-rule="evenodd" clip-rule="evenodd" fill="#FFF" d="m218.582 70.219 1.707 4.238c-5.108.729-10.178 1.398-15.227 2.198-2.215.351-2.186.466-3.324-1.444-.648-1.088-1.336-2.153-2.188-3.518 6.682 2.291 13.022 2.721 19.032-1.474z"/><path fill-rule="evenodd" clip-rule="evenodd" d="M74.091 88.268c-.361 2.695-.633 5.341-1.102 7.953-.236 1.314-.717 2.619-1.288 3.833-1.882 4-4.434 5.23-8.944 4.45 3.951 2.849 2.582 8.693-2.276 10.222-1.518.478-3.138.796-4.725.859-4.833.191-9.663.025-14.407-1.04-1.099-.247-2.188-.686-3.185-1.216-2.457-1.308-3.35-3.486-3.086-6.173.241-2.465 1.645-3.953 3.967-4.764.545-.191 1.129-.913 1.277-1.497 1.103-4.343 2.167-8.699 3.105-13.08.495-2.313.746-4.68 1.022-7.033.045-.382-.241-1.018-.562-1.193-2.254-1.226-3.144-3.157-2.937-5.602.221-2.612 1.524-4.522 3.997-5.572 2.484-1.055 5.074-.797 7.647-.624 5.324.36 10.642.815 15.967 1.131 1.637.097 3.31-.019 4.938-.246 2.157-.3 4.031.263 5.434 1.81 3.322 3.666 4.542 8.008 3.294 12.828-.899 3.471-3.554 5.192-7.135 5.021-.373-.017-.746-.049-1.001-.067zm-21.008 24.633c2.056-.378 4.476-.709 6.829-1.304 1.262-.319 2.017-1.414 2.04-2.784.023-1.322-1.098-1.614-2.014-2.159-.669-.397-1.646-1.162-1.612-1.709.178-2.897.583-5.784 1.021-8.658.13-.852 1.002-1.095 1.721-.839.502.179 1.089.685 1.236 1.167.252.83.194 1.754.261 2.64.146 1.938 1.505 2.979 3.327 2.314.893-.326 1.899-.976 2.353-1.767 2.361-4.116 2.993-8.599 2.159-13.241-.336-1.875-1.468-2.788-2.935-2.872-1.629-.093-2.335.498-3.171 2.521-.271.654-.539 1.515-1.069 1.806-.741.407-1.727.369-2.607.521-.085-.625-.325-1.276-.227-1.871.281-1.709.675-3.403 1.069-5.092.633-2.71.934-2.774 3.681-2.966 3.653-.254 6.286.774 7.424 4.569.425 1.419 1.598 2.13 3.146 2.101 1.758-.032 3.128-.984 3.583-2.856.883-3.634-.097-6.883-2.481-9.688-.728-.856-1.748-1.114-2.979-1.004-2.225.198-4.482.264-6.712.142-5.75-.316-11.491-.823-17.242-1.121-1.309-.068-2.7.239-3.955.666-1.31.446-1.874 1.629-1.936 3.02-.06 1.339.634 2.119 1.811 2.606 1.297.538 1.857 1.57 1.747 2.938-.137 1.686-.178 3.401-.535 5.045-1.274 5.865-2.652 11.708-4.021 17.552-.35 1.496-1.354 2.41-2.846 2.764-1.089.258-1.853.827-2 2.004-.159 1.265.113 2.418 1.248 3.116.744.458 1.59.891 2.438 1.014 3.595.523 7.209.925 11.248 1.425zm-11.6 21.785c-.204 3.207-.354 5.837-1.628 8.221-.778 1.454-1.884 2.467-3.678 2.51-.81.019-1.211-.214-1.136-1.066.37-4.213.712-8.429 1.122-12.638.079-.812.438-1.541 1.479-1.619 1.47-.109 2.809.45 3.247 1.697.384 1.095.478 2.292.594 2.895zm29.26 19.933c.618-4.792 1.931-8.721 4.623-12.098.656-.823 1.496-1.814 2.634-1.37 1.193.467.985 1.786.857 2.813-.521 4.177-1.86 8.073-4.292 11.538-.632.9-1.542 2.05-2.645 1.438-.731-.407-.926-1.778-1.177-2.321zm39.352-8.879c.405-2.305.941-4.373 2.184-6.192.552-.809 1.293-1.661 2.391-1.204 1.023.427 1.166 1.52 1.072 2.507-.209 2.201-1.055 4.187-2.548 5.804-.5.542-1.418 1.031-2.084.961-.401-.043-.682-1.213-1.015-1.876zm-19.148-39.917c.892-3.994 1.741-7.999 2.708-11.975.211-.87.764-1.693 1.3-2.438.572-.795 1.56-1.131 2.365-.644.572.346 1.203 1.278 1.139 1.877-.329 3.06-.821 6.105-1.367 9.135-.276 1.535-.715 3.051-1.221 4.528-.266.775-.693 1.633-1.313 2.105-.548.418-1.543.614-2.191.417-.483-.147-.798-1.05-1.051-1.672-.147-.363-.027-.834-.027-1.257l-.342-.076z"/></svg>