<?xml version="1.0" encoding="utf-8"?>
<!-- Generator: Adobe Illustrator 16.0.0, SVG Export Plug-In . SVG Version: 6.00 Build 0)  -->
<!DOCTYPE svg PUBLIC "-//W3C//DTD SVG 1.1//EN" "http://www.w3.org/Graphics/SVG/1.1/DTD/svg11.dtd">
<svg version="1.1" id="Layer_1" xmlns="http://www.w3.org/2000/svg" xmlns:xlink="http://www.w3.org/1999/xlink" x="0px" y="0px"
	 width="758.836px" height="358.154px" viewBox="0 0 758.836 358.154" enable-background="new 0 0 758.836 358.154"
	 xml:space="preserve">
<path fill-rule="evenodd" clip-rule="evenodd" d="M665.235,212.182c0.028,3.546,0.155,7.095,0.047,10.637
	c-0.059,1.896-0.521,3.779-0.986,6.918c-2.459-2.074-3.635-3.181-4.929-4.124c-1.257-0.918-2.635-1.67-3.96-2.493
	c-0.748,1.346-1.507,2.688-2.241,4.041c-1.274,2.351-2.535,4.709-4.69,6.506c-0.131,2.597-0.263,5.194-0.408,8.086
	c-7.177-2.891-7.177-2.891-11.193,6.965c-0.847-1.014-1.609-1.927-2.355-2.821c-6.819,4.521-8.854,18.113-2.824,22.604
	c1.708,1.272,1.869,4.609,2.762,6.991c2.148,5.739,4.343,11.461,6.453,17.214c1.452,3.96,2.797,7.96,3.642,12.188
	c-7.661-4.688-7.23-14.274-13.052-21.208c-0.324,1.896-0.883,3.025-0.601,3.876c1.343,4.04,3.409,7.89,1.636,12.411
	c-0.242,0.619,1.132,1.81,1.629,2.801c0.479,0.954,0.792,1.992,1.177,2.992c-1.104,0.365-2.208,0.731-4.221,1.397
	c-0.506-6.595-0.196-12.526-1.595-18.024c-1.434-5.636-4.537-10.847-6.554-15.435c-4.417,0-7.991-0.165-11.531,0.113
	c-0.92,0.072-2.317,1.419-2.501,2.372c-2.356,12.259-4.55,24.55-6.705,36.847c-0.119,0.676,0.246,1.857,0.762,2.159
	c7.24,4.215,7.408,12.636,11.297,18.824c1.563,2.487,2.914,5.108,4.361,7.67c-0.432,0.329-0.864,0.658-1.296,0.988
	c-2.548-3.872-5.575-7.523-7.496-11.685c-1.653-3.577-3.584-5.596-7.424-4.413c-1.246,0.385-2.834,2.098-2.949,3.326
	c-0.812,8.649-1.229,17.334-1.936,25.995c-0.069,0.846-1.267,2.27-1.913,2.254c-1.151-0.027-3.1-0.774-3.263-1.533
	c-0.49-2.274-1.054-5.03-0.21-7.012c3.727-8.763,3.158-16.961-2.904-24.244c-2.787-3.349-4.52-6.862-2.021-10.248
	c1.714-2.326,5.427-3.177,8.246-4.688c0.606,0.303,1.211,0.605,1.816,0.908c-0.316-2.198,0.141-5.109-1.101-6.454
	c-3.219-3.491-2.994-6.981-1.75-10.964c3.847-12.31,1.196-19.183-9.729-25.506c0.99-10.996-0.452-14.54-7.452-17.325
	c1.715,4.435,7.014,8.72-0.217,13.268c1.943,3.467,3.919,6.993,5.896,10.521c-0.374,0.271-0.747,0.544-1.12,0.815
	c-5.121-7.657-10.241-15.316-14.724-22.021c-5.751,2.974-10.684,5.522-15.614,8.071c-0.369-0.336-0.739-0.673-1.108-1.01
	c0.774-1.452,1.55-2.903,2.563-4.8c-4.112-2.157-7.596-0.99-10.005,2.243c-4.426,5.941-8.375,12.237-12.671,18.606
	c3.864,3.257,6.699,6.715,4.338,11.648c-0.797,1.665-2.416,4.236-3.545,4.178c-2.648-0.138-5.991,0.157-6.97-4.05
	c-1.579-6.777,0.352-12.572,4.384-17.67c4.721-5.97,10.417-11.208,14.798-17.396c3.69-5.213,8.066-10.741,5.645-18.083
	c-0.254-0.771-0.589-1.536-1.02-2.221c-0.238-0.377-0.755-0.579-0.897-0.681c-3.006,1.348-5.808,2.603-8.99,4.028
	c-0.979-13.068-2.615-14.847-12.86-14.589c0.528,0.944,0.883,1.736,1.378,2.428c0.936,1.307,1.951,2.556,2.934,3.828
	c-1.558-0.143-3.116-0.285-5.045-0.462c0.569,2.73,1.703,5.704,1.635,8.65c-0.05,2.177-1.258,4.652-2.686,6.391
	c-1.885,2.291-5.107,0.724-5.153-1.023c-0.146-5.632-4.359-4.677-7.53-5.686c-6.816-2.169-10.552-7.572-13.793-13.444
	c-0.392-0.707-0.707-1.455-1.157-2.393c-4.213,1.205-8.056,1.426-9.542-4.625c-2.556,1.799-4.673,3.305-6.808,4.784
	c-1.984,1.377-3.988,2.726-5.983,4.086c-0.387-0.255-0.773-0.51-1.159-0.765c1.237-4.72,2.474-9.44,3.913-14.929
	c-4.032-4.726-8.093-5.511-15.153-2.161c-0.676,0.32-1.942,0.54-2.317,0.174c-3.935-3.841-7.342-0.42-10.962,0.594
	c-7.006,1.962-13.957,4.535-21.108,5.416c-4.847,0.596-9.985-1.342-15.014-1.99c-1.855-0.239-3.863-0.41-5.64,0.035
	c-8.732,2.194-17.37,2.76-25.98-0.513c-0.896-0.341-1.961-0.595-2.883-0.456c-4.652,0.7-9.271,1.625-13.923,2.319
	c-9.637,1.439-17.34-1.688-22.698-10.134c-7.52,6.665-15.141,6.276-23.274,0.435c-2.182,2.344-4.032,5.064-6.552,6.824
	c-2.347,1.64-5.326,2.712-8.172,3.222c-4.668,0.834-9.483,0.813-14.183,1.514c-5.403,0.805-10.187-0.219-14.676-3.354
	c-1.118-0.78-3.362-1.444-4.215-0.869c-7.133,4.817-14.409,4.359-21.981,0.927c-3.945,8.311-9.131,14.733-19.281,13.883
	c-6.477-0.542-10.292-5.045-14.318-16.742c-21.18,7.168-37.628,0.729-49.974-19.634c-0.217,2.747-0.425,4.226-0.437,5.707
	c-0.096,12.217-5.705,16.771-15.594,19.614c-5.251,1.509-11.165,1.543-16.681,1.076c-5.875-0.497-9.622-4.018-11.232-10.303
	c-1.426-5.563-4.242-10.793-6.726-16.037c-0.42-0.888-2.386-1.732-3.43-1.529c-12.225,2.373-24.43,4.864-36.574,7.615
	c-1.154,0.261-2.641,2.485-2.647,3.804c-0.028,6.308,0.931,12.657,0.458,18.911c-0.262,3.462-1.748,7.814-4.239,9.951
	c-8.775,7.523-19.196,9.96-30.236,5.725c-3.087-1.184-6.215-4.133-7.787-7.088c-8.426-15.847-16.399-31.934-24.464-47.97
	c-7.918-15.745-4.55-35.601,7.964-47.429c13.065-12.35,32.448-14.726,48.104-5.896c0.581,0.327,1.118,0.893,1.727,0.98
	c2.294,0.329,4.691,0.911,6.866,0.477c0.607-0.122,0.791-3.407,0.814-5.246c0.129-10.122,0.007-20.249,0.302-30.365
	c0.075-2.58,1.15-5.202,2.11-7.671c4.378-11.253,13.947-16.112,26.333-12.857c8.024,2.109,15.699,5.614,23.765,7.479
	c12.971,3,21.001-2.982,22.864-16.078c0.117-0.824,0.24-1.648,0.383-2.468c0.564-3.228,2.237-5.21,5.767-4.826
	c3.806,0.415,4.876,3.067,4.813,6.39c-0.361,19.035-16.188,31.849-34.939,27.918c-6.142-1.287-12.174-3.41-18.02-5.744
	c-14.764-5.895-20.649-3.257-22.739,12.35c-1.238,9.241-0.227,18.782-0.227,28.503c5.585-0.055,9.144-0.823,12.056-5.077
	c9.176-13.406,26.093-19.565,41.799-15.833c16.184,3.845,28.527,16.788,30.748,32.989c0.731,5.338,0.115,10.861,0.115,16.44
	c4.864-7.526,9.181-15.24,14.537-22.148c3.905-5.037,8.72-9.681,13.966-13.281c5.822-3.995,12.915-3.947,18.94-0.185
	c6.238,3.895,12.227,8.745,11.586,17.302c-0.234,3.114-1.897,6.121-2.928,9.235c8.762-2.249,16.345,0.232,21.84,8.55
	c2.492-3.667,4.357-6.979,6.759-9.839c6.295-7.495,14.711-9.045,23.342-4.548c4.691,2.444,9.33,4.987,14.51,7.762
	c3.992-5.144,9.364-8.402,15.878-6.692c4.734,1.243,8.167,0.451,12.615-1.49c6.691-2.918,14.091-2.933,19.944,3.942
	c5.778-6.391,12.091-10.875,20.743-6.934c8.37,3.813,9.592,11.634,10.959,19.967c0.949-1.398,1.844-2.838,2.857-4.188
	c6.146-8.196,13.336-14.718,24.024-16.495c7.18-1.193,13.134,0.361,18.179,5.648c2.349,2.461,15.243,4.431,18.026,2.589
	c2.385-1.579,4.748-3.159,3.729-7.207c-0.431-1.712,2.202-4.197,4.037-7.353c-4.955-4.192-10.002-9.212-15.789-13.14
	c-5.52-3.745-11.813-6.35-18.013-9.585c-1.864-0.328-4.26-0.748-7.591-1.333c1.739-2.266,2.693-3.51,4.009-5.224
	c-8.997-5.803-17.968-11.588-27.166-17.521c2.476-3.768,5.025-4.599,7.884-1.609c8.616,9.013,19.035,11.62,31.055,9.356
	c3.42-0.645,5.349,1.896,4.265,6.236c-1.168,4.675-0.205,6.313,4.828,7.719c5.398,1.508,10.05,5.575,15.185,8.223
	c1.615,0.834,3.848,1.236,5.591,0.863c2.177-0.467,4.398-1.621,6.139-3.043c3.011-2.459,5.444-2.747,8.893-0.436
	c3.913,2.623,11.308,0.718,13.946-3.078c-3.641,0-7.114,0-10.588,0c-0.283-0.664-0.566-1.328-0.851-1.992
	c3.216-2.444,6.431-4.888,9.646-7.332c-0.155-0.362-0.311-0.723-0.467-1.085c1.096,0.207,2.212,0.649,3.282,0.56
	c1.357-0.112,3.023-0.304,3.888-1.147c0.512-0.499-0.035-2.418-0.503-3.532c-2.522-6.005-1.289-11.548,2.239-16.985
	c0.226,1.757,0.451,3.514,0.769,5.987c6.392-7.189,4.462-11.609,0.84-20.479c-1.691-4.146-4.451-7.855-6.312-11.049
	c-2.747,0.399-5.513,1.426-8.051,1.022c-3.809-0.606-5.99-2.848-4.975-7.453c0.96-4.35,3.091-4.987,7.144-4.461
	c4.528,0.587,7.271,2.616,8.948,6.709c0.745,1.821,1.677,3.779,3.077,5.08c5.763,5.352,5.001,12.417,6.019,19.257
	c0.951,6.398,4.351,12.173,9.944,15.986c0.933,0.636,3.766,0.115,4.392-0.791c1.099-1.587,1.278-3.866,1.638-5.892
	c0.353-1.986,0.449-4.018,1.413-6.282c4.842,5.434,8.331,12.371,17.103,8.746c-0.217-3.389-1.105-6.905-0.492-10.136
	c0.935-4.924,2.91-9.65,4.854-15.748c2.499,3.056,4.717,5.167,6.19,7.709c2.187,3.771,5.449,5.422,9.456,5.451
	c6.879,0.049,6.88-0.113,5.294,6.43c-3.023-1.06-6.125-2.146-9.227-3.233c-0.407,0.444-0.815,0.888-1.223,1.332
	c1.43,5.771,2.859,11.542,4.756,19.201c3.514-10.688,8.746-13.405,16.732-6.181c2.188-2.16,4.312-5.182,6.642-2.593
	c2.143-1.299,3.735-2.172,5.23-3.189c4.033-2.742,8.025-5.544,12.035-8.323c-0.108-0.568-0.217-1.137-0.325-1.705
	c0.932,1.007,1.858,2.021,2.798,3.021c1.577,1.681,2.938,3.674,4.785,4.972c6.7,4.709,6.61,4.541,2.915,11.539
	c-1.42,2.69-1.978,5.836-3.039,9.12c-1.027,0.428-2.991,1.248-4.957,2.067c2.402,0.65,4.805,1.3,7.433,2.012
	c-0.443,1.109-1.024,2.568-1.9,4.763c2.777-0.885,4.902-1.563,7.55-2.407c0-4.807,0-9.655,0-15.086
	c5.534,6.603,6.08,9.832,3.489,12.918c2.316,3.153,4.28,6.143,6.58,8.847c1.584,1.862,3.187,3.537,6.266,1.36
	c7.849-5.548,15.967-10.723,24.068-15.906c3.451-2.208,3.839-4.052,0.461-6.794c-1.299-1.054-1.684-3.232-2.485-4.899
	c1.553-0.415,3.22-0.602,4.621-1.315c1.18-0.601,2.049-1.813,3.594-3.256c0.492,7.874,7.486,14.078,4.773,22.682
	c-0.148,0.47,0,1.071-0.232,1.471c-5.057,8.745-0.834,16.078,3.498,23.409c0.154,0.261,0.126,0.629,0.248,1.31
	c-0.855,0.499-2.173,0.833-2.681,1.662c-0.776,1.27-1.833,3.628-1.307,4.218c2.24,2.51,5.582,6.745,7.476,6.262
	c3.375-0.862,5.994-4.684,8.929-7.268c-0.242-0.452-0.483-0.905-0.726-1.357c2.37,0.451,4.738,0.902,7.193,1.369
	c0.188,6.019-8.076,11.644,0.113,16.628c-2.499,6.343-5.114,12.204-7.054,18.281c-0.791,2.479,0.016,5.434-0.146,8.158
	c-0.12,2.017-0.631,4.011-1.69,6.103c1.134,2.905,3.199,5.499,7.223,5.34l-0.15-0.133c1.437,1.698,2.871,3.397,5.18,6.127
	c-2.879,0.535-5.551,1.802-7.814,1.285c-4.125-0.943-5.518,0.464-5.711,4.244c-0.254,4.993-0.58,9.983-0.883,15.1
	c2.493-0.469,4.641-0.872,6.789-1.276L665.235,212.182z M344.883,159.877c0.4,0.114,0.8,0.228,1.2,0.341
	c1.215,11.095,2.552,22.178,3.601,33.288c0.653,6.916,2.615,8.862,9.784,8.7c4.277-0.096,6.664-3.074,4.796-6.963
	c-6.921-14.405-6.798-30.018-8.201-45.363c-0.311-3.401-0.786-6.935-4.452-7.25c-2.281-0.197-5.498,1.513-7.027,3.396
	c-3.287,4.048-5.833,8.715-8.52,13.225c-1.31,2.196-2.256,4.609-3.816,7.86c-0.811-6.276-1.3-11.369-2.178-16.395
	c-0.579-3.312-2.233-6.029-6.259-5.771c-3.595,0.23-6.231,0.889-7.567,5.429c-1.82,6.18-5.273,11.878-8.026,17.782
	c-1.087-5.02-0.872-9.621-1.154-14.19c-0.229-3.702-2.08-6.254-6.325-6.168c-4.283,0.087-5.692,2.962-6.086,6.484
	c-0.198,1.763,0.527,3.609,0.625,5.429c0.57,10.601,1.078,21.205,1.596,31.579c-1.439,0.625-2.346,1.044-3.271,1.416
	c-6.893,2.771-10.958,0.712-12.414-6.498c-0.589-2.917-1.129-5.953-0.957-8.892c0.35-5.957,1.048-11.906,1.895-17.816
	c0.661-4.62-0.337-7.7-5.396-8.947c-2.292-0.565-4.423-2.099-6.417-3.495c-5.303-3.712-10.996-3.046-14.183,2.235
	c-7.829,12.969-11.985,26.742-10.495,42.242c0.964,10.028,11.749,14.719,18.918,9.25c2.323-1.771,4.49-3.745,6.715-5.615
	c10.822,10.616,14.419,11.388,24.541,5.335c7.708,4.028,13.5,0.778,13.011-7.76c-0.668-11.666,6.849-19.477,12.245-28.413
	c0.481,1.396,0.442,2.661,0.488,3.923c0.273,7.489,0.595,14.977,0.842,22.466c0.128,3.899,2.53,5.69,5.952,6.181
	c3.677,0.529,5.465-1.845,6.325-5.035c0.56-2.081,0.734-4.278,1.413-6.313C338.95,176.973,341.939,168.433,344.883,159.877z
	 M223.224,195.34c0.582,4.256,1.208,9.484,2.038,14.68c0.584,3.658,2.985,5.105,6.491,4.186c3.438-0.902,5.166-3.173,4.958-6.946
	c-0.409-7.422-0.833-14.854-0.845-22.283c-0.009-5.647,0.825-11.293,0.886-16.944c0.059-5.388-0.681-11.124-5.344-14.325
	c-4.65-3.193-9.379-0.427-13.939,1.971c-3.763,1.979-8.077,2.88-11.987,4.62c-2.103,0.936-4.938,2.29-5.505,4.071
	c-0.651,2.046,0.094,6.036,1.576,6.915c2.312,1.369,5.901,1.504,8.675,0.9c2.607-0.567,4.699-3.316,7.317-4.08
	c2.165-0.631,5.977-0.686,6.957,0.603c3.703,4.869,0.947,13.744-4.701,16.118c-4.419,1.857-8.997,3.513-13.659,4.583
	c-13.413,3.081-25.647-5.911-23.167-20.149c0.984-5.65,2.166-11.61,4.877-16.538c4.676-8.497,9.007-18.086,22.005-16.39
	c4.236,0.553,5.387-3.177,2.708-6.861c-4.765-6.55-11.125-8.016-17.032-2.468c-14.102,13.244-23.939,28.957-23.523,49.184
	c0.287,13.917,14.31,25.481,25.138,23.88C205.732,198.796,214.235,196.99,223.224,195.34z M495.213,129.425
	c0.072-0.606,0.145-1.212,0.217-1.818c-1.981-1.786-3.727-4.597-5.999-5.124c-3.613-0.836-6.112,1.469-7.024,5.393
	c-0.287,1.236-1.773,2.312-2.909,3.211c-4.715,3.734-4.828,6.89-1.433,11.799c1.844,2.666,3.418,6.177,3.447,9.322
	c0.12,13.135-0.586,26.276-0.491,39.413c0.017,2.336,1.91,5.93,3.81,6.651c2.226,0.847,5.836-0.157,8.021-1.604
	c1.526-1.009,2.362-4.137,2.283-6.273c-0.165-4.451-1.111-8.877-1.794-13.304c-0.536-3.476,1.016-5.386,4.358-5.943
	c8.345-1.392,16.707-2.674,25.035-4.149c2.967-0.525,7.707,0.814,7.405-4.34c-0.273-4.672-4.684-3.692-7.817-4.09
	c-0.984-0.125-1.997-0.035-2.997-0.024c-6.832,0.077-13.663,0.175-20.494,0.236c-4.532,0.04-6.75-2.257-6.732-6.776
	c0.006-1.667,0.009-3.337-0.106-4.998c-0.273-3.944,1.414-6.042,5.353-7.07c8.108-2.116,16.075-4.006,24.495-1.346
	c3.326,1.05,7.022,0.688,7.83-3.765c0.701-3.873-0.823-7.057-4.993-7.899c-2.697-0.544-5.581-0.74-8.309-0.438
	C509.295,127.274,502.263,128.422,495.213,129.425z M566.524,186.219c0.979,4.37,1.396,7.541,2.428,10.497
	c1.335,3.827,3.997,6.949,8.323,6.563c2.16-0.192,4.553-2.056,6.107-3.812c3-3.391,0.283-6.111-1.857-8.677
	c-4.059-4.866-5.444-10.679-5.349-16.753c0.136-8.614,0.873-17.217,1.145-25.832c0.162-5.137-3.275-7.514-8.095-5.92
	c-5.988,1.98-7.24,5.512-6.082,13.22c1.402,9.331,1.408,18.707-5.449,26.339c-1.593,1.772-4.254,2.583-6.425,3.836
	c-1.043-2.149-2.873-4.258-2.988-6.456c-0.388-7.417,0.412-14.932-0.43-22.273c-0.401-3.504-3.17-6.949-5.543-9.872
	c-0.627-0.773-4.181-0.101-5.663,0.942c-3.353,2.358-4.874,5.595-3.08,9.972c1.177,2.873,1.748,6.043,2.249,9.135
	c1.433,8.845,2.342,17.789,4.119,26.56c1.637,8.088,8.386,10.415,15.029,5.432c2.615-1.961,4.688-4.665,6.912-7.118
	C563.283,190.451,564.513,188.737,566.524,186.219z M601.964,158.369c0.164-3.201,0.084-5.629,0.455-7.985
	c0.717-4.554-0.789-6.875-5.285-7.604c-4.222-0.686-6.972,1.494-7.251,6.014c-0.121,1.967,0.187,3.97,0.399,5.946
	c1.387,12.851,2.654,25.634-0.124,38.557c-0.586,2.726,1.17,6.994,3.305,9c2.547,2.393,5.738-0.011,7.5-2.595
	c1.392-2.042,2.72-4.499,2.953-6.881c0.452-4.617-0.074-9.319,0.145-13.971c0.334-7.083,2.771-13.136,9.662-17.208
	c0.811,1.438,1.847,2.613,2.167,3.958c1.418,5.949,2.704,11.933,3.892,17.932c0.897,4.539,1.253,9.207,2.443,13.659
	c1.202,4.498,6.182,6.527,10.306,4.741c3.494-1.514,4.303-4.562,2.997-8.222c-2.368-6.636-4.642-13.34-6.353-20.167
	c-2.29-9.145-3.386-18.611-10.847-25.639c-2.855-2.689-5.094-2.846-7.551-0.067C607.962,151.023,605.311,154.354,601.964,158.369z
	 M452.734,180.855c0.061,0.629,0.122,1.257,0.183,1.886c-3.006,1.669-5.835,3.958-9.057,4.882
	c-7.432,2.131-15.103,3.414-22.564,5.457c-2.021,0.554-3.637,2.591-5.438,3.947c1.547,1.95,2.938,4.063,4.724,5.763
	c0.646,0.615,2.333,0.566,3.381,0.26c9.019-2.637,18.197-4.895,26.914-8.321c5.116-2.011,10.033-5.354,14.048-9.147
	c5.893-5.57,4.406-10.787-3.152-13.494c-2.8-1.003-5.718-1.843-8.653-2.277c-6.631-0.979-13.308-1.66-21.396-2.635
	c3.204-2.63,5.266-4.759,7.719-6.246c4.961-3.007,10.144-5.647,15.216-8.473c4.283-2.387,5.604-6.582,3.355-10.48
	c-2.151-3.729-5.33-4.339-9.831-1.65c-1.694,1.013-3.183,2.396-4.681,3.706c-4.633,4.054-9.305,8.07-13.81,12.265
	c-3.465,3.226-7.214,6.335-9.921,10.147c-4.165,5.869-1.203,11.257,6.005,11.729c5.984,0.392,11.991,0.473,17.965,0.971
	C446.764,179.396,449.737,180.265,452.734,180.855z M397.57,192.953c-0.107-0.388-0.213-0.775-0.32-1.163
	c-2.33,0-4.743,0.39-6.973-0.083c-4.252-0.902-7.424-3.869-7.689-8.02c-0.087-1.359,3.958-3.583,6.445-4.397
	c9.544-3.125,15.716-9.455,19.106-18.726c2.018-5.519,0.665-12.614-3.436-15.792c-4.683-3.629-9.874-2.646-14.463,0.042
	c-12.713,7.445-18.96,18.925-19.562,33.495c-0.695,16.841,12.565,27.286,29.939,23.302c5.229-1.2,9.987-4.765,14.698-7.671
	c0.994-0.613,0.841-3.086,1.215-4.702c-1.643-0.159-3.397-0.766-4.908-0.393C406.889,190.015,402.248,191.555,397.57,192.953z
	 M562.723,110.668c-0.797,1.201-0.954,1.498-1.166,1.749c-1.766,2.082-3.733,4.205-1.012,6.842c0.805,0.778,2.105,1.044,3.179,1.544
	c0.475-2.251,1.341-4.502,1.339-6.752c-0.003-4.108,2.331-4.073,4.84-2.821c2.578,1.287,4.182,0.936,4.975-1.73
	c1.058-3.56,1.857-7.196,2.381-9.266c-4.428-5.093-8.285-9.529-13.349-15.353c0.246,5.501,0.438,9.798,0.708,15.844
	c-3.199,4.208-5.309-1.623-7.734-3.57c-2.063,2.157-3.953,4.132-6.219,6.5c0.726,1.44,1.825,3.62,2.704,5.361
	c1.919-1.634,3.286-2.799,4.654-3.963C559.608,106.946,561.192,108.839,562.723,110.668z M125.72,138.931
	c1.284-1.78,2.2-3.657,3.644-4.939c4.616-4.1,2.296-8.788,1.305-13.313c-0.16-0.73-1.721-1.785-2.449-1.654
	c-4.356,0.781-8.658,1.865-12.902,2.831C116.639,134.091,116.639,134.091,125.72,138.931z M124.574,164.863
	c4.962-1.073,9.729-2.104,14.033-3.035c1.654-9.875-4.319-13.633-11.333-16.493C119.526,150.516,121.867,157.31,124.574,164.863z
	 M129.441,141.982c7.287,6.264,11.694,6.854,20.083,2.484c-0.958-4.37-1.936-8.828-2.891-13.184
	C138.345,131.36,131.988,133.695,129.441,141.982z M123.423,143.181c-5.745-6.259-12.388-6.375-19.828-2.646
	c1.065,4.574,2.099,9.019,3.096,13.304C114.954,153.959,120.81,151.292,123.423,143.181z M36.86,175.063
	c0.141,3.723,3.533,6.883,6.952,6.753c3.558-0.135,6.371-3.346,6.166-7.037c-0.209-3.751-3.142-6.253-7.044-5.975
	C38.885,169.094,37.256,171.652,36.86,175.063z M25.308,156.792c-3.834-0.1-6.634,2.597-6.629,6.386
	c0.004,3.674,2.986,6.844,6.553,6.619c3.807-0.24,6.071-2.478,6.448-6.268C32.035,159.958,29.003,156.89,25.308,156.792z
	 M61.905,156.778c-0.066-3.616-3.177-6.659-6.805-6.358c-3.768,0.312-6.134,2.368-6.31,6.31c-0.165,3.68,2.816,6.604,6.528,6.618
	C59.05,163.362,61.972,160.448,61.905,156.778z M37.042,151.36c3.735,0.01,6.87-2.951,6.521-6.551
	c-0.355-3.674-2.299-6.128-6.32-6.28c-3.927-0.147-6.62,2.405-6.658,6.28C30.545,148.67,33.187,151.35,37.042,151.36z"/>
<path fill-rule="evenodd" clip-rule="evenodd" d="M454.707,230.019c-1.845,3.981-0.615,5.674,3.536,8.048
	c5.407,3.09,9.45,8.565,15.297,14.183c-3.561,2.456-5.957,5.141-8.744,5.636c-1.604,0.285-3.839-2.972-6.537-5.269
	c-4.155,1.283-9.613,2.078-14.555-1.8c-0.898-0.705-2.156-1.405-2.449-2.354c-1.502-4.883-3.191-9.788-3.837-14.812
	c-0.23-1.792,1.843-4.884,3.644-5.734C445.51,225.813,450.298,225.531,454.707,230.019z"/>
<path fill-rule="evenodd" clip-rule="evenodd" d="M691.131,205.539c-2.957-4.107-2.322-7.302,1.465-10.366
	c3.443-2.788,11.788-0.874,12.351,3.538c0.703,5.521,3.331,11.678-3.584,15.833c-1.533,0.922-1.597,4.019-2.968,5.549
	c-1.891,2.113-4.419,5.129-6.6,5.069c-1.941-0.053-4.573-3.462-5.521-5.921C683.276,211.461,684.188,209.328,691.131,205.539z"/>
<path fill-rule="evenodd" clip-rule="evenodd" d="M610.899,41.446c0.533,3.829,0.897,6.443,1.261,9.058
	c0.457,0.001,0.916,0.003,1.373,0.005c0.317-0.501,0.767-0.962,0.931-1.508c0.78-2.605,0.724-6.719,2.364-7.558
	c3.885-1.984,8.379-0.561,10.892,3.075c2.697,3.902,4.42,8.478,6.242,13.577c-6.621-1.607-7.856,4.065-11.792,7.229
	c-2.347-3.542-4.549-6.866-7.265-10.964c-0.883,2.06-1.635,3.814-2.478,5.778c-3.125-0.267-6.323-0.54-10.288-0.878
	C608.661,55.45,604.208,46.421,610.899,41.446z"/>
<path fill-rule="evenodd" clip-rule="evenodd" d="M557.303,55.91c2.705-1.392,5.158-2.653,7.738-3.98
	c1.604,0.875,3.304,1.804,4.93,2.691c-1.141,5.218-2.255,10.32-3.238,14.824c-1.624-0.329-3.687-0.851-5.783-1.14
	c-1.813-0.25-4.647,0.457-5.304-0.475c-1.594-2.262-5.076-4.46-2.377-8.144c0.363-0.497,0.485-1.172,1.018-2.519
	c-2.688,0.29-4.839,0.521-7.108,0.766c-0.187-1.598-0.482-3.168-0.522-4.745c-0.041-1.607,0.17-3.22,0.271-4.83
	c2.145,0.374,4.716,0.147,6.316,1.286C554.952,50.861,555.743,53.368,557.303,55.91z"/>
<path fill-rule="evenodd" clip-rule="evenodd" d="M737.398,113.313c-2.496,2.904-4.542,6.531-7.645,8.441
	c-1.93,1.187-6.505,0.809-8.017-0.721c-2.112-2.136-3.783-6.277-3.203-9.05c0.545-2.602,4.219-4.59,6.65-6.693
	c0.267-0.231,1.494,0.445,2.143,0.893C730.439,108.332,733.505,110.546,737.398,113.313z"/>
<path fill-rule="evenodd" clip-rule="evenodd" d="M564.2,44.862c-0.305-1.375-1.369-3.382-0.806-4.088
	c3.544-4.438-0.421-7.157-1.803-10.615c-0.862-2.153-1.248-6.634-0.623-6.873c2.695-1.032,5.923-1.373,8.782-0.906
	c1.043,0.17,2.324,3.328,2.237,5.059c-0.215,4.257-1.399,8.458-1.74,12.717C569.959,43.752,568.008,44.889,564.2,44.862z"/>
<path fill-rule="evenodd" clip-rule="evenodd" d="M688.858,165.689c7.1-0.772,9.309,0.759,8.409,6.143
	c-0.287,1.717-1.54,4.706-2.203,4.666c-2.317-0.14-4.655-1.17-6.82-2.207c-1.88-0.9-3.981-1.927-5.191-3.506
	c-2.162-2.82-3.778-6.07-5.383-9.261c-0.082-0.164,2.473-2.355,3.123-2.068c2.925,1.29,5.604,3.133,8.372,4.777
	C689.062,164.719,688.96,165.204,688.858,165.689z"/>
<path fill-rule="evenodd" clip-rule="evenodd" d="M499.883,251.188c0.418,1.645,0.836,3.289,1.352,5.316
	c4.811-2.271,9.33-1.985,13.392,1.977c-0.826,1.213-1.409,2.457-2.336,3.343c-1.619,1.546-3.984,4.384-5.089,3.994
	c-2.838-1.001-5.92-3.003-7.459-5.496c-1.451-2.354-1.06-5.844-1.478-8.833C498.804,251.389,499.344,251.288,499.883,251.188z"/>
<path fill-rule="evenodd" clip-rule="evenodd" d="M584.87,39.096c2.563,2.036,5.105,4.057,7.871,6.254
	c-1.271,2.544-2.3,5.339-3.978,7.665c-0.918,1.271-2.882,2.163-4.484,2.372c-0.595,0.077-1.792-2.196-2.223-3.553
	C580.592,47.231,579.237,42.534,584.87,39.096z"/>
<path fill-rule="evenodd" clip-rule="evenodd" d="M704.472,184.256c4.294-5.455,4.462-5.447,8.175,0.219
	c-0.591,0.449-1.316,1.411-1.794,1.3c-4.334-1.01-6.648,1.112-8.885,4.563c-2.149,3.319-4.758,1.061-6.601-0.8
	c-2.375-2.397-2.646-5.242-0.387-8.003c1.996-2.441,4.256-2.264,6.499-0.398C702.478,181.967,703.295,183.015,704.472,184.256z"/>
<path fill-rule="evenodd" clip-rule="evenodd" d="M515.355,65.86c-0.78-0.929-1.563-1.857-2.428-2.887
	c1.212-0.878,2.155-1.561,3.098-2.244c-7.992-0.524-9.063-6.996-11.897-12.858c3.922,0.665,7.351,1.031,10.636,1.922
	c1.08,0.293,2.519,1.931,2.543,2.983c0.099,4.302-0.285,8.614-0.491,12.922C516.329,65.753,515.842,65.807,515.355,65.86z"/>
<path fill-rule="evenodd" clip-rule="evenodd" d="M688.531,151.608c-4.896-6.272-7.636-11.534-4.292-18.096
	c1.976,1.002,4.534,1.743,6.279,3.362c1.401,1.3,2.817,3.888,2.455,5.508C692.306,145.364,690.336,148.053,688.531,151.608z"/>
<path fill-rule="evenodd" clip-rule="evenodd" d="M589.151,72.397c2.168-0.425,4.336-0.85,6.662-1.306c0-0.827,0-1.758,0-1.672
	c4.475-0.766,8.735-1.495,13.688-2.342c7.604,6.473,8.504,5.932,6.733,13.039c-2.556-3.523-5.112-7.047-7.49-10.325
	c-2.723,0.673-5.502,1.36-8.664,2.142c-0.537,4.674-0.799,4.798-6.008,2.75c-1.52-0.598-3.164-0.885-4.751-1.314
	C589.264,73.043,589.208,72.72,589.151,72.397z"/>
<path fill-rule="evenodd" clip-rule="evenodd" d="M757.931,199.783c-1.163,0.918-2.955,2.97-5.213,3.929
	c-2.043,0.868-7.103-4.682-6.367-7.578c0.563-2.223,2.837-5.044,4.903-5.621C754.772,189.53,757.817,193.489,757.931,199.783z"/>
<path fill-rule="evenodd" clip-rule="evenodd" d="M679.406,281.708c0.296-2.649,0.51-4.565,0.874-7.82
	c5.171,4.549,9.752,8.577,14.781,13c2.479,4.649,5.367,10.065,8.257,15.482c-0.403,0.348-0.807,0.696-1.21,1.045
	C694.657,296.122,693.286,282.247,679.406,281.708z"/>
<path fill-rule="evenodd" clip-rule="evenodd" d="M682.411,67.582c-2.874,4.822-5.747,9.644-8.796,14.761
	c1.483,0.544,2.788,1.023,5.697,2.09c-2.1,2.199-3.568,5.055-5.137,5.111c-3.575,0.128-4.772-2.42-4.3-6.16
	c0.97-7.677,7.281-11.283,11.099-16.776C681.454,66.932,681.932,67.257,682.411,67.582z"/>
<path fill-rule="evenodd" clip-rule="evenodd" d="M665.374,212.308c-1.518-2.806-3.909-5.496-1.012-9.177
	c1.41,0.569,2.853,1.151,4.31,1.739c1.243-1.065,2.449-2.099,4.643-3.978c-0.712,5.091-1.445,9.284,4.8,8.293
	c-3.093,5.764-5.281,6.273-10.602,2.92c-0.54-0.341-1.523,0.021-2.289,0.066C665.235,212.182,665.374,212.308,665.374,212.308z"/>
<path fill-rule="evenodd" clip-rule="evenodd" d="M667.963,186.961c-0.297-3.585-0.557-7.175-0.903-10.756
	c-0.202-2.084-0.735-4.152-0.758-6.231c-0.017-1.508,0.562-3.022,0.874-4.534c1.453,0.466,3.042,0.703,4.324,1.46
	c1.355,0.8,2.419,2.095,4.201,3.709c-5.981,1.024-6.137,4.271-4.83,8.658c0.88,2.952,0.537,6.088-3.056,7.563
	C667.813,186.828,667.963,186.961,667.963,186.961z"/>
<path fill-rule="evenodd" clip-rule="evenodd" d="M497.423,230.452c-2.778,1.664-5.558,3.33-7.869,4.716
	c-1.312-2.882-1.876-5.303-3.316-6.966c-1.507-1.739-3.857-2.749-6.762-4.696c2.104-1.239,3.913-2.891,4.481-2.537
	c2.156,1.335,3.908,3.318,5.888,5.129c2.235,0.71,4.854,1.542,7.472,2.374C497.352,229.131,497.387,229.792,497.423,230.452z"/>
<path fill-rule="evenodd" clip-rule="evenodd" d="M487.609,262.689c-1.595,4.829-3.186,9.65-4.768,14.438
	c-2.76-1.328-6.068-7.979-4.853-11.328c0.503-1.386,2.754-2.507,4.43-2.996C484.165,262.293,486.175,262.689,487.609,262.689z"/>
<path fill-rule="evenodd" clip-rule="evenodd" d="M486.576,250.973c0.688-3.628-5.256-9.073,3.019-10.203
	c1.945-0.266,5.086,0.97,6.055,2.525C497.051,245.546,491.765,249.953,486.576,250.973z"/>
<path fill-rule="evenodd" clip-rule="evenodd" d="M562.77,265.814c3.902,9.382,7.805,18.765,11.625,27.949
	c-3.668-1.329-10.265-14.441-13.399-27.163C561.587,266.339,562.179,266.076,562.77,265.814z"/>
<path fill-rule="evenodd" clip-rule="evenodd" d="M461.342,218.26c-2.249,0.757-3.757,1.265-5.265,1.772
	c-0.236-1.602-1.172-3.583-0.554-4.721c1.078-1.982,3.113-3.445,4.748-5.125c0.792,1.135,1.525,2.318,2.396,3.39
	c0.752,0.926,2.043,1.588,2.405,2.61c0.531,1.499,0.445,3.216-0.424,5.21C463.451,220.259,462.251,219.122,461.342,218.26z"/>
<path fill-rule="evenodd" clip-rule="evenodd" d="M651.799,86.539c4.506-7.59,9.013-15.181,13.52-22.771
	c0.617,0.367,1.234,0.733,1.852,1.1c-6.439,6.485-5.122,17.509-13.978,22.582C652.728,87.146,652.264,86.843,651.799,86.539z"/>
<path fill-rule="evenodd" clip-rule="evenodd" d="M638.679,61.902c2.473-2.924,4.089-4.837,5.707-6.75
	c1.492,2.386,3.367,4.647,4.215,7.243c0.22,0.674-2.742,3.327-4.296,3.376C642.77,65.819,641.165,63.726,638.679,61.902z"/>
<path fill-rule="evenodd" clip-rule="evenodd" d="M714.862,207.314c1.609,3.175,2.945,5.813,4.322,8.533c-4.521,0-8.273,0-12.025,0
	c-0.119-0.501-0.237-1.002-0.355-1.503C709.188,212.265,711.574,210.185,714.862,207.314z"/>
<path fill-rule="evenodd" clip-rule="evenodd" d="M589.583,330.518c-0.549,7.453,0.719,15.201-3.279,22.092
	c-0.578-0.086-1.157-0.172-1.735-0.258c1.16-7.355,2.319-14.713,3.48-22.07C588.559,330.36,589.071,330.439,589.583,330.518z"/>
<path fill-rule="evenodd" clip-rule="evenodd" d="M658.787,251.221c0.195,1.873,0.438,4.203,0.681,6.533
	c-0.336,0.359-0.672,0.719-1.007,1.078c-3.686-3.438-7.371-6.878-11.056-10.317c0.388-0.568,0.775-1.138,1.163-1.706
	C651.809,248.207,655.049,249.606,658.787,251.221z"/>
<path fill-rule="evenodd" clip-rule="evenodd" d="M431.006,261.041c1.176-2.226,1.98-4.833,3.693-6.51
	c0.808-0.789,3.364,0.207,5.127,0.395c-0.366,1.716-0.169,4.147-1.229,4.982c-1.682,1.322-4.203,1.575-6.369,2.281
	C431.821,261.807,431.414,261.424,431.006,261.041z"/>
<path fill-rule="evenodd" clip-rule="evenodd" d="M567.907,306.077c2.263,3.19,4.034,4.954,4.76,7.074
	c0.289,0.848-1.729,2.484-2.695,3.762c-1.621-2.013-3.422-3.918-4.728-6.118C564.942,310.286,566.335,308.771,567.907,306.077z"/>
<path fill-rule="evenodd" clip-rule="evenodd" d="M581.572,10.812c-3.147-3.954-6.593-6.669-0.859-10.812
	c1.587,1.968,3.671,3.722,4.474,5.939C585.524,6.87,583.152,8.782,581.572,10.812z"/>
<path fill-rule="evenodd" clip-rule="evenodd" d="M703.701,47.888c4.146,2.021,4.349,5.112,2.724,8.397
	c-0.365,0.74-3.035,1.326-3.604,0.818C699.442,54.077,700.803,51.061,703.701,47.888z"/>
<path fill-rule="evenodd" clip-rule="evenodd" d="M736.632,156.431c2.597,3.841,1.7,6.942-3.265,11.279
	C730.66,163.925,730.994,162.771,736.632,156.431z"/>
<path fill-rule="evenodd" clip-rule="evenodd" d="M568.793,270.078c-2.362-1.132-4.539-2.49-2.691-5.742
	c0.719-1.266,2.062-2.176,3.12-3.248c0.493,2.824,0.987,5.647,1.479,8.472C570.065,269.732,569.429,269.905,568.793,270.078z"/>
<path fill-rule="evenodd" clip-rule="evenodd" d="M753.901,135.537c0-2.594,0-5.188,0-9.469c2.456,1.767,5.041,2.914,4.933,3.683
	c-0.313,2.227-1.708,4.301-2.678,6.436C755.405,135.969,754.654,135.753,753.901,135.537z"/>
<path fill-rule="evenodd" clip-rule="evenodd" d="M543.313,51.543c-3.439,2.046-5.646,5.598-9.3,1.508
	c1.638-1.85,3.117-3.522,4.921-5.562C540.153,48.617,541.526,49.889,543.313,51.543z"/>
<path fill-rule="evenodd" clip-rule="evenodd" d="M662.754,57.768c-2.334,1.655-3.72,3.181-5.373,3.573
	c-0.786,0.187-2.086-1.786-3.152-2.781c1.416-1.203,2.685-2.765,4.318-3.439C659.24,54.836,660.702,56.416,662.754,57.768z"/>
<path fill-rule="evenodd" clip-rule="evenodd" d="M707.578,163.863c-1.693,1.99-2.627,3.088-4.383,5.152
	c-1.324-2.414-2.442-4.199-3.216-6.123c-0.125-0.311,1.492-1.906,1.948-1.764C703.657,161.667,705.239,162.675,707.578,163.863z"/>
<path fill-rule="evenodd" clip-rule="evenodd" d="M539.868,35.443c-1.67,2.183-2.743,3.587-3.816,4.991
	c-1.606-1.511-3.212-3.021-4.818-4.532c0.373-0.513,0.746-1.024,1.119-1.536C534.35,34.652,536.348,34.938,539.868,35.443z"/>
<path fill-rule="evenodd" clip-rule="evenodd" d="M674.344,48.646c1.776,2.637-1.596,9.131-7.662,12.807
	C669.63,56.525,671.883,52.759,674.344,48.646z"/>
<path fill-rule="evenodd" clip-rule="evenodd" d="M437.621,272.106c0.709-2.36,1.418-4.722,2.126-7.082
	c1.167,0.402,2.335,0.805,3.502,1.207c-0.936,2.273-1.871,4.546-2.809,6.819C439.5,272.736,438.56,272.422,437.621,272.106z"/>
<path fill-rule="evenodd" clip-rule="evenodd" d="M725.667,204.655c-2.023,0.59-4.068,1.641-6.057,1.539
	c-0.767-0.039-1.398-2.695-2.093-4.158c0.317-0.438,0.635-0.878,0.952-1.316c2.432,0.658,4.863,1.316,7.295,1.975
	C725.733,203.348,725.7,204.002,725.667,204.655z"/>
<path fill-rule="evenodd" clip-rule="evenodd" d="M691.38,231.421c2.298,2.906,5.415,5.041,2.601,9.475
	c-1.648-1.086-3.093-2.037-4.441-2.925C690.135,235.854,690.656,234.002,691.38,231.421z"/>
<path fill-rule="evenodd" clip-rule="evenodd" d="M460.195,88.731c1.952-1.779,3.245-2.957,4.537-4.135
	c1.188,2.218,2.376,4.437,3.564,6.655c-0.379,0.266-0.759,0.532-1.138,0.798C465.299,91.164,463.442,90.278,460.195,88.731z"/>
<path fill-rule="evenodd" clip-rule="evenodd" d="M667.255,291.987c0.909,2.083,1.819,4.164,2.729,6.247
	c-1.082,0.337-3.029,1.111-3.113,0.943c-0.978-1.932-1.673-4.005-2.442-6.041C665.371,292.754,666.313,292.37,667.255,291.987z"/>
<path fill-rule="evenodd" clip-rule="evenodd" d="M423.533,225.629c1.692-0.831,3.332-1.979,5.114-2.278
	c0.472-0.079,1.383,2.454,2.092,3.787c-2.109,0.441-4.221,0.884-6.33,1.325C424.116,227.518,423.825,226.573,423.533,225.629z"/>
<path fill-rule="evenodd" clip-rule="evenodd" d="M552.583,35.583c1.539-1.941,3.076-3.882,4.615-5.824
	c0.575,0.199,1.15,0.398,1.726,0.598c-0.203,1.885,0.126,4.116-0.795,5.534c-0.62,0.953-3.01,0.756-4.607,1.074
	C553.208,36.504,552.895,36.043,552.583,35.583z"/>
<path fill-rule="evenodd" clip-rule="evenodd" d="M680.75,204.259c-1.018-1.827-2.12-3.619-2.911-5.54
	c-0.076-0.184,1.798-1.17,2.767-1.784c0.937,1.968,1.871,3.936,2.806,5.903C682.525,203.312,681.638,203.785,680.75,204.259z"/>
<path fill-rule="evenodd" clip-rule="evenodd" d="M652.376,264.295c-4.198-1.603-6.335-3.587-1.335-6.869
	C651.487,259.716,651.931,262.005,652.376,264.295z"/>
<path fill-rule="evenodd" clip-rule="evenodd" d="M460.173,265.335c-0.127-5.127,2.407-5.073,5.976-3.533
	C466.055,266.644,463.96,267.395,460.173,265.335z"/>
<path fill-rule="evenodd" clip-rule="evenodd" d="M477.441,226.443c1.089,1.557,2.416,2.668,2.224,3.353
	c-0.339,1.2-1.606,2.139-2.485,3.187c-0.982-0.908-2.779-1.849-2.744-2.715C474.48,229.171,476.016,228.137,477.441,226.443z"/>
<path fill-rule="evenodd" clip-rule="evenodd" d="M640.966,313.315c1.475,1.329,2.343,2.11,3.21,2.892
	c-1.011,0.88-1.921,2.206-3.073,2.47c-0.669,0.153-2.241-1.287-2.445-2.221C638.502,315.752,639.876,314.713,640.966,313.315z"/>
<path fill-rule="evenodd" clip-rule="evenodd" d="M688.395,183.947c-0.561-1.798-1.122-3.597-1.683-5.395
	c1.042-0.212,2.944-0.732,2.995-0.591c0.612,1.717,0.952,3.531,1.362,5.32C690.178,183.503,689.287,183.725,688.395,183.947z"/>
<path fill-rule="evenodd" clip-rule="evenodd" d="M466.566,228.07c-1.784,1.644-2.836,2.776-4.1,3.576
	c-0.168,0.106-2.177-1.846-2.004-2.201c0.565-1.17,1.605-2.301,2.749-2.912C463.72,226.262,464.912,227.27,466.566,228.07z"/>
<path fill-rule="evenodd" clip-rule="evenodd" d="M664.509,251.407c-0.29-1.759-0.579-3.516-0.869-5.274
	c1.15,0.148,3.081-0.019,3.295,0.509c0.54,1.335,0.309,2.981,0.386,4.504C666.383,251.232,665.447,251.319,664.509,251.407z"/>
<path fill-rule="evenodd" clip-rule="evenodd" d="M449.01,276.106c-2.83,1.879-4.687,3.11-7.467,4.957
	C441.764,275.158,443.727,273.995,449.01,276.106z"/>
<path fill-rule="evenodd" clip-rule="evenodd" d="M503.472,238.572c-0.643,3.057-1.173,5.583-1.846,8.783
	C498.828,243.613,499.514,240.591,503.472,238.572z"/>
<path fill-rule="evenodd" clip-rule="evenodd" d="M263.044,156.907c9.389,8.13,7.723,27.266-2.196,33.146
	c-2.417,1.433-4.476,1.2-5.789-1.443c-0.572-1.154-1.032-2.49-1.075-3.76C253.637,174.576,256.718,165.424,263.044,156.907z"/>
<path fill-rule="evenodd" clip-rule="evenodd" d="M384.95,170.122c-0.765-7.005,2.195-11.441,6.945-14.646
	c1.451-0.979,3.883-0.505,5.865-0.696c0.045,2.009,0.771,4.337,0.008,5.968C395.369,165.875,390.628,168.187,384.95,170.122z"/>
</svg>
