<svg xmlns="http://www.w3.org/2000/svg" width="758.836" height="358.154" xml:space="preserve"><path fill-rule="evenodd" clip-rule="evenodd" d="M665.235 212.182c.028 3.546.155 7.095.047 10.637-.059 1.896-.521 3.779-.986 6.918-2.459-2.074-3.635-3.181-4.929-4.124-1.257-.918-2.635-1.67-3.96-2.493-.748 1.346-1.507 2.688-2.241 4.041-1.274 2.351-2.535 4.709-4.69 6.506l-.408 8.086c-7.177-2.891-7.177-2.891-11.193 6.965l-2.355-2.821c-6.819 4.521-8.854 18.113-2.824 22.604 1.708 1.272 1.869 4.609 2.762 6.991 2.148 5.739 4.343 11.461 6.453 17.214 1.452 3.96 2.797 7.96 3.642 12.188-7.661-4.688-7.23-14.274-13.052-21.208-.324 1.896-.883 3.025-.601 3.876 1.343 4.04 3.409 7.89 1.636 12.411-.242.619 1.132 1.81 1.629 2.801.479.954.792 1.992 1.177 2.992l-4.221 1.397c-.506-6.595-.196-12.526-1.595-18.024-1.434-5.636-4.537-10.847-6.554-15.435-4.417 0-7.991-.165-11.531.113-.92.072-2.317 1.419-2.501 2.372-2.356 12.259-4.55 24.55-6.705 36.847-.119.676.246 1.857.762 2.159 7.24 4.215 7.408 12.636 11.297 18.824 1.563 2.487 2.914 5.108 4.361 7.67l-1.296.988c-2.548-3.872-5.575-7.523-7.496-11.685-1.653-3.577-3.584-5.596-7.424-4.413-1.246.385-2.834 2.098-2.949 3.326-.812 8.649-1.229 17.334-1.936 25.995-.069.846-1.267 2.27-1.913 2.254-1.151-.027-3.1-.774-3.263-1.533-.49-2.274-1.054-5.03-.21-7.012 3.727-8.763 3.158-16.961-2.904-24.244-2.787-3.349-4.52-6.862-2.021-10.248 1.714-2.326 5.427-3.177 8.246-4.688l1.816.908c-.316-2.198.141-5.109-1.101-6.454-3.219-3.491-2.994-6.981-1.75-10.964 3.847-12.31 1.196-19.183-9.729-25.506.99-10.996-.452-14.54-7.452-17.325 1.715 4.435 7.014 8.72-.217 13.268l5.896 10.521-1.12.815c-5.121-7.657-10.241-15.316-14.724-22.021-5.751 2.974-10.684 5.522-15.614 8.071l-1.108-1.01c.774-1.452 1.55-2.903 2.563-4.8-4.112-2.157-7.596-.99-10.005 2.243-4.426 5.941-8.375 12.237-12.671 18.606 3.864 3.257 6.699 6.715 4.338 11.648-.797 1.665-2.416 4.236-3.545 4.178-2.648-.138-5.991.157-6.97-4.05-1.579-6.777.352-12.572 4.384-17.67 4.721-5.97 10.417-11.208 14.798-17.396 3.69-5.213 8.066-10.741 5.645-18.083a10.157 10.157 0 0 0-1.02-2.221c-.238-.377-.755-.579-.897-.681-3.006 1.348-5.808 2.603-8.99 4.028-.979-13.068-2.615-14.847-12.86-14.589.528.944.883 1.736 1.378 2.428.936 1.307 1.951 2.556 2.934 3.828l-5.045-.462c.569 2.73 1.703 5.704 1.635 8.65-.05 2.177-1.258 4.652-2.686 6.391-1.885 2.291-5.107.724-5.153-1.023-.146-5.632-4.359-4.677-7.53-5.686-6.816-2.169-10.552-7.572-13.793-13.444-.392-.707-.707-1.455-1.157-2.393-4.213 1.205-8.056 1.426-9.542-4.625-2.556 1.799-4.673 3.305-6.808 4.784-1.984 1.377-3.988 2.726-5.983 4.086l-1.159-.765 3.913-14.929c-4.032-4.726-8.093-5.511-15.153-2.161-.676.32-1.942.54-2.317.174-3.935-3.841-7.342-.42-10.962.594-7.006 1.962-13.957 4.535-21.108 5.416-4.847.596-9.985-1.342-15.014-1.99-1.855-.239-3.863-.41-5.64.035-8.732 2.194-17.37 2.76-25.98-.513-.896-.341-1.961-.595-2.883-.456-4.652.7-9.271 1.625-13.923 2.319-9.637 1.439-17.34-1.688-22.698-10.134-7.52 6.665-15.141 6.276-23.274.435-2.182 2.344-4.032 5.064-6.552 6.824-2.347 1.64-5.326 2.712-8.172 3.222-4.668.834-9.483.813-14.183 1.514-5.403.805-10.187-.219-14.676-3.354-1.118-.78-3.362-1.444-4.215-.869-7.133 4.817-14.409 4.359-21.981.927-3.945 8.311-9.131 14.733-19.281 13.883-6.477-.542-10.292-5.045-14.318-16.742-21.18 7.168-37.628.729-49.974-19.634-.217 2.747-.425 4.226-.437 5.707-.096 12.217-5.705 16.771-15.594 19.614-5.251 1.509-11.165 1.543-16.681 1.076-5.875-.497-9.622-4.018-11.232-10.303-1.426-5.563-4.242-10.793-6.726-16.037-.42-.888-2.386-1.732-3.43-1.529-12.225 2.373-24.43 4.864-36.574 7.615-1.154.261-2.641 2.485-2.647 3.804-.028 6.308.931 12.657.458 18.911-.262 3.462-1.748 7.814-4.239 9.951-8.775 7.523-19.196 9.96-30.236 5.725-3.087-1.184-6.215-4.133-7.787-7.088-8.426-15.847-16.399-31.934-24.464-47.97-7.918-15.745-4.55-35.601 7.964-47.429 13.065-12.35 32.448-14.726 48.104-5.896.581.327 1.118.893 1.727.98 2.294.329 4.691.911 6.866.477.607-.122.791-3.407.814-5.246.129-10.122.007-20.249.302-30.365.075-2.58 1.15-5.202 2.11-7.671 4.378-11.253 13.947-16.112 26.333-12.857 8.024 2.109 15.699 5.614 23.765 7.479 12.971 3 21.001-2.982 22.864-16.078.117-.824.24-1.648.383-2.468.564-3.228 2.237-5.21 5.767-4.826 3.806.415 4.876 3.067 4.813 6.39-.361 19.035-16.188 31.849-34.939 27.918-6.142-1.287-12.174-3.41-18.02-5.744-14.764-5.895-20.649-3.257-22.739 12.35-1.238 9.241-.227 18.782-.227 28.503 5.585-.055 9.144-.823 12.056-5.077 9.176-13.406 26.093-19.565 41.799-15.833 16.184 3.845 28.527 16.788 30.748 32.989.731 5.338.115 10.861.115 16.44 4.864-7.526 9.181-15.24 14.537-22.148 3.905-5.037 8.72-9.681 13.966-13.281 5.822-3.995 12.915-3.947 18.94-.185 6.238 3.895 12.227 8.745 11.586 17.302-.234 3.114-1.897 6.121-2.928 9.235 8.762-2.249 16.345.232 21.84 8.55 2.492-3.667 4.357-6.979 6.759-9.839 6.295-7.495 14.711-9.045 23.342-4.548 4.691 2.444 9.33 4.987 14.51 7.762 3.992-5.144 9.364-8.402 15.878-6.692 4.734 1.243 8.167.451 12.615-1.49 6.691-2.918 14.091-2.933 19.944 3.942 5.778-6.391 12.091-10.875 20.743-6.934 8.37 3.813 9.592 11.634 10.959 19.967.949-1.398 1.844-2.838 2.857-4.188 6.146-8.196 13.336-14.718 24.024-16.495 7.18-1.193 13.134.361 18.179 5.648 2.349 2.461 15.243 4.431 18.026 2.589 2.385-1.579 4.748-3.159 3.729-7.207-.431-1.712 2.202-4.197 4.037-7.353-4.955-4.192-10.002-9.212-15.789-13.14-5.52-3.745-11.813-6.35-18.013-9.585l-7.591-1.333 4.009-5.224-27.166-17.521c2.476-3.768 5.025-4.599 7.884-1.609 8.616 9.013 19.035 11.62 31.055 9.356 3.42-.645 5.349 1.896 4.265 6.236-1.168 4.675-.205 6.313 4.828 7.719 5.398 1.508 10.05 5.575 15.185 8.223 1.615.834 3.848 1.236 5.591.863 2.177-.467 4.398-1.621 6.139-3.043 3.011-2.459 5.444-2.747 8.893-.436 3.913 2.623 11.308.718 13.946-3.078h-10.588c-.283-.664-.566-1.328-.851-1.992l9.646-7.332-.467-1.085c1.096.207 2.212.649 3.282.56 1.357-.112 3.023-.304 3.888-1.147.512-.499-.035-2.418-.503-3.532-2.522-6.005-1.289-11.548 2.239-16.985l.769 5.987c6.392-7.189 4.462-11.609.84-20.479-1.691-4.146-4.451-7.855-6.312-11.049-2.747.399-5.513 1.426-8.051 1.022-3.809-.606-5.99-2.848-4.975-7.453.96-4.35 3.091-4.987 7.144-4.461 4.528.587 7.271 2.616 8.948 6.709.745 1.821 1.677 3.779 3.077 5.08 5.763 5.352 5.001 12.417 6.019 19.257.951 6.398 4.351 12.173 9.944 15.986.933.636 3.766.115 4.392-.791 1.099-1.587 1.278-3.866 1.638-5.892.353-1.986.449-4.018 1.413-6.282 4.842 5.434 8.331 12.371 17.103 8.746-.217-3.389-1.105-6.905-.492-10.136.935-4.924 2.91-9.65 4.854-15.748 2.499 3.056 4.717 5.167 6.19 7.709 2.187 3.771 5.449 5.422 9.456 5.451 6.879.049 6.88-.113 5.294 6.43l-9.227-3.233-1.223 1.332 4.756 19.201c3.514-10.688 8.746-13.405 16.732-6.181 2.188-2.16 4.312-5.182 6.642-2.593 2.143-1.299 3.735-2.172 5.23-3.189 4.033-2.742 8.025-5.544 12.035-8.323l-.325-1.705c.932 1.007 1.858 2.021 2.798 3.021 1.577 1.681 2.938 3.674 4.785 4.972 6.7 4.709 6.61 4.541 2.915 11.539-1.42 2.69-1.978 5.836-3.039 9.12l-4.957 2.067 7.433 2.012-1.9 4.763 7.55-2.407V87.733c5.534 6.603 6.08 9.832 3.489 12.918 2.316 3.153 4.28 6.143 6.58 8.847 1.584 1.862 3.187 3.537 6.266 1.36 7.849-5.548 15.967-10.723 24.068-15.906 3.451-2.208 3.839-4.052.461-6.794-1.299-1.054-1.684-3.232-2.485-4.899 1.553-.415 3.22-.602 4.621-1.315 1.18-.601 2.049-1.813 3.594-3.256.492 7.874 7.486 14.078 4.773 22.682-.148.47 0 1.071-.232 1.471-5.057 8.745-.834 16.078 3.498 23.409.154.261.126.629.248 1.31-.855.499-2.173.833-2.681 1.662-.776 1.27-1.833 3.628-1.307 4.218 2.24 2.51 5.582 6.745 7.476 6.262 3.375-.862 5.994-4.684 8.929-7.268-.242-.452-.483-.905-.726-1.357l7.193 1.369c.188 6.019-8.076 11.644.113 16.628-2.499 6.343-5.114 12.204-7.054 18.281-.791 2.479.016 5.434-.146 8.158-.12 2.017-.631 4.011-1.69 6.103 1.134 2.905 3.199 5.499 7.223 5.34l-.15-.133c1.437 1.698 2.871 3.397 5.18 6.127-2.879.535-5.551 1.802-7.814 1.285-4.125-.943-5.518.464-5.711 4.244-.254 4.993-.58 9.983-.883 15.1l6.789-1.276-.14-.121zm-320.352-52.305 1.2.341c1.215 11.095 2.552 22.178 3.601 33.288.653 6.916 2.615 8.862 9.784 8.7 4.277-.096 6.664-3.074 4.796-6.963-6.921-14.405-6.798-30.018-8.201-45.363-.311-3.401-.786-6.935-4.452-7.25-2.281-.197-5.498 1.513-7.027 3.396-3.287 4.048-5.833 8.715-8.52 13.225-1.31 2.196-2.256 4.609-3.816 7.86-.811-6.276-1.3-11.369-2.178-16.395-.579-3.312-2.233-6.029-6.259-5.771-3.595.23-6.231.889-7.567 5.429-1.82 6.18-5.273 11.878-8.026 17.782-1.087-5.02-.872-9.621-1.154-14.19-.229-3.702-2.08-6.254-6.325-6.168-4.283.087-5.692 2.962-6.086 6.484-.198 1.763.527 3.609.625 5.429.57 10.601 1.078 21.205 1.596 31.579-1.439.625-2.346 1.044-3.271 1.416-6.893 2.771-10.958.712-12.414-6.498-.589-2.917-1.129-5.953-.957-8.892.35-5.957 1.048-11.906 1.895-17.816.661-4.62-.337-7.7-5.396-8.947-2.292-.565-4.423-2.099-6.417-3.495-5.303-3.712-10.996-3.046-14.183 2.235-7.829 12.969-11.985 26.742-10.495 42.242.964 10.028 11.749 14.719 18.918 9.25 2.323-1.771 4.49-3.745 6.715-5.615 10.822 10.616 14.419 11.388 24.541 5.335 7.708 4.028 13.5.778 13.011-7.76-.668-11.666 6.849-19.477 12.245-28.413.481 1.396.442 2.661.488 3.923.273 7.489.595 14.977.842 22.466.128 3.899 2.53 5.69 5.952 6.181 3.677.529 5.465-1.845 6.325-5.035.56-2.081.734-4.278 1.413-6.313 2.864-8.581 5.853-17.121 8.797-25.677zM223.224 195.34c.582 4.256 1.208 9.484 2.038 14.68.584 3.658 2.985 5.105 6.491 4.186 3.438-.902 5.166-3.173 4.958-6.946-.409-7.422-.833-14.854-.845-22.283-.009-5.647.825-11.293.886-16.944.059-5.388-.681-11.124-5.344-14.325-4.65-3.193-9.379-.427-13.939 1.971-3.763 1.979-8.077 2.88-11.987 4.62-2.103.936-4.938 2.29-5.505 4.071-.651 2.046.094 6.036 1.576 6.915 2.312 1.369 5.901 1.504 8.675.9 2.607-.567 4.699-3.316 7.317-4.08 2.165-.631 5.977-.686 6.957.603 3.703 4.869.947 13.744-4.701 16.118-4.419 1.857-8.997 3.513-13.659 4.583-13.413 3.081-25.647-5.911-23.167-20.149.984-5.65 2.166-11.61 4.877-16.538 4.676-8.497 9.007-18.086 22.005-16.39 4.236.553 5.387-3.177 2.708-6.861-4.765-6.55-11.125-8.016-17.032-2.468-14.102 13.244-23.939 28.957-23.523 49.184.287 13.917 14.31 25.481 25.138 23.88 8.584-1.271 17.087-3.077 26.076-4.727zm271.989-65.915.217-1.818c-1.981-1.786-3.727-4.597-5.999-5.124-3.613-.836-6.112 1.469-7.024 5.393-.287 1.236-1.773 2.312-2.909 3.211-4.715 3.734-4.828 6.89-1.433 11.799 1.844 2.666 3.418 6.177 3.447 9.322.12 13.135-.586 26.276-.491 39.413.017 2.336 1.91 5.93 3.81 6.651 2.226.847 5.836-.157 8.021-1.604 1.526-1.009 2.362-4.137 2.283-6.273-.165-4.451-1.111-8.877-1.794-13.304-.536-3.476 1.016-5.386 4.358-5.943 8.345-1.392 16.707-2.674 25.035-4.149 2.967-.525 7.707.814 7.405-4.34-.273-4.672-4.684-3.692-7.817-4.09-.984-.125-1.997-.035-2.997-.024-6.832.077-13.663.175-20.494.236-4.532.04-6.75-2.257-6.732-6.776.006-1.667.009-3.337-.106-4.998-.273-3.944 1.414-6.042 5.353-7.07 8.108-2.116 16.075-4.006 24.495-1.346 3.326 1.05 7.022.688 7.83-3.765.701-3.873-.823-7.057-4.993-7.899-2.697-.544-5.581-.74-8.309-.438-7.074.785-14.106 1.933-21.156 2.936zm71.311 56.794c.979 4.37 1.396 7.541 2.428 10.497 1.335 3.827 3.997 6.949 8.323 6.563 2.16-.192 4.553-2.056 6.107-3.812 3-3.391.283-6.111-1.857-8.677-4.059-4.866-5.444-10.679-5.349-16.753.136-8.614.873-17.217 1.145-25.832.162-5.137-3.275-7.514-8.095-5.92-5.988 1.98-7.24 5.512-6.082 13.22 1.402 9.331 1.408 18.707-5.449 26.339-1.593 1.772-4.254 2.583-6.425 3.836-1.043-2.149-2.873-4.258-2.988-6.456-.388-7.417.412-14.932-.43-22.273-.401-3.504-3.17-6.949-5.543-9.872-.627-.773-4.181-.101-5.663.942-3.353 2.358-4.874 5.595-3.08 9.972 1.177 2.873 1.748 6.043 2.249 9.135 1.433 8.845 2.342 17.789 4.119 26.56 1.637 8.088 8.386 10.415 15.029 5.432 2.615-1.961 4.688-4.665 6.912-7.118 1.408-1.551 2.638-3.265 4.649-5.783zm35.44-27.85c.164-3.201.084-5.629.455-7.985.717-4.554-.789-6.875-5.285-7.604-4.222-.686-6.972 1.494-7.251 6.014-.121 1.967.187 3.97.399 5.946 1.387 12.851 2.654 25.634-.124 38.557-.586 2.726 1.17 6.994 3.305 9 2.547 2.393 5.738-.011 7.5-2.595 1.392-2.042 2.72-4.499 2.953-6.881.452-4.617-.074-9.319.145-13.971.334-7.083 2.771-13.136 9.662-17.208.811 1.438 1.847 2.613 2.167 3.958a476.884 476.884 0 0 1 3.892 17.932c.897 4.539 1.253 9.207 2.443 13.659 1.202 4.498 6.182 6.527 10.306 4.741 3.494-1.514 4.303-4.562 2.997-8.222-2.368-6.636-4.642-13.34-6.353-20.167-2.29-9.145-3.386-18.611-10.847-25.639-2.855-2.689-5.094-2.846-7.551-.067-2.815 3.186-5.466 6.517-8.813 10.532zm-149.23 22.486.183 1.886c-3.006 1.669-5.835 3.958-9.057 4.882-7.432 2.131-15.103 3.414-22.564 5.457-2.021.554-3.637 2.591-5.438 3.947 1.547 1.95 2.938 4.063 4.724 5.763.646.615 2.333.566 3.381.26 9.019-2.637 18.197-4.895 26.914-8.321 5.116-2.011 10.033-5.354 14.048-9.147 5.893-5.57 4.406-10.787-3.152-13.494-2.8-1.003-5.718-1.843-8.653-2.277-6.631-.979-13.308-1.66-21.396-2.635 3.204-2.63 5.266-4.759 7.719-6.246 4.961-3.007 10.144-5.647 15.216-8.473 4.283-2.387 5.604-6.582 3.355-10.48-2.151-3.729-5.33-4.339-9.831-1.65-1.694 1.013-3.183 2.396-4.681 3.706-4.633 4.054-9.305 8.07-13.81 12.265-3.465 3.226-7.214 6.335-9.921 10.147-4.165 5.869-1.203 11.257 6.005 11.729 5.984.392 11.991.473 17.965.971 3.023.251 5.996 1.12 8.993 1.71zm-55.164 12.098-.32-1.163c-2.33 0-4.743.39-6.973-.083-4.252-.902-7.424-3.869-7.689-8.02-.087-1.359 3.958-3.583 6.445-4.397 9.544-3.125 15.716-9.455 19.106-18.726 2.018-5.519.665-12.614-3.436-15.792-4.683-3.629-9.874-2.646-14.463.042-12.713 7.445-18.96 18.925-19.562 33.495-.695 16.841 12.565 27.286 29.939 23.302 5.229-1.2 9.987-4.765 14.698-7.671.994-.613.841-3.086 1.215-4.702-1.643-.159-3.397-.766-4.908-.393-4.733 1.17-9.374 2.71-14.052 4.108zm165.153-82.285c-.797 1.201-.954 1.498-1.166 1.749-1.766 2.082-3.733 4.205-1.012 6.842.805.778 2.105 1.044 3.179 1.544.475-2.251 1.341-4.502 1.339-6.752-.003-4.108 2.331-4.073 4.84-2.821 2.578 1.287 4.182.936 4.975-1.73 1.058-3.56 1.857-7.196 2.381-9.266L563.91 84.881l.708 15.844c-3.199 4.208-5.309-1.623-7.734-3.57l-6.219 6.5 2.704 5.361 4.654-3.963 4.7 5.615zM125.72 138.931c1.284-1.78 2.2-3.657 3.644-4.939 4.616-4.1 2.296-8.788 1.305-13.313-.16-.73-1.721-1.785-2.449-1.654-4.356.781-8.658 1.865-12.902 2.831 1.321 12.235 1.321 12.235 10.402 17.075zm-1.146 25.932 14.033-3.035c1.654-9.875-4.319-13.633-11.333-16.493-7.748 5.181-5.407 11.975-2.7 19.528zm4.867-22.881c7.287 6.264 11.694 6.854 20.083 2.484l-2.891-13.184c-8.288.078-14.645 2.413-17.192 10.7zm-6.018 1.199c-5.745-6.259-12.388-6.375-19.828-2.646l3.096 13.304c8.263.12 14.119-2.547 16.732-10.658zM36.86 175.063c.141 3.723 3.533 6.883 6.952 6.753 3.558-.135 6.371-3.346 6.166-7.037-.209-3.751-3.142-6.253-7.044-5.975-4.049.29-5.678 2.848-6.074 6.259zm-11.552-18.271c-3.834-.1-6.634 2.597-6.629 6.386.004 3.674 2.986 6.844 6.553 6.619 3.807-.24 6.071-2.478 6.448-6.268.355-3.571-2.677-6.639-6.372-6.737zm36.597-.014c-.066-3.616-3.177-6.659-6.805-6.358-3.768.312-6.134 2.368-6.31 6.31-.165 3.68 2.816 6.604 6.528 6.618 3.732.014 6.654-2.9 6.587-6.57zm-24.863-5.418c3.735.01 6.87-2.951 6.521-6.551-.355-3.674-2.299-6.128-6.32-6.28-3.927-.147-6.62 2.405-6.658 6.28-.04 3.861 2.602 6.541 6.457 6.551z"/><path fill-rule="evenodd" clip-rule="evenodd" d="M454.707 230.019c-1.845 3.981-.615 5.674 3.536 8.048 5.407 3.09 9.45 8.565 15.297 14.183-3.561 2.456-5.957 5.141-8.744 5.636-1.604.285-3.839-2.972-6.537-5.269-4.155 1.283-9.613 2.078-14.555-1.8-.898-.705-2.156-1.405-2.449-2.354-1.502-4.883-3.191-9.788-3.837-14.812-.23-1.792 1.843-4.884 3.644-5.734 4.448-2.104 9.236-2.386 13.645 2.102zm236.424-24.48c-2.957-4.107-2.322-7.302 1.465-10.366 3.443-2.788 11.788-.874 12.351 3.538.703 5.521 3.331 11.678-3.584 15.833-1.533.922-1.597 4.019-2.968 5.549-1.891 2.113-4.419 5.129-6.6 5.069-1.941-.053-4.573-3.462-5.521-5.921-2.998-7.78-2.086-9.913 4.857-13.702zM610.899 41.446l1.261 9.058 1.373.005c.317-.501.767-.962.931-1.508.78-2.605.724-6.719 2.364-7.558 3.885-1.984 8.379-.561 10.892 3.075 2.697 3.902 4.42 8.478 6.242 13.577-6.621-1.607-7.856 4.065-11.792 7.229l-7.265-10.964-2.478 5.778-10.288-.878c6.522-3.81 2.069-12.839 8.76-17.814zM557.303 55.91l7.738-3.98 4.93 2.691c-1.141 5.218-2.255 10.32-3.238 14.824-1.624-.329-3.687-.851-5.783-1.14-1.813-.25-4.647.457-5.304-.475-1.594-2.262-5.076-4.46-2.377-8.144.363-.497.485-1.172 1.018-2.519l-7.108.766c-.187-1.598-.482-3.168-.522-4.745-.041-1.607.17-3.22.271-4.83 2.145.374 4.716.147 6.316 1.286 1.708 1.217 2.499 3.724 4.059 6.266zm180.095 57.403c-2.496 2.904-4.542 6.531-7.645 8.441-1.93 1.187-6.505.809-8.017-.721-2.112-2.136-3.783-6.277-3.203-9.05.545-2.602 4.219-4.59 6.65-6.693.267-.231 1.494.445 2.143.893 3.113 2.149 6.179 4.363 10.072 7.13zM564.2 44.862c-.305-1.375-1.369-3.382-.806-4.088 3.544-4.438-.421-7.157-1.803-10.615-.862-2.153-1.248-6.634-.623-6.873 2.695-1.032 5.923-1.373 8.782-.906 1.043.17 2.324 3.328 2.237 5.059-.215 4.257-1.399 8.458-1.74 12.717-.288 3.596-2.239 4.733-6.047 4.706zm124.658 120.827c7.1-.772 9.309.759 8.409 6.143-.287 1.717-1.54 4.706-2.203 4.666-2.317-.14-4.655-1.17-6.82-2.207-1.88-.9-3.981-1.927-5.191-3.506-2.162-2.82-3.778-6.07-5.383-9.261-.082-.164 2.473-2.355 3.123-2.068 2.925 1.29 5.604 3.133 8.372 4.777l-.307 1.456zm-188.975 85.499 1.352 5.316c4.811-2.271 9.33-1.985 13.392 1.977-.826 1.213-1.409 2.457-2.336 3.343-1.619 1.546-3.984 4.384-5.089 3.994-2.838-1.001-5.92-3.003-7.459-5.496-1.451-2.354-1.06-5.844-1.478-8.833l1.618-.301zM584.87 39.096l7.871 6.254c-1.271 2.544-2.3 5.339-3.978 7.665-.918 1.271-2.882 2.163-4.484 2.372-.595.077-1.792-2.196-2.223-3.553-1.464-4.603-2.819-9.3 2.814-12.738zm119.602 145.16c4.294-5.455 4.462-5.447 8.175.219-.591.449-1.316 1.411-1.794 1.3-4.334-1.01-6.648 1.112-8.885 4.563-2.149 3.319-4.758 1.061-6.601-.8-2.375-2.397-2.646-5.242-.387-8.003 1.996-2.441 4.256-2.264 6.499-.398.999.83 1.816 1.878 2.993 3.119zM515.355 65.86l-2.428-2.887 3.098-2.244c-7.992-.524-9.063-6.996-11.897-12.858 3.922.665 7.351 1.031 10.636 1.922 1.08.293 2.519 1.931 2.543 2.983.099 4.302-.285 8.614-.491 12.922l-1.461.162zm173.176 85.748c-4.896-6.272-7.636-11.534-4.292-18.096 1.976 1.002 4.534 1.743 6.279 3.362 1.401 1.3 2.817 3.888 2.455 5.508-.667 2.982-2.637 5.671-4.442 9.226zm-99.38-79.211 6.662-1.306v-1.672l13.688-2.342c7.604 6.473 8.504 5.932 6.733 13.039l-7.49-10.325-8.664 2.142c-.537 4.674-.799 4.798-6.008 2.75-1.52-.598-3.164-.885-4.751-1.314l-.17-.972zm168.78 127.386c-1.163.918-2.955 2.97-5.213 3.929-2.043.868-7.103-4.682-6.367-7.578.563-2.223 2.837-5.044 4.903-5.621 3.518-.983 6.563 2.976 6.677 9.27zm-78.525 81.925.874-7.82 14.781 13a82765.31 82765.31 0 0 0 8.257 15.482l-1.21 1.045c-7.451-7.293-8.822-21.168-22.702-21.707zm3.005-214.126-8.796 14.761 5.697 2.09c-2.1 2.199-3.568 5.055-5.137 5.111-3.575.128-4.772-2.42-4.3-6.16.97-7.677 7.281-11.283 11.099-16.776.48.324.958.649 1.437.974zm-17.037 144.726c-1.518-2.806-3.909-5.496-1.012-9.177l4.31 1.739 4.643-3.978c-.712 5.091-1.445 9.284 4.8 8.293-3.093 5.764-5.281 6.273-10.602 2.92-.54-.341-1.523.021-2.289.066l.15.137zm2.589-25.347c-.297-3.585-.557-7.175-.903-10.756-.202-2.084-.735-4.152-.758-6.231-.017-1.508.562-3.022.874-4.534 1.453.466 3.042.703 4.324 1.46 1.355.8 2.419 2.095 4.201 3.709-5.981 1.024-6.137 4.271-4.83 8.658.88 2.952.537 6.088-3.056 7.563l.148.131zm-170.54 43.491-7.869 4.716c-1.312-2.882-1.876-5.303-3.316-6.966-1.507-1.739-3.857-2.749-6.762-4.696 2.104-1.239 3.913-2.891 4.481-2.537 2.156 1.335 3.908 3.318 5.888 5.129l7.472 2.374.106 1.98zm-9.814 32.237-4.768 14.438c-2.76-1.328-6.068-7.979-4.853-11.328.503-1.386 2.754-2.507 4.43-2.996 1.747-.51 3.757-.114 5.191-.114zm-1.033-11.716c.688-3.628-5.256-9.073 3.019-10.203 1.945-.266 5.086.97 6.055 2.525 1.401 2.251-3.885 6.658-9.074 7.678zm76.194 14.841 11.625 27.949c-3.668-1.329-10.265-14.441-13.399-27.163l1.774-.786zM461.342 218.26l-5.265 1.772c-.236-1.602-1.172-3.583-.554-4.721 1.078-1.982 3.113-3.445 4.748-5.125.792 1.135 1.525 2.318 2.396 3.39.752.926 2.043 1.588 2.405 2.61.531 1.499.445 3.216-.424 5.21-1.197-1.137-2.397-2.274-3.306-3.136zM651.799 86.539l13.52-22.771 1.852 1.1c-6.439 6.485-5.122 17.509-13.978 22.582l-1.394-.911zm-13.12-24.637 5.707-6.75c1.492 2.386 3.367 4.647 4.215 7.243.22.674-2.742 3.327-4.296 3.376-1.535.048-3.14-2.045-5.626-3.869zm76.183 145.412 4.322 8.533h-12.025l-.355-1.503c2.384-2.079 4.77-4.159 8.058-7.03zM589.583 330.518c-.549 7.453.719 15.201-3.279 22.092l-1.735-.258 3.48-22.07 1.534.236zm69.204-79.297.681 6.533-1.007 1.078c-3.686-3.438-7.371-6.878-11.056-10.317l1.163-1.706c3.241 1.398 6.481 2.797 10.219 4.412zm-227.781 9.82c1.176-2.226 1.98-4.833 3.693-6.51.808-.789 3.364.207 5.127.395-.366 1.716-.169 4.147-1.229 4.982-1.682 1.322-4.203 1.575-6.369 2.281l-1.222-1.148zm136.901 45.036c2.263 3.19 4.034 4.954 4.76 7.074.289.848-1.729 2.484-2.695 3.762-1.621-2.013-3.422-3.918-4.728-6.118-.302-.509 1.091-2.024 2.663-4.718zm13.665-295.265c-3.147-3.954-6.593-6.669-.859-10.812 1.587 1.968 3.671 3.722 4.474 5.939.337.931-2.035 2.843-3.615 4.873zm122.129 37.076c4.146 2.021 4.349 5.112 2.724 8.397-.365.74-3.035 1.326-3.604.818-3.379-3.026-2.018-6.042.88-9.215zm32.931 108.543c2.597 3.841 1.7 6.942-3.265 11.279-2.707-3.785-2.373-4.939 3.265-11.279zM568.793 270.078c-2.362-1.132-4.539-2.49-2.691-5.742.719-1.266 2.062-2.176 3.12-3.248.493 2.824.987 5.647 1.479 8.472l-1.908.518zm185.108-134.541v-9.469c2.456 1.767 5.041 2.914 4.933 3.683-.313 2.227-1.708 4.301-2.678 6.436-.751-.218-1.502-.434-2.255-.65zM543.313 51.543c-3.439 2.046-5.646 5.598-9.3 1.508l4.921-5.562 4.379 4.054zm119.441 6.225c-2.334 1.655-3.72 3.181-5.373 3.573-.786.187-2.086-1.786-3.152-2.781 1.416-1.203 2.685-2.765 4.318-3.439.693-.285 2.155 1.295 4.207 2.647zm44.824 106.095-4.383 5.152c-1.324-2.414-2.442-4.199-3.216-6.123-.125-.311 1.492-1.906 1.948-1.764 1.73.539 3.312 1.547 5.651 2.735zm-167.71-128.42-3.816 4.991-4.818-4.532 1.119-1.536 7.515 1.077zm134.476 13.203c1.776 2.637-1.596 9.131-7.662 12.807l7.662-12.807zm-236.723 223.46 2.126-7.082 3.502 1.207c-.936 2.273-1.871 4.546-2.809 6.819-.94-.314-1.88-.628-2.819-.944zm288.046-67.451c-2.023.59-4.068 1.641-6.057 1.539-.767-.039-1.398-2.695-2.093-4.158l.952-1.316 7.295 1.975a642.62 642.62 0 0 1-.097 1.96zm-34.287 26.766c2.298 2.906 5.415 5.041 2.601 9.475l-4.441-2.925c.595-2.117 1.116-3.969 1.84-6.55zM460.195 88.731l4.537-4.135 3.564 6.655-1.138.798-6.963-3.318zm207.06 203.256 2.729 6.247c-1.082.337-3.029 1.111-3.113.943-.978-1.932-1.673-4.005-2.442-6.041l2.826-1.149zm-243.722-66.358c1.692-.831 3.332-1.979 5.114-2.278.472-.079 1.383 2.454 2.092 3.787l-6.33 1.325-.876-2.834zm129.05-190.046 4.615-5.824 1.726.598c-.203 1.885.126 4.116-.795 5.534-.62.953-3.01.756-4.607 1.074l-.939-1.382zM680.75 204.259c-1.018-1.827-2.12-3.619-2.911-5.54-.076-.184 1.798-1.17 2.767-1.784.937 1.968 1.871 3.936 2.806 5.903l-2.662 1.421zm-28.374 60.036c-4.198-1.603-6.335-3.587-1.335-6.869l1.335 6.869zm-192.203 1.04c-.127-5.127 2.407-5.073 5.976-3.533-.094 4.842-2.189 5.593-5.976 3.533zm17.268-38.892c1.089 1.557 2.416 2.668 2.224 3.353-.339 1.2-1.606 2.139-2.485 3.187-.982-.908-2.779-1.849-2.744-2.715.044-1.097 1.58-2.131 3.005-3.825zm163.525 86.872 3.21 2.892c-1.011.88-1.921 2.206-3.073 2.47-.669.153-2.241-1.287-2.445-2.221-.156-.704 1.218-1.743 2.308-3.141zm47.429-129.368-1.683-5.395c1.042-.212 2.944-.732 2.995-.591.612 1.717.952 3.531 1.362 5.32l-2.674.666zM466.566 228.07c-1.784 1.644-2.836 2.776-4.1 3.576-.168.106-2.177-1.846-2.004-2.201.565-1.17 1.605-2.301 2.749-2.912.509-.271 1.701.737 3.355 1.537zm197.943 23.337-.869-5.274c1.15.148 3.081-.019 3.295.509.54 1.335.309 2.981.386 4.504-.938.086-1.874.173-2.812.261zM449.01 276.106c-2.83 1.879-4.687 3.11-7.467 4.957.221-5.905 2.184-7.068 7.467-4.957zm54.462-37.534-1.846 8.783c-2.798-3.742-2.112-6.764 1.846-8.783zm-240.428-81.665c9.389 8.13 7.723 27.266-2.196 33.146-2.417 1.433-4.476 1.2-5.789-1.443-.572-1.154-1.032-2.49-1.075-3.76-.347-10.274 2.734-19.426 9.06-27.943zm121.906 13.215c-.765-7.005 2.195-11.441 6.945-14.646 1.451-.979 3.883-.505 5.865-.696.045 2.009.771 4.337.008 5.968-2.399 5.127-7.14 7.439-12.818 9.374z"/></svg>