<svg xmlns="http://www.w3.org/2000/svg" width="266.07" height="88.654" xml:space="preserve"><path fill-rule="evenodd" clip-rule="evenodd" d="M64.885 40.168 78.653 0l.205.047-2.286 14.67c7.438 3.537 12.57 9.177 15.239 16.944 1.741 5.067 2.003 10.258.738 15.669-1.448-.794-2.757-1.631-4.162-2.255-2.025-.899-3.547-1.99-2.725-4.546-.314-7.288-3.354-13.1-9.377-17.289-.282-.196-.598-.342-.969-.551-.611 3.886-1.243 7.658-1.774 11.444-.142 1.016-.529 1.641-1.433 2.133-2.086 1.14-4.104 2.403-6.172 3.578-.746.424-1.224.971-1.505 1.801a7701.424 7701.424 0 0 1-8.633 25.331c-1.548 4.524-3.118 9.042-4.681 13.561a2.227 2.227 0 0 1-.411.748c.592-3.777 1.187-7.556 1.774-11.335.142-.911.606-1.976.292-2.694-.297-.679-1.424-.993-2.186-1.468C40.64 59.59 35.841 50.654 36.37 38.925c.074-1.646.402-3.283.644-5.163l3.074 1.704c1.023.569 2.015 1.21 3.079 1.689.803.363.922.86.865 1.663-.607 8.381 2.631 14.912 9.55 19.643.144.099.308.17.466.247.025.013.067-.012.203-.042.444-2.819.895-5.678 1.343-8.536.22-1.401.394-2.813.679-4.2.071-.344.438-.706.763-.903 2.216-1.343 4.458-2.642 6.69-3.958.27-.159.531-.333.97-.61L32.165 29.328c-.021.218-.056.411-.056.604.007 8.183.016 16.364.025 24.546 0 .107-.002.214.002.32.078 2.238.626 2.81 2.884 2.847.822.013 1.36.492 1.47 1.112.082.458-.349 1.06-.67 1.514-.132.185-.577.203-.88.204-4.945.012-9.89.011-14.834.006-.976-.002-1.639-.592-1.628-1.411.011-.798.702-1.391 1.642-1.41 2.004-.043 2.646-.516 2.682-2.458.079-4.257.024-8.518.024-12.845h-9.004c-.03.214-.091.447-.091.682-.006 3.948-.02 7.897.003 11.847.013 2.208.56 2.754 2.8 2.755.778.001 1.321.369 1.427.988.084.49-.237 1.096-.506 1.579-.105.191-.556.264-.85.265-5.016.015-10.032.015-15.048.007-.958-.001-1.493-.521-1.489-1.388.003-.838.583-1.4 1.477-1.432 2.339-.085 2.819-.518 2.823-2.853.018-9.498.013-18.996-.008-28.494-.004-2.092-.567-2.55-2.68-2.719-.54-.043-1.226-.433-1.518-.878-.368-.561-.064-1.251.518-1.662.235-.166.563-.282.848-.282 5.016-.018 10.032-.017 15.048-.009.887.002 1.458.586 1.469 1.44.011.823-.569 1.38-1.487 1.428-2.027.104-2.622.511-2.792 1.915-.026.211-.025.426-.025.64-.006 3.734-.011 7.47-.012 11.205 0 .17.039.341.067.567h8.931c.06-.089.132-.146.132-.202-.023-4.017-.016-8.033-.101-12.049-.03-1.407-.65-1.918-2.062-2.053-.283-.026-.572.006-.853-.03-.851-.108-1.408-.574-1.349-1.46.055-.816.528-1.396 1.416-1.398a1805.42 1805.42 0 0 1 15.261.008c.859.005 1.344.604 1.374 1.435.03.829-.499 1.311-1.29 1.41-2.897.366-3.284.843-3.067 4.029 1.647.263 3.318.552 4.997.79 1.744.247 1.707.202 2.611-1.332 6.002-10.182 14.93-15.14 26.739-14.84 1.549.039 3.09.382 4.792.604-.178.418-.272.706-.416.968-.955 1.741-1.96 3.458-2.863 5.227-.352.69-.766.863-1.5.813-8.054-.548-14.34 2.636-19.045 9.106-.184.252-.321.539-.568.962 1.77.29 3.432.571 5.096.832 2.454.383 4.916.717 7.359 1.155.438.078.938.479 1.177.872 1.437 2.362 2.806 4.765 4.318 7.363z"/><path fill-rule="evenodd" clip-rule="evenodd" d="M127.975 23.455c-.756.171-1.374.342-2.002.443-1.177.192-1.682.989-1.844 2.049a16.351 16.351 0 0 0-.199 2.439c-.013 10.424-.008 20.848-.01 31.271 0 1.249-.597 1.864-1.729 1.646-.372-.072-.758-.462-.989-.807-6.1-9.125-12.181-18.264-18.265-27.399-.197-.294-.404-.582-.74-1.064-.035.475-.075.758-.075 1.041-.003 6.403.012 12.807-.022 19.211-.004.766.201 1.161.953 1.347.705.175 1.38.465 2.024.88l-2.81-.36c-.013 2.294.991 3.361 3.227 3.51.885.059 1.352.521 1.349 1.424-.002.904-.45 1.394-1.36 1.396-3.308.007-6.617.01-9.925-.002-.922-.003-1.49-.596-1.517-1.521-.011-.382-.001-.766-.001-1.166.89-.118 1.704-.165 2.489-.343 1.307-.295 2.533-2.421 2.101-3.622-.068-.189-.425-.35-.67-.39-2.31-.374-4.625-.72-7.016-1.085-3.438 7.474-8.968 12.755-16.741 15.559-5.308 1.914-10.73 2.119-16.344.791 1.278-2.318 2.491-4.558 3.765-6.761.13-.226.65-.361.964-.324 7.78.92 16.18-3.29 20.016-10.063.068-.12.107-.256.196-.474-3.238-.509-6.421-1.01-9.604-1.509-.14-.021-.283-.044-.424-.04-2.167.058-3.418-1.06-4.321-2.977-.944-2.004-2.188-3.868-3.447-6.048l33.679 11.588V28.02c0-2.536-1.389-4.105-3.881-4.391-.21-.024-.417-.077-.894-.167.172-.736.241-1.494.548-2.138.143-.302.745-.535 1.142-.541 3.344-.041 6.688-.003 10.032-.041.656-.007 1.011.22 1.356.752 4.25 6.555 8.523 13.095 12.792 19.638.152.233.317.459.603.873.035-.489.073-.779.073-1.07.004-4.198.014-8.396-.007-12.593a13.612 13.612 0 0 0-.224-2.331c-.267-1.484-.984-2.087-2.622-2.317-1.146-.162-1.655-.643-1.625-1.556.028-.838.48-1.356 1.303-1.364 3.13-.031 6.261-.025 9.392-.004.786.005 1.226.49 1.297 1.262.041.453.007.914.007 1.423zm95.951 18.791c2.139 3.68 4.238 7.296 6.344 10.909.482.828.996 1.638 1.481 2.465.739 1.259 1.655 2.235 3.38 2.053 0 .555.019 1.01-.004 1.462-.041.821-.459 1.336-1.306 1.341-3.095.017-6.188.029-9.282-.026-.338-.006-.792-.391-.985-.72-3.054-5.202-6.068-10.425-9.106-15.636-.199-.344-.511-.623-.77-.932l-.264.157c-.027.231-.079.464-.08.695-.004 3.415-.004 6.829-.002 10.243 0 .213.014.426.023.64.105 2.157.589 2.578 2.764 2.803.516.053 1.218.528 1.393.979.155.405-.237 1.079-.515 1.562-.106.185-.563.231-.862.231-4.871.014-9.744.013-14.616.007-.914-.001-1.57-.563-1.603-1.328-.034-.797.635-1.434 1.567-1.492 2.138-.137 2.659-.566 2.686-2.687.073-6.15.087-12.302.093-18.452.004-3.52-.034-7.039-.093-10.558-.026-1.573-.554-2.091-2.089-2.247-1.577-.16-2.226-.645-2.164-1.613.058-.906.823-1.346 2.349-1.344 4.908.008 9.815-.021 14.723.044 1.626.022 3.264.199 4.871.459 5.602.907 8.346 5.795 8.447 10.274.09 3.974-1.055 7.35-4.484 9.668-.554.376-1.175.651-1.896 1.043zm-10.55-2.757c1.171-.109 2.288-.189 3.397-.321 2.057-.245 3.21-1.55 3.771-3.417.58-1.931.572-3.901.309-5.899-.486-3.679-2.455-5.759-7.478-5.084l.001 14.721zm-47.184 1.072c-.04 5.951-1.663 11.343-5.675 15.87-1.458 1.645-3.235 2.862-5.247 3.753-3.861 1.709-7.824 1.513-11.731.397-3.862-1.103-6.653-3.716-8.726-7.101-2.87-4.688-3.747-9.822-3.333-15.236.335-4.39 1.754-8.354 4.418-11.899 7-9.314 21.018-8.408 27.045 1.703 2.307 3.869 3.261 8.056 3.249 12.513zm-9.926.213c-.19-2.548-.305-5.104-.594-7.641-.275-2.41-.946-4.73-2.316-6.78-2.131-3.189-6.319-3.334-8.658-.32-1.292 1.665-2.014 3.587-2.425 5.615-1.076 5.307-1.108 10.657-.383 16.002.368 2.71 1.007 5.379 2.677 7.649 2.068 2.811 5.942 3.015 8.162.333.816-.987 1.433-2.206 1.887-3.414 1.384-3.681 1.511-7.555 1.65-11.444zm93.595-15.92v13.512c1.589-.019 2.804-.698 3.315-2.106.6-1.649.936-3.396 1.352-5.108.123-.508.133-1.044.19-1.535 1.808-.497 2.61.245 2.589 1.971-.07 5.761-.027 11.521-.027 17.282 0 2.109-.349 2.41-2.506 2.122-.221-1.306-.389-2.638-.689-3.939-.198-.855-.534-1.691-.906-2.489-.635-1.359-1.691-2.159-3.297-2.159-.024.245-.068.487-.068.73.004 3.806 0 7.61.026 11.415.011 1.622.489 2.105 2.134 2.058 1.52-.044 3.076-.026 4.547-.354 3.678-.819 5.434-3.6 6.543-6.913.291-.867.5-1.761.74-2.62 1.867-.268 2.458.235 2.267 1.96-.433 3.879-.895 7.754-1.352 11.693-.243.037-.478.106-.712.106-8.783.006-17.566-.002-26.352.018-.771.002-1.227-.376-1.436-1.002-.221-.661.012-1.307.643-1.639.348-.182.812-.176 1.226-.189 1.676-.055 2.366-.647 2.371-2.32.026-9.813.034-19.624.002-29.436-.005-1.609-.687-2.168-2.311-2.277-.419-.028-.894.01-1.239-.177-.6-.324-.936-.931-.704-1.614.242-.714.766-1.097 1.609-1.095 7.717.021 15.434.013 23.151.013.497 0 .995.007 1.492-.001.97-.017 1.469.524 1.477 1.423.031 3.414.032 6.828.002 10.242-.011 1.219-.706 1.55-2.42 1.27-.326-1.342-.619-2.686-.979-4.012-.8-2.954-2.795-4.552-5.797-4.804-1.581-.136-3.185-.026-4.881-.026zm-67.098.102v13.522c1.65.111 3.03-.305 4.044-1.646 1.205-1.594 1.526-3.48 1.766-5.392.039-.311.063-.622.092-.911 1.904-.368 2.467.064 2.467 1.834 0 5.583-.054 11.167.032 16.749.027 1.783-.867 2.53-2.393 2.079-.286-1.588-.476-3.175-.87-4.707-.666-2.584-2.637-4.06-5.076-3.957 0 4.537-.036 9.075.029 13.612.014.989 1.052 1.494 2.582 1.52 1.11.018 1.656.505 1.64 1.468-.014.849-.458 1.344-1.295 1.346-5.121.018-10.242.017-15.362.001-.844-.002-1.278-.499-1.293-1.349-.016-.894.434-1.372 1.308-1.462.211-.022.426.001.639-.006 1.588-.046 2.232-.673 2.331-2.281.028-.461.04-.924.04-1.386-.005-9.174-.005-18.349-.026-27.523-.005-2.218-.554-2.747-2.77-2.836-1.018-.04-1.542-.552-1.522-1.485.019-.86.564-1.383 1.509-1.384 8.286-.005 16.571-.005 24.857 0 .983 0 1.586.584 1.589 1.551.011 3.236.02 6.473-.003 9.708-.01 1.428-1.341 1.722-2.373 1.45-.174-.046-.29-.501-.342-.783-.159-.869-.209-1.763-.417-2.619-.774-3.186-2.361-4.714-5.604-5.076-1.818-.203-3.675-.037-5.579-.037zm3.639 55.024c-1.759-1.41-2.104-3.242-.861-5.195.504-.792.562-1.314.145-2.22-1.556-3.382.065-8.36 5.209-8.465 2.583-.052 5.169.159 7.755.202.986.017.963.754.967 1.331.004.547-.025 1.276-.947 1.229-.561-.029-1.124-.006-1.762-.006 1.362 2.706 1.26 5.228-.795 7.409-1.452 1.541-4.641 2.383-8.202.739-.093.767-.363 1.491-.215 2.117.206.864 1.06 1.016 1.882 1.065 1.909.115 3.833.14 5.719.422 2.518.377 3.86 1.704 4.14 3.746.285 2.077-.871 4.189-2.914 5.222-2.129 1.075-4.421 1.23-6.735.961-1.04-.121-2.1-.371-3.064-.77-2.649-1.096-3.375-4.292-1.539-6.509.36-.433.779-.82 1.217-1.278zm5.489 6.438c.986-.311 2.171-.548 3.227-1.056 1.051-.507 1.468-1.7 1.215-2.682-.255-.99-1.057-1.63-2.27-1.728a80.968 80.968 0 0 0-3.814-.209c-1.424-.047-2.558.817-2.947 2.191-.371 1.312.085 2.358 1.385 2.794.959.323 1.987.438 3.204.69zm-.478-12.926c2.095.006 3.501-1.393 3.54-3.52.039-2.112-1.369-3.539-3.497-3.542-2.091-.002-3.392 1.365-3.419 3.594-.027 2.167 1.234 3.461 3.376 3.468zm18.771.303c-.457 3.612 1.567 6.246 5.473 5.928 1.387-.113 2.746-.591 4.117-.905.365-.084.727-.178 1.076-.265.672 1.78.377 2.45-1.285 2.99-2.088.677-4.25.973-6.4.588-3.787-.677-5.943-3.132-6.201-7.003-.141-2.113-.139-4.224.594-6.299 2.127-6.023 10.031-5.975 12.613-2.528 1.449 1.937 1.79 4.12 1.661 6.423-.056.988-.879 1.069-1.664 1.069-2.951.002-5.901.001-8.853.002h-1.131zm-.078-2.338h8.699c-.104-3.458-1.553-5.071-4.436-5.026-2.462.039-4.251 2.115-4.263 5.026zm-36.46 8.51c-1.787 1.621-3.61 2.443-5.853 2.279-2.367-.174-4.5-1.68-4.779-3.794-.332-2.52-.053-4.651 2.983-5.866 1.468-.587 3.147-.674 4.744-.897.794-.11 1.616-.019 2.691-.019-.177-1.235-.198-2.375-.526-3.416-.436-1.383-2.328-2.156-4.151-1.738-1.121.257-2.184.766-3.284 1.127-.525.172-1.053 1.021-1.624.138-.437-.678-.095-1.938.603-2.354 1.979-1.184 4.139-1.567 6.42-1.395 1.401.105 2.711.404 3.794 1.393 1.397 1.273 1.581 2.972 1.607 4.679.055 3.624.009 7.248.029 10.872.005.981-.588 1.065-1.338 1.044-.721-.021-1.4-.047-1.32-1.057.02-.247.004-.496.004-.996zm-.191-6.286c-2.064.243-3.843.282-5.529.699-1.657.41-2.327 2.05-1.784 3.616.435 1.255 1.846 2.037 3.22 1.839 1.572-.225 2.936-1.015 3.63-2.311.513-.958.31-2.299.463-3.843zm60.155-6.702c1.495-1.596 2.896-2.743 4.868-2.953 3.377-.358 5.965 1.493 6.192 4.894.271 4.066.197 8.157.223 12.237.002.271-.359.647-.645.787-.291.143-.695.053-1.049.07-.893.045-1.32-.237-1.296-1.27.071-2.948.058-5.9.007-8.849-.018-.98-.126-1.996-.414-2.928-.689-2.234-2.85-3.035-4.816-1.769-.879.566-1.637 1.354-2.34 2.142-.287.322-.389.904-.394 1.37-.032 3.305-.013 6.61-.02 9.915-.003 1.295-.118 1.39-1.53 1.387-1.387-.002-1.543-.138-1.543-1.386-.002-5.047-.01-10.094.016-15.141.002-.376.198-1.05.373-1.073.714-.096 1.457-.015 2.182.068.086.01.165.43.177.663.026.518.009 1.04.009 1.836zm-97.676 11.47c1.431-4.331 2.81-8.495 4.184-12.66.454-1.375 1.698-2.021 2.987-1.418.225.104.342.857.222 1.214-1.143 3.408-2.344 6.798-3.534 10.19-.595 1.695-1.248 3.374-1.784 5.088-.259.829-.742 1.149-1.543 1.146-.036 0-.071.002-.106.003-2.316.078-2.375.04-3.147-2.156-1.636-4.655-3.272-9.311-4.903-13.968-.539-1.541-.487-1.514 1.152-1.625 1.253-.084 1.784.365 2.16 1.565 1.252 4.002 2.646 7.959 3.989 11.932.062.184.165.356.323.689zm127.864-11.063c-1.639-.342-3.118-.76-4.626-.929-1.188-.134-2.17.656-2.456 1.631-.308 1.046.044 2.03 1.219 2.671 1.39.757 2.904 1.28 4.311 2.01 2.808 1.457 3.544 4.934 1.593 7.408-.871 1.107-2.087 1.657-3.457 1.902-2.079.372-4.09.2-5.996-.757-.84-.422-1.365-2.104-.842-2.839.119-.166.668-.138.969-.042 1.264.404 2.482.992 3.77 1.262.701.146 1.572-.07 2.256-.373 1.725-.763 1.878-3.016.289-4.035-.764-.49-1.652-.782-2.471-1.193-.976-.491-2.028-.893-2.884-1.548-1.674-1.281-2.079-3.084-1.516-5.058.582-2.037 2.16-3.132 4.122-3.338 1.503-.157 3.104.059 4.585.417 1.461.354 1.775 1.595 1.134 2.811zm-112.566 5.7c0-2.521.033-5.041-.018-7.561-.018-.916.263-1.349 1.206-1.236.105.012.213.001.319.001 1.556-.003 1.568.005 1.569 1.517.002 3.338 0 6.675 0 10.012 0 1.562.003 3.124-.001 4.686-.003 1.424-.093 1.509-1.512 1.509-1.427.001-1.563-.125-1.563-1.471v-7.457z"/></svg>