<?xml version="1.0" encoding="utf-8"?>
<!-- Generator: Adobe Illustrator 16.0.0, SVG Export Plug-In . SVG Version: 6.00 Build 0)  -->
<!DOCTYPE svg PUBLIC "-//W3C//DTD SVG 1.1//EN" "http://www.w3.org/Graphics/SVG/1.1/DTD/svg11.dtd">
<svg version="1.1" id="Layer_1" xmlns="http://www.w3.org/2000/svg" xmlns:xlink="http://www.w3.org/1999/xlink" x="0px" y="0px"
	 width="266.07px" height="88.654px" viewBox="0 0 266.07 88.654" enable-background="new 0 0 266.07 88.654" xml:space="preserve">
<path fill-rule="evenodd" clip-rule="evenodd" d="M64.885,40.168C69.52,26.646,74.086,13.322,78.653,0
	c0.068,0.016,0.137,0.031,0.205,0.047c-0.759,4.867-1.517,9.734-2.286,14.67c7.438,3.537,12.57,9.177,15.239,16.944
	c1.741,5.067,2.003,10.258,0.738,15.669c-1.448-0.794-2.757-1.631-4.162-2.255c-2.025-0.899-3.547-1.99-2.725-4.546
	c-0.314-7.288-3.354-13.1-9.377-17.289c-0.282-0.196-0.598-0.342-0.969-0.551c-0.611,3.886-1.243,7.658-1.774,11.444
	c-0.142,1.016-0.529,1.641-1.433,2.133c-2.086,1.14-4.104,2.403-6.172,3.578c-0.746,0.424-1.224,0.971-1.505,1.801
	c-2.859,8.45-5.745,16.892-8.633,25.331c-1.548,4.524-3.118,9.042-4.681,13.561c-0.091,0.263-0.211,0.515-0.411,0.748
	c0.592-3.777,1.187-7.556,1.774-11.335c0.142-0.911,0.606-1.976,0.292-2.694c-0.297-0.679-1.424-0.993-2.186-1.468
	C40.64,59.59,35.841,50.654,36.37,38.925c0.074-1.646,0.402-3.283,0.644-5.163c1.177,0.652,2.126,1.178,3.074,1.704
	c1.023,0.569,2.015,1.21,3.079,1.689c0.803,0.363,0.922,0.86,0.865,1.663c-0.607,8.381,2.631,14.912,9.55,19.643
	c0.144,0.099,0.308,0.17,0.466,0.247c0.025,0.013,0.067-0.012,0.203-0.042c0.444-2.819,0.895-5.678,1.343-8.536
	c0.22-1.401,0.394-2.813,0.679-4.2c0.071-0.344,0.438-0.706,0.763-0.903c2.216-1.343,4.458-2.642,6.69-3.958
	c0.27-0.159,0.531-0.333,0.97-0.61c-10.926-3.738-21.687-7.42-32.531-11.131c-0.021,0.218-0.056,0.411-0.056,0.604
	c0.007,8.183,0.016,16.364,0.025,24.546c0,0.107-0.002,0.214,0.002,0.32c0.078,2.238,0.626,2.81,2.884,2.847
	c0.822,0.013,1.36,0.492,1.47,1.112c0.082,0.458-0.349,1.06-0.67,1.514c-0.132,0.185-0.577,0.203-0.88,0.204
	c-4.945,0.012-9.89,0.011-14.834,0.006c-0.976-0.002-1.639-0.592-1.628-1.411c0.011-0.798,0.702-1.391,1.642-1.41
	c2.004-0.043,2.646-0.516,2.682-2.458c0.079-4.257,0.024-8.518,0.024-12.845c-2.991,0-5.963,0-9.004,0
	c-0.03,0.214-0.091,0.447-0.091,0.682c-0.006,3.948-0.02,7.897,0.003,11.847c0.013,2.208,0.56,2.754,2.8,2.755
	c0.778,0.001,1.321,0.369,1.427,0.988c0.084,0.49-0.237,1.096-0.506,1.579c-0.105,0.191-0.556,0.264-0.85,0.265
	c-5.016,0.015-10.032,0.015-15.048,0.007c-0.958-0.001-1.493-0.521-1.489-1.388c0.003-0.838,0.583-1.4,1.477-1.432
	c2.339-0.085,2.819-0.518,2.823-2.853c0.018-9.498,0.013-18.996-0.008-28.494c-0.004-2.092-0.567-2.55-2.68-2.719
	c-0.54-0.043-1.226-0.433-1.518-0.878c-0.368-0.561-0.064-1.251,0.518-1.662c0.235-0.166,0.563-0.282,0.848-0.282
	c5.016-0.018,10.032-0.017,15.048-0.009c0.887,0.002,1.458,0.586,1.469,1.44c0.011,0.823-0.569,1.38-1.487,1.428
	c-2.027,0.104-2.622,0.511-2.792,1.915c-0.026,0.211-0.025,0.426-0.025,0.64c-0.006,3.734-0.011,7.47-0.012,11.205
	c0,0.17,0.039,0.341,0.067,0.567c3.011,0,5.98,0,8.931,0c0.06-0.089,0.132-0.146,0.132-0.202c-0.023-4.017-0.016-8.033-0.101-12.049
	c-0.03-1.407-0.65-1.918-2.062-2.053c-0.283-0.026-0.572,0.006-0.853-0.03c-0.851-0.108-1.408-0.574-1.349-1.46
	c0.055-0.816,0.528-1.396,1.416-1.398c5.087-0.014,10.174-0.021,15.261,0.008c0.859,0.005,1.344,0.604,1.374,1.435
	c0.03,0.829-0.499,1.311-1.29,1.41c-2.897,0.366-3.284,0.843-3.067,4.029c1.647,0.263,3.318,0.552,4.997,0.79
	c1.744,0.247,1.707,0.202,2.611-1.332c6.002-10.182,14.93-15.14,26.739-14.84c1.549,0.039,3.09,0.382,4.792,0.604
	c-0.178,0.418-0.272,0.706-0.416,0.968c-0.955,1.741-1.96,3.458-2.863,5.227c-0.352,0.69-0.766,0.863-1.5,0.813
	c-8.054-0.548-14.34,2.636-19.045,9.106c-0.184,0.252-0.321,0.539-0.568,0.962c1.77,0.29,3.432,0.571,5.096,0.832
	c2.454,0.383,4.916,0.717,7.359,1.155c0.438,0.078,0.938,0.479,1.177,0.872C62.004,35.167,63.373,37.57,64.885,40.168z"/>
<path fill-rule="evenodd" clip-rule="evenodd" d="M127.975,23.455c-0.756,0.171-1.374,0.342-2.002,0.443
	c-1.177,0.192-1.682,0.989-1.844,2.049c-0.123,0.805-0.198,1.626-0.199,2.439c-0.013,10.424-0.008,20.848-0.01,31.271
	c0,1.249-0.597,1.864-1.729,1.646c-0.372-0.072-0.758-0.462-0.989-0.807c-6.1-9.125-12.181-18.264-18.265-27.399
	c-0.197-0.294-0.404-0.582-0.74-1.064c-0.035,0.475-0.075,0.758-0.075,1.041c-0.003,6.403,0.012,12.807-0.022,19.211
	c-0.004,0.766,0.201,1.161,0.953,1.347c0.705,0.175,1.38,0.465,2.024,0.88c-0.935-0.119-1.868-0.239-2.81-0.36
	c-0.013,2.294,0.991,3.361,3.227,3.51c0.885,0.059,1.352,0.521,1.349,1.424c-0.002,0.904-0.45,1.394-1.36,1.396
	c-3.308,0.007-6.617,0.01-9.925-0.002c-0.922-0.003-1.49-0.596-1.517-1.521c-0.011-0.382-0.001-0.766-0.001-1.166
	c0.89-0.118,1.704-0.165,2.489-0.343c1.307-0.295,2.533-2.421,2.101-3.622c-0.068-0.189-0.425-0.35-0.67-0.39
	c-2.31-0.374-4.625-0.72-7.016-1.085c-3.438,7.474-8.968,12.755-16.741,15.559c-5.308,1.914-10.73,2.119-16.344,0.791
	c1.278-2.318,2.491-4.558,3.765-6.761c0.13-0.226,0.65-0.361,0.964-0.324c7.78,0.92,16.18-3.29,20.016-10.063
	c0.068-0.12,0.107-0.256,0.196-0.474c-3.238-0.509-6.421-1.01-9.604-1.509c-0.14-0.021-0.283-0.044-0.424-0.04
	c-2.167,0.058-3.418-1.06-4.321-2.977c-0.944-2.004-2.188-3.868-3.447-6.048c11.363,3.91,22.458,7.727,33.679,11.588
	c0-0.569,0-0.956,0-1.343c0-7.577,0-15.155,0-22.732c0-2.536-1.389-4.105-3.881-4.391c-0.21-0.024-0.417-0.077-0.894-0.167
	c0.172-0.736,0.241-1.494,0.548-2.138c0.143-0.302,0.745-0.535,1.142-0.541c3.344-0.041,6.688-0.003,10.032-0.041
	c0.656-0.007,1.011,0.22,1.356,0.752c4.25,6.555,8.523,13.095,12.792,19.638c0.152,0.233,0.317,0.459,0.603,0.873
	c0.035-0.489,0.073-0.779,0.073-1.07c0.004-4.198,0.014-8.396-0.007-12.593c-0.004-0.778-0.086-1.565-0.224-2.331
	c-0.267-1.484-0.984-2.087-2.622-2.317c-1.146-0.162-1.655-0.643-1.625-1.556c0.028-0.838,0.48-1.356,1.303-1.364
	c3.13-0.031,6.261-0.025,9.392-0.004c0.786,0.005,1.226,0.49,1.297,1.262C128.009,22.485,127.975,22.946,127.975,23.455z"/>
<path fill-rule="evenodd" clip-rule="evenodd" d="M223.926,42.246c2.139,3.68,4.238,7.296,6.344,10.909
	c0.482,0.828,0.996,1.638,1.481,2.465c0.739,1.259,1.655,2.235,3.38,2.053c0,0.555,0.019,1.01-0.004,1.462
	c-0.041,0.821-0.459,1.336-1.306,1.341c-3.095,0.017-6.188,0.029-9.282-0.026c-0.338-0.006-0.792-0.391-0.985-0.72
	c-3.054-5.202-6.068-10.425-9.106-15.636c-0.199-0.344-0.511-0.623-0.77-0.932c-0.088,0.052-0.176,0.104-0.264,0.157
	c-0.027,0.231-0.079,0.464-0.08,0.695c-0.004,3.415-0.004,6.829-0.002,10.243c0,0.213,0.014,0.426,0.023,0.64
	c0.105,2.157,0.589,2.578,2.764,2.803c0.516,0.053,1.218,0.528,1.393,0.979c0.155,0.405-0.237,1.079-0.515,1.562
	c-0.106,0.185-0.563,0.231-0.862,0.231c-4.871,0.014-9.744,0.013-14.616,0.007c-0.914-0.001-1.57-0.563-1.603-1.328
	c-0.034-0.797,0.635-1.434,1.567-1.492c2.138-0.137,2.659-0.566,2.686-2.687c0.073-6.15,0.087-12.302,0.093-18.452
	c0.004-3.52-0.034-7.039-0.093-10.558c-0.026-1.573-0.554-2.091-2.089-2.247c-1.577-0.16-2.226-0.645-2.164-1.613
	c0.058-0.906,0.823-1.346,2.349-1.344c4.908,0.008,9.815-0.021,14.723,0.044c1.626,0.022,3.264,0.199,4.871,0.459
	c5.602,0.907,8.346,5.795,8.447,10.274c0.09,3.974-1.055,7.35-4.484,9.668C225.268,41.579,224.647,41.854,223.926,42.246z
	 M213.376,39.489c1.171-0.109,2.288-0.189,3.397-0.321c2.057-0.245,3.21-1.55,3.771-3.417c0.58-1.931,0.572-3.901,0.309-5.899
	c-0.486-3.679-2.455-5.759-7.478-5.084C213.376,29.61,213.376,34.459,213.376,39.489z"/>
<path fill-rule="evenodd" clip-rule="evenodd" d="M166.192,40.561c-0.04,5.951-1.663,11.343-5.675,15.87
	c-1.458,1.645-3.235,2.862-5.247,3.753c-3.861,1.709-7.824,1.513-11.731,0.397c-3.862-1.103-6.653-3.716-8.726-7.101
	c-2.87-4.688-3.747-9.822-3.333-15.236c0.335-4.39,1.754-8.354,4.418-11.899c7-9.314,21.018-8.408,27.045,1.703
	C165.25,31.917,166.204,36.104,166.192,40.561z M156.266,40.774c-0.19-2.548-0.305-5.104-0.594-7.641
	c-0.275-2.41-0.946-4.73-2.316-6.78c-2.131-3.189-6.319-3.334-8.658-0.32c-1.292,1.665-2.014,3.587-2.425,5.615
	c-1.076,5.307-1.108,10.657-0.383,16.002c0.368,2.71,1.007,5.379,2.677,7.649c2.068,2.811,5.942,3.015,8.162,0.333
	c0.816-0.987,1.433-2.206,1.887-3.414C156,48.537,156.127,44.663,156.266,40.774z"/>
<path fill-rule="evenodd" clip-rule="evenodd" d="M249.861,24.854c0,4.545,0,9.014,0,13.512c1.589-0.019,2.804-0.698,3.315-2.106
	c0.6-1.649,0.936-3.396,1.352-5.108c0.123-0.508,0.133-1.044,0.19-1.535c1.808-0.497,2.61,0.245,2.589,1.971
	c-0.07,5.761-0.027,11.521-0.027,17.282c0,2.109-0.349,2.41-2.506,2.122c-0.221-1.306-0.389-2.638-0.689-3.939
	c-0.198-0.855-0.534-1.691-0.906-2.489c-0.635-1.359-1.691-2.159-3.297-2.159c-0.024,0.245-0.068,0.487-0.068,0.73
	c0.004,3.806,0,7.61,0.026,11.415c0.011,1.622,0.489,2.105,2.134,2.058c1.52-0.044,3.076-0.026,4.547-0.354
	c3.678-0.819,5.434-3.6,6.543-6.913c0.291-0.867,0.5-1.761,0.74-2.62c1.867-0.268,2.458,0.235,2.267,1.96
	c-0.433,3.879-0.895,7.754-1.352,11.693c-0.243,0.037-0.478,0.106-0.712,0.106c-8.783,0.006-17.566-0.002-26.352,0.018
	c-0.771,0.002-1.227-0.376-1.436-1.002c-0.221-0.661,0.012-1.307,0.643-1.639c0.348-0.182,0.812-0.176,1.226-0.189
	c1.676-0.055,2.366-0.647,2.371-2.32c0.026-9.813,0.034-19.624,0.002-29.436c-0.005-1.609-0.687-2.168-2.311-2.277
	c-0.419-0.028-0.894,0.01-1.239-0.177c-0.6-0.324-0.936-0.931-0.704-1.614c0.242-0.714,0.766-1.097,1.609-1.095
	c7.717,0.021,15.434,0.013,23.151,0.013c0.497,0,0.995,0.007,1.492-0.001c0.97-0.017,1.469,0.524,1.477,1.423
	c0.031,3.414,0.032,6.828,0.002,10.242c-0.011,1.219-0.706,1.55-2.42,1.27c-0.326-1.342-0.619-2.686-0.979-4.012
	c-0.8-2.954-2.795-4.552-5.797-4.804C253.161,24.744,251.557,24.854,249.861,24.854z"/>
<path fill-rule="evenodd" clip-rule="evenodd" d="M182.763,24.956c0,4.424,0,8.927,0,13.522c1.65,0.111,3.03-0.305,4.044-1.646
	c1.205-1.594,1.526-3.48,1.766-5.392c0.039-0.311,0.063-0.622,0.092-0.911c1.904-0.368,2.467,0.064,2.467,1.834
	c0,5.583-0.054,11.167,0.032,16.749c0.027,1.783-0.867,2.53-2.393,2.079c-0.286-1.588-0.476-3.175-0.87-4.707
	c-0.666-2.584-2.637-4.06-5.076-3.957c0,4.537-0.036,9.075,0.029,13.612c0.014,0.989,1.052,1.494,2.582,1.52
	c1.11,0.018,1.656,0.505,1.64,1.468c-0.014,0.849-0.458,1.344-1.295,1.346c-5.121,0.018-10.242,0.017-15.362,0.001
	c-0.844-0.002-1.278-0.499-1.293-1.349c-0.016-0.894,0.434-1.372,1.308-1.462c0.211-0.022,0.426,0.001,0.639-0.006
	c1.588-0.046,2.232-0.673,2.331-2.281c0.028-0.461,0.04-0.924,0.04-1.386c-0.005-9.174-0.005-18.349-0.026-27.523
	c-0.005-2.218-0.554-2.747-2.77-2.836c-1.018-0.04-1.542-0.552-1.522-1.485c0.019-0.86,0.564-1.383,1.509-1.384
	c8.286-0.005,16.571-0.005,24.857,0c0.983,0,1.586,0.584,1.589,1.551c0.011,3.236,0.02,6.473-0.003,9.708
	c-0.01,1.428-1.341,1.722-2.373,1.45c-0.174-0.046-0.29-0.501-0.342-0.783c-0.159-0.869-0.209-1.763-0.417-2.619
	c-0.774-3.186-2.361-4.714-5.604-5.076C186.524,24.79,184.667,24.956,182.763,24.956z"/>
<path fill-rule="evenodd" clip-rule="evenodd" d="M186.402,79.98c-1.759-1.41-2.104-3.242-0.861-5.195
	c0.504-0.792,0.562-1.314,0.145-2.22c-1.556-3.382,0.065-8.36,5.209-8.465c2.583-0.052,5.169,0.159,7.755,0.202
	c0.986,0.017,0.963,0.754,0.967,1.331c0.004,0.547-0.025,1.276-0.947,1.229c-0.561-0.029-1.124-0.006-1.762-0.006
	c1.362,2.706,1.26,5.228-0.795,7.409c-1.452,1.541-4.641,2.383-8.202,0.739c-0.093,0.767-0.363,1.491-0.215,2.117
	c0.206,0.864,1.06,1.016,1.882,1.065c1.909,0.115,3.833,0.14,5.719,0.422c2.518,0.377,3.86,1.704,4.14,3.746
	c0.285,2.077-0.871,4.189-2.914,5.222c-2.129,1.075-4.421,1.23-6.735,0.961c-1.04-0.121-2.1-0.371-3.064-0.77
	c-2.649-1.096-3.375-4.292-1.539-6.509C185.545,80.825,185.964,80.438,186.402,79.98z M191.891,86.418
	c0.986-0.311,2.171-0.548,3.227-1.056c1.051-0.507,1.468-1.7,1.215-2.682c-0.255-0.99-1.057-1.63-2.27-1.728
	c-1.269-0.101-2.542-0.168-3.814-0.209c-1.424-0.047-2.558,0.817-2.947,2.191c-0.371,1.312,0.085,2.358,1.385,2.794
	C189.646,86.051,190.674,86.166,191.891,86.418z M191.413,73.492c2.095,0.006,3.501-1.393,3.54-3.52
	c0.039-2.112-1.369-3.539-3.497-3.542c-2.091-0.002-3.392,1.365-3.419,3.594C188.01,72.191,189.271,73.485,191.413,73.492z"/>
<path fill-rule="evenodd" clip-rule="evenodd" d="M210.184,73.795c-0.457,3.612,1.567,6.246,5.473,5.928
	c1.387-0.113,2.746-0.591,4.117-0.905c0.365-0.084,0.727-0.178,1.076-0.265c0.672,1.78,0.377,2.45-1.285,2.99
	c-2.088,0.677-4.25,0.973-6.4,0.588c-3.787-0.677-5.943-3.132-6.201-7.003c-0.141-2.113-0.139-4.224,0.594-6.299
	c2.127-6.023,10.031-5.975,12.613-2.528c1.449,1.937,1.79,4.12,1.661,6.423c-0.056,0.988-0.879,1.069-1.664,1.069
	c-2.951,0.002-5.901,0.001-8.853,0.002C210.932,73.795,210.55,73.795,210.184,73.795z M210.106,71.457c2.947,0,5.823,0,8.699,0
	c-0.104-3.458-1.553-5.071-4.436-5.026C211.907,66.47,210.118,68.546,210.106,71.457z"/>
<path fill-rule="evenodd" clip-rule="evenodd" d="M173.646,79.967c-1.787,1.621-3.61,2.443-5.853,2.279
	c-2.367-0.174-4.5-1.68-4.779-3.794c-0.332-2.52-0.053-4.651,2.983-5.866c1.468-0.587,3.147-0.674,4.744-0.897
	c0.794-0.11,1.616-0.019,2.691-0.019c-0.177-1.235-0.198-2.375-0.526-3.416c-0.436-1.383-2.328-2.156-4.151-1.738
	c-1.121,0.257-2.184,0.766-3.284,1.127c-0.525,0.172-1.053,1.021-1.624,0.138c-0.437-0.678-0.095-1.938,0.603-2.354
	c1.979-1.184,4.139-1.567,6.42-1.395c1.401,0.105,2.711,0.404,3.794,1.393c1.397,1.273,1.581,2.972,1.607,4.679
	c0.055,3.624,0.009,7.248,0.029,10.872c0.005,0.981-0.588,1.065-1.338,1.044c-0.721-0.021-1.4-0.047-1.32-1.057
	C173.662,80.716,173.646,80.467,173.646,79.967z M173.455,73.681c-2.064,0.243-3.843,0.282-5.529,0.699
	c-1.657,0.41-2.327,2.05-1.784,3.616c0.435,1.255,1.846,2.037,3.22,1.839c1.572-0.225,2.936-1.015,3.63-2.311
	C173.505,76.566,173.302,75.225,173.455,73.681z"/>
<path fill-rule="evenodd" clip-rule="evenodd" d="M233.61,66.979c1.495-1.596,2.896-2.743,4.868-2.953
	c3.377-0.358,5.965,1.493,6.192,4.894c0.271,4.066,0.197,8.157,0.223,12.237c0.002,0.271-0.359,0.647-0.645,0.787
	c-0.291,0.143-0.695,0.053-1.049,0.07c-0.893,0.045-1.32-0.237-1.296-1.27c0.071-2.948,0.058-5.9,0.007-8.849
	c-0.018-0.98-0.126-1.996-0.414-2.928c-0.689-2.234-2.85-3.035-4.816-1.769c-0.879,0.566-1.637,1.354-2.34,2.142
	c-0.287,0.322-0.389,0.904-0.394,1.37c-0.032,3.305-0.013,6.61-0.02,9.915c-0.003,1.295-0.118,1.39-1.53,1.387
	c-1.387-0.002-1.543-0.138-1.543-1.386c-0.002-5.047-0.01-10.094,0.016-15.141c0.002-0.376,0.198-1.05,0.373-1.073
	c0.714-0.096,1.457-0.015,2.182,0.068c0.086,0.01,0.165,0.43,0.177,0.663C233.627,65.661,233.61,66.183,233.61,66.979z"/>
<path fill-rule="evenodd" clip-rule="evenodd" d="M135.934,78.449c1.431-4.331,2.81-8.495,4.184-12.66
	c0.454-1.375,1.698-2.021,2.987-1.418c0.225,0.104,0.342,0.857,0.222,1.214c-1.143,3.408-2.344,6.798-3.534,10.19
	c-0.595,1.695-1.248,3.374-1.784,5.088c-0.259,0.829-0.742,1.149-1.543,1.146c-0.036,0-0.071,0.002-0.106,0.003
	c-2.316,0.078-2.375,0.04-3.147-2.156c-1.636-4.655-3.272-9.311-4.903-13.968c-0.539-1.541-0.487-1.514,1.152-1.625
	c1.253-0.084,1.784,0.365,2.16,1.565c1.252,4.002,2.646,7.959,3.989,11.932C135.673,77.944,135.776,78.116,135.934,78.449z"/>
<path fill-rule="evenodd" clip-rule="evenodd" d="M263.798,67.386c-1.639-0.342-3.118-0.76-4.626-0.929
	c-1.188-0.134-2.17,0.656-2.456,1.631c-0.308,1.046,0.044,2.03,1.219,2.671c1.39,0.757,2.904,1.28,4.311,2.01
	c2.808,1.457,3.544,4.934,1.593,7.408c-0.871,1.107-2.087,1.657-3.457,1.902c-2.079,0.372-4.09,0.2-5.996-0.757
	c-0.84-0.422-1.365-2.104-0.842-2.839c0.119-0.166,0.668-0.138,0.969-0.042c1.264,0.404,2.482,0.992,3.77,1.262
	c0.701,0.146,1.572-0.07,2.256-0.373c1.725-0.763,1.878-3.016,0.289-4.035c-0.764-0.49-1.652-0.782-2.471-1.193
	c-0.976-0.491-2.028-0.893-2.884-1.548c-1.674-1.281-2.079-3.084-1.516-5.058c0.582-2.037,2.16-3.132,4.122-3.338
	c1.503-0.157,3.104,0.059,4.585,0.417C264.125,64.929,264.439,66.17,263.798,67.386z"/>
<path fill-rule="evenodd" clip-rule="evenodd" d="M151.232,73.086c0-2.521,0.033-5.041-0.018-7.561
	c-0.018-0.916,0.263-1.349,1.206-1.236c0.105,0.012,0.213,0.001,0.319,0.001c1.556-0.003,1.568,0.005,1.569,1.517
	c0.002,3.338,0,6.675,0,10.012c0,1.562,0.003,3.124-0.001,4.686c-0.003,1.424-0.093,1.509-1.512,1.509
	c-1.427,0.001-1.563-0.125-1.563-1.471C151.231,78.057,151.232,75.571,151.232,73.086z"/>
</svg>
