<svg xmlns="http://www.w3.org/2000/svg" width="1299.018" height="230.532" xml:space="preserve"><path fill-rule="evenodd" clip-rule="evenodd" d="M421.261 126.179v25.31c0 6.5-.051 13 .015 19.5.032 3.146-.97 5.189-4.496 5.188-16.798-.008-33.596-.004-50.892-.004v-36.176h-34.322v-26.662h33.755V70.014h-35.285V45.088c1.554-.096 3.006-.26 4.459-.264 36.164-.096 72.328-.191 108.492-.249 19.247-.03 33.497 9.56 38.881 26.071 5.57 17.079-.327 33.847-15.846 45.076-.393.284-.745.623-.643.537l12.541 18.349c3.391-7.071 7.11-14.737 10.753-22.439 9.873-20.871 19.771-41.731 29.502-62.667 1.318-2.836 2.859-3.951 6-3.756 5.793.359 12.85-1.666 17.071.982 4.196 2.633 5.661 9.74 8.139 14.973 16.993 35.884 33.941 71.789 50.895 107.691 2.468 5.227 1.619 6.725-3.954 6.78-6.999.071-14.012.242-20.991-.138-1.794-.098-4.236-1.697-5.089-3.295-3.12-5.854-5.815-11.947-8.42-18.057-1.196-2.803-2.741-3.97-5.944-3.938-16.665.169-33.333.16-49.998.004-2.994-.027-4.44 1.032-5.587 3.658-2.791 6.392-5.682 12.756-8.937 18.919-.795 1.506-3.104 3.036-4.781 3.111-7.485.334-15.002.339-22.486-.018-1.526-.072-3.779-1.929-4.291-3.44-3.248-9.593-5.958-19.366-9.116-28.991-4.863-14.816-13.324-19.963-29.425-17.808zm.362-24.335c6.198 0 12.021.413 17.763-.095 9.103-.804 15.22-7.14 15.525-15.258.37-9.849-4.848-17.259-14.109-18.766-6.167-1.003-12.52-.858-19.179-1.25v35.369zm109.381-13.17-17.395 37.08h34.521l-17.126-37.08zm233.728 38.047c0 14.358.008 28.506-.004 42.654-.005 6.293-.504 6.788-6.843 6.811-5.666.021-11.33-.031-16.995.008-3.252.022-4.929-1.32-4.924-4.761.059-41.152.072-82.304.112-123.456 0-.307.205-.613.5-1.439 3.363-.231 6.95-.707 10.533-.683 15.646.105 31.368-.54 46.916.797 16.783 1.443 29.118 12.983 32.681 27.953 3.897 16.378-2.21 31.599-16.688 41.617-.51.353-.964.786-1.289 1.053 2.854 3.439 5.938 6.496 8.204 10.07 2.255 3.557 3.688 7.633 5.734 12.022 6.269-13.249 12.364-26.128 18.456-39.008 7.954-16.813 15.972-33.598 23.793-50.473 1.356-2.926 2.814-4.435 6.289-4.16 4.471.354 9.006.309 13.484.011 3.195-.212 4.681 1.086 5.98 3.848 18.877 40.122 37.862 80.194 56.802 120.288 2.141 4.533 1.169 6.221-3.71 6.288-7.164.1-14.34.245-21.485-.127-1.79-.094-4.239-1.688-5.083-3.281-3.183-6.007-5.894-12.27-8.641-18.498-1.047-2.372-2.32-3.535-5.194-3.508-16.992.156-33.989-.008-50.98.212-1.63.021-3.94 1.562-4.727 3.04-3.191 6.003-5.696 12.374-8.938 18.348-.97 1.788-3.462 3.784-5.341 3.87-8.469.387-16.968.039-25.454.135-2.874.032-3.998-1.291-4.775-3.868-2.873-9.53-5.785-19.054-8.995-28.474-4.914-14.427-13.399-19.45-29.418-17.289zm.208-23.901c5.86 0 11.165.088 16.465-.02 9.124-.185 16.194-5.979 17.39-14.104 1.271-8.643-3.896-17.526-12.829-19.221-6.781-1.287-14.004-.255-21.025-.255l-.001 33.6zm130.199 23.093c-5.747-12.41-11.249-24.295-17.232-37.22l-17.423 37.22h34.655zm245.644-55.352c-15.611 0-30.241.015-44.873-.004-14.74-.02-12.953 1.433-12.934-13.147.02-15.254-1.989-13.567 13.487-13.587 28.162-.037 56.324-.044 84.485.065 1.905.007 4.697.561 5.454 1.829.732 1.226-.178 3.974-1.142 5.593-17.507 29.441-35.133 58.812-52.722 88.204-1.083 1.809-2.073 3.674-3.493 6.203 12.694 0 24.627.118 36.55-.167 1.311-.032 3.044-2.147 3.776-3.681 13.166-27.581 26.194-55.226 39.285-82.842 2.338-4.934 3.625-11.754 7.563-14.165 4.167-2.551 10.932-.729 16.543-1.105 3.402-.229 5.259.801 6.8 4.087 18.553 39.549 37.291 79.011 55.979 118.499.354.749.66 1.524 1.035 2.264 1.833 3.61.479 5.479-3.313 5.538-7.662.118-15.336.202-22.989-.109-1.485-.06-3.5-1.669-4.235-3.097-3.037-5.9-5.771-11.965-8.421-18.054-1.114-2.562-2.431-3.813-5.522-3.781-16.829.175-33.661.142-50.491.027-2.888-.02-4.494.809-5.64 3.598-2.583 6.292-5.372 12.519-8.492 18.557-.783 1.516-3.134 3.156-4.767 3.158-32.32.054-64.641-.099-96.962-.287-4.876-.028-5.717-1.871-3.06-6.317 17.921-29.979 35.868-59.939 53.8-89.91 1.349-2.253 2.648-4.535 4.299-7.369zm85.939 16.196c-6.147 13.166-11.733 25.125-17.506 37.485h34.852l-17.346-37.485zM160.974 176.443V45.104h28.462v102.082c6.114 0 11.739.257 17.309-.188 1.317-.105 2.929-2.37 3.589-3.977 11.476-27.943 22.827-55.939 34.201-83.925 1.75-4.307 3.634-8.569 5.161-12.955.925-2.657 2.398-3.53 5.152-3.384 5.147.273 11.493-1.594 15.137.793 3.606 2.363 4.62 8.825 6.555 13.577 15.214 37.358 30.375 74.739 45.555 112.11 2.252 5.545 1.428 6.895-4.396 6.944-5.331.047-10.674-.204-15.99.085-3.699.201-5.741-.875-6.975-4.586-1.988-5.977-4.709-11.705-6.853-17.637-.926-2.563-2.148-3.566-4.995-3.535-14.493.156-28.989.153-43.482.005-2.953-.03-4.512.842-5.536 3.661-2.323 6.391-4.813 12.733-7.576 18.944-.633 1.423-2.634 3.17-4.022 3.184-20.283.204-40.569.141-61.296.141zm84.681-51.618h30.367L260.95 86.958l-15.295 37.867zm794.792-6.482c0-12.968-.002-25.937 0-38.905 0-9.835.095-19.672-.039-29.505-.061-4.48 1.779-6.348 6.288-6.171 5.492.215 11.007.21 16.5.001 4.375-.167 5.786 1.699 5.775 5.95-.101 39.507-.124 79.015.025 118.523.019 4.716-1.744 6.415-6.166 5.956-.165-.017-.333.001-.5-.002-6.823-.104-14.794 1.938-20.145-.923-5.302-2.834-8.072-10.539-11.765-16.231-13.13-20.242-26.176-40.539-39.269-60.807-.665-1.029-1.461-1.974-3.126-4.202v6.24c0 23.171.006 46.343-.004 69.514-.002 6.218-.177 6.384-6.525 6.405-5.5.02-11.004-.077-16.502.028-3.463.067-5.137-1.055-5.128-4.897.094-40.174.077-80.349.026-120.523-.005-3.673 1.655-5.045 5.163-5.005 7.501.084 15.014-.199 22.495.186 1.828.094 4.158 1.786 5.231 3.418 14.912 22.657 29.642 45.433 44.424 68.175.703 1.081 1.469 2.122 2.206 3.182l1.036-.407zM720.264 72.772c-5.701 5.391-11.317 10.6-16.812 15.936-3.229 3.135-5.164 1.044-7.332-1.364-12.81-14.228-31.586-18.549-48.486-10.533-14.676 6.961-23.433 18.634-23.718 35.237-.29 16.961 7.954 29.378 23.015 36.686 14.952 7.255 29.573 5.277 42.673-4.71 2.186-1.667 2.161-6.235 3.428-10.339-7.924 0-14.39-.229-20.83.075-4.897.232-6.564-1.775-6.292-6.459.262-4.484.121-8.997.038-13.495-.064-3.486 1.371-5.251 5.002-5.239 14.833.047 29.664.048 44.496 0 3.207-.01 4.431 1.446 4.413 4.58-.071 12.666.04 25.333-.113 37.996-.02 1.632-.791 3.61-1.885 4.822-19.239 21.289-43.23 29.095-70.866 22.244-26.714-6.623-44.026-24.02-50.54-51.083-8.767-36.417 17.297-74.42 54.769-80.455 25.293-4.074 47.058 2.571 64.932 21.171 1.25 1.301 2.321 2.774 4.108 4.93zm-650.81-2.858h-35.4V45.088h62.208v130.377H69.845v-35.48H36.08v-26.727h33.374V69.914z"/><path fill-rule="evenodd" clip-rule="evenodd" d="M28.09 147.312h35.691v28.084H0V45.095h28.09v102.217zm1158.241 62.669c2.43-4.153 4.976-7.661 6.641-11.546 2.49-5.808 6.531-7.353 12.62-5.68v38.451h-7.842v-20.987l-1.193-.301c-3.276 5.354-6.553 10.706-10.439 17.054l-9.526-16.492-1.159.086c0 5.319.148 10.645-.087 15.953-.075 1.695-.99 4.65-1.831 4.766-2.443.334-5.044-.479-7.492-1.525-12.418 4.472-22.32 2.851-28.711-5.51-5.854-7.661-5.647-17.847.415-25.346 5.055-6.252 15.76-10.742 28.087-4.211 3.459-3.967 9.85-3.459 12.423 1.02 2.634 4.585 5.221 9.2 8.094 14.268zm-32.728 13.758c6.443.192 12.317-5.429 12.355-11.824.037-6.163-5.453-11.833-11.688-12.07-6.306-.239-12.273 5.515-12.334 11.895-.059 6.202 5.396 11.813 11.667 11.999zM33.714 39.414l1.787-22.477H18.942V-.001L75.4 0v16.699H58.677l1.74 22.715H33.714zm1201.084 192.183v-39.558c6.598.322 13.319-.205 19.619 1.182 7.232 1.593 9.032 9.506 4.808 17.813 3.87 3.873 5.699 8.484 3.087 13.813-2.697 5.502-7.674 6.894-13.375 6.771-4.475-.098-8.952-.021-14.139-.021zm8.909-6.66c3.873-1.351 6.922-2.164 9.657-3.581.533-.275.349-3.912-.357-4.258-2.718-1.329-5.781-1.951-9.3-3.015v10.854zm.024-15.537c3.469-1.6 6.107-2.529 8.348-4.049.563-.383.329-3.5-.373-3.9-2.242-1.28-4.875-1.874-7.975-2.946V209.4zm25.545 21.839v-38.978c5.539 0 10.827-.074 16.11.022 4.937.09 8.588 2.351 10.561 6.967 2.075 4.857.89 9.077-2.713 12.759a31.189 31.189 0 0 0-1.112 1.203l6.896 17.319c-7.882 2.604-8.924 2.092-11.259-5.24-2.41-7.568-3.782-8.772-9.768-8.23v14.178h-8.715zm8.852-20.958c3.549-1.347 6.547-2.01 8.88-3.632.804-.561.647-4.51-.292-5.169-2.297-1.611-5.306-2.206-8.588-3.416v12.217zm-154.261 7.785 5.076 5.649c-7.428 9.975-21.687 11.314-30.981 3.142-8.646-7.604-8.723-21.603-.162-29.771 8.823-8.419 23.045-7.354 31.298 2.806a36614.63 36614.63 0 0 1-5.336 5.365c-10.027-6.466-16.094-6.648-20.748-.951-3.791 4.641-3.589 11.068.487 15.466 5.141 5.549 10.578 5.196 20.366-1.706zm104.204 6.057c.035 3.921-2.488 6.555-6.383 6.663-4.003.11-6.865-2.756-6.792-6.802.069-3.855 2.729-6.397 6.66-6.365 3.928.031 6.48 2.579 6.515 6.504zm-140.161-.01c.008 3.804-2.665 6.56-6.481 6.682-3.909.125-6.933-2.892-6.833-6.815.096-3.777 2.867-6.398 6.726-6.361 3.885.036 6.578 2.691 6.588 6.494z"/></svg>