<?xml version="1.0" encoding="utf-8"?>
<!-- Generator: Adobe Illustrator 16.0.0, SVG Export Plug-In . SVG Version: 6.00 Build 0)  -->
<!DOCTYPE svg PUBLIC "-//W3C//DTD SVG 1.1//EN" "http://www.w3.org/Graphics/SVG/1.1/DTD/svg11.dtd">
<svg version="1.1" id="Layer_1" xmlns="http://www.w3.org/2000/svg" xmlns:xlink="http://www.w3.org/1999/xlink" x="0px" y="0px"
	 width="1299.018px" height="230.532px" viewBox="0 0 1299.018 230.532" enable-background="new 0 0 1299.018 230.532"
	 xml:space="preserve">
<path fill-rule="evenodd" clip-rule="evenodd" d="M421.261,126.179c0,8.378,0,16.844,0,25.31c0,6.5-0.051,13,0.015,19.5
	c0.032,3.146-0.97,5.189-4.496,5.188c-16.798-0.008-33.596-0.004-50.892-0.004c0-12.242,0-23.83,0-36.176
	c-11.665,0-22.865,0-34.322,0c0-9.176,0-17.588,0-26.662c11.295,0,22.367,0,33.755,0c0-14.711,0-28.767,0-43.321
	c-11.724,0-23.314,0-35.285,0c0-8.53,0-16.57,0-24.926c1.554-0.096,3.006-0.26,4.459-0.264c36.164-0.096,72.328-0.191,108.492-0.249
	c19.247-0.03,33.497,9.56,38.881,26.071c5.57,17.079-0.327,33.847-15.846,45.076c-0.393,0.284-0.745,0.623-0.643,0.537
	c4.207,6.155,8.336,12.195,12.541,18.349c3.391-7.071,7.11-14.737,10.753-22.439c9.873-20.871,19.771-41.731,29.502-62.667
	c1.318-2.836,2.859-3.951,6-3.756c5.793,0.359,12.85-1.666,17.071,0.982c4.196,2.633,5.661,9.74,8.139,14.973
	c16.993,35.884,33.941,71.789,50.895,107.691c2.468,5.227,1.619,6.725-3.954,6.78c-6.999,0.071-14.012,0.242-20.991-0.138
	c-1.794-0.098-4.236-1.697-5.089-3.295c-3.12-5.854-5.815-11.947-8.42-18.057c-1.196-2.803-2.741-3.97-5.944-3.938
	c-16.665,0.169-33.333,0.16-49.998,0.004c-2.994-0.027-4.44,1.032-5.587,3.658c-2.791,6.392-5.682,12.756-8.937,18.919
	c-0.795,1.506-3.104,3.036-4.781,3.111c-7.485,0.334-15.002,0.339-22.486-0.018c-1.526-0.072-3.779-1.929-4.291-3.44
	c-3.248-9.593-5.958-19.366-9.116-28.991C445.823,129.171,437.362,124.024,421.261,126.179z M421.623,101.844
	c6.198,0,12.021,0.413,17.763-0.095c9.103-0.804,15.22-7.14,15.525-15.258c0.37-9.849-4.848-17.259-14.109-18.766
	c-6.167-1.003-12.52-0.858-19.179-1.25C421.623,78.599,421.623,90.005,421.623,101.844z M531.004,88.674
	c-6.057,12.911-11.645,24.824-17.395,37.08c11.775,0,22.917,0,34.521,0C542.441,113.437,537.015,101.688,531.004,88.674z"/>
<path fill-rule="evenodd" clip-rule="evenodd" d="M764.732,126.721c0,14.358,0.008,28.506-0.004,42.654
	c-0.005,6.293-0.504,6.788-6.843,6.811c-5.666,0.021-11.33-0.031-16.995,0.008c-3.252,0.022-4.929-1.32-4.924-4.761
	c0.059-41.152,0.072-82.304,0.112-123.456c0-0.307,0.205-0.613,0.5-1.439c3.363-0.231,6.95-0.707,10.533-0.683
	c15.646,0.105,31.368-0.54,46.916,0.797c16.783,1.443,29.118,12.983,32.681,27.953c3.897,16.378-2.21,31.599-16.688,41.617
	c-0.51,0.353-0.964,0.786-1.289,1.053c2.854,3.439,5.938,6.496,8.204,10.07c2.255,3.557,3.688,7.633,5.734,12.022
	c6.269-13.249,12.364-26.128,18.456-39.008c7.954-16.813,15.972-33.598,23.793-50.473c1.356-2.926,2.814-4.435,6.289-4.16
	c4.471,0.354,9.006,0.309,13.484,0.011c3.195-0.212,4.681,1.086,5.98,3.848c18.877,40.122,37.862,80.194,56.802,120.288
	c2.141,4.533,1.169,6.221-3.71,6.288c-7.164,0.1-14.34,0.245-21.485-0.127c-1.79-0.094-4.239-1.688-5.083-3.281
	c-3.183-6.007-5.894-12.27-8.641-18.498c-1.047-2.372-2.32-3.535-5.194-3.508c-16.992,0.156-33.989-0.008-50.98,0.212
	c-1.63,0.021-3.94,1.562-4.727,3.04c-3.191,6.003-5.696,12.374-8.938,18.348c-0.97,1.788-3.462,3.784-5.341,3.87
	c-8.469,0.387-16.968,0.039-25.454,0.135c-2.874,0.032-3.998-1.291-4.775-3.868c-2.873-9.53-5.785-19.054-8.995-28.474
	C789.236,129.583,780.751,124.56,764.732,126.721z M764.94,102.82c5.86,0,11.165,0.088,16.465-0.02
	c9.124-0.185,16.194-5.979,17.39-14.104c1.271-8.643-3.896-17.526-12.829-19.221c-6.781-1.287-14.004-0.255-21.025-0.255
	C764.94,80.333,764.94,91.262,764.94,102.82z M895.139,125.913c-5.747-12.41-11.249-24.295-17.232-37.22
	c-6.079,12.986-11.639,24.862-17.423,37.22C872.365,125.913,883.402,125.913,895.139,125.913z"/>
<path fill-rule="evenodd" clip-rule="evenodd" d="M1140.783,70.561c-15.611,0-30.241,0.015-44.873-0.004
	c-14.74-0.02-12.953,1.433-12.934-13.147c0.02-15.254-1.989-13.567,13.487-13.587c28.162-0.037,56.324-0.044,84.485,0.065
	c1.905,0.007,4.697,0.561,5.454,1.829c0.732,1.226-0.178,3.974-1.142,5.593c-17.507,29.441-35.133,58.812-52.722,88.204
	c-1.083,1.809-2.073,3.674-3.493,6.203c12.694,0,24.627,0.118,36.55-0.167c1.311-0.032,3.044-2.147,3.776-3.681
	c13.166-27.581,26.194-55.226,39.285-82.842c2.338-4.934,3.625-11.754,7.563-14.165c4.167-2.551,10.932-0.729,16.543-1.105
	c3.402-0.229,5.259,0.801,6.8,4.087c18.553,39.549,37.291,79.011,55.979,118.499c0.354,0.749,0.66,1.524,1.035,2.264
	c1.833,3.61,0.479,5.479-3.313,5.538c-7.662,0.118-15.336,0.202-22.989-0.109c-1.485-0.06-3.5-1.669-4.235-3.097
	c-3.037-5.9-5.771-11.965-8.421-18.054c-1.114-2.562-2.431-3.813-5.522-3.781c-16.829,0.175-33.661,0.142-50.491,0.027
	c-2.888-0.02-4.494,0.809-5.64,3.598c-2.583,6.292-5.372,12.519-8.492,18.557c-0.783,1.516-3.134,3.156-4.767,3.158
	c-32.32,0.054-64.641-0.099-96.962-0.287c-4.876-0.028-5.717-1.871-3.06-6.317c17.921-29.979,35.868-59.939,53.8-89.91
	C1137.833,75.677,1139.132,73.395,1140.783,70.561z M1226.722,86.757c-6.147,13.166-11.733,25.125-17.506,37.485
	c11.972,0,23.13,0,34.852,0C1238.292,111.76,1232.748,99.779,1226.722,86.757z"/>
<path fill-rule="evenodd" clip-rule="evenodd" d="M160.974,176.443c0-44.554,0-87.802,0-131.339c9.464,0,18.698,0,28.462,0
	c0,33.932,0,67.671,0,102.082c6.114,0,11.739,0.257,17.309-0.188c1.317-0.105,2.929-2.37,3.589-3.977
	c11.476-27.943,22.827-55.939,34.201-83.925c1.75-4.307,3.634-8.569,5.161-12.955c0.925-2.657,2.398-3.53,5.152-3.384
	c5.147,0.273,11.493-1.594,15.137,0.793c3.606,2.363,4.62,8.825,6.555,13.577c15.214,37.358,30.375,74.739,45.555,112.11
	c2.252,5.545,1.428,6.895-4.396,6.944c-5.331,0.047-10.674-0.204-15.99,0.085c-3.699,0.201-5.741-0.875-6.975-4.586
	c-1.988-5.977-4.709-11.705-6.853-17.637c-0.926-2.563-2.148-3.566-4.995-3.535c-14.493,0.156-28.989,0.153-43.482,0.005
	c-2.953-0.03-4.512,0.842-5.536,3.661c-2.323,6.391-4.813,12.733-7.576,18.944c-0.633,1.423-2.634,3.17-4.022,3.184
	C201.987,176.506,181.701,176.443,160.974,176.443z M245.655,124.825c10.458,0,20.161,0,30.367,0
	c-5.006-12.577-9.804-24.632-15.072-37.867C255.607,100.187,250.727,112.269,245.655,124.825z"/>
<path fill-rule="evenodd" clip-rule="evenodd" d="M1040.447,118.343c0-12.968-0.002-25.937,0-38.905
	c0-9.835,0.095-19.672-0.039-29.505c-0.061-4.48,1.779-6.348,6.288-6.171c5.492,0.215,11.007,0.21,16.5,0.001
	c4.375-0.167,5.786,1.699,5.775,5.95c-0.101,39.507-0.124,79.015,0.025,118.523c0.019,4.716-1.744,6.415-6.166,5.956
	c-0.165-0.017-0.333,0.001-0.5-0.002c-6.823-0.104-14.794,1.938-20.145-0.923c-5.302-2.834-8.072-10.539-11.765-16.231
	c-13.13-20.242-26.176-40.539-39.269-60.807c-0.665-1.029-1.461-1.974-3.126-4.202c0,3.08,0,4.661,0,6.24
	c0,23.171,0.006,46.343-0.004,69.514c-0.002,6.218-0.177,6.384-6.525,6.405c-5.5,0.02-11.004-0.077-16.502,0.028
	c-3.463,0.067-5.137-1.055-5.128-4.897c0.094-40.174,0.077-80.349,0.026-120.523c-0.005-3.673,1.655-5.045,5.163-5.005
	c7.501,0.084,15.014-0.199,22.495,0.186c1.828,0.094,4.158,1.786,5.231,3.418c14.912,22.657,29.642,45.433,44.424,68.175
	c0.703,1.081,1.469,2.122,2.206,3.182C1039.757,118.614,1040.101,118.478,1040.447,118.343z"/>
<path fill-rule="evenodd" clip-rule="evenodd" d="M720.264,72.772c-5.701,5.391-11.317,10.6-16.812,15.936
	c-3.229,3.135-5.164,1.044-7.332-1.364c-12.81-14.228-31.586-18.549-48.486-10.533c-14.676,6.961-23.433,18.634-23.718,35.237
	c-0.29,16.961,7.954,29.378,23.015,36.686c14.952,7.255,29.573,5.277,42.673-4.71c2.186-1.667,2.161-6.235,3.428-10.339
	c-7.924,0-14.39-0.229-20.83,0.075c-4.897,0.232-6.564-1.775-6.292-6.459c0.262-4.484,0.121-8.997,0.038-13.495
	c-0.064-3.486,1.371-5.251,5.002-5.239c14.833,0.047,29.664,0.048,44.496,0c3.207-0.01,4.431,1.446,4.413,4.58
	c-0.071,12.666,0.04,25.333-0.113,37.996c-0.02,1.632-0.791,3.61-1.885,4.822c-19.239,21.289-43.23,29.095-70.866,22.244
	c-26.714-6.623-44.026-24.02-50.54-51.083c-8.767-36.417,17.297-74.42,54.769-80.455c25.293-4.074,47.058,2.571,64.932,21.171
	C717.406,69.143,718.477,70.616,720.264,72.772z"/>
<path fill-rule="evenodd" clip-rule="evenodd" d="M69.454,69.914c-11.859,0-23.462,0-35.4,0c0-8.471,0-16.519,0-24.826
	c20.749,0,41.32,0,62.208,0c0,43.52,0,86.767,0,130.377c-8.653,0-17.232,0-26.417,0c0-11.613,0-23.341,0-35.48
	c-11.526,0-22.465,0-33.765,0c0-8.973,0-17.528,0-26.727c11.134,0,22.206,0,33.374,0C69.454,98.526,69.454,84.433,69.454,69.914z"/>
<path fill-rule="evenodd" clip-rule="evenodd" d="M28.09,147.312c12.407,0,23.856,0,35.691,0c0,9.491,0,18.569,0,28.084
	c-21.101,0-42.292,0-63.781,0c0-43.355,0-86.723,0-130.301c9.337,0,18.408,0,28.09,0C28.09,79.093,28.09,112.816,28.09,147.312z"/>
<path fill-rule="evenodd" clip-rule="evenodd" d="M1186.331,209.981c2.43-4.153,4.976-7.661,6.641-11.546
	c2.49-5.808,6.531-7.353,12.62-5.68c0,12.604,0,25.332,0,38.451c-2.342,0-4.729,0-7.842,0c0-6.928,0-13.958,0-20.987
	c-0.397-0.101-0.796-0.201-1.193-0.301c-3.276,5.354-6.553,10.706-10.439,17.054c-3.51-6.075-6.518-11.283-9.526-16.492
	c-0.387,0.029-0.772,0.058-1.159,0.086c0,5.319,0.148,10.645-0.087,15.953c-0.075,1.695-0.99,4.65-1.831,4.766
	c-2.443,0.334-5.044-0.479-7.492-1.525c-12.418,4.472-22.32,2.851-28.711-5.51c-5.854-7.661-5.647-17.847,0.415-25.346
	c5.055-6.252,15.76-10.742,28.087-4.211c3.459-3.967,9.85-3.459,12.423,1.02C1180.871,200.298,1183.458,204.913,1186.331,209.981z
	 M1153.603,223.739c6.443,0.192,12.317-5.429,12.355-11.824c0.037-6.163-5.453-11.833-11.688-12.07
	c-6.306-0.239-12.273,5.515-12.334,11.895C1141.877,217.942,1147.332,223.553,1153.603,223.739z"/>
<path fill-rule="evenodd" clip-rule="evenodd" d="M33.714,39.414c0.6-7.54,1.173-14.76,1.787-22.477c-5.679,0-10.938,0-16.559,0
	c0-5.851,0-11.238,0-16.938C37.681,0,56.397,0,75.4,0c0,5.488,0,10.876,0,16.699c-5.452,0-10.715,0-16.723,0
	c0.597,7.795,1.159,15.127,1.74,22.715C51.615,39.414,43.009,39.414,33.714,39.414z"/>
<path fill-rule="evenodd" clip-rule="evenodd" d="M1234.798,231.597c0-13.215,0-25.813,0-39.558
	c6.598,0.322,13.319-0.205,19.619,1.182c7.232,1.593,9.032,9.506,4.808,17.813c3.87,3.873,5.699,8.484,3.087,13.813
	c-2.697,5.502-7.674,6.894-13.375,6.771C1244.462,231.52,1239.985,231.597,1234.798,231.597z M1243.707,224.937
	c3.873-1.351,6.922-2.164,9.657-3.581c0.533-0.275,0.349-3.912-0.357-4.258c-2.718-1.329-5.781-1.951-9.3-3.015
	C1243.707,218.082,1243.707,220.669,1243.707,224.937z M1243.731,209.4c3.469-1.6,6.107-2.529,8.348-4.049
	c0.563-0.383,0.329-3.5-0.373-3.9c-2.242-1.28-4.875-1.874-7.975-2.946C1243.731,202.356,1243.731,204.93,1243.731,209.4z"/>
<path fill-rule="evenodd" clip-rule="evenodd" d="M1269.276,231.239c0-13.006,0-25.732,0-38.978c5.539,0,10.827-0.074,16.11,0.022
	c4.937,0.09,8.588,2.351,10.561,6.967c2.075,4.857,0.89,9.077-2.713,12.759c-0.568,0.579-1.102,1.191-1.112,1.203
	c2.427,6.094,4.656,11.694,6.896,17.319c-7.882,2.604-8.924,2.092-11.259-5.24c-2.41-7.568-3.782-8.772-9.768-8.23
	c0,4.584,0,9.206,0,14.178C1275.074,231.239,1272.497,231.239,1269.276,231.239z M1278.128,210.281
	c3.549-1.347,6.547-2.01,8.88-3.632c0.804-0.561,0.647-4.51-0.292-5.169c-2.297-1.611-5.306-2.206-8.588-3.416
	C1278.128,202.493,1278.128,205.463,1278.128,210.281z"/>
<path fill-rule="evenodd" clip-rule="evenodd" d="M1123.867,218.066c1.646,1.833,3.376,3.758,5.076,5.649
	c-7.428,9.975-21.687,11.314-30.981,3.142c-8.646-7.604-8.723-21.603-0.162-29.771c8.823-8.419,23.045-7.354,31.298,2.806
	c-1.779,1.789-3.605,3.625-5.336,5.365c-10.027-6.466-16.094-6.648-20.748-0.951c-3.791,4.641-3.589,11.068,0.487,15.466
	C1108.642,225.321,1114.079,224.968,1123.867,218.066z"/>
<path fill-rule="evenodd" clip-rule="evenodd" d="M1228.071,224.123c0.035,3.921-2.488,6.555-6.383,6.663
	c-4.003,0.11-6.865-2.756-6.792-6.802c0.069-3.855,2.729-6.397,6.66-6.365C1225.484,217.65,1228.036,220.198,1228.071,224.123z"/>
<path fill-rule="evenodd" clip-rule="evenodd" d="M1087.91,224.113c0.008,3.804-2.665,6.56-6.481,6.682
	c-3.909,0.125-6.933-2.892-6.833-6.815c0.096-3.777,2.867-6.398,6.726-6.361C1085.207,217.655,1087.9,220.31,1087.91,224.113z"/>
</svg>
