<svg xmlns="http://www.w3.org/2000/svg" width="1850.698" height="670.929" xml:space="preserve"><path fill-rule="evenodd" clip-rule="evenodd" d="M700.417 495.074c7.093 43.61 47.537 47.488 72.252 29.146 10.518-7.806 19.843-17.229 29.563-26.08 1.252-1.14 1.62-3.254 2.396-4.916l2.403 1.855c0 7.264.057 14.529-.065 21.79-.018 1.019-.68 2.261-1.436 2.998-16.86 16.432-34.125 32.463-55.937 42.197-16.998 7.587-34.906 9.673-53.211 5.613-20.438-4.532-34.061-17.186-41.99-36.3-.63-1.519-1.146-3.086-1.993-5.38-2.012 1.594-3.783 2.931-5.482 4.355-18.274 15.311-36.72 30.482-58.583 40.455-7.274 3.318-15.4 5.573-23.341 6.432-10.691 1.154-17.844-4.363-22.005-14.419-4.734-11.44-4.494-23.468-3.894-35.442 1.645-32.796 9.755-64.397 18.821-95.716 8.776-30.322 18.63-60.33 27.578-90.604a88.958 88.958 0 0 0 3.579-22.527c.295-10.783-6.883-16.491-17.024-12.97-9.958 3.457-19.542 8.364-28.711 13.641-28.479 16.387-52.152 37.869-68.899 66.557-8.298 14.212-11.696 29.892-15.283 45.642-9.816 43.106-19.876 86.156-29.992 129.193-.379 1.609-2.328 4.053-3.579 4.073-16.642.273-33.291.183-50.832.183.853-2.251 1.394-3.881 2.077-5.449 27.611-63.384 50.391-128.398 65.772-195.88 10.822-47.477 19.553-95.401 18.353-144.231-.512-20.825-7.153-41.286-19.559-58.823-9.378-13.257-21.745-15.589-35.739-7.116-11.567 7.005-21.006 15.867-25.468 29.479-3.772 11.508-8.537 22.797-18.578 30.736-.865.684-1.351 2.248-1.445 3.448-2.416 30.865-3.993 61.819-7.267 92.592-7.111 66.829-17.946 133.006-38.768 197.169-4.267 13.146-9.322 25.955-17.65 37.215-7.155 9.675-15.81 14.827-28.688 14.708-58.173-.535-116.354-.113-174.531-.379-7.707-.034-15.586-1.341-23.055-3.312-7.415-1.955-11.924-7.271-14.504-15.053a901.532 901.532 0 0 1-35.48-147.585c-5.38-35.159-9.997-70.468-13.658-105.845-2.858-27.632-4.266-55.45-5.32-83.223-1.062-27.965-.895-55.977-1.245-83.967-.016-1.307.177-2.618.297-4.27H361.98v30.012l1.488 1.204c2.191-1.51 4.711-2.704 6.522-4.581 14.403-14.934 30.913-25.222 52.589-24.194 12.223.579 22.48 6.052 31.112 14.236 20.761 19.687 32.912 44.132 37.397 72.189 4.506 28.189.479 56.138-4.549 83.852-3.643 20.074-8.364 39.952-12.64 60.081 7.597-6.779 15.181-13.681 22.911-20.417 23.751-20.697 48.004-40.757 75.083-57.063 13.149-7.918 26.69-14.963 42.17-17.344 14.994-2.306 25.873 4.334 30.008 18.984 4.029 14.272 2.679 28.746.66 43.131-4.423 31.52-15.801 61.039-26.21 90.859-9.7 27.788-18.91 55.794-23.671 84.924a138.221 138.221 0 0 0-1.458 31.698c.809 11.493 8.38 15.406 19.105 10.991 14.159-5.829 25.142-16.16 35.646-26.86 1.785-1.818 1.524-5.896 1.74-8.965 3.122-44.436 24.652-77.592 62.248-100.506 14.113-8.602 30.047-10.84 46.284-8.517 30.971 4.432 43.151 36.748 23.484 61.648-10.748 13.608-25.242 22.128-40.749 28.867-13.224 5.751-26.899 10.47-40.733 15.781zm-2.254-16.184 1.454 1.571c9.732-4.88 19.965-8.976 29.084-14.813 16.651-10.656 23.405-26.643 21.611-46.246-1.099-12.017-10.583-17.65-21.368-12.251-4.048 2.025-7.886 5.118-10.846 8.563-15.645 18.199-19.569 40.17-19.935 63.176zm556.495 16.61c0 7.007.078 14.279-.081 21.547-.024 1.131-.872 2.541-1.775 3.312-14.67 12.528-29.082 25.391-44.254 37.286-9.542 7.481-20.925 11.652-33.33 11.823-17.613.244-29.468-10.804-30.877-28.529-1.546-19.464 3.197-37.983 8.501-56.414 4.316-15.003 8.71-29.982 12.958-45.004.922-3.256 1.594-7.391-1.992-8.899-2.605-1.095-6.657-.752-9.279.539-12.371 6.094-21.094 16.597-30.295 26.435-3.293 3.519-6.2 7.397-9.283 11.113-7.29 8.784-7.869 19.929-10.535 30.306-4.878 18.989-9.55 38.031-14.206 57.077-.725 2.963-2.088 4.131-5.276 4.664-16.043 2.686-32.02 5.775-49.018 8.907 1.078-4.874 1.993-9.155 2.972-13.421 6.994-30.464 14.174-60.888 20.904-91.409 2.142-9.716 3.477-19.655 4.467-29.564.698-6.986-2.761-8.956-8.778-5.43-13.531 7.928-23.727 19.698-34.994 30.305-14.691 13.83-20.429 31.125-22.112 50.357-1.277 14.582-2.145 29.201-3.374 43.788-.122 1.454-1.244 3.779-2.318 4.051-14.177 3.578-28.427 6.865-42.666 10.196-.437.104-.94-.086-2.079-.214-.523-10.24-1.032-20.495-1.573-30.749-2.595-49.251 10.949-94.737 32.427-138.332.727-1.476 2.794-2.872 4.461-3.214 15.454-3.172 30.956-6.105 46.966-9.209l-19.876 61.419 1.531.728c5.794-6.253 11.482-12.608 17.405-18.736 13.457-13.92 27.375-27.363 44.626-36.592 4.921-2.632 10.361-4.781 15.817-5.831 13.05-2.509 23.95 3.65 27.235 16.714 2.178 8.655 1.505 18.051 1.87 27.125.124 3.092-.48 6.214-.868 10.645 7.577-7.237 14.065-13.795 20.943-19.917 9.571-8.518 19.159-17.059 29.259-24.923 7.39-5.755 15.878-9.808 25.62-9.974 12.781-.218 21.387 5.86 25.599 18.098 3.885 11.289 3.06 22.936.247 34.021-5.222 20.59-11.753 40.846-17.596 61.282-1.641 5.739-2.82 11.613-4.129 17.444-.325 1.448-.444 2.969-.465 4.457-.141 10.503 6.15 14.673 15.131 9.169 7.026-4.306 13.35-9.868 19.579-15.335 7.63-6.695 14.835-13.872 22.511-21.112zm345.103 27.229c-6.793 6.788-13.402 13.773-20.423 20.319-8.809 8.211-18.247 15.538-30.302 18.592-16.123 4.085-29.326-.668-38.835-14.353-9.99-14.377-12.524-30.857-11.354-47.665 3.055-43.833 26.025-76.042 61.422-99.99 15.037-10.173 32.145-14.403 50.438-10.583 8.878 1.853 16.278 6.691 22.568 13.097 1.942 1.979 3.565 2.381 6.052 1.292 10.346-4.538 20.714-9.033 31.16-13.334 2.639-1.086 5.598-1.395 9.311-2.275-15.357 49.962-20.924 100.727-32.052 151.711 24.04-10.017 40.862-26.81 57.628-45.911 0 8.889.139 16.446-.129 23.989-.048 1.341-1.628 2.777-2.763 3.907-15.903 15.825-34.255 27.972-55.241 35.921-3.912 1.481-5.625 3.753-6.891 7.506-8.71 25.832-19.684 50.578-37.217 71.797-12.934 15.653-27.81 29.068-48.546 33.009-7.489 1.424-15.755 1.666-23.154.072-18.308-3.941-28.844-22.364-25.646-42.1 2.937-18.131 13.88-30.574 28.3-40.525 16.707-11.53 35.372-19.057 54.396-25.722 3.171-1.111 4.693-2.604 5.352-6.12 2.014-10.75 4.602-21.394 6.967-32.078l-1.041-.556zm-49.327-30.566c0 3.161-.392 6.383.073 9.477 1.431 9.529 4.328 18.575 14.467 22.13 10.142 3.557 18.813-.41 25.496-7.962 4.577-5.172 8.583-11.066 11.799-17.188 10.502-19.981 14.999-41.823 18.077-63.918.823-5.901.455-12.388-1.138-18.113-2.569-9.24-10.012-12.946-19.345-11.422-9.547 1.56-17.063 6.593-22.95 13.896-17.165 21.3-25.809 45.806-26.479 73.1zm37.646 87.486c-15.604 3.79-40.925 17.14-51.671 27.035-5.947 5.478-10.976 11.565-13.277 19.569-2.955 10.267.052 20.446 7.697 25.411 7.877 5.117 18.431 4.353 26.148-3.186 4.907-4.794 9.477-10.53 12.322-16.709 5.472-11.879 9.728-24.328 14.247-36.63 1.798-4.894 2.957-10.026 4.534-15.49zm-98.709-85.958c0 8.523.108 15.513-.089 22.492-.041 1.443-.844 3.297-1.928 4.212-14.49 12.242-28.779 24.757-43.779 36.35-9.814 7.586-21.085 12.744-34.008 12.752-11.887.007-20.688-5.264-26.646-15.495-4.817-8.27-6.459-17.383-7.294-26.726-.127-1.419-.205-2.844-.323-4.511-9.431 8.867-18.26 17.63-27.593 25.819-10.332 9.066-21.713 16.635-35.353 19.865-23.703 5.616-40.695-5.258-45.937-29.04-3.367-15.278-1.93-30.509.46-45.667 4.94-31.34 14.681-61.369 25.418-91.114.969-2.684 2.315-3.841 5.177-4.384 16.013-3.042 31.97-6.373 47.957-9.545 1.235-.245 2.562-.032 4.405-.032-1.474 4.382-2.964 8.395-4.179 12.487-8.926 30.095-18.075 60.128-26.527 90.357-2.845 10.174-4.93 20.752-2.926 31.552 2.088 11.258 10.763 15.832 21.195 10.84 10.044-4.806 16.82-13.392 24.148-21.369 11.709-12.746 16.131-28.769 20.923-44.723 6.495-21.629 13.304-43.164 19.836-64.783.87-2.882 2.085-4.248 5.234-4.855 17.442-3.362 34.823-7.044 53.135-10.803-.582 2.387-.941 4.215-1.475 5.99-9.75 32.459-19.699 64.862-29.172 97.401-2.634 9.047-4.761 18.374-2.759 28.058 2.122 10.271 9.002 14.211 18.781 10.151 11.166-4.636 19.586-13.077 28.293-21.063 4.747-4.351 9.359-8.844 15.026-14.216zM899.047 389.294l28.879-1.468c-2.348 11.176-4.558 21.687-6.849 32.595-9.216.716-18.305 1.568-27.415 2.051-3.294.175-4.979 1.096-5.917 4.519-5.833 21.303-12.155 42.475-17.758 63.836-1.578 6.018-1.887 12.539-1.735 18.805.369 15.154 10.765 22.527 25.34 18.506 11.557-3.188 19.875-11.177 28.183-19.136 4.871-4.667 9.592-9.489 15.27-15.125 0 8.56.111 15.977-.108 23.384-.036 1.234-1.284 2.686-2.349 3.599-13.632 11.697-26.959 23.796-41.138 34.794-10.765 8.351-23.289 13.472-37.305 13.852-13.487.365-23.763-5.431-31.229-16.4-8.837-12.982-10.912-27.692-10.144-42.915 1.373-27.209 10.985-52.592 17.833-78.584.375-1.425.726-2.854 1.234-4.858-5.338.264-10.218.506-15.744.778 2.209-10.91 4.249-21.277 6.523-31.594.169-.764 1.992-1.544 3.108-1.649 4.136-.389 8.315-.833 12.443-.61 3.601.196 4.904-1.329 5.834-4.504 5.514-18.813 11.239-37.563 16.78-56.367.764-2.592 1.667-4.339 4.677-4.933 16.789-3.311 33.537-6.823 50.303-10.245.62-.126 1.288-.016 2.566-.016-7.113 23.966-14.121 47.568-21.282 71.685zm879.014 52.362c-3.961 5.849-8.145 12.86-13.136 19.238-14.567 18.618-29.387 37.042-44.339 55.353-1.434 1.756-4.49 2.187-7.864 3.719 0-7.293-.236-12.941.144-18.548.115-1.685 1.742-3.439 3.023-4.845 22.182-24.331 42.402-50.059 56.906-79.846 2.69-5.522 4.862-11.297 7.543-16.824.771-1.59 2.3-3.63 3.789-3.928 13.845-2.761 27.751-5.217 41.656-7.663 1.382-.243 2.878.169 5.076.334-.705 2.903-1.002 5.36-1.889 7.58-5.229 13.091-4.538 25.672 2.899 37.763 2.79 4.534 5.514 9.111 8.397 13.586 12.415 19.256 13.844 39.607 3.762 59.83-14.811 29.704-37.546 51.216-70.103 60.356-16.487 4.63-32.717 3.29-46.917-7.904-8.994-7.09-10.472-14.079-3.709-23.146 5.444-7.301 11.479-14.276 18.011-20.615 5.183-5.029 9.894-3.907 13.272 2.589 2.746 5.278 4.442 11.09 6.867 16.55 4.781 10.767 12.912 14.22 24.063 10.342 7.677-2.67 13.421-7.931 18.272-14.215 8.075-10.461 9.999-21.922 4.888-34.246-1.971-4.749-4.133-9.458-6.661-13.928-7.893-13.96-16.006-27.795-23.95-41.532zM253.452 0c2.69 18.461 4.184 37.128-6.343 54.318-7.752 12.661-20.231 16.957-34.33 18.108-14.225 1.162-28.542 1.962-42.581 4.333-6.688 1.13-12.824 5.536-18.33 8.056 3.639-21.124 22.915-37.711 47.188-38.03 19.307-.254 34.96-6.752 44.734-23.867 4.06-7.109 6.458-15.168 9.662-22.918z"/></svg>