<?xml version="1.0" encoding="utf-8"?>
<!-- Generator: Adobe Illustrator 16.0.0, SVG Export Plug-In . SVG Version: 6.00 Build 0)  -->
<!DOCTYPE svg PUBLIC "-//W3C//DTD SVG 1.1//EN" "http://www.w3.org/Graphics/SVG/1.1/DTD/svg11.dtd">
<svg version="1.1" id="Layer_1" xmlns="http://www.w3.org/2000/svg" xmlns:xlink="http://www.w3.org/1999/xlink" x="0px" y="0px"
	 width="1850.698px" height="670.929px" viewBox="0 0 1850.698 670.929" enable-background="new 0 0 1850.698 670.929"
	 xml:space="preserve">
<path fill-rule="evenodd" clip-rule="evenodd" d="M700.417,495.074c7.093,43.61,47.537,47.488,72.252,29.146
	c10.518-7.806,19.843-17.229,29.563-26.08c1.252-1.14,1.62-3.254,2.396-4.916c0.801,0.618,1.602,1.237,2.403,1.855
	c0,7.264,0.057,14.529-0.065,21.79c-0.018,1.019-0.68,2.261-1.436,2.998c-16.86,16.432-34.125,32.463-55.937,42.197
	c-16.998,7.587-34.906,9.673-53.211,5.613c-20.438-4.532-34.061-17.186-41.99-36.3c-0.63-1.519-1.146-3.086-1.993-5.38
	c-2.012,1.594-3.783,2.931-5.482,4.355c-18.274,15.311-36.72,30.482-58.583,40.455c-7.274,3.318-15.4,5.573-23.341,6.432
	c-10.691,1.154-17.844-4.363-22.005-14.419c-4.734-11.44-4.494-23.468-3.894-35.442c1.645-32.796,9.755-64.397,18.821-95.716
	c8.776-30.322,18.63-60.33,27.578-90.604c2.141-7.246,3.372-14.978,3.579-22.527c0.295-10.783-6.883-16.491-17.024-12.97
	c-9.958,3.457-19.542,8.364-28.711,13.641c-28.479,16.387-52.152,37.869-68.899,66.557c-8.298,14.212-11.696,29.892-15.283,45.642
	c-9.816,43.106-19.876,86.156-29.992,129.193c-0.379,1.609-2.328,4.053-3.579,4.073c-16.642,0.273-33.291,0.183-50.832,0.183
	c0.853-2.251,1.394-3.881,2.077-5.449c27.611-63.384,50.391-128.398,65.772-195.88c10.822-47.477,19.553-95.401,18.353-144.231
	c-0.512-20.825-7.153-41.286-19.559-58.823c-9.378-13.257-21.745-15.589-35.739-7.116c-11.567,7.005-21.006,15.867-25.468,29.479
	c-3.772,11.508-8.537,22.797-18.578,30.736c-0.865,0.684-1.351,2.248-1.445,3.448c-2.416,30.865-3.993,61.819-7.267,92.592
	c-7.111,66.829-17.946,133.006-38.768,197.169c-4.267,13.146-9.322,25.955-17.65,37.215c-7.155,9.675-15.81,14.827-28.688,14.708
	c-58.173-0.535-116.354-0.113-174.531-0.379c-7.707-0.034-15.586-1.341-23.055-3.312c-7.415-1.955-11.924-7.271-14.504-15.053
	c-15.986-48.212-27.806-97.438-35.48-147.585c-5.38-35.159-9.997-70.468-13.658-105.845c-2.858-27.632-4.266-55.45-5.32-83.223
	c-1.062-27.965-0.895-55.977-1.245-83.967c-0.016-1.307,0.177-2.618,0.297-4.27c120.465,0,240.742,0,361.684,0
	c0,9.899,0,19.956,0,30.012c0.496,0.402,0.992,0.803,1.488,1.204c2.191-1.51,4.711-2.704,6.522-4.581
	c14.403-14.934,30.913-25.222,52.589-24.194c12.223,0.579,22.48,6.052,31.112,14.236c20.761,19.687,32.912,44.132,37.397,72.189
	c4.506,28.189,0.479,56.138-4.549,83.852c-3.643,20.074-8.364,39.952-12.64,60.081c7.597-6.779,15.181-13.681,22.911-20.417
	c23.751-20.697,48.004-40.757,75.083-57.063c13.149-7.918,26.69-14.963,42.17-17.344c14.994-2.306,25.873,4.334,30.008,18.984
	c4.029,14.272,2.679,28.746,0.66,43.131c-4.423,31.52-15.801,61.039-26.21,90.859c-9.7,27.788-18.91,55.794-23.671,84.924
	c-1.697,10.39-2.195,21.203-1.458,31.698c0.809,11.493,8.38,15.406,19.105,10.991c14.159-5.829,25.142-16.16,35.646-26.86
	c1.785-1.818,1.524-5.896,1.74-8.965c3.122-44.436,24.652-77.592,62.248-100.506c14.113-8.602,30.047-10.84,46.284-8.517
	c30.971,4.432,43.151,36.748,23.484,61.648c-10.748,13.608-25.242,22.128-40.749,28.867
	C727.926,485.044,714.251,489.763,700.417,495.074z M698.163,478.89c0.484,0.524,0.97,1.048,1.454,1.571
	c9.732-4.88,19.965-8.976,29.084-14.813c16.651-10.656,23.405-26.643,21.611-46.246c-1.099-12.017-10.583-17.65-21.368-12.251
	c-4.048,2.025-7.886,5.118-10.846,8.563C702.453,433.913,698.529,455.884,698.163,478.89z"/>
<path fill-rule="evenodd" clip-rule="evenodd" d="M1254.658,495.5c0,7.007,0.078,14.279-0.081,21.547
	c-0.024,1.131-0.872,2.541-1.775,3.312c-14.67,12.528-29.082,25.391-44.254,37.286c-9.542,7.481-20.925,11.652-33.33,11.823
	c-17.613,0.244-29.468-10.804-30.877-28.529c-1.546-19.464,3.197-37.983,8.501-56.414c4.316-15.003,8.71-29.982,12.958-45.004
	c0.922-3.256,1.594-7.391-1.992-8.899c-2.605-1.095-6.657-0.752-9.279,0.539c-12.371,6.094-21.094,16.597-30.295,26.435
	c-3.293,3.519-6.2,7.397-9.283,11.113c-7.29,8.784-7.869,19.929-10.535,30.306c-4.878,18.989-9.55,38.031-14.206,57.077
	c-0.725,2.963-2.088,4.131-5.276,4.664c-16.043,2.686-32.02,5.775-49.018,8.907c1.078-4.874,1.993-9.155,2.972-13.421
	c6.994-30.464,14.174-60.888,20.904-91.409c2.142-9.716,3.477-19.655,4.467-29.564c0.698-6.986-2.761-8.956-8.778-5.43
	c-13.531,7.928-23.727,19.698-34.994,30.305c-14.691,13.83-20.429,31.125-22.112,50.357c-1.277,14.582-2.145,29.201-3.374,43.788
	c-0.122,1.454-1.244,3.779-2.318,4.051c-14.177,3.578-28.427,6.865-42.666,10.196c-0.437,0.104-0.94-0.086-2.079-0.214
	c-0.523-10.24-1.032-20.495-1.573-30.749c-2.595-49.251,10.949-94.737,32.427-138.332c0.727-1.476,2.794-2.872,4.461-3.214
	c15.454-3.172,30.956-6.105,46.966-9.209c-6.706,20.72-13.29,41.07-19.876,61.419c0.51,0.242,1.021,0.485,1.531,0.728
	c5.794-6.253,11.482-12.608,17.405-18.736c13.457-13.92,27.375-27.363,44.626-36.592c4.921-2.632,10.361-4.781,15.817-5.831
	c13.05-2.509,23.95,3.65,27.235,16.714c2.178,8.655,1.505,18.051,1.87,27.125c0.124,3.092-0.48,6.214-0.868,10.645
	c7.577-7.237,14.065-13.795,20.943-19.917c9.571-8.518,19.159-17.059,29.259-24.923c7.39-5.755,15.878-9.808,25.62-9.974
	c12.781-0.218,21.387,5.86,25.599,18.098c3.885,11.289,3.06,22.936,0.247,34.021c-5.222,20.59-11.753,40.846-17.596,61.282
	c-1.641,5.739-2.82,11.613-4.129,17.444c-0.325,1.448-0.444,2.969-0.465,4.457c-0.141,10.503,6.15,14.673,15.131,9.169
	c7.026-4.306,13.35-9.868,19.579-15.335C1239.777,509.917,1246.982,502.74,1254.658,495.5z"/>
<path fill-rule="evenodd" clip-rule="evenodd" d="M1599.761,522.729c-6.793,6.788-13.402,13.773-20.423,20.319
	c-8.809,8.211-18.247,15.538-30.302,18.592c-16.123,4.085-29.326-0.668-38.835-14.353c-9.99-14.377-12.524-30.857-11.354-47.665
	c3.055-43.833,26.025-76.042,61.422-99.99c15.037-10.173,32.145-14.403,50.438-10.583c8.878,1.853,16.278,6.691,22.568,13.097
	c1.942,1.979,3.565,2.381,6.052,1.292c10.346-4.538,20.714-9.033,31.16-13.334c2.639-1.086,5.598-1.395,9.311-2.275
	c-15.357,49.962-20.924,100.727-32.052,151.711c24.04-10.017,40.862-26.81,57.628-45.911c0,8.889,0.139,16.446-0.129,23.989
	c-0.048,1.341-1.628,2.777-2.763,3.907c-15.903,15.825-34.255,27.972-55.241,35.921c-3.912,1.481-5.625,3.753-6.891,7.506
	c-8.71,25.832-19.684,50.578-37.217,71.797c-12.934,15.653-27.81,29.068-48.546,33.009c-7.489,1.424-15.755,1.666-23.154,0.072
	c-18.308-3.941-28.844-22.364-25.646-42.1c2.937-18.131,13.88-30.574,28.3-40.525c16.707-11.53,35.372-19.057,54.396-25.722
	c3.171-1.111,4.693-2.604,5.352-6.12c2.014-10.75,4.602-21.394,6.967-32.078C1600.456,523.1,1600.109,522.915,1599.761,522.729z
	 M1550.434,492.163c0,3.161-0.392,6.383,0.073,9.477c1.431,9.529,4.328,18.575,14.467,22.13c10.142,3.557,18.813-0.41,25.496-7.962
	c4.577-5.172,8.583-11.066,11.799-17.188c10.502-19.981,14.999-41.823,18.077-63.918c0.823-5.901,0.455-12.388-1.138-18.113
	c-2.569-9.24-10.012-12.946-19.345-11.422c-9.547,1.56-17.063,6.593-22.95,13.896
	C1559.748,440.363,1551.104,464.869,1550.434,492.163z M1588.08,579.649c-15.604,3.79-40.925,17.14-51.671,27.035
	c-5.947,5.478-10.976,11.565-13.277,19.569c-2.955,10.267,0.052,20.446,7.697,25.411c7.877,5.117,18.431,4.353,26.148-3.186
	c4.907-4.794,9.477-10.53,12.322-16.709c5.472-11.879,9.728-24.328,14.247-36.63C1585.344,590.245,1586.503,585.113,1588.08,579.649
	z"/>
<path fill-rule="evenodd" clip-rule="evenodd" d="M1489.371,493.691c0,8.523,0.108,15.513-0.089,22.492
	c-0.041,1.443-0.844,3.297-1.928,4.212c-14.49,12.242-28.779,24.757-43.779,36.35c-9.814,7.586-21.085,12.744-34.008,12.752
	c-11.887,0.007-20.688-5.264-26.646-15.495c-4.817-8.27-6.459-17.383-7.294-26.726c-0.127-1.419-0.205-2.844-0.323-4.511
	c-9.431,8.867-18.26,17.63-27.593,25.819c-10.332,9.066-21.713,16.635-35.353,19.865c-23.703,5.616-40.695-5.258-45.937-29.04
	c-3.367-15.278-1.93-30.509,0.46-45.667c4.94-31.34,14.681-61.369,25.418-91.114c0.969-2.684,2.315-3.841,5.177-4.384
	c16.013-3.042,31.97-6.373,47.957-9.545c1.235-0.245,2.562-0.032,4.405-0.032c-1.474,4.382-2.964,8.395-4.179,12.487
	c-8.926,30.095-18.075,60.128-26.527,90.357c-2.845,10.174-4.93,20.752-2.926,31.552c2.088,11.258,10.763,15.832,21.195,10.84
	c10.044-4.806,16.82-13.392,24.148-21.369c11.709-12.746,16.131-28.769,20.923-44.723c6.495-21.629,13.304-43.164,19.836-64.783
	c0.87-2.882,2.085-4.248,5.234-4.855c17.442-3.362,34.823-7.044,53.135-10.803c-0.582,2.387-0.941,4.215-1.475,5.99
	c-9.75,32.459-19.699,64.862-29.172,97.401c-2.634,9.047-4.761,18.374-2.759,28.058c2.122,10.271,9.002,14.211,18.781,10.151
	c11.166-4.636,19.586-13.077,28.293-21.063C1479.092,503.556,1483.704,499.063,1489.371,493.691z"/>
<path fill-rule="evenodd" clip-rule="evenodd" d="M899.047,389.294c9.726-0.494,18.921-0.962,28.879-1.468
	c-2.348,11.176-4.558,21.687-6.849,32.595c-9.216,0.716-18.305,1.568-27.415,2.051c-3.294,0.175-4.979,1.096-5.917,4.519
	c-5.833,21.303-12.155,42.475-17.758,63.836c-1.578,6.018-1.887,12.539-1.735,18.805c0.369,15.154,10.765,22.527,25.34,18.506
	c11.557-3.188,19.875-11.177,28.183-19.136c4.871-4.667,9.592-9.489,15.27-15.125c0,8.56,0.111,15.977-0.108,23.384
	c-0.036,1.234-1.284,2.686-2.349,3.599c-13.632,11.697-26.959,23.796-41.138,34.794c-10.765,8.351-23.289,13.472-37.305,13.852
	c-13.487,0.365-23.763-5.431-31.229-16.4c-8.837-12.982-10.912-27.692-10.144-42.915c1.373-27.209,10.985-52.592,17.833-78.584
	c0.375-1.425,0.726-2.854,1.234-4.858c-5.338,0.264-10.218,0.506-15.744,0.778c2.209-10.91,4.249-21.277,6.523-31.594
	c0.169-0.764,1.992-1.544,3.108-1.649c4.136-0.389,8.315-0.833,12.443-0.61c3.601,0.196,4.904-1.329,5.834-4.504
	c5.514-18.813,11.239-37.563,16.78-56.367c0.764-2.592,1.667-4.339,4.677-4.933c16.789-3.311,33.537-6.823,50.303-10.245
	c0.62-0.126,1.288-0.016,2.566-0.016C913.216,341.575,906.208,365.177,899.047,389.294z"/>
<path fill-rule="evenodd" clip-rule="evenodd" d="M1778.061,441.656c-3.961,5.849-8.145,12.86-13.136,19.238
	c-14.567,18.618-29.387,37.042-44.339,55.353c-1.434,1.756-4.49,2.187-7.864,3.719c0-7.293-0.236-12.941,0.144-18.548
	c0.115-1.685,1.742-3.439,3.023-4.845c22.182-24.331,42.402-50.059,56.906-79.846c2.69-5.522,4.862-11.297,7.543-16.824
	c0.771-1.59,2.3-3.63,3.789-3.928c13.845-2.761,27.751-5.217,41.656-7.663c1.382-0.243,2.878,0.169,5.076,0.334
	c-0.705,2.903-1.002,5.36-1.889,7.58c-5.229,13.091-4.538,25.672,2.899,37.763c2.79,4.534,5.514,9.111,8.397,13.586
	c12.415,19.256,13.844,39.607,3.762,59.83c-14.811,29.704-37.546,51.216-70.103,60.356c-16.487,4.63-32.717,3.29-46.917-7.904
	c-8.994-7.09-10.472-14.079-3.709-23.146c5.444-7.301,11.479-14.276,18.011-20.615c5.183-5.029,9.894-3.907,13.272,2.589
	c2.746,5.278,4.442,11.09,6.867,16.55c4.781,10.767,12.912,14.22,24.063,10.342c7.677-2.67,13.421-7.931,18.272-14.215
	c8.075-10.461,9.999-21.922,4.888-34.246c-1.971-4.749-4.133-9.458-6.661-13.928
	C1794.118,469.228,1786.005,455.393,1778.061,441.656z"/>
<path fill-rule="evenodd" clip-rule="evenodd" d="M253.452,0c2.69,18.461,4.184,37.128-6.343,54.318
	c-7.752,12.661-20.231,16.957-34.33,18.108c-14.225,1.162-28.542,1.962-42.581,4.333c-6.688,1.13-12.824,5.536-18.33,8.056
	c3.639-21.124,22.915-37.711,47.188-38.03c19.307-0.254,34.96-6.752,44.734-23.867C247.85,15.809,250.248,7.75,253.452,0z"/>
</svg>
