<?xml version="1.0" encoding="utf-8"?>
<!-- Generator: Adobe Illustrator 16.0.0, SVG Export Plug-In . SVG Version: 6.00 Build 0)  -->
<!DOCTYPE svg PUBLIC "-//W3C//DTD SVG 1.1//EN" "http://www.w3.org/Graphics/SVG/1.1/DTD/svg11.dtd">
<svg version="1.1" id="Layer_1" xmlns="http://www.w3.org/2000/svg" xmlns:xlink="http://www.w3.org/1999/xlink" x="0px" y="0px"
	 width="681.643px" height="262.433px" viewBox="0 0 681.643 262.433" enable-background="new 0 0 681.643 262.433"
	 xml:space="preserve">
<path fill-rule="evenodd" clip-rule="evenodd" d="M140.323,0c0.474,0.323,0.909,0.831,1.427,0.937
	c2.708,0.553,4.077,2.417,5.054,4.79c3.52,8.544,7.037,17.089,10.69,25.576c0.251,0.583,1.771,1.17,2.422,0.945
	c6.171-2.122,12.281-4.422,18.41-6.667c7.274-2.664,14.544-5.344,21.828-7.981c5.721-2.072,11.376-4.389,17.209-6.077
	c14.527-4.204,31.869,3.625,38.061,17.417c2.846,6.337,4.708,13.12,6.94,19.726c2.594,7.674,5.111,15.373,7.652,23.064
	c1.602,4.848,3.188,9.701,4.955,15.076c-1.443-0.517-2.524-0.826-3.541-1.28c-10.297-4.586-20.875-3.952-31.583-1.873
	c-9.419,1.828-18.078,5.646-26.693,9.669c-6.782,3.168-13.622,6.216-20.512,9.142c-0.788,0.335-2.465-0.115-3.044-0.79
	c-11.816-13.768-23.526-27.626-35.271-41.454c-4.853-5.714-9.818-11.336-14.556-17.143c-1.264-1.55-1.999-3.582-2.761-5.479
	c-1.265-3.146-2.464-6.329-3.478-9.563c-0.634-2.023-1.637-2.438-3.503-1.646c-7.593,3.215-15.203,6.389-22.813,9.564
	c-2.085,0.869-4.271,1.54-6.244,2.61c-0.7,0.38-1.468,1.862-1.249,2.525c3.374,10.222,8.423,19.621,14.031,28.788
	c7.775,12.711,15.252,25.604,22.859,38.418c2.578,4.341,5.131,8.698,7.766,13.004c1.028,1.681,1.046,2.65-1.049,3.563
	c-8.93,3.893-17.791,7.94-26.667,11.954c-6.821,3.084-13.594,6.277-20.446,9.289c-11.776,5.178-23.453,10.631-35.457,15.223
	c-6.613,2.531-13.773,2.729-20.939,1.15c-7.75-1.707-14.584-4.953-20.759-9.902c-0.859-0.688-3.035-0.301-4.315,0.25
	c-1.661,0.717-2.41,0.787-3.096-1.109c-3.325-9.184-6.805-18.309-10.139-27.489c-0.698-1.922-1.018-3.98-1.511-5.977
	c0-0.351,0-0.7,0-1.051c0.839-5.034,1.136-10.236,2.637-15.064c2.586-8.318,8.538-14.275,16.291-17.795
	c7.655-3.475,15.792-5.883,23.696-8.815c13.307-4.936,26.581-9.96,39.914-14.823c1.735-0.634,1.65-1.363,1.122-2.703
	c-0.958-2.424-1.82-4.885-2.714-7.333c-1.939-5.307-3.722-10.678-5.867-15.9c-1.218-2.965-1.45-5.578,0.184-8.447
	c2.071-3.635,5.372-5.69,8.975-7.242c6.379-2.747,12.857-5.271,19.326-7.808c7.75-3.039,15.518-6.039,23.315-8.957
	c2.494-0.933,5.106-1.549,7.664-2.31C136.469,0,138.396,0,140.323,0z"/>
<path fill-rule="evenodd" clip-rule="evenodd" d="M81.986,262.777c-1.022-0.488-2.082-1.463-3.063-1.389
	c-14.923,1.113-28.486-7.191-33.951-21.162c-4.157-10.627-8.075-21.35-12.118-32.021c-0.304-0.805-0.756-1.555-1.396-2.846
	c3.432-1.066,6.727-2.021,9.976-3.109c7.69-2.574,15.37-5.18,23.033-7.832c7.082-2.451,14.153-4.932,21.196-7.49
	c6.545-2.377,13.048-4.871,19.568-7.316c8.392-3.148,16.8-6.26,25.17-9.467c7.964-3.053,15.891-6.199,23.825-9.328
	c1.806-0.711,2.649-0.373,2.989,1.76c2.078,13.039,4.306,26.053,6.448,39.078c1.233,7.506,2.398,15.02,3.594,22.531
	c0.014,0.086,0.032,0.174,0.027,0.26c-0.111,2.055,2.348,4.346-0.015,6.074c-1.609,1.176-3.823,1.535-5.778,2.229
	c-4.325,1.535-8.655,3.051-13.021,5.145c0.939,0.135,1.877,0.385,2.815,0.385c9.721-0.01,19.442-0.051,29.164-0.105
	c1.688-0.01,3.079-0.049,3.062,2.4c-0.018,2.393-0.991,2.92-3.177,2.906c-13.75-0.078-27.501-0.035-41.252-0.049
	c-6.213-0.006-12.686,1.359-18.011,4.057c1.485,0.262,2.399,0.564,3.313,0.564c22.597,0.002,45.193,0.002,67.79-0.098
	c2.337-0.01,3.12,0.695,2.905,3.008c-0.167,1.803-0.866,2.326-2.65,2.318c-15.064-0.068-30.129-0.063-45.194-0.037
	c-13.312,0.021-26.63-0.129-39.931,0.279c-4.211,0.129-8.375,1.811-12.56,2.779c0.009,0.316,0.019,0.633,0.028,0.949
	c0.938,0.186,1.876,0.533,2.813,0.533c36.26-0.008,72.52-0.057,108.779-0.043c1.282,0.002,2.564,0.572,3.846,0.879
	c-0.348,1.387-0.694,2.771-1.042,4.158c-0.351,0-0.701,0-1.051,0c-0.944-0.115-1.889-0.326-2.833-0.328
	c-20.273-0.021-40.546-0.021-60.818-0.006c-0.856,0.002-1.712,0.217-2.568,0.334C121.928,262.777,101.958,262.777,81.986,262.777z"
	/>
<path fill-rule="evenodd" clip-rule="evenodd" d="M681.643,179.213c-2.676,0.242-5.479,0.057-8.001,0.813
	c-5.444,1.633-6.619,6.262-2.953,10.561c1.869,2.193,3.822,4.316,5.729,6.479c6.705,7.605,5.321,19.814-2.797,25.766
	c-5.602,4.105-11.791,6.748-18.627,7.697c-1.195,0.166-3.072-0.662-3.785-1.646c-2.703-3.73-5.144-7.662-7.498-11.627
	c-0.927-1.563,0.102-2.387,1.72-2.645c2.243-0.355,4.488-0.73,6.708-1.209c5.993-1.289,7.748-5.602,4.174-10.529
	c-1.578-2.178-3.46-4.146-5.314-6.105c-8.027-8.48-5.656-19.619,2.924-26.256c4.863-3.76,10.418-5.887,16.496-6.852
	c2.355-0.373,3.932,0.299,5.053,2.238c1.783,3.088,3.49,6.223,5.26,9.316c0.197,0.344,0.604,0.568,0.913,0.848
	C681.643,177.111,681.643,178.162,681.643,179.213z"/>
<path fill-rule="evenodd" clip-rule="evenodd" fill="#FFFFFF" d="M141.899,262.777c0.856-0.117,1.712-0.332,2.568-0.334
	c20.272-0.016,40.545-0.016,60.818,0.006c0.944,0.002,1.889,0.213,2.833,0.328C186.046,262.777,163.973,262.777,141.899,262.777z"/>
<path fill-rule="evenodd" clip-rule="evenodd" d="M201.679,217.938c0-4.145-0.034-7.793,0.006-11.441
	c0.095-8.654,0.222-17.309,0.34-25.961c0.136-10.057,0.26-20.113,0.427-30.17c0.036-2.18,0.04-4.393,0.437-6.52
	c0.18-0.961,1.107-2.178,2-2.551c7.793-3.244,15.649-6.34,23.5-9.445c6.299-2.492,12.692-4.761,18.913-7.433
	c10.496-4.508,20.532-9.875,29.163-17.49c1.792-1.581,3.104-3.706,4.965-5.98c0.721,1.968,1.333,3.607,1.923,5.254
	c3.469,9.682,7.095,19.311,10.349,29.066c2.575,7.721,6.288,15.15,6.271,23.604c-0.028,14.072-9.259,27.252-22.466,31.975
	c-8.852,3.166-17.647,6.488-26.495,9.666c-11.886,4.268-23.804,8.447-35.695,12.701c-3.507,1.254-6.966,2.646-10.461,3.938
	C204.063,217.439,203.208,217.564,201.679,217.938z"/>
<path fill-rule="evenodd" clip-rule="evenodd" d="M395.339,188.498c-0.385,0.477-0.906,0.896-1.133,1.439
	c-4.678,11.18-9.324,22.373-13.973,33.566c-0.498,1.199-0.762,2.572-1.521,3.57c-0.71,0.934-1.871,1.938-2.947,2.086
	c-1.9,0.264-4.195,0.631-5.307-1.725c-2.268-4.811-4.516-9.631-6.656-14.5c-2.627-5.975-5.127-12.006-7.701-18.006
	c-0.846-1.975-1.752-3.924-2.63-5.885c-0.274-0.004-0.55-0.008-0.825-0.01c-0.148,0.977-0.44,1.955-0.422,2.93
	c0.204,10.758,0.475,21.512,0.687,32.27c0.071,3.611-0.304,3.941-3.815,3.941c-5.781,0-11.563-0.078-17.342,0.041
	c-2.162,0.047-3.128-0.746-3.042-2.852c0.321-7.863,0.782-15.723,0.953-23.588c0.195-9.002,0.193-18.008,0.167-27.014
	c-0.013-4.371-0.265-8.74-0.431-13.111c-0.22-5.764-0.471-11.525-0.685-17.291c-0.067-1.822,0.534-2.992,2.682-2.994
	c6.215-0.004,12.431-0.059,18.644-0.213c1.98-0.049,3.017,0.787,3.789,2.518c3.088,6.914,6.279,13.781,9.411,20.678
	c2.951,6.498,5.874,13.01,8.808,19.518c0.108,0.238,0.148,0.535,0.314,0.717c0.742,0.813,1.518,1.592,2.281,2.385
	c0.752-0.773,1.763-1.418,2.212-2.34c3.021-6.186,5.905-12.439,8.866-18.654c2.584-5.424,5.209-10.828,7.818-16.24
	c1.13-2.346,2.161-4.748,3.465-6.992c0.424-0.73,1.555-1.447,2.389-1.479c6.2-0.232,12.406-0.297,18.611-0.396
	c1.929-0.031,2.498,0.986,2.434,2.85c-0.413,11.799-1.048,23.602-1.02,35.402c0.037,15.043,0.646,30.082,0.977,45.123
	c0.078,3.553-0.357,3.936-3.848,3.934c-5.956-0.002-11.912,0.006-17.869-0.002c-3.07-0.002-3.482-0.361-3.402-3.496
	c0.279-11.018,0.615-22.033,0.924-33.049c0.025-0.924,0.003-1.85,0.003-2.775C395.915,188.734,395.626,188.617,395.339,188.498z"/>
<path fill-rule="evenodd" clip-rule="evenodd" d="M370.396,24.609c22.166-0.355,39.779,16.326,43.317,36.683
	c2.184,12.566,0.617,24.482-6.082,35.345c-5.357,8.688-12.885,14.984-22.844,18.161c-8.418,2.686-17.013,2.785-25.406,0.937
	c-11.225-2.474-20.035-9.114-25.951-18.95c-9.655-16.055-9.947-32.925-1.467-49.306C339.614,32.7,353.307,24.633,370.396,24.609z
	 M370.32,92.762c3.622,0.247,7.184-0.633,10.366-2.924c10.293-7.409,13.072-21.358,6.39-32.121
	c-4.761-7.67-14.144-11.128-21.921-8.693c-9.998,3.129-16.78,15.812-14.719,26.247C352.485,85.641,360.358,93.384,370.32,92.762z"/>
<path fill-rule="evenodd" clip-rule="evenodd" d="M450.134,59.092c1.18-0.577,2.236-0.935,3.113-1.548
	c13.576-9.498,33.313-2.754,39.347,12.237c3.526,8.762,4.067,17.665,1.104,26.418c-4.565,13.488-15.649,20.986-30.094,19.526
	c-3.447-0.349-6.745-2.2-10.102-3.387c-0.641-0.226-1.238-0.573-2.498-1.168c0,3.225-0.074,6.032,0.02,8.835
	c0.115,3.491,0.396,6.977,0.551,10.466c0.104,2.381-0.959,3.475-3.482,3.41c-4.988-0.125-9.982-0.023-14.975-0.035
	c-3.168-0.008-4.053-0.904-4.053-4.046c0-15.852,0.238-31.707-0.097-47.552c-0.157-7.394-1.364-14.771-2.223-22.141
	c-0.235-2.027-0.004-3.555,2.255-3.917c5.848-0.937,11.697-1.911,17.581-2.556c0.897-0.099,2.165,1.336,2.911,2.325
	C449.999,56.634,449.894,57.769,450.134,59.092z M461.513,96.375c3.684,0.142,6.912-1.017,8.642-4.345
	c2.378-4.574,2.691-9.477,0.06-14.067c-1.887-3.289-4.752-5.665-8.82-5.767c-3.764-0.095-6.457,1.85-8.338,4.981
	c-2.205,3.669-2.318,7.566-1.246,11.621C453.051,93.483,456.7,96.384,461.513,96.375z"/>
<path fill-rule="evenodd" clip-rule="evenodd" d="M521.951,175.68c1.987-1.32,3.349-2.197,4.683-3.115
	c5.953-4.1,12.374-6.465,19.711-5.068c6.311,1.199,11.148,4.467,13.492,10.645c0.597,1.572,0.563,3.441,0.568,5.176
	c0.041,13.746,0.027,27.494,0.018,41.24c-0.003,3.559-0.361,3.918-3.891,3.928c-4.554,0.01-9.109,0.072-13.659-0.049
	c-3.85-0.1-4.587-0.936-4.54-4.727c0.117-9.709,0.289-19.416,0.402-29.125c0.063-5.309-1.062-7.072-5.051-8.168
	c-3.157-0.869-9.201,1.35-10.645,4.148c-0.607,1.178-0.827,2.682-0.816,4.033c0.078,9.885,0.273,19.768,0.402,29.652
	c0.041,3.15-0.846,4.176-3.984,4.186c-4.895,0.016-9.791-0.168-14.686-0.262c-2.486-0.049-3.502-1.191-3.489-3.783
	c0.085-16.287,0.266-32.576-0.031-48.857c-0.188-10.371-1.192-20.725-1.669-31.094c-0.037-0.816,1.084-2.291,1.855-2.432
	c2.643-0.484,5.377-0.443,8.063-0.73c3.563-0.381,7.107-0.918,10.666-1.324c3.612-0.41,3.668-0.375,3.523,3.354
	c-0.367,9.512-0.797,19.021-1.17,28.533C521.664,172.85,521.827,173.865,521.951,175.68z"/>
<path fill-rule="evenodd" clip-rule="evenodd" d="M613.799,174.512c0.714-1.98,1.278-3.297,1.659-4.666
	c0.458-1.652,1.319-2.275,3.076-1.904c4.352,0.92,8.744,1.652,13.092,2.584c3.186,0.682,3.658,1.568,3.066,4.775
	c-1.823,9.861-2.052,19.791-1.471,29.781c0.38,6.545,0.443,13.109,0.66,19.664c0.078,2.369-0.873,3.461-3.413,3.482
	c-4.362,0.035-8.722,0.447-13.085,0.578c-3.682,0.109-4.243-0.473-4.575-4.107c-0.076-0.834-0.165-1.666-0.323-3.262
	c-1.929,1.445-3.391,2.406-4.701,3.543c-9.191,7.975-21.926,4.559-28.522-1.6c-10.292-9.607-12.569-21.5-9.467-34.813
	c1.999-8.572,6.786-15.084,14.698-18.941c7.504-3.658,19.895-4.867,27.096,2.211C612.245,172.484,612.772,173.262,613.799,174.512z
	 M601.259,185.508c-6.891-0.014-11.994,4.959-12.021,11.709c-0.026,7.051,5.166,12.521,11.875,12.559
	c7.02,0.037,12.256-5.166,12.037-12.484C612.94,190.318,608.27,185.521,601.259,185.508z"/>
<path fill-rule="evenodd" clip-rule="evenodd" d="M571.991,92.995c-0.335-8.555-0.578-17.115-1.057-25.662
	c-0.16-2.859-0.777-5.72-1.452-8.515c-0.453-1.875,0.382-2.782,1.888-3.032c6.453-1.073,12.922-2.064,19.41-2.896
	c0.619-0.08,1.754,1.032,2.039,1.813c0.469,1.279,0.526,2.736,0.592,4.126c0.09,1.878,0.798,2.073,2.316,1.181
	c3.301-1.938,6.532-4.061,10.012-5.618c8.881-3.979,22.543-0.758,25.855,9.2c0.432,1.298,0.59,2.739,0.6,4.117
	c0.057,7.615-0.018,15.232,0.041,22.849c0.052,6.821,0.236,13.641,0.324,20.462c0.041,3.144-0.48,3.639-3.634,3.646
	c-4.989,0.012-9.979,0.018-14.97,0.001c-3.818-0.013-4.566-0.749-4.531-4.673c0.082-9.098,0.252-18.196,0.307-27.295
	c0.01-1.821-0.16-3.685-0.551-5.461c-0.901-4.081-4.462-5.927-8.439-4.538c-5.035,1.757-6.617,4.029-6.604,9.342
	c0.022,9.805-0.017,19.609,0.044,29.414c0.014,2.344-0.896,3.296-3.281,3.246c-5.162-0.107-10.33-0.007-15.494-0.046
	c-2.832-0.021-3.73-0.991-3.73-3.791c0.001-5.953,0-11.906,0-17.859C571.78,93.002,571.886,92.999,571.991,92.995z"/>
<path fill-rule="evenodd" clip-rule="evenodd" d="M535.833,116.131c-10.972,0.433-20.15-3.009-27.23-11.519
	c-3.293-3.958-5.275-8.54-5.963-13.501c-1.426-10.319-0.458-20.236,6.262-28.878c4.737-6.093,10.961-9.552,18.491-10.796
	c12.71-2.102,23.625,2.813,30.384,13.804c3.399,5.526,4.691,11.601,3.973,18.062c-0.336,3.018-2.354,4.815-5.369,5.074
	c-10.191,0.875-20.377,1.813-30.571,2.664c-2.1,0.176-2.411,1.4-1.11,2.45c2.181,1.761,4.582,3.693,7.198,4.381
	c5.817,1.528,11.452,0.287,16.565-2.957c4.376-2.775,4.418-2.821,6.981,1.73c1.323,2.35,2.224,4.951,3.669,7.213
	c1.619,2.535,0.42,4.038-1.392,5.535C551.317,114.683,543.84,116.467,535.833,116.131z M526.294,78.682
	c0.611,0,1.231,0.069,1.832-0.011c3.201-0.426,6.385-1.011,9.598-1.296c2.098-0.187,2.191-1.3,1.81-2.85
	c-0.854-3.465-4.54-6.521-8.131-6.773c-3.41-0.239-6.887,2.172-8.229,5.708C521.653,77.458,522.419,78.75,526.294,78.682z"/>
<path fill-rule="evenodd" clip-rule="evenodd" d="M477.872,141.381c3.238,0,6.478,0.074,9.712-0.025
	c2.282-0.072,2.892,1.086,2.796,3.092c-0.491,10.199-1.157,20.395-1.384,30.6c-0.313,14.07-0.309,28.148-0.388,42.225
	c-0.015,2.615,0.184,5.234,0.354,7.85c0.123,1.912-0.613,3.111-2.594,3.148c-5.682,0.104-11.367,0.234-17.047,0.127
	c-2.221-0.041-2.91-1.617-2.89-3.84c0.188-20.377,0.401-40.756,0.337-61.133c-0.019-6.002-0.787-12.012-1.418-17.996
	c-0.391-3.705-0.244-4.045,3.598-4.039c2.975,0.006,5.949,0.002,8.924,0.002C477.872,141.387,477.872,141.383,477.872,141.381z"/>
<path fill-rule="evenodd" clip-rule="evenodd" d="M431.319,203.42c0-7.176,0.113-14.354-0.051-21.525
	c-0.074-3.207-0.635-6.412-1.104-9.602c-0.334-2.264,0.402-3.404,2.775-3.186c1.645,0.152,3.285,0.529,4.925,0.514
	c4.257-0.041,8.524-0.092,12.763-0.432c3.018-0.242,3.765,0.402,3.426,3.408c-0.321,2.863-0.469,5.754-0.53,8.637
	c-0.216,10.135-0.423,20.273-0.504,30.41c-0.034,4.273,0.183,8.553,0.427,12.822c0.145,2.492-0.666,3.828-3.334,3.816
	c-4.982-0.025-9.972,0.197-14.946,0.014c-3.877-0.143-3.861-0.348-3.858-4.137c0.006-6.914,0.002-13.826,0.002-20.74
	C431.313,203.42,431.316,203.42,431.319,203.42z"/>
<path fill-rule="evenodd" clip-rule="evenodd" d="M442.745,164.393c-7.5,0.021-12.729-4.459-12.693-10.877
	c0.033-5.908,5.479-10.66,12.239-10.682c6.694-0.02,11.999,4.738,12.054,10.811C454.404,160.379,450.094,164.371,442.745,164.393z"
	/>
</svg>
