<svg xmlns="http://www.w3.org/2000/svg" width="681.643" height="262.433" xml:space="preserve"><path fill-rule="evenodd" clip-rule="evenodd" d="M140.323 0c.474.323.909.831 1.427.937 2.708.553 4.077 2.417 5.054 4.79 3.52 8.544 7.037 17.089 10.69 25.576.251.583 1.771 1.17 2.422.945 6.171-2.122 12.281-4.422 18.41-6.667 7.274-2.664 14.544-5.344 21.828-7.981 5.721-2.072 11.376-4.389 17.209-6.077 14.527-4.204 31.869 3.625 38.061 17.417 2.846 6.337 4.708 13.12 6.94 19.726 2.594 7.674 5.111 15.373 7.652 23.064 1.602 4.848 3.188 9.701 4.955 15.076-1.443-.517-2.524-.826-3.541-1.28-10.297-4.586-20.875-3.952-31.583-1.873-9.419 1.828-18.078 5.646-26.693 9.669a634.399 634.399 0 0 1-20.512 9.142c-.788.335-2.465-.115-3.044-.79-11.816-13.768-23.526-27.626-35.271-41.454-4.853-5.714-9.818-11.336-14.556-17.143-1.264-1.55-1.999-3.582-2.761-5.479-1.265-3.146-2.464-6.329-3.478-9.563-.634-2.023-1.637-2.438-3.503-1.646-7.593 3.215-15.203 6.389-22.813 9.564-2.085.869-4.271 1.54-6.244 2.61-.7.38-1.468 1.862-1.249 2.525 3.374 10.222 8.423 19.621 14.031 28.788 7.775 12.711 15.252 25.604 22.859 38.418 2.578 4.341 5.131 8.698 7.766 13.004 1.028 1.681 1.046 2.65-1.049 3.563-8.93 3.893-17.791 7.94-26.667 11.954-6.821 3.084-13.594 6.277-20.446 9.289-11.776 5.178-23.453 10.631-35.457 15.223-6.613 2.531-13.773 2.729-20.939 1.15-7.75-1.707-14.584-4.953-20.759-9.902-.859-.688-3.035-.301-4.315.25-1.661.717-2.41.787-3.096-1.109-3.325-9.184-6.805-18.309-10.139-27.489-.698-1.922-1.018-3.98-1.511-5.977v-1.051c.839-5.034 1.136-10.236 2.637-15.064 2.586-8.318 8.538-14.275 16.291-17.795 7.655-3.475 15.792-5.883 23.696-8.815 13.307-4.936 26.581-9.96 39.914-14.823 1.735-.634 1.65-1.363 1.122-2.703-.958-2.424-1.82-4.885-2.714-7.333-1.939-5.307-3.722-10.678-5.867-15.9-1.218-2.965-1.45-5.578.184-8.447 2.071-3.635 5.372-5.69 8.975-7.242 6.379-2.747 12.857-5.271 19.326-7.808 7.75-3.039 15.518-6.039 23.315-8.957 2.494-.933 5.106-1.549 7.664-2.31C136.469 0 138.396 0 140.323 0zM81.986 262.777c-1.022-.488-2.082-1.463-3.063-1.389-14.923 1.113-28.486-7.191-33.951-21.162-4.157-10.627-8.075-21.35-12.118-32.021-.304-.805-.756-1.555-1.396-2.846 3.432-1.066 6.727-2.021 9.976-3.109 7.69-2.574 15.37-5.18 23.033-7.832a1479.265 1479.265 0 0 0 21.196-7.49c6.545-2.377 13.048-4.871 19.568-7.316 8.392-3.148 16.8-6.26 25.17-9.467 7.964-3.053 15.891-6.199 23.825-9.328 1.806-.711 2.649-.373 2.989 1.76 2.078 13.039 4.306 26.053 6.448 39.078 1.233 7.506 2.398 15.02 3.594 22.531.014.086.032.174.027.26-.111 2.055 2.348 4.346-.015 6.074-1.609 1.176-3.823 1.535-5.778 2.229-4.325 1.535-8.655 3.051-13.021 5.145.939.135 1.877.385 2.815.385 9.721-.01 19.442-.051 29.164-.105 1.688-.01 3.079-.049 3.062 2.4-.018 2.393-.991 2.92-3.177 2.906-13.75-.078-27.501-.035-41.252-.049-6.213-.006-12.686 1.359-18.011 4.057 1.485.262 2.399.564 3.313.564 22.597.002 45.193.002 67.79-.098 2.337-.01 3.12.695 2.905 3.008-.167 1.803-.866 2.326-2.65 2.318a7242.861 7242.861 0 0 0-45.194-.037c-13.312.021-26.63-.129-39.931.279-4.211.129-8.375 1.811-12.56 2.779l.028.949c.938.186 1.876.533 2.813.533 36.26-.008 72.52-.057 108.779-.043 1.282.002 2.564.572 3.846.879l-1.042 4.158h-1.051c-.944-.115-1.889-.326-2.833-.328-20.273-.021-40.546-.021-60.818-.006-.856.002-1.712.217-2.568.334H81.986zm599.657-83.564c-2.676.242-5.479.057-8.001.813-5.444 1.633-6.619 6.262-2.953 10.561 1.869 2.193 3.822 4.316 5.729 6.479 6.705 7.605 5.321 19.814-2.797 25.766-5.602 4.105-11.791 6.748-18.627 7.697-1.195.166-3.072-.662-3.785-1.646-2.703-3.73-5.144-7.662-7.498-11.627-.927-1.563.102-2.387 1.72-2.645 2.243-.355 4.488-.73 6.708-1.209 5.993-1.289 7.748-5.602 4.174-10.529-1.578-2.178-3.46-4.146-5.314-6.105-8.027-8.48-5.656-19.619 2.924-26.256 4.863-3.76 10.418-5.887 16.496-6.852 2.355-.373 3.932.299 5.053 2.238 1.783 3.088 3.49 6.223 5.26 9.316.197.344.604.568.913.848-.002 1.049-.002 2.1-.002 3.151z"/><path fill-rule="evenodd" clip-rule="evenodd" fill="#FFF" d="M141.899 262.777c.856-.117 1.712-.332 2.568-.334 20.272-.016 40.545-.016 60.818.006.944.002 1.889.213 2.833.328h-66.219z"/><path fill-rule="evenodd" clip-rule="evenodd" d="M201.679 217.938c0-4.145-.034-7.793.006-11.441.095-8.654.222-17.309.34-25.961.136-10.057.26-20.113.427-30.17.036-2.18.04-4.393.437-6.52.18-.961 1.107-2.178 2-2.551 7.793-3.244 15.649-6.34 23.5-9.445 6.299-2.492 12.692-4.761 18.913-7.433 10.496-4.508 20.532-9.875 29.163-17.49 1.792-1.581 3.104-3.706 4.965-5.98.721 1.968 1.333 3.607 1.923 5.254 3.469 9.682 7.095 19.311 10.349 29.066 2.575 7.721 6.288 15.15 6.271 23.604-.028 14.072-9.259 27.252-22.466 31.975-8.852 3.166-17.647 6.488-26.495 9.666-11.886 4.268-23.804 8.447-35.695 12.701-3.507 1.254-6.966 2.646-10.461 3.938-.793.288-1.648.413-3.177.787zm193.66-29.44c-.385.477-.906.896-1.133 1.439-4.678 11.18-9.324 22.373-13.973 33.566-.498 1.199-.762 2.572-1.521 3.57-.71.934-1.871 1.938-2.947 2.086-1.9.264-4.195.631-5.307-1.725-2.268-4.811-4.516-9.631-6.656-14.5-2.627-5.975-5.127-12.006-7.701-18.006-.846-1.975-1.752-3.924-2.63-5.885-.274-.004-.55-.008-.825-.01-.148.977-.44 1.955-.422 2.93.204 10.758.475 21.512.687 32.27.071 3.611-.304 3.941-3.815 3.941-5.781 0-11.563-.078-17.342.041-2.162.047-3.128-.746-3.042-2.852.321-7.863.782-15.723.953-23.588.195-9.002.193-18.008.167-27.014-.013-4.371-.265-8.74-.431-13.111-.22-5.764-.471-11.525-.685-17.291-.067-1.822.534-2.992 2.682-2.994a772.503 772.503 0 0 0 18.644-.213c1.98-.049 3.017.787 3.789 2.518 3.088 6.914 6.279 13.781 9.411 20.678 2.951 6.498 5.874 13.01 8.808 19.518.108.238.148.535.314.717.742.813 1.518 1.592 2.281 2.385.752-.773 1.763-1.418 2.212-2.34 3.021-6.186 5.905-12.439 8.866-18.654 2.584-5.424 5.209-10.828 7.818-16.24 1.13-2.346 2.161-4.748 3.465-6.992.424-.73 1.555-1.447 2.389-1.479 6.2-.232 12.406-.297 18.611-.396 1.929-.031 2.498.986 2.434 2.85-.413 11.799-1.048 23.602-1.02 35.402.037 15.043.646 30.082.977 45.123.078 3.553-.357 3.936-3.848 3.934-5.956-.002-11.912.006-17.869-.002-3.07-.002-3.482-.361-3.402-3.496.279-11.018.615-22.033.924-33.049.025-.924.003-1.85.003-2.775l-.866-.356zM370.396 24.609c22.166-.355 39.779 16.326 43.317 36.683 2.184 12.566.617 24.482-6.082 35.345-5.357 8.688-12.885 14.984-22.844 18.161-8.418 2.686-17.013 2.785-25.406.937-11.225-2.474-20.035-9.114-25.951-18.95-9.655-16.055-9.947-32.925-1.467-49.306 7.651-14.779 21.344-22.846 38.433-22.87zm-.076 68.153c3.622.247 7.184-.633 10.366-2.924 10.293-7.409 13.072-21.358 6.39-32.121-4.761-7.67-14.144-11.128-21.921-8.693-9.998 3.129-16.78 15.812-14.719 26.247 2.049 10.37 9.922 18.113 19.884 17.491zm79.814-33.67c1.18-.577 2.236-.935 3.113-1.548 13.576-9.498 33.313-2.754 39.347 12.237 3.526 8.762 4.067 17.665 1.104 26.418-4.565 13.488-15.649 20.986-30.094 19.526-3.447-.349-6.745-2.2-10.102-3.387-.641-.226-1.238-.573-2.498-1.168 0 3.225-.074 6.032.02 8.835.115 3.491.396 6.977.551 10.466.104 2.381-.959 3.475-3.482 3.41-4.988-.125-9.982-.023-14.975-.035-3.168-.008-4.053-.904-4.053-4.046 0-15.852.238-31.707-.097-47.552-.157-7.394-1.364-14.771-2.223-22.141-.235-2.027-.004-3.555 2.255-3.917 5.848-.937 11.697-1.911 17.581-2.556.897-.099 2.165 1.336 2.911 2.325.507.675.402 1.81.642 3.133zm11.379 37.283c3.684.142 6.912-1.017 8.642-4.345 2.378-4.574 2.691-9.477.06-14.067-1.887-3.289-4.752-5.665-8.82-5.767-3.764-.095-6.457 1.85-8.338 4.981-2.205 3.669-2.318 7.566-1.246 11.621 1.24 4.685 4.889 7.586 9.702 7.577zm60.438 79.305c1.987-1.32 3.349-2.197 4.683-3.115 5.953-4.1 12.374-6.465 19.711-5.068 6.311 1.199 11.148 4.467 13.492 10.645.597 1.572.563 3.441.568 5.176.041 13.746.027 27.494.018 41.24-.003 3.559-.361 3.918-3.891 3.928-4.554.01-9.109.072-13.659-.049-3.85-.1-4.587-.936-4.54-4.727.117-9.709.289-19.416.402-29.125.063-5.309-1.062-7.072-5.051-8.168-3.157-.869-9.201 1.35-10.645 4.148-.607 1.178-.827 2.682-.816 4.033.078 9.885.273 19.768.402 29.652.041 3.15-.846 4.176-3.984 4.186-4.895.016-9.791-.168-14.686-.262-2.486-.049-3.502-1.191-3.489-3.783.085-16.287.266-32.576-.031-48.857-.188-10.371-1.192-20.725-1.669-31.094-.037-.816 1.084-2.291 1.855-2.432 2.643-.484 5.377-.443 8.063-.73 3.563-.381 7.107-.918 10.666-1.324 3.612-.41 3.668-.375 3.523 3.354-.367 9.512-.797 19.021-1.17 28.533-.039 1.009.124 2.024.248 3.839zm91.848-1.168c.714-1.98 1.278-3.297 1.659-4.666.458-1.652 1.319-2.275 3.076-1.904 4.352.92 8.744 1.652 13.092 2.584 3.186.682 3.658 1.568 3.066 4.775-1.823 9.861-2.052 19.791-1.471 29.781.38 6.545.443 13.109.66 19.664.078 2.369-.873 3.461-3.413 3.482-4.362.035-8.722.447-13.085.578-3.682.109-4.243-.473-4.575-4.107-.076-.834-.165-1.666-.323-3.262-1.929 1.445-3.391 2.406-4.701 3.543-9.191 7.975-21.926 4.559-28.522-1.6-10.292-9.607-12.569-21.5-9.467-34.813 1.999-8.572 6.786-15.084 14.698-18.941 7.504-3.658 19.895-4.867 27.096 2.211.656.647 1.183 1.425 2.21 2.675zm-12.54 10.996c-6.891-.014-11.994 4.959-12.021 11.709-.026 7.051 5.166 12.521 11.875 12.559 7.02.037 12.256-5.166 12.037-12.484-.21-6.974-4.88-11.771-11.891-11.784zm-29.268-92.513c-.335-8.555-.578-17.115-1.057-25.662-.16-2.859-.777-5.72-1.452-8.515-.453-1.875.382-2.782 1.888-3.032 6.453-1.073 12.922-2.064 19.41-2.896.619-.08 1.754 1.032 2.039 1.813.469 1.279.526 2.736.592 4.126.09 1.878.798 2.073 2.316 1.181 3.301-1.938 6.532-4.061 10.012-5.618 8.881-3.979 22.543-.758 25.855 9.2.432 1.298.59 2.739.6 4.117.057 7.615-.018 15.232.041 22.849.052 6.821.236 13.641.324 20.462.041 3.144-.48 3.639-3.634 3.646-4.989.012-9.979.018-14.97.001-3.818-.013-4.566-.749-4.531-4.673.082-9.098.252-18.196.307-27.295.01-1.821-.16-3.685-.551-5.461-.901-4.081-4.462-5.927-8.439-4.538-5.035 1.757-6.617 4.029-6.604 9.342.022 9.805-.017 19.609.044 29.414.014 2.344-.896 3.296-3.281 3.246-5.162-.107-10.33-.007-15.494-.046-2.832-.021-3.73-.991-3.73-3.791V93.006l.315-.011zm-36.158 23.136c-10.972.433-20.15-3.009-27.23-11.519a26.564 26.564 0 0 1-5.963-13.501c-1.426-10.319-.458-20.236 6.262-28.878 4.737-6.093 10.961-9.552 18.491-10.796 12.71-2.102 23.625 2.813 30.384 13.804 3.399 5.526 4.691 11.601 3.973 18.062-.336 3.018-2.354 4.815-5.369 5.074-10.191.875-20.377 1.813-30.571 2.664-2.1.176-2.411 1.4-1.11 2.45 2.181 1.761 4.582 3.693 7.198 4.381 5.817 1.528 11.452.287 16.565-2.957 4.376-2.775 4.418-2.821 6.981 1.73 1.323 2.35 2.224 4.951 3.669 7.213 1.619 2.535.42 4.038-1.392 5.535-6.404 5.29-13.881 7.074-21.888 6.738zm-9.539-37.449c.611 0 1.231.069 1.832-.011 3.201-.426 6.385-1.011 9.598-1.296 2.098-.187 2.191-1.3 1.81-2.85-.854-3.465-4.54-6.521-8.131-6.773-3.41-.239-6.887 2.172-8.229 5.708-1.521 3.998-.755 5.29 3.12 5.222zm-48.422 62.699c3.238 0 6.478.074 9.712-.025 2.282-.072 2.892 1.086 2.796 3.092-.491 10.199-1.157 20.395-1.384 30.6-.313 14.07-.309 28.148-.388 42.225-.015 2.615.184 5.234.354 7.85.123 1.912-.613 3.111-2.594 3.148-5.682.104-11.367.234-17.047.127-2.221-.041-2.91-1.617-2.89-3.84.188-20.377.401-40.756.337-61.133-.019-6.002-.787-12.012-1.418-17.996-.391-3.705-.244-4.045 3.598-4.039 2.975.006 5.949.002 8.924.002v-.011zm-46.553 62.039c0-7.176.113-14.354-.051-21.525-.074-3.207-.635-6.412-1.104-9.602-.334-2.264.402-3.404 2.775-3.186 1.645.152 3.285.529 4.925.514 4.257-.041 8.524-.092 12.763-.432 3.018-.242 3.765.402 3.426 3.408-.321 2.863-.469 5.754-.53 8.637-.216 10.135-.423 20.273-.504 30.41-.034 4.273.183 8.553.427 12.822.145 2.492-.666 3.828-3.334 3.816-4.982-.025-9.972.197-14.946.014-3.877-.143-3.861-.348-3.858-4.137.006-6.914.002-13.826.002-20.74a.028.028 0 0 0 .009.001zm11.426-39.027c-7.5.021-12.729-4.459-12.693-10.877.033-5.908 5.479-10.66 12.239-10.682 6.694-.02 11.999 4.738 12.054 10.811.059 6.734-4.251 10.726-11.6 10.748z"/></svg>