<svg xmlns="http://www.w3.org/2000/svg" width="684.913" height="418.771" xml:space="preserve"><path fill-rule="evenodd" clip-rule="evenodd" d="M684.913 91.708c-2.17 10.71-3.599 21.635-6.63 32.096-18.161 62.676-60.389 100.428-122.656 116.835-19.667 5.182-39.714 7.937-60.136 8.312-26.458.485-50.589-6.506-72.756-20.745-3.919-2.518-7.991-4.804-11.841-7.42-24.936-16.938-52.146-20.118-80.668-12.382-23.376 6.341-46.319 14.283-69.709 20.564-16.647 4.47-33.735 7.289-50.587 11.022-2.81.622-5.784 1.661-8.06 3.347a44.845 44.845 0 0 1-54.665-.92c-1.453-1.153-3.901-1.867-5.722-1.611-15.466 2.166-30.894 4.605-47.083 7.077 4.244 8.156 8.255 15.879 12.279 23.595 16.679 31.976 33.278 63.994 50.131 95.878 2.612 4.942 2.549 9.456.511 14.269-2.97 7.012-8.26 12.021-14.428 16.16-14.898 9.998-31.977 14.249-48.95 19.114-17.242 4.943-32.822-.96-48.625-5.57-12.645-3.689-24.772-8.944-34.758-17.888-3.162-2.832-5.875-6.378-8.066-10.033-3.244-5.415-3.367-10.775-.108-16.865 19.37-36.194 38.338-72.605 57.433-108.946.683-1.3 1.284-2.642 2.262-4.664l-26.297 3.879-.167-.876c8.141-2.146 16.252-4.419 24.437-6.385 3.725-.895 6.357-2.559 6.967-5.899l-8.845-13.962c-16.903 2.021-30.096-5.086-39.023-21.392 15.783-5.895 29.732-5.038 41.752 7.688 7.027-10.235 16.152-13.709 28.053-9.274 2.85-10.615 7.778-19.609 17.469-25.189 7.383-4.252 15.328-6.08 23.79-5.697 2.722 17.171-10.384 34.725-31.116 41.715 2.086 7.65 1.779 15.06-3.508 21.637.619.192.962.432 1.225.362 13.954-3.692 27.9-7.412 42.172-11.215-1.238-14.839 5.541-25.476 17.919-32.497 13.363-7.579 27.435-8.618 41.63-2.144 7.401 3.376 12.796 8.778 15.646 16.624.495 1.361 2.225 3.13 3.5 3.229 32.374 2.512 63.243-2.333 90.271-21.5 35.978-25.512 57.358-60.44 63.888-104.119 1.609-10.771 1.856-21.745 2.72-32.496 12.744 6.193 21.913 17.027 19.17 27.944 10.665-9.756 18.96-19.429 19.846-33.704l1.815-.294 11.442 29.154c10.099-22.583 14.031-46.87 12.947-72.183 12.637 4.297 22.124 17.075 20.328 27.004 8.28-3.917 16.072-16.597 20.139-33.345 7.778 13.611 13.952 26.867 11.226 42.388-1.257 7.147-5.995 12.088-12.467 15.482 16.267 4.527 34.871-5.06 40.133-20.538 6.783 8.315 9.604 29.085 4.146 38.03-2.517 4.125-7.237 6.968-11.161 10.141-1.296 1.048-3.226 1.313-5.186 2.056 14.075 6.017 28.517.684 41.124-14.827 7.063 19.355-2.707 46.939-20.283 57.258 5.18 1.05 17.328-1.404 27.645-6.681 8.679-4.439 16.837-9.894 26.156-15.453l-16.134 33.274c14.226-2.779 27.485-4.684 40.373-8.024 31.671-8.208 58.647-23.999 78.25-50.935.171-.235.556-.314.841-.466l-.001 10.005z"/><path fill-rule="evenodd" clip-rule="evenodd" d="M348.043 274.836c-1.108 22.826-8.074 42.722-22.497 59.332-11.518 13.265-26.644 17.665-43.801 13.15-3.739-.985-4.301.586-5.001 3.28-4.35 16.732-11.124 32.348-21.796 46.071-4.65 5.98-10.046 11.131-17.669 13.206-10.329 2.814-19.398-1.67-23.543-11.532-3.746-8.914-3.891-18.355-2.636-27.534 4.749-34.736 16.151-67.147 36.701-95.795 12.504-17.434 27.882-31.974 48.884-38.614 6.626-2.096 14.2-2.889 21.092-2.104 16.277 1.855 26.408 12.603 28.985 28.963.645 4.096.922 8.25 1.281 11.577zm-27.219 5.395c0-2.333.152-4.677-.025-6.996-1.099-14.421-10.37-20.352-23.844-15.254-1.856.702-3.836 1.437-5.329 2.675-6.504 5.397-13.494 10.4-19.137 16.61-21.038 23.154-34.418 50.347-40.643 80.996-1.382 6.809-2.425 13.724-2.958 20.642-.15 1.938 1.668 5.197 3.318 5.783 1.679.596 5.065-.736 6.291-2.317 2.913-3.761 5.388-7.99 7.339-12.345 9.207-20.544 13.692-42.366 15.705-64.6.733-8.102 4.122-13.007 10.916-16.142 2.578-1.189 6.189-2.88 8.131-1.919 1.847.913 2.187 4.97 3.063 7.685.244.756.101 1.66.031 2.487-.825 9.777-1.536 19.568-2.562 29.325-.567 5.397-.121 6.133 5.379 6.027 6.383-.123 11.515-3.085 15.923-7.335 12.826-12.357 18.328-27.773 18.402-45.322zm200.474 90.536c-7.951 7.175-17.563 8.876-27.852 8.125-8.574-.627-10.686-1.976-15.032-9.36-12.093 12.73-32.597 13.394-45.126 1.341-7.975 7.638-17.944 8.796-28.309 8.293-6.536-.317-12.119-2.46-14.31-9.581-10.213 10.589-22.617 11.629-35.665 8.674-7.461-1.69-12.516-9.977-10.591-17.451 3.641-14.146 7.818-28.158 12.058-42.139 1.454-4.794 12.613-7.308 15.813-3.415 1.387 1.687 1.432 5.382.709 7.744-3.544 11.576-7.757 22.948-11.267 34.535-1.009 3.33-1.595 9.733-.421 10.245 4.104 1.79 9.27 2.705 13.634 1.871 3.929-.751 7.352-4.212 10.962-6.531 1.42-.913 2.746-1.974 4.607-3.324 3.919-24.454 11.066-48.959 20.321-72.852 1.404-3.622 3.757-7.034 6.286-10.022 2.949-3.484 7.202-4.355 11.372-2.458 4.585 2.086 6.112 6.584 4.995 10.938-1.427 5.558-3.269 11.4-6.489 16.038-12.706 18.296-16.182 39.797-21.954 60.5-1.492 5.352.314 7.283 5.871 7.913 11.637 1.316 19.983-4.792 23.042-16.135 3.153-11.694 6.755-23.271 10.364-34.837 1.554-4.981 12.779-7.777 16.03-3.755 1.372 1.698 1.378 5.386.647 7.75-3.624 11.725-7.875 23.256-11.501 34.98-.948 3.07-1.735 8.631-.364 9.492 3.345 2.102 8.332 3.518 12.039 2.629 4.757-1.141 8.922-4.783 13.308-7.404 1.299-.775 2.484-1.74 4.059-2.858 3.931-24.911 11.373-49.515 20.505-73.636 1.101-2.903 2.85-5.671 4.774-8.129 3.264-4.168 8.979-5.591 12.969-3.677 3.727 1.787 6.227 7.1 4.577 12.123-1.9 5.785-4.065 11.739-7.424 16.742-12.104 18.028-15.389 39.049-20.933 59.297-1.274 4.655.73 6.476 5.671 7.335 7.666 1.333 13.776-1.896 18.934-6.85 1.609-1.547 1.837-4.81 2.178-7.357 2.129-15.932 9.659-28.17 24.266-35.449 3.069-1.529 6.549-2.451 9.945-3.043 3.098-.541 6.131.052 6.292 4.277 9.978-1.562 14.426 2.123 14.567 12.094.173 12.243-3.915 23.218-10.571 33.241-9.65 14.532-31.435 16.905-42.986 4.086zm37.019-47.838c-11.013 10.076-19.451 21.518-22.517 36.216-.712 3.419-1.305 7.114 2.366 9.433 3.768 2.38 7.367 1.024 10.73-1.084 1.247-.782 2.741-1.723 3.299-2.962 3.303-7.331 6.408-14.753 9.436-22.202.298-.732-.063-2.187-.651-2.755-5.077-4.902-4.674-10.554-2.663-16.646zM367.86 285.097c-.032-7.023 3.896-11.552 10.131-11.678 5.182-.104 8.623 3.077 8.72 8.063.114 5.926-5.118 11.642-10.645 11.628-4.819-.012-8.184-3.297-8.206-8.013z"/><path fill-rule="evenodd" clip-rule="evenodd" d="M466.035 273.287c5.26-.015 8.671 3.12 8.753 8.044.099 5.898-5.162 11.553-10.718 11.522-4.896-.027-8.182-3.226-8.189-7.97-.011-6.968 4.027-11.579 10.154-11.596z"/></svg>