<?xml version="1.0" encoding="utf-8"?>
<!-- Generator: Adobe Illustrator 16.0.0, SVG Export Plug-In . SVG Version: 6.00 Build 0)  -->
<!DOCTYPE svg PUBLIC "-//W3C//DTD SVG 1.1//EN" "http://www.w3.org/Graphics/SVG/1.1/DTD/svg11.dtd">
<svg version="1.1" id="Layer_1" xmlns="http://www.w3.org/2000/svg" xmlns:xlink="http://www.w3.org/1999/xlink" x="0px" y="0px"
	 width="563.208px" height="225.189px" viewBox="0 0 563.208 225.189" enable-background="new 0 0 563.208 225.189"
	 xml:space="preserve">
<path fill-rule="evenodd" clip-rule="evenodd" d="M336.063,225.189c-3.322-4.679-6.623-9.371-9.97-14.031
	c-3.73-5.194-7.532-10.337-11.216-15.563c-0.486-0.689-0.702-1.77-0.619-2.628c0.887-9.258,1.842-18.51,2.813-27.759
	c0.969-9.249,1.987-18.492,2.96-27.74c0.966-9.183,1.888-18.371,2.853-27.555c0.971-9.248,1.978-18.492,2.953-27.739
	c0.962-9.121,1.903-18.242,2.855-27.363c0.711-6.808,1.371-13.622,2.175-20.418c0.205-1.728,0.029-2.948-1.389-4.225
	c-4.942-4.452-8.696-9.714-9.928-16.43c-0.639-3.484-0.387-6.934,0.696-10.323c0.346-1.081,0.932-1.462,2.112-1.456
	c9.508,0.053,19.017,0.059,28.524-0.005c1.253-0.009,1.667,0.515,2,1.545c2.377,7.358,0.714,14.061-3.542,20.182
	c-1.792,2.577-4.182,4.732-6.217,7.148c-0.475,0.563-0.926,1.436-0.861,2.116c0.804,8.42,1.707,16.833,2.582,25.246
	c0.823,7.901,1.643,15.802,2.467,23.703c0.965,9.249,1.936,18.497,2.903,27.745c0.847,8.093,1.688,16.186,2.543,24.277
	c0.984,9.311,1.987,18.621,2.969,27.933c0.955,9.056,1.646,18.148,2.949,27.152c0.616,4.262-0.673,7.283-3.173,10.515
	c-6.519,8.43-12.723,17.101-19.052,25.675C336.322,225.189,336.192,225.189,336.063,225.189z"/>
<path fill-rule="evenodd" clip-rule="evenodd" d="M459.76,0.969c3.845,0,7.253,0,10.829,0c0,17.199,0,34.419,0,51.851
	c-3.851,0-7.711,0.04-11.57-0.054c-0.448-0.011-1.031-0.679-1.295-1.177c-6.293-11.918-12.549-23.855-18.816-35.785
	c-0.107-0.206-0.278-0.377-0.509-0.683c0,12.612,0,25.038,0,37.585c-3.41,0-6.862,0-10.396,0c0-17.264,0-34.435,0-51.834
	c4.372,0,8.625-0.052,12.872,0.065c0.535,0.015,1.21,0.832,1.542,1.431c6.276,11.321,13.277,22.263,18.014,34.398
	C460.208,24.887,459.986,13.051,459.76,0.969z"/>
<path fill-rule="evenodd" clip-rule="evenodd" d="M204.349,122.135c0-16.974,0-33.846,0-50.971c1.927-0.234,3.816-0.563,5.718-0.674
	c7.482-0.439,14.986-0.979,22.357,0.95c11.032,2.888,17.469,10.917,17.572,22.313c0.033,3.7-0.367,7.511-1.285,11.088
	c-2.041,7.963-7.327,13.111-15.045,15.885C225.77,123.563,212.77,123.622,204.349,122.135z M216.156,113.645
	c4.849,0.365,9.335,0.184,13.601-1.986c9.193-4.677,9.387-19.948,5.269-26.173c-3.47-5.247-11.328-7.471-18.869-5.688
	C216.156,90.997,216.156,102.214,216.156,113.645z"/>
<path fill-rule="evenodd" clip-rule="evenodd" d="M461.852,96.089c-0.754,3.708-1.173,7.526-2.329,11.104
	c-2.617,8.105-8.245,13.313-16.55,15.288c-8.174,1.942-15.944,1.045-22.684-4.455c-4.771-3.895-7.29-9.14-8.308-15.104
	c-1.407-8.251-0.423-16.147,4.476-23.142c5.465-7.802,13.3-10.75,22.568-10.073C453.595,70.772,461.362,82.236,461.852,96.089z
	 M423.838,96.754c0.13,4.722,1.223,8.883,3.063,11.75c4.766,7.428,14.852,7.432,19.083-0.303c4.204-7.686,4.257-15.803-0.084-23.476
	c-4.459-7.883-14.689-7.64-19.237,0.207C424.526,88.618,424.036,92.702,423.838,96.754z"/>
<path fill-rule="evenodd" clip-rule="evenodd" d="M392.288,53.71c-11.484,0.358-20.987-9.018-22.509-22.195
	c-0.621-5.374-0.22-10.609,1.723-15.625c3.49-9.01,10.059-14.411,19.695-15.639c11.608-1.478,22.184,3.52,26.464,15.392
	c1.42,3.941,1.985,8.019,1.796,12.181c-0.273,5.97-1.614,11.647-5.289,16.521C409.141,51.01,402.213,53.661,392.288,53.71z
	 M394.501,44.346c4.812-0.083,8.178-2.478,10.122-6.648c3.119-6.698,3.347-13.652,0.431-20.438c-0.971-2.261-2.721-4.486-4.69-5.96
	c-5.021-3.756-12.141-2.075-15.317,3.657c-4.262,7.689-4.271,15.692-0.282,23.514C386.723,42.313,390.145,44.273,394.501,44.346z"/>
<path fill-rule="evenodd" clip-rule="evenodd" d="M138.182,25.278c-0.054,9.391-1.876,16.423-7.484,22.039
	c-5.443,5.45-12.231,7.167-19.68,6.799C97.162,53.433,89.1,42.793,88.383,30.151c-0.417-7.357,0.842-14.313,5.448-20.294
	c5.766-7.487,13.618-10.102,22.775-9.238C130.92,1.967,138.514,13.979,138.182,25.278z M125.722,27.267
	c-0.012-4.263-0.763-8.342-3.097-12.001c-4.54-7.119-13.754-7.312-18.558-0.401c-4.376,6.295-4.415,18.603-0.079,24.896
	c4.728,6.863,14.125,6.718,18.632-0.292C125.01,35.75,125.675,31.587,125.722,27.267z"/>
<path fill-rule="evenodd" clip-rule="evenodd" d="M84.296,53.256c-3.786,0-7.519,0.048-11.246-0.063
	c-0.45-0.013-1.111-0.817-1.273-1.373c-1.132-3.893-2.153-7.818-3.221-11.729c-0.898-3.291-2.122-6.393-6.043-6.964
	c-1.754-0.256-3.575-0.043-5.554-0.043c0,6.716,0,13.343,0,20.074c-3.911,0-7.635,0-11.5,0c0-16.961,0-33.93,0-51.285
	c3.291-0.271,6.667-0.805,10.037-0.766c5.141,0.061,10.354,0.061,15.396,0.918c7.063,1.203,10.696,5.45,11.583,12.178
	c0.771,5.846-2.273,11.084-8.262,14.23c-0.166,0.087-0.303,0.228-0.621,0.471c4.598,2.436,5.936,6.822,7.116,11.34
	C81.828,44.538,83.062,48.801,84.296,53.256z M57.053,24.621c2.739-0.213,5.4-0.171,7.952-0.679
	c3.556-0.708,5.681-3.416,5.856-6.793c0.162-3.135-1.628-5.816-4.704-6.795c-3.011-0.958-6.063-0.811-9.104-0.156
	C57.053,14.984,57.053,19.615,57.053,24.621z"/>
<path fill-rule="evenodd" clip-rule="evenodd" d="M481.454,102.126c0,6.835,0,13.417,0,20.188c-3.85,0-7.558,0-11.46,0
	c0-16.95,0-33.967,0-51.138c6.128-1.015,12.307-1.299,18.486-0.955c3.059,0.171,6.177,0.663,9.105,1.55
	c5.354,1.619,8.593,5.354,9.253,11.004c0.729,6.267-1.584,11.108-7.114,14.304c-0.553,0.32-1.128,0.603-1.813,0.966
	c3.497,1.704,5.302,4.618,6.308,8.074c1.559,5.363,3.023,10.753,4.595,16.368c-3.816,0-7.49,0.049-11.156-0.063
	c-0.463-0.015-1.142-0.798-1.312-1.352c-1.088-3.57-2.063-7.174-3.072-10.769c-0.227-0.805-0.412-1.624-0.672-2.419
	c-1.43-4.358-3.379-5.757-7.986-5.76C483.649,102.126,482.684,102.126,481.454,102.126z M481.583,79.221c0,4.911,0,9.592,0,14.741
	c3.188-0.423,6.252-0.512,9.123-1.295c3.305-0.903,4.875-3.996,4.516-7.653c-0.292-2.988-2.362-5.336-5.642-5.729
	C486.994,78.974,484.339,79.221,481.583,79.221z"/>
<path fill-rule="evenodd" clip-rule="evenodd" d="M523.793,52.826c-3.957,0-7.705,0.049-11.448-0.056
	c-0.529-0.015-1.332-0.683-1.509-1.214c-1.131-3.423-2.175-6.878-3.131-10.354c-0.323-1.177-0.775-1.679-2.079-1.648
	c-3.876,0.09-7.757,0.076-11.635,0.005c-1.193-0.021-1.664,0.362-1.963,1.534c-0.984,3.863-2.118,7.688-3.221,11.623
	c-4.019,0-8.007,0-12.21,0c1.319-4.385,2.614-8.733,3.937-13.073c3.732-12.257,7.511-24.5,11.175-36.778
	c0.479-1.608,1.192-2.084,2.812-2.035c3.941,0.118,7.889,0.079,11.831,0.012c1.088-0.018,1.608,0.323,1.927,1.362
	c5.083,16.558,10.196,33.106,15.3,49.658C523.653,52.101,523.689,52.353,523.793,52.826z M494.302,30.602c3.77,0,7.355,0,11.091,0
	c-1.921-6.812-3.802-13.48-5.748-20.377C497.833,17.137,496.088,23.788,494.302,30.602z"/>
<path fill-rule="evenodd" clip-rule="evenodd" d="M149.853,122.504c2.223-7.277,4.291-14.047,6.359-20.817
	c2.993-9.798,6.02-19.586,8.937-29.407c0.41-1.379,0.973-1.84,2.391-1.807c3.943,0.091,7.892,0.076,11.836,0.006
	c1.287-0.023,1.917,0.306,2.328,1.649c5.012,16.388,10.101,32.754,15.165,49.126c0.092,0.298,0.134,0.611,0.264,1.225
	c-4.047,0-7.963,0.037-11.876-0.059c-0.379-0.01-0.916-0.78-1.08-1.293c-1.091-3.438-2.144-6.891-3.116-10.364
	c-0.328-1.176-0.831-1.662-2.127-1.631c-3.813,0.092-7.635,0.115-11.447-0.01c-1.429-0.047-1.89,0.534-2.204,1.756
	c-0.851,3.306-1.853,6.572-2.677,9.885c-0.314,1.265-0.797,1.818-2.201,1.775C157,122.432,153.59,122.504,149.853,122.504z
	 M172.983,79.79c-1.824,6.985-3.562,13.642-5.308,20.326c3.762,0,7.339,0,11.029,0C176.804,93.363,174.945,86.758,172.983,79.79z"/>
<path fill-rule="evenodd" clip-rule="evenodd" d="M217.523,31.336c-6.379,0-12.571,0-18.845,0c0,4.102,0,8.028,0,12.145
	c7,0,13.956,0,21.088,0c0,3.3,0,6.417,0,9.661c-10.899,0-21.792,0-32.819,0c0-17.237,0-34.408,0-51.734c10.552,0,21.058,0,31.721,0
	c0,3.069,0,6.189,0,9.541c-6.627,0-13.249,0-19.956,0c0,3.681,0,7.133,0,10.743c6.303,0,12.49,0,18.81,0
	C217.523,24.911,217.523,27.974,217.523,31.336z"/>
<path fill-rule="evenodd" clip-rule="evenodd" d="M301.849,70.505c-1.613,4.819-3.115,9.327-4.631,13.831
	c-4.092,12.156-8.21,24.304-12.254,36.478c-0.413,1.242-0.917,1.762-2.281,1.724c-3.491-0.097-6.987-0.074-10.479-0.009
	c-1.146,0.021-1.732-0.335-2.088-1.456c-5.213-16.46-10.463-32.91-15.7-49.362c-0.095-0.295-0.152-0.602-0.297-1.187
	c4.133,0,8.12-0.031,12.105,0.051c0.37,0.008,0.935,0.667,1.06,1.122c3.417,12.424,6.788,24.86,10.172,37.294
	c0.13,0.478,0.3,0.945,0.338,1.063c3.599-12.397,7.29-25.003,10.881-37.638c0.442-1.557,1.133-1.998,2.677-1.946
	C294.757,70.584,298.168,70.505,301.849,70.505z"/>
<path fill-rule="evenodd" clip-rule="evenodd" d="M11.554,35.43c0,5.578,0,11.571,0,17.699c-3.917,0-7.685,0-11.554,0
	C0,36.147,0,19.22,0,1.865C3.308,1.603,6.68,1.12,10.051,1.125c4.697,0.007,9.479-0.11,14.07,0.706
	c7.906,1.404,12.866,7.196,13.028,14.192c0.217,9.296-3.972,15.563-12.445,17.671C20.506,34.739,16.081,34.864,11.554,35.43z
	 M11.601,25.559c3.182,0.458,6.184,0.545,9.082-0.676c3.196-1.346,5.02-4.352,4.819-7.881c-0.191-3.352-2.115-5.741-5.484-6.674
	c-2.785-0.771-5.578-0.635-8.417,0.052C11.601,15.441,11.601,20.401,11.601,25.559z"/>
<path fill-rule="evenodd" clip-rule="evenodd" d="M256.146,11.967c-4.01-0.651-7.652-1.434-11.336-1.751
	c-1.567-0.135-3.36,0.428-4.802,1.163c-3.057,1.558-3.352,5.409-0.464,7.266c2.466,1.585,5.322,2.551,7.953,3.897
	c2.742,1.404,5.725,2.563,8.069,4.481c8.247,6.75,6.497,19.788-3.376,24.447c-8.605,4.06-17.454,3.258-26.16-0.06
	c-0.4-0.153-0.936-0.867-0.863-1.197c0.672-3.003,1.465-5.979,2.242-9.041c4.612,2.16,9.24,3.502,14.191,3.116
	c1.443-0.113,2.971-0.46,4.248-1.116c3.423-1.758,3.844-6.063,0.693-8.268c-2.078-1.454-4.518-2.444-6.888-3.417
	c-3.788-1.554-7.564-3.133-10.368-6.229c-6.416-7.083-4.199-17.963,4.73-22.315c7.703-3.754,15.654-3.13,23.516-0.257
	c0.399,0.146,0.896,0.99,0.801,1.374C257.639,6.868,256.805,9.64,256.146,11.967z"/>
<path fill-rule="evenodd" clip-rule="evenodd" d="M298.068,11.993c-3.878-0.646-7.518-1.442-11.2-1.779
	c-1.57-0.145-3.366,0.386-4.819,1.1c-3.186,1.563-3.514,5.455-0.53,7.365c2.469,1.58,5.332,2.533,7.96,3.88
	c2.741,1.406,5.725,2.574,8.057,4.505c8.475,7.016,6.232,20.386-4.168,24.775c-8.398,3.545-16.916,2.793-25.296-0.365
	c-0.442-0.167-1.037-0.951-0.957-1.316c0.64-2.954,1.425-5.876,2.204-8.962c4.493,2.041,9.021,3.442,13.881,3.112
	c1.455-0.099,2.99-0.357,4.302-0.955c3.633-1.655,4.178-6.201,0.921-8.488c-2.025-1.423-4.395-2.419-6.715-3.343
	c-3.808-1.517-7.511-3.162-10.42-6.151c-6.172-6.342-4.684-18.248,5.049-22.631c7.611-3.428,15.33-2.846,23.004-0.119
	c0.431,0.153,1.016,0.954,0.93,1.308C299.572,6.794,298.732,9.625,298.068,11.993z"/>
<path fill-rule="evenodd" clip-rule="evenodd" d="M403.613,72.303c-0.893,3.188-1.736,6.206-2.54,9.079
	c-3.025-0.683-5.862-1.537-8.759-1.897c-1.93-0.24-3.986,0.036-5.915,0.428c-1.932,0.391-3.381,1.636-3.736,3.735
	c-0.381,2.243,0.817,3.802,2.615,4.757c2.327,1.234,4.775,2.256,7.221,3.243c3.438,1.388,6.718,3.002,9.388,5.65
	c5.909,5.86,5.24,18.365-4.344,23.203c-5.664,2.858-11.672,3.133-17.754,2.363c-2.848-0.36-5.617-1.369-8.418-2.102
	c-0.921-0.241-1.43-0.725-1.143-1.816c0.732-2.793,1.395-5.604,2.056-8.287c3.065,0.865,5.981,2.018,9,2.441
	c2.686,0.377,5.525,0.212,8.22-0.209c2.119-0.332,3.693-1.834,4.008-4.191c0.309-2.315-0.654-4.104-2.63-5.186
	c-2.025-1.109-4.218-1.912-6.286-2.949c-2.87-1.441-5.997-2.589-8.482-4.54c-8.176-6.418-7.019-18.308,2.076-23.501
	c4.359-2.489,9.123-3.166,14.023-2.884C396.075,69.862,399.897,70.473,403.613,72.303z"/>
<path fill-rule="evenodd" clip-rule="evenodd" d="M158.369,53.188c-4.05,0-7.775,0-11.618,0c0-17.294,0-34.511,0-51.831
	c10.52,0,20.956,0,31.524,0c0,3.155,0,6.223,0,9.523c-6.55,0-13.103,0-19.805,0c0,4.006,0,7.783,0,11.833c6.067,0,12.164,0,18.369,0
	c0,3.278,0,6.29,0,9.56c-6.1,0-12.194,0-18.47,0C158.369,39.347,158.369,46.169,158.369,53.188z"/>
<path fill-rule="evenodd" clip-rule="evenodd" d="M542.609,42.937c6.958,0,13.715,0,20.599,0c0,3.385,0,6.523,0,9.803
	c-10.667,0-21.313,0-32.113,0c0-17.166,0-34.392,0-51.746c3.766,0,7.537,0,11.515,0C542.609,14.945,542.609,28.818,542.609,42.937z"
	/>
</svg>
