<svg xmlns="http://www.w3.org/2000/svg" width="563.208" height="225.189" xml:space="preserve"><path fill-rule="evenodd" clip-rule="evenodd" d="M336.063 225.189c-3.322-4.679-6.623-9.371-9.97-14.031-3.73-5.194-7.532-10.337-11.216-15.563-.486-.689-.702-1.77-.619-2.628.887-9.258 1.842-18.51 2.813-27.759.969-9.249 1.987-18.492 2.96-27.74.966-9.183 1.888-18.371 2.853-27.555.971-9.248 1.978-18.492 2.953-27.739.962-9.121 1.903-18.242 2.855-27.363.711-6.808 1.371-13.622 2.175-20.418.205-1.728.029-2.948-1.389-4.225-4.942-4.452-8.696-9.714-9.928-16.43-.639-3.484-.387-6.934.696-10.323.346-1.081.932-1.462 2.112-1.456 9.508.053 19.017.059 28.524-.005 1.253-.009 1.667.515 2 1.545 2.377 7.358.714 14.061-3.542 20.182-1.792 2.577-4.182 4.732-6.217 7.148-.475.563-.926 1.436-.861 2.116.804 8.42 1.707 16.833 2.582 25.246.823 7.901 1.643 15.802 2.467 23.703.965 9.249 1.936 18.497 2.903 27.745.847 8.093 1.688 16.186 2.543 24.277.984 9.311 1.987 18.621 2.969 27.933.955 9.056 1.646 18.148 2.949 27.152.616 4.262-.673 7.283-3.173 10.515-6.519 8.43-12.723 17.101-19.052 25.675-.128-.002-.258-.002-.387-.002zM459.76.969h10.829V52.82c-3.851 0-7.711.04-11.57-.054-.448-.011-1.031-.679-1.295-1.177-6.293-11.918-12.549-23.855-18.816-35.785-.107-.206-.278-.377-.509-.683v37.585h-10.396V.872c4.372 0 8.625-.052 12.872.065.535.015 1.21.832 1.542 1.431 6.276 11.321 13.277 22.263 18.014 34.398L459.76.969zM204.349 122.135V71.164c1.927-.234 3.816-.563 5.718-.674 7.482-.439 14.986-.979 22.357.95 11.032 2.888 17.469 10.917 17.572 22.313.033 3.7-.367 7.511-1.285 11.088-2.041 7.963-7.327 13.111-15.045 15.885-7.896 2.837-20.896 2.896-29.317 1.409zm11.807-8.49c4.849.365 9.335.184 13.601-1.986 9.193-4.677 9.387-19.948 5.269-26.173-3.47-5.247-11.328-7.471-18.869-5.688l-.001 33.847zm245.696-17.556c-.754 3.708-1.173 7.526-2.329 11.104-2.617 8.105-8.245 13.313-16.55 15.288-8.174 1.942-15.944 1.045-22.684-4.455-4.771-3.895-7.29-9.14-8.308-15.104-1.407-8.251-.423-16.147 4.476-23.142 5.465-7.802 13.3-10.75 22.568-10.073 14.57 1.065 22.337 12.529 22.827 26.382zm-38.014.665c.13 4.722 1.223 8.883 3.063 11.75 4.766 7.428 14.852 7.432 19.083-.303 4.204-7.686 4.257-15.803-.084-23.476-4.459-7.883-14.689-7.64-19.237.207-2.137 3.686-2.627 7.77-2.825 11.822zm-31.55-43.044c-11.484.358-20.987-9.018-22.509-22.195-.621-5.374-.22-10.609 1.723-15.625 3.49-9.01 10.059-14.411 19.695-15.639 11.608-1.478 22.184 3.52 26.464 15.392 1.42 3.941 1.985 8.019 1.796 12.181-.273 5.97-1.614 11.647-5.289 16.521-5.027 6.665-11.955 9.316-21.88 9.365zm2.213-9.364c4.812-.083 8.178-2.478 10.122-6.648 3.119-6.698 3.347-13.652.431-20.438-.971-2.261-2.721-4.486-4.69-5.96-5.021-3.756-12.141-2.075-15.317 3.657-4.262 7.689-4.271 15.692-.282 23.514 1.958 3.842 5.38 5.802 9.736 5.875zM138.182 25.278c-.054 9.391-1.876 16.423-7.484 22.039-5.443 5.45-12.231 7.167-19.68 6.799-13.856-.683-21.918-11.323-22.635-23.965-.417-7.357.842-14.313 5.448-20.294C99.597 2.37 107.449-.245 116.606.619c14.314 1.348 21.908 13.36 21.576 24.659zm-12.46 1.989c-.012-4.263-.763-8.342-3.097-12.001-4.54-7.119-13.754-7.312-18.558-.401-4.376 6.295-4.415 18.603-.079 24.896 4.728 6.863 14.125 6.718 18.632-.292 2.39-3.719 3.055-7.882 3.102-12.202zM84.296 53.256c-3.786 0-7.519.048-11.246-.063-.45-.013-1.111-.817-1.273-1.373-1.132-3.893-2.153-7.818-3.221-11.729-.898-3.291-2.122-6.393-6.043-6.964-1.754-.256-3.575-.043-5.554-.043v20.074h-11.5V1.873c3.291-.271 6.667-.805 10.037-.766 5.141.061 10.354.061 15.396.918 7.063 1.203 10.696 5.45 11.583 12.178.771 5.846-2.273 11.084-8.262 14.23-.166.087-.303.228-.621.471 4.598 2.436 5.936 6.822 7.116 11.34 1.12 4.294 2.354 8.557 3.588 13.012zM57.053 24.621c2.739-.213 5.4-.171 7.952-.679 3.556-.708 5.681-3.416 5.856-6.793.162-3.135-1.628-5.816-4.704-6.795-3.011-.958-6.063-.811-9.104-.156v14.423zm424.401 77.505v20.188h-11.46V71.176c6.128-1.015 12.307-1.299 18.486-.955 3.059.171 6.177.663 9.105 1.55 5.354 1.619 8.593 5.354 9.253 11.004.729 6.267-1.584 11.108-7.114 14.304-.553.32-1.128.603-1.813.966 3.497 1.704 5.302 4.618 6.308 8.074 1.559 5.363 3.023 10.753 4.595 16.368-3.816 0-7.49.049-11.156-.063-.463-.015-1.142-.798-1.312-1.352-1.088-3.57-2.063-7.174-3.072-10.769-.227-.805-.412-1.624-.672-2.419-1.43-4.358-3.379-5.757-7.986-5.76-.967.002-1.932.002-3.162.002zm.129-22.905v14.741c3.188-.423 6.252-.512 9.123-1.295 3.305-.903 4.875-3.996 4.516-7.653-.292-2.988-2.362-5.336-5.642-5.729-2.586-.311-5.241-.064-7.997-.064zm42.21-26.395c-3.957 0-7.705.049-11.448-.056-.529-.015-1.332-.683-1.509-1.214a213.34 213.34 0 0 1-3.131-10.354c-.323-1.177-.775-1.679-2.079-1.648-3.876.09-7.757.076-11.635.005-1.193-.021-1.664.362-1.963 1.534-.984 3.863-2.118 7.688-3.221 11.623h-12.21c1.319-4.385 2.614-8.733 3.937-13.073 3.732-12.257 7.511-24.5 11.175-36.778.479-1.608 1.192-2.084 2.812-2.035 3.941.118 7.889.079 11.831.012 1.088-.018 1.608.323 1.927 1.362 5.083 16.558 10.196 33.106 15.3 49.658.074.239.11.491.214.964zm-29.491-22.224h11.091l-5.748-20.377-5.343 20.377zm-344.449 91.902 6.359-20.817c2.993-9.798 6.02-19.586 8.937-29.407.41-1.379.973-1.84 2.391-1.807 3.943.091 7.892.076 11.836.006 1.287-.023 1.917.306 2.328 1.649 5.012 16.388 10.101 32.754 15.165 49.126.092.298.134.611.264 1.225-4.047 0-7.963.037-11.876-.059-.379-.01-.916-.78-1.08-1.293a314.77 314.77 0 0 1-3.116-10.364c-.328-1.176-.831-1.662-2.127-1.631-3.813.092-7.635.115-11.447-.01-1.429-.047-1.89.534-2.204 1.756-.851 3.306-1.853 6.572-2.677 9.885-.314 1.265-.797 1.818-2.201 1.775-3.405-.106-6.815-.034-10.552-.034zm23.13-42.714-5.308 20.326h11.029l-5.721-20.326zm44.54-48.454h-18.845v12.145h21.088v9.661h-32.819V1.408h31.721v9.541h-19.956v10.743h18.81l.001 9.644zm84.326 39.169c-1.613 4.819-3.115 9.327-4.631 13.831-4.092 12.156-8.21 24.304-12.254 36.478-.413 1.242-.917 1.762-2.281 1.724-3.491-.097-6.987-.074-10.479-.009-1.146.021-1.732-.335-2.088-1.456-5.213-16.46-10.463-32.91-15.7-49.362-.095-.295-.152-.602-.297-1.187 4.133 0 8.12-.031 12.105.051.37.008.935.667 1.06 1.122 3.417 12.424 6.788 24.86 10.172 37.294.13.478.3.945.338 1.063 3.599-12.397 7.29-25.003 10.881-37.638.442-1.557 1.133-1.998 2.677-1.946 3.405.114 6.816.035 10.497.035zM11.554 35.43v17.699H0V1.865c3.308-.262 6.68-.745 10.051-.74 4.697.007 9.479-.11 14.07.706 7.906 1.404 12.866 7.196 13.028 14.192.217 9.296-3.972 15.563-12.445 17.671-4.198 1.045-8.623 1.17-13.15 1.736zm.047-9.871c3.182.458 6.184.545 9.082-.676 3.196-1.346 5.02-4.352 4.819-7.881-.191-3.352-2.115-5.741-5.484-6.674-2.785-.771-5.578-.635-8.417.052v15.179zm244.545-13.592c-4.01-.651-7.652-1.434-11.336-1.751-1.567-.135-3.36.428-4.802 1.163-3.057 1.558-3.352 5.409-.464 7.266 2.466 1.585 5.322 2.551 7.953 3.897 2.742 1.404 5.725 2.563 8.069 4.481 8.247 6.75 6.497 19.788-3.376 24.447-8.605 4.06-17.454 3.258-26.16-.06-.4-.153-.936-.867-.863-1.197.672-3.003 1.465-5.979 2.242-9.041 4.612 2.16 9.24 3.502 14.191 3.116 1.443-.113 2.971-.46 4.248-1.116 3.423-1.758 3.844-6.063.693-8.268-2.078-1.454-4.518-2.444-6.888-3.417-3.788-1.554-7.564-3.133-10.368-6.229-6.416-7.083-4.199-17.963 4.73-22.315 7.703-3.754 15.654-3.13 23.516-.257.399.146.896.99.801 1.374-.693 2.808-1.527 5.58-2.186 7.907zm41.922.026c-3.878-.646-7.518-1.442-11.2-1.779-1.57-.145-3.366.386-4.819 1.1-3.186 1.563-3.514 5.455-.53 7.365 2.469 1.58 5.332 2.533 7.96 3.88 2.741 1.406 5.725 2.574 8.057 4.505 8.475 7.016 6.232 20.386-4.168 24.775-8.398 3.545-16.916 2.793-25.296-.365-.442-.167-1.037-.951-.957-1.316.64-2.954 1.425-5.876 2.204-8.962 4.493 2.041 9.021 3.442 13.881 3.112 1.455-.099 2.99-.357 4.302-.955 3.633-1.655 4.178-6.201.921-8.488-2.025-1.423-4.395-2.419-6.715-3.343-3.808-1.517-7.511-3.162-10.42-6.151-6.172-6.342-4.684-18.248 5.049-22.631 7.611-3.428 15.33-2.846 23.004-.119.431.153 1.016.954.93 1.308-.699 2.865-1.539 5.696-2.203 8.064zm105.545 60.31c-.893 3.188-1.736 6.206-2.54 9.079-3.025-.683-5.862-1.537-8.759-1.897-1.93-.24-3.986.036-5.915.428-1.932.391-3.381 1.636-3.736 3.735-.381 2.243.817 3.802 2.615 4.757 2.327 1.234 4.775 2.256 7.221 3.243 3.438 1.388 6.718 3.002 9.388 5.65 5.909 5.86 5.24 18.365-4.344 23.203-5.664 2.858-11.672 3.133-17.754 2.363-2.848-.36-5.617-1.369-8.418-2.102-.921-.241-1.43-.725-1.143-1.816.732-2.793 1.395-5.604 2.056-8.287 3.065.865 5.981 2.018 9 2.441 2.686.377 5.525.212 8.22-.209 2.119-.332 3.693-1.834 4.008-4.191.309-2.315-.654-4.104-2.63-5.186-2.025-1.109-4.218-1.912-6.286-2.949-2.87-1.441-5.997-2.589-8.482-4.54-8.176-6.418-7.019-18.308 2.076-23.501 4.359-2.489 9.123-3.166 14.023-2.884 3.862.222 7.684.833 11.4 2.663zM158.369 53.188h-11.618V1.357h31.524v9.523H158.47v11.833h18.369v9.56h-18.47v20.915zm384.24-10.251h20.599v9.803h-32.113V.994h11.515l-.001 41.943z"/></svg>