<?xml version="1.0" encoding="utf-8"?>
<!-- Generator: Adobe Illustrator 16.0.0, SVG Export Plug-In . SVG Version: 6.00 Build 0)  -->
<!DOCTYPE svg PUBLIC "-//W3C//DTD SVG 1.1//EN" "http://www.w3.org/Graphics/SVG/1.1/DTD/svg11.dtd">
<svg version="1.1" id="Layer_1" xmlns="http://www.w3.org/2000/svg" xmlns:xlink="http://www.w3.org/1999/xlink" x="0px" y="0px"
	 width="463.196px" height="248.386px" viewBox="0 0 463.196 248.386" enable-background="new 0 0 463.196 248.386"
	 xml:space="preserve">
<path fill-rule="evenodd" clip-rule="evenodd" d="M230.312,227.472c0.936,4.86,1.886,9.91,2.895,14.949
	c0.271,1.352-0.683,1.483-1.527,1.788c-8.332,3.012-17,4.03-25.783,4.168c-5.95,0.094-11.834-0.588-17.522-2.473
	c-12.354-4.094-20.412-12.354-23.476-25.031c-3.317-13.725-1.651-26.798,6.512-38.611c1.984-2.872,4.599-5.308,6.838-7.849
	c-1.348-3.756-3.125-7.615-4.111-11.668c-2.641-10.852,0.697-20.131,8.635-27.653c2.323-2.202,5.522-3.583,8.501-4.943
	c1.427-0.652,1.886-1.401,1.956-2.753c0.299-5.853,0.604-11.705,0.927-17.556c0.668-12.123,1.361-24.246,2.021-36.37
	c0.675-12.407,1.322-24.815,1.979-37.224c0.123-2.321,0.236-4.642,0.336-6.594c-1.171-0.984-2.091-1.714-2.959-2.5
	c-0.958-0.867-4.658-0.746-5.34,0.212c-1.679,2.359-3.31,3.173-5.482,2.566c-1.844-0.515-3.03-1.734-3.381-3.675
	c-0.407-2.257,0.414-3.779,3.026-5.426c-1.919-1.249-3.636-2.811-3.009-5.221c0.401-1.545,1.614-2.88,2.453-4.291
	c-0.57-0.771-1.763-1.884-2.32-3.256c-0.811-1.996,0.225-4.188,2.042-5.276c1.753-1.049,3.838-0.744,5.526,0.528
	c0.952,0.718,2.157,1.099,3.634,1.82c0.098-2.139,0.164-3.586,0.234-5.132c6.525,0,12.934,0,19.621,0c0,1.421,0,2.855,0,4.776
	c0.958-0.392,1.625-0.494,2.052-0.868c2.645-2.321,5.566-2.358,7.401-0.021c1.915,2.439,1.183,5.417-1.793,7.312
	c-0.117,0.075-0.215,0.18-0.413,0.349c1.903,0.902,3.15,2.254,3.22,4.45c0.073,2.277-1.277,3.616-2.958,4.614
	c0.85,0.921,1.938,1.686,2.406,2.729c0.45,1.003,0.535,2.358,0.285,3.444c-0.405,1.76-1.704,2.909-3.554,3.203
	c-2.084,0.332-3.733-0.422-4.921-2.176c-0.938-1.387-3.277-1.699-4.437-0.595c-0.458,0.436-0.856,0.952-1.365,1.313
	c-0.446,0.317-1.008,0.469-1.598,0.729c0.331,6.444,0.639,12.857,0.993,19.268c0.502,9.092,1.05,18.182,1.556,27.274
	c0.666,11.982,1.306,23.967,1.964,35.95c0.321,5.851,0.659,11.7,0.983,17.55c0.072,1.286,1.977,3.512,3.172,3.209
	c0.869-0.22,1.787-1.317,2.144-2.233c0.497-1.278,0.574-2.746,0.674-4.143c0.104-1.45,0.023-2.913,0.023-4.646
	c4.675,1.859,7.716,5.028,9.692,9.25c2.992,6.393,2.986,13.118,1.937,19.916c-1.093,7.076-3.295,13.83-6.063,20.411
	c-0.396,0.941-0.686,1.656,0.421,2.519c7.493,5.841,11.014,13.931,12.606,23.006c1.081,6.165,1.043,12.358-0.081,18.749
	c-16.71,0-33.432,0-50.269,0c0.687,6.151,4.073,9.976,9.309,12.354c5.771,2.622,11.898,2.967,18.055,2.285
	C219.35,229.384,224.674,228.355,230.312,227.472z M210.466,152.676c-1.008-3.313-1.505-6.759-3.053-9.641
	c-3.069-5.714-10.584-5.762-13.723-0.08c-3.527,6.386-3.597,13.18,0.018,19.574c3.258,5.763,10.821,5.608,13.824-0.277
	C208.993,159.39,209.476,156.028,210.466,152.676z M186.624,198.441c9.522,0,18.873,0,28.211,0
	c0.711-8.034-4.654-14.865-11.903-15.312C194.071,182.585,186.96,189.183,186.624,198.441z M192.639,17.419
	c-3.203-0.835-2.854,3.101-5.545,3.178c4.457,2.765,4.457,2.765,6.104,2.315C193.014,21.104,192.832,19.314,192.639,17.419z
	 M192.673,13.625c0-1.834,0-3.691,0-5.519c-3.236-0.92-2.811,3.307-5.319,3.32C189.198,12.171,189.992,14.874,192.673,13.625z
	 M215.917,21.066c-0.846-1.042-1.923-2.371-3.055-3.765c-0.253,1.984-0.489,3.833-0.733,5.746
	C214.467,24.107,215,21.203,215.917,21.066z M212.761,7.505c0,2.48,0,4.353,0,6.882c1.59-1.129,2.796-1.984,3.856-2.737
	C215.441,10.386,214.298,9.158,212.761,7.505z"/>
<path fill-rule="evenodd" clip-rule="evenodd" d="M0,234.909c0-20.938,0-41.55,0-62.351c11.387-1.235,22.684-2.382,33.928,0.341
	c13.535,3.277,21.625,13.5,21.912,27.493c0.155,7.544-1.091,14.753-5.214,21.251c-4.668,7.357-11.795,10.948-19.971,12.718
	C20.523,236.555,10.313,235.95,0,234.909z M14.443,183.185c0,13.663,0,27.338,0,41.049c4.733,0.78,9.272,0.424,13.688-1.055
	c4.879-1.634,8.325-4.892,10.364-9.63c1.739-4.043,2.232-8.305,2.031-12.634C39.818,185.669,27.99,180.428,14.443,183.185z"/>
<path fill-rule="evenodd" clip-rule="evenodd" d="M131.384,235.159c-4.764,0-9.254,0-14,0c0-0.847,0-1.6,0-2.352
	c0-7.844,0.083-15.688-0.056-23.529c-0.036-2.063-0.426-4.254-1.233-6.139c-1.672-3.904-6.374-4.693-9.501-1.785
	c-1.897,1.764-2.842,3.961-2.832,6.598c0.031,8.196,0.011,16.393,0.011,24.59c0,0.773,0,1.547,0,2.518c-4.645,0-9.181,0-14.051,0
	c0-15.199,0-30.418,0-45.936c3.494,0,7.21-0.043,10.922,0.068c0.354,0.01,0.867,0.945,0.979,1.516
	c0.264,1.351,0.329,2.738,0.496,4.308c7.982-10.296,22.677-8.294,26.578,0.134c0.868-0.69,1.909-1.39,2.799-2.245
	c6.194-5.95,15.952-6.573,21.98-1.278c3.482,3.06,5.18,7.234,5.334,11.643c0.365,10.44,0.236,20.898,0.299,31.35
	c0.001,0.126-0.108,0.253-0.224,0.509c-4.432,0-8.922,0-13.746,0c0-0.834,0.004-1.657,0-2.479c-0.048-8.335-0.079-16.67-0.17-25.005
	c-0.011-1.04-0.248-2.107-0.548-3.111c-0.898-3.004-2.83-4.674-5.467-4.856c-2.773-0.192-5.455,1.311-6.567,4.072
	c-0.615,1.525-0.942,3.27-0.959,4.919C131.335,217.421,131.384,226.178,131.384,235.159z"/>
<path fill-rule="evenodd" clip-rule="evenodd" d="M137.137,175.89c-4.914,0-9.557,0-14.338,0c0-21.033,0-41.982,0-63.088
	c8.182-1.079,16.323-1.767,24.503-1.062c3.136,0.27,6.317,0.777,9.319,1.695c7.603,2.326,11.487,7.648,11.965,15.607
	c0.387,6.443-3.233,12.733-9.479,15.987c-0.491,0.256-0.981,0.516-1.708,0.898c5.213,2.614,7.119,7.284,8.487,12.328
	c1.581,5.829,3.201,11.647,4.872,17.716c-4.688,0-9.321,0.056-13.95-0.077c-0.521-0.015-1.275-1.017-1.475-1.693
	c-1.395-4.724-2.668-9.484-3.989-14.23c-0.283-1.015-0.568-2.031-0.914-3.026c-1.404-4.041-4.37-5.872-8.54-5.986
	c-4.754-0.131-4.753-0.137-4.753,4.551c0,6.004,0,12.009,0,18.014C137.137,174.28,137.137,175.039,137.137,175.89z M137.153,140.162
	c5.6,0.523,9.393,0.153,12.016-1.104c3.226-1.546,5.231-4.801,5.033-8.167c-0.232-3.934-2.1-6.91-5.792-7.682
	c-3.254-0.68-6.699-0.486-10.062-0.559c-0.39-0.009-1.137,0.739-1.143,1.144C137.127,129.218,137.153,134.644,137.153,140.162z"/>
<path fill-rule="evenodd" clip-rule="evenodd" d="M323.39,175.981c-5.945,0-11.383,0.053-16.816-0.066
	c-0.684-0.014-1.584-0.781-1.982-1.441c-3.068-5.067-6.035-10.195-9.035-15.304c-0.352-0.597-0.717-1.187-1.146-1.897
	c-2.287,2.227-4.023,4.39-3.664,7.886c0.357,3.481,0.078,7.026,0.078,10.683c-4.896,0-9.596,0-14.459,0c0-22.371,0-44.726,0-67.203
	c4.792,0,9.484,0,14.43,0c0,13.248,0,26.399,0,39.943c3.998-6.001,7.775-11.587,11.445-17.242c0.818-1.263,1.669-1.797,3.215-1.763
	c5.008,0.109,10.02,0.041,15.567,0.041c-5.681,6.444-11.061,12.546-16.558,18.783C310.696,157.483,316.899,166.522,323.39,175.981z"
	/>
<path fill-rule="evenodd" clip-rule="evenodd" d="M244.895,189.225c3.876,0,7.866,0,11.96,0c0.238,1.935,0.468,3.791,0.697,5.646
	c0.193,0.145,0.387,0.288,0.58,0.433c0.208-0.426,0.334-0.925,0.635-1.27c4.512-5.166,10.318-6.771,16.844-5.586
	c6.676,1.211,11.044,6.088,12.229,13.195c0.347,2.076,0.507,4.207,0.521,6.314c0.058,8.266,0.024,16.532,0.024,24.799
	c0,0.756,0,1.513,0,2.384c-4.807,0-9.372,0-14.188,0c-0.039-0.822-0.106-1.64-0.112-2.459c-0.065-8.545,0.003-17.095-0.229-25.635
	c-0.117-4.304-2.646-6.931-6.275-7.299c-3.52-0.356-7.081,2.2-8.027,5.878c-0.294,1.147-0.411,2.369-0.416,3.558
	c-0.036,7.843-0.019,15.685-0.019,23.527c0,0.761,0,1.522,0,2.414c-4.769,0-9.331,0-14.225,0
	C244.895,219.877,244.895,204.612,244.895,189.225z"/>
<path fill-rule="evenodd" clip-rule="evenodd" d="M410.541,211.815c-0.003,14.691-9.649,24.43-24.165,24.392
	c-14.241-0.037-23.795-9.477-23.83-23.543c-0.036-14.996,9.564-24.522,24.703-24.515
	C401.319,188.157,410.543,197.528,410.541,211.815z M395.659,212.224c0.166-3.281-0.352-6.533-2.027-9.502
	c-3.26-5.775-10.704-6.01-13.865-0.194c-3.416,6.284-3.443,12.956,0.037,19.241c3.184,5.747,10.418,5.572,13.738-0.093
	C395.233,218.791,395.79,215.626,395.659,212.224z"/>
<path fill-rule="evenodd" clip-rule="evenodd" d="M432.448,195.354c2.758-3.464,5.785-5.708,9.596-6.669
	c11.104-2.801,20.34,3.676,20.9,15.288c0.498,10.288,0.105,20.62,0.105,31.108c-4.58,0-9.129,0-14.045,0
	c0-0.755,0.01-1.563-0.002-2.373c-0.111-8.685-0.117-17.374-0.402-26.054c-0.1-3.022-1.475-5.606-4.74-6.573
	c-4.35-1.289-8.752,1.494-9.617,6.146c-0.256,1.379-0.352,2.805-0.357,4.211c-0.035,7.42-0.016,14.841-0.016,22.261
	c0,0.764,0,1.528,0,2.422c-4.748,0-9.299,0-14.188,0c0-15.281,0-30.501,0-45.87c3.793,0,7.785,0,11.973,0
	C431.894,191.089,432.134,192.944,432.448,195.354z"/>
<path fill-rule="evenodd" clip-rule="evenodd" d="M329.528,190.398c-0.974,3.761-1.799,6.947-2.57,9.927
	c-2.887-0.75-5.563-1.633-8.313-2.086c-1.532-0.252-3.275-0.072-4.76,0.414c-2.729,0.893-3.189,3.979-0.821,5.578
	c1.665,1.125,3.657,1.769,5.507,2.619c2.107,0.967,4.318,1.756,6.309,2.924c4.453,2.611,6.621,6.642,6.497,11.796
	c-0.131,5.4-2.657,9.441-7.438,11.93c-5.124,2.668-10.688,3.123-16.29,2.421c-3.184-0.399-6.287-1.451-9.422-2.226
	c-1.254-0.31-1.65-0.994-1.266-2.335c0.794-2.769,1.418-5.586,2.174-8.624c0.636,0.25,1.192,0.449,1.733,0.686
	c3.718,1.624,7.534,2.838,11.655,2.547c1.031-0.073,2.121-0.278,3.045-0.717c2.25-1.069,2.709-3.836,0.781-5.405
	c-1.274-1.037-2.918-1.641-4.437-2.354c-2.544-1.195-5.298-2.041-7.651-3.526c-8.854-5.589-8.727-17.099,0.141-22.722
	c5.184-3.286,10.926-3.57,16.758-2.803C323.912,188.805,326.593,189.694,329.528,190.398z"/>
<path fill-rule="evenodd" clip-rule="evenodd" d="M268.341,130.344c-0.757,3.575-1.484,7.007-2.242,10.584
	c-7.176-1.688-14.413-2.888-18.865,4.884c-2.787,4.866-2.631,10.251,0.717,14.818c4.803,6.553,11.6,5.427,18.59,3.688
	c0.523,3.32,1.064,6.548,1.499,9.789c0.05,0.372-0.4,1.02-0.782,1.208c-8.602,4.253-24.54,1.495-30.787-5.578
	c-6.495-7.354-7.252-16.054-4.474-25.028c2.648-8.553,8.973-13.433,17.558-15.429c5.592-1.3,11.197-1.135,16.748,0.367
	C266.966,129.827,267.606,130.091,268.341,130.344z"/>
<path fill-rule="evenodd" clip-rule="evenodd" d="M339.84,189.198c4.729,0,9.3,0,14.048,0c0,15.277,0,30.542,0,45.934
	c-4.643,0-9.266,0-14.048,0C339.84,219.861,339.84,204.651,339.84,189.198z"/>
<path fill-rule="evenodd" clip-rule="evenodd" d="M64.486,189.166c4.705,0,9.211,0,13.918,0c0,15.321,0,30.582,0,45.967
	c-4.616,0-9.174,0-13.918,0C64.486,219.876,64.486,204.616,64.486,189.166z"/>
<path fill-rule="evenodd" clip-rule="evenodd" d="M71.346,183.614c-4.464-0.008-7.402-2.842-7.405-7.143
	c-0.002-4.397,2.999-7.31,7.522-7.301c4.383,0.009,7.641,3.109,7.692,7.322C79.206,180.584,75.873,183.623,71.346,183.614z"/>
<path fill-rule="evenodd" clip-rule="evenodd" d="M346.966,183.615c-4.437,0.026-7.49-2.82-7.555-7.04
	c-0.065-4.294,3.025-7.353,7.484-7.404c4.435-0.051,7.627,2.962,7.656,7.227C354.581,180.706,351.552,183.589,346.966,183.615z"/>
</svg>
