<svg xmlns="http://www.w3.org/2000/svg" width="463.196" height="248.386" xml:space="preserve"><path fill-rule="evenodd" clip-rule="evenodd" d="M230.312 227.472c.936 4.86 1.886 9.91 2.895 14.949.271 1.352-.683 1.483-1.527 1.788-8.332 3.012-17 4.03-25.783 4.168-5.95.094-11.834-.588-17.522-2.473-12.354-4.094-20.412-12.354-23.476-25.031-3.317-13.725-1.651-26.798 6.512-38.611 1.984-2.872 4.599-5.308 6.838-7.849-1.348-3.756-3.125-7.615-4.111-11.668-2.641-10.852.697-20.131 8.635-27.653 2.323-2.202 5.522-3.583 8.501-4.943 1.427-.652 1.886-1.401 1.956-2.753.299-5.853.604-11.705.927-17.556.668-12.123 1.361-24.246 2.021-36.37.675-12.407 1.322-24.815 1.979-37.224.123-2.321.236-4.642.336-6.594-1.171-.984-2.091-1.714-2.959-2.5-.958-.867-4.658-.746-5.34.212-1.679 2.359-3.31 3.173-5.482 2.566-1.844-.515-3.03-1.734-3.381-3.675-.407-2.257.414-3.779 3.026-5.426-1.919-1.249-3.636-2.811-3.009-5.221.401-1.545 1.614-2.88 2.453-4.291-.57-.771-1.763-1.884-2.32-3.256-.811-1.996.225-4.188 2.042-5.276 1.753-1.049 3.838-.744 5.526.528.952.718 2.157 1.099 3.634 1.82l.234-5.132h19.621v4.776c.958-.392 1.625-.494 2.052-.868 2.645-2.321 5.566-2.358 7.401-.021 1.915 2.439 1.183 5.417-1.793 7.312-.117.075-.215.18-.413.349 1.903.902 3.15 2.254 3.22 4.45.073 2.277-1.277 3.616-2.958 4.614.85.921 1.938 1.686 2.406 2.729.45 1.003.535 2.358.285 3.444-.405 1.76-1.704 2.909-3.554 3.203-2.084.332-3.733-.422-4.921-2.176-.938-1.387-3.277-1.699-4.437-.595-.458.436-.856.952-1.365 1.313-.446.317-1.008.469-1.598.729.331 6.444.639 12.857.993 19.268.502 9.092 1.05 18.182 1.556 27.274.666 11.982 1.306 23.967 1.964 35.95.321 5.851.659 11.7.983 17.55.072 1.286 1.977 3.512 3.172 3.209.869-.22 1.787-1.317 2.144-2.233.497-1.278.574-2.746.674-4.143.104-1.45.023-2.913.023-4.646 4.675 1.859 7.716 5.028 9.692 9.25 2.992 6.393 2.986 13.118 1.937 19.916-1.093 7.076-3.295 13.83-6.063 20.411-.396.941-.686 1.656.421 2.519 7.493 5.841 11.014 13.931 12.606 23.006 1.081 6.165 1.043 12.358-.081 18.749h-50.269c.687 6.151 4.073 9.976 9.309 12.354 5.771 2.622 11.898 2.967 18.055 2.285 5.371-.595 10.695-1.624 16.333-2.507zm-19.846-74.796c-1.008-3.313-1.505-6.759-3.053-9.641-3.069-5.714-10.584-5.762-13.723-.08-3.527 6.386-3.597 13.18.018 19.574 3.258 5.763 10.821 5.608 13.824-.277 1.461-2.862 1.944-6.224 2.934-9.576zm-23.842 45.765h28.211c.711-8.034-4.654-14.865-11.903-15.312-8.861-.544-15.972 6.054-16.308 15.312zm6.015-181.022c-3.203-.835-2.854 3.101-5.545 3.178 4.457 2.765 4.457 2.765 6.104 2.315l-.559-5.493zm.034-3.794V8.106c-3.236-.92-2.811 3.307-5.319 3.32 1.844.745 2.638 3.448 5.319 2.199zm23.244 7.441-3.055-3.765-.733 5.746c2.338 1.06 2.871-1.844 3.788-1.981zm-3.156-13.561v6.882l3.856-2.737-3.856-4.145zM0 234.909v-62.351c11.387-1.235 22.684-2.382 33.928.341 13.535 3.277 21.625 13.5 21.912 27.493.155 7.544-1.091 14.753-5.214 21.251-4.668 7.357-11.795 10.948-19.971 12.718-10.132 2.194-20.342 1.589-30.655.548zm14.443-51.724v41.049c4.733.78 9.272.424 13.688-1.055 4.879-1.634 8.325-4.892 10.364-9.63 1.739-4.043 2.232-8.305 2.031-12.634-.708-15.246-12.536-20.487-26.083-17.73zm116.941 51.974h-14v-2.352c0-7.844.083-15.688-.056-23.529-.036-2.063-.426-4.254-1.233-6.139-1.672-3.904-6.374-4.693-9.501-1.785-1.897 1.764-2.842 3.961-2.832 6.598.031 8.196.011 16.393.011 24.59v2.518H89.722v-45.936c3.494 0 7.21-.043 10.922.068.354.01.867.945.979 1.516.264 1.351.329 2.738.496 4.308 7.982-10.296 22.677-8.294 26.578.134.868-.69 1.909-1.39 2.799-2.245 6.194-5.95 15.952-6.573 21.98-1.278 3.482 3.06 5.18 7.234 5.334 11.643.365 10.44.236 20.898.299 31.35.001.126-.108.253-.224.509h-13.746c0-.834.004-1.657 0-2.479-.048-8.335-.079-16.67-.17-25.005-.011-1.04-.248-2.107-.548-3.111-.898-3.004-2.83-4.674-5.467-4.856-2.773-.192-5.455 1.311-6.567 4.072-.615 1.525-.942 3.27-.959 4.919-.093 8.752-.044 17.509-.044 26.49z"/><path fill-rule="evenodd" clip-rule="evenodd" d="M137.137 175.89h-14.338v-63.088c8.182-1.079 16.323-1.767 24.503-1.062 3.136.27 6.317.777 9.319 1.695 7.603 2.326 11.487 7.648 11.965 15.607.387 6.443-3.233 12.733-9.479 15.987-.491.256-.981.516-1.708.898 5.213 2.614 7.119 7.284 8.487 12.328 1.581 5.829 3.201 11.647 4.872 17.716-4.688 0-9.321.056-13.95-.077-.521-.015-1.275-1.017-1.475-1.693-1.395-4.724-2.668-9.484-3.989-14.23-.283-1.015-.568-2.031-.914-3.026-1.404-4.041-4.37-5.872-8.54-5.986-4.754-.131-4.753-.137-4.753 4.551v20.38zm.016-35.728c5.6.523 9.393.153 12.016-1.104 3.226-1.546 5.231-4.801 5.033-8.167-.232-3.934-2.1-6.91-5.792-7.682-3.254-.68-6.699-.486-10.062-.559-.39-.009-1.137.739-1.143 1.144-.078 5.424-.052 10.85-.052 16.368zm186.237 35.819c-5.945 0-11.383.053-16.816-.066-.684-.014-1.584-.781-1.982-1.441-3.068-5.067-6.035-10.195-9.035-15.304-.352-.597-.717-1.187-1.146-1.897-2.287 2.227-4.023 4.39-3.664 7.886.357 3.481.078 7.026.078 10.683h-14.459v-67.203h14.43v39.943c3.998-6.001 7.775-11.587 11.445-17.242.818-1.263 1.669-1.797 3.215-1.763 5.008.109 10.02.041 15.567.041l-16.558 18.783 18.925 27.58zm-78.495 13.244h11.96l.697 5.646.58.433c.208-.426.334-.925.635-1.27 4.512-5.166 10.318-6.771 16.844-5.586 6.676 1.211 11.044 6.088 12.229 13.195a40.07 40.07 0 0 1 .521 6.314c.058 8.266.024 16.532.024 24.799v2.384h-14.188c-.039-.822-.106-1.64-.112-2.459-.065-8.545.003-17.095-.229-25.635-.117-4.304-2.646-6.931-6.275-7.299-3.52-.356-7.081 2.2-8.027 5.878-.294 1.147-.411 2.369-.416 3.558-.036 7.843-.019 15.685-.019 23.527v2.414h-14.225l.001-45.899zm165.646 22.59c-.003 14.691-9.649 24.43-24.165 24.392-14.241-.037-23.795-9.477-23.83-23.543-.036-14.996 9.564-24.522 24.703-24.515 14.07.008 23.294 9.379 23.292 23.666zm-14.882.409c.166-3.281-.352-6.533-2.027-9.502-3.26-5.775-10.704-6.01-13.865-.194-3.416 6.284-3.443 12.956.037 19.241 3.184 5.747 10.418 5.572 13.738-.093 1.691-2.885 2.248-6.05 2.117-9.452zm36.789-16.87c2.758-3.464 5.785-5.708 9.596-6.669 11.104-2.801 20.34 3.676 20.9 15.288.498 10.288.105 20.62.105 31.108h-14.045c0-.755.01-1.563-.002-2.373-.111-8.685-.117-17.374-.402-26.054-.1-3.022-1.475-5.606-4.74-6.573-4.35-1.289-8.752 1.494-9.617 6.146-.256 1.379-.352 2.805-.357 4.211-.035 7.42-.016 14.841-.016 22.261v2.422h-14.188v-45.87h11.973l.793 6.103zm-102.92-4.956-2.57 9.927c-2.887-.75-5.563-1.633-8.313-2.086-1.532-.252-3.275-.072-4.76.414-2.729.893-3.189 3.979-.821 5.578 1.665 1.125 3.657 1.769 5.507 2.619 2.107.967 4.318 1.756 6.309 2.924 4.453 2.611 6.621 6.642 6.497 11.796-.131 5.4-2.657 9.441-7.438 11.93-5.124 2.668-10.688 3.123-16.29 2.421-3.184-.399-6.287-1.451-9.422-2.226-1.254-.31-1.65-.994-1.266-2.335.794-2.769 1.418-5.586 2.174-8.624.636.25 1.192.449 1.733.686 3.718 1.624 7.534 2.838 11.655 2.547 1.031-.073 2.121-.278 3.045-.717 2.25-1.069 2.709-3.836.781-5.405-1.274-1.037-2.918-1.641-4.437-2.354-2.544-1.195-5.298-2.041-7.651-3.526-8.854-5.589-8.727-17.099.141-22.722 5.184-3.286 10.926-3.57 16.758-2.803 2.752.363 5.433 1.252 8.368 1.956zm-61.187-60.054-2.242 10.584c-7.176-1.688-14.413-2.888-18.865 4.884-2.787 4.866-2.631 10.251.717 14.818 4.803 6.553 11.6 5.427 18.59 3.688.523 3.32 1.064 6.548 1.499 9.789.05.372-.4 1.02-.782 1.208-8.602 4.253-24.54 1.495-30.787-5.578-6.495-7.354-7.252-16.054-4.474-25.028 2.648-8.553 8.973-13.433 17.558-15.429 5.592-1.3 11.197-1.135 16.748.367.663.18 1.303.444 2.038.697zm71.499 58.854h14.048v45.934H339.84v-45.934zm-275.354-.032h13.918v45.967H64.486v-45.967zm6.86-5.552c-4.464-.008-7.402-2.842-7.405-7.143-.002-4.397 2.999-7.31 7.522-7.301 4.383.009 7.641 3.109 7.692 7.322.051 4.092-3.282 7.131-7.809 7.122zm275.62.001c-4.437.026-7.49-2.82-7.555-7.04-.065-4.294 3.025-7.353 7.484-7.404 4.435-.051 7.627 2.962 7.656 7.227.03 4.308-2.999 7.191-7.585 7.217z"/></svg>