<?xml version="1.0" encoding="utf-8"?>
<!-- Generator: Adobe Illustrator 16.0.0, SVG Export Plug-In . SVG Version: 6.00 Build 0)  -->
<!DOCTYPE svg PUBLIC "-//W3C//DTD SVG 1.1//EN" "http://www.w3.org/Graphics/SVG/1.1/DTD/svg11.dtd">
<svg version="1.1" id="Layer_1" xmlns="http://www.w3.org/2000/svg" xmlns:xlink="http://www.w3.org/1999/xlink" x="0px" y="0px"
	 width="1450.326px" height="378.703px" viewBox="0 0 1450.326 378.703" enable-background="new 0 0 1450.326 378.703"
	 xml:space="preserve">
<path fill-rule="evenodd" clip-rule="evenodd" d="M215.293,0c9.932,1.846,20.053,3.006,29.754,5.686
	c18.695,5.164,37.083,11.435,55.734,16.771c13.481,3.857,27.279,5.979,41.416,4.632c8.457-0.806,15.339-3.656,18.934-12.229
	c1.238-2.954,3.506-5.734,5.936-7.877c5.969-5.262,12.584-3.297,14.319,4.401c2.589,11.489,1.41,22.949-2.984,33.779
	c-10.217,25.181-28.68,41.637-54.732,49.113c-12.491,3.585-24.996,0.811-36.599-3.868c-15.669-6.319-31.118-13.347-46.118-21.12
	c-20.83-10.793-42.326-18.726-66.063-18.073c-27.306,0.751-51.485,10.432-71.47,28.964C84.325,97.889,79.945,121.182,81.7,146.048
	c0.699,9.895,3.321,19.398,9.5,27.422c10.219,13.273,24.575,15.976,40.195,15.194c28.357-1.416,47.892-37.25,34.666-64.014
	c-1.988-4.023-2.522-9.268-2.145-13.815c0.37-4.443,3.882-7.753,8.577-8.664c6.528-1.266,12.192,0.579,16.688,5.607
	c5.61,6.273,8.137,13.834,7.9,22.033c-0.909,31.425-14.693,56.392-40.934,73.083c-36.1,22.965-84.271,1.1-93.901-41.721
	c-5.911-26.287-3.035-51.957,9.386-75.66c21.094-40.255,53.332-67.951,97.333-80.965c7.252-2.145,14.867-3.063,22.314-4.548
	C199.284,0,207.289,0,215.293,0z"/>
<path fill-rule="evenodd" clip-rule="evenodd" d="M434.362,243.672c1.886,4.598,3.485,8.496,5.23,12.752
	c8.187-1.877,14.381-7.314,19.226-14.6c5.684-8.547,9.773-9.832,19.338-5.871c18.063-20.643,34.526-42.524,48.505-66.735
	c-8.588-7.19-11.038-16.726-8.829-27.075c2.83-13.266,7.903-25.864,20.553-32.753c5.129-2.793,11.721-4.073,17.627-4.018
	c11.817,0.111,18.529,9.983,16.072,22.411c-0.992,5.017-2.636,9.905-4.063,15.143c6.845,3.924,14.441,3.365,21.93,1.498
	c10.289-2.565,20.377-5.957,30.689-8.406c16.044-3.812,20.863,7.033,19.398,19.281c-0.617,5.156-2.685,10.282-4.836,15.089
	c-12.278,27.431-24.9,54.709-37.087,82.18c-2.035,4.59-3.026,9.818-3.55,14.852c-0.475,4.561,2.005,5.957,6.362,4.148
	c1.946-0.807,3.862-2.047,5.354-3.533c9.688-9.645,19.289-19.375,28.845-29.148c5.759-5.891,11.498-6.348,18.689-0.568
	c18.527-25.674,36.917-51.385,55.585-76.892c6.081-8.309,12.492-16.45,19.471-24.005c7.388-7.999,12.555-7.824,21.281-1.258
	c13.751,10.345,17.861,24.563,17.032,40.971c-0.542,10.739-5.449,19.721-10.854,28.561c-0.921,1.506-1.817,3.025-2.175,4.977
	c8.247-7.803,16.574-15.521,24.724-23.422c18.372-17.811,38.204-33.71,60.42-46.505c3.153-1.816,6.428-3.492,9.806-4.832
	c8.607-3.417,15.778-0.626,22.396,5.236c6.939,6.147,11.063,13.126,7.104,22.419c-6.245,14.656-12.732,29.213-19.324,43.719
	c-7.832,17.234-15.925,34.352-23.795,51.568c-1.164,2.545-1.934,5.318-2.531,8.063c-1.006,4.629,1.146,6.688,5.741,5.588
	c9.902-2.369,17.634-8.58,24.946-15.088c5.556-4.945,10.225-10.889,15.282-16.393c1.126-1.227,2.138-2.572,3.358-3.693
	c4.893-4.5,7.638-4.301,12.416,1.318c8.089-9.623,16.192-19.08,24.095-28.703c18.936-23.059,39.916-43.872,65.379-59.755
	c11.951-7.455,24.682-12.77,38.842-14.724c22.077-3.045,42.78,11.638,44.999,33.732c0.693,6.888-1.354,14.627-4.084,21.168
	c-7.198,17.244-19.962,30.539-33.459,43.055c-18.653,17.297-39.872,30.439-64.011,38.664c-2.694,0.918-3.516,2.359-3.554,5.086
	c-0.206,14.842,8.548,22.215,23.097,19.289c15.007-3.018,27.396-11.158,38.638-20.885c8.793-7.607,16.584-16.367,24.89-24.547
	c2.846-2.801,5.813-5.49,8.88-8.049c4.733-3.947,9.745-6.686,15.553-1.758c19.916-22.557,38.049-45.887,52.829-71.666
	c-21.805-18.211-0.259-61.865,22.129-64.272c16.351-1.758,26.563,7.322,23.234,23.506c-0.963,4.68-2.448,9.252-3.771,14.156
	c6.883,3.877,14.471,3.341,21.965,1.463c10.286-2.578,20.377-5.953,30.691-8.4c15.927-3.78,20.813,6.965,19.347,19.335
	c-0.594,4.996-2.585,9.966-4.668,14.621c-12.348,27.583-25.041,55.01-37.267,82.647c-2.092,4.727-2.829,10.156-3.55,15.352
	c-0.528,3.814,2.214,5.15,5.486,3.92c2.409-0.906,4.787-2.434,6.621-4.248c9.715-9.615,19.123-19.545,28.953-29.039
	c2.222-2.145,5.711-4.189,8.596-4.16c4.514,0.047,6.853-1.949,9.367-5.066c18.646-23.107,38.095-45.521,59.979-65.646
	c15.642-14.384,32.431-27.207,53.421-32.964c12.879-3.533,25.838-4.255,37.618,3.261c12.251,7.816,17.845,19.997,18.962,34.037
	c1.725,21.681-5.27,41.642-13.305,61.294c-0.817,1.996-1.732,3.953-2.601,5.93c-2.166,4.934-6.251,9.648-0.731,15.156
	c1.162,1.16,0.937,3.711,1.454,6.094c8.114-1.801,13.813-6.514,18.515-12.789c1.978-2.639,3.835-5.51,6.317-7.596
	c4.487-3.768,10.484-3.383,14.489,0.596c4.013,3.988,2.019,8.113-0.522,11.717c-11.102,15.75-23.666,29.822-43.269,35.074
	c-8.478,2.271-17.017,2.996-24.888-0.098c-8.623,8.918-16.612,18.107-25.561,26.236c-15.769,14.324-34.44,22.27-55.955,23.283
	c-23.354,1.1-43.518-14.615-46.666-38.229c-1.496-11.219-0.258-22.803-0.258-34.396c-4.678-1.338-8.043,0.906-11.505,4.99
	c-21.498,25.369-45.787,47.432-75.994,62.199c-9.691,4.738-19.814,6.916-30.448,4.055c-18.112-4.871-28.06-23.818-22.684-43.109
	c4.616-16.566,13.374-31.113,22.961-45.135c7.699-11.26,16.304-21.908,23.909-33.229c3.747-5.578,6.466-11.932,9.033-18.187
	c1.628-3.964,1.758-9.038-2.442-11.231c-4.181-2.184-9.3-2.729-14.088-3.459c-0.936-0.143-2.353,2.078-3.363,3.354
	c-17.791,22.447-35.513,44.948-53.362,67.348c-2.795,3.506-5.751,7.117-9.347,9.678c-2.719,1.936-6.667,3.297-9.9,3.012
	c-2.854-0.252-4.051,0.377-5.714,2.268c-21.488,24.432-45.288,46.111-74.558,60.98c-14.541,7.389-29.897,11.828-46.477,11.449
	c-15.8-0.363-28.18-7.111-37.622-19.422c-6.251-8.148-11.365-17.328-11.97-27.549c-0.535-9.039,1.526-18.234,2.378-26.723
	c-3.755,2.771-8.683,4.609-13.177-1.115c-20.329,21.336-42.035,40.496-64.959,58.314c-11.755,9.137-24.859,12.867-39.671,11.443
	c-14.984-1.441-23.836-13.07-20.851-27.922c3.502-17.416,10.734-33.482,18.17-49.434c5.963-12.793,12.42-25.355,18.662-38.021
	c0.588-1.191,1.39-2.32,1.74-3.576c0.375-1.35,0.949-3.551,0.336-4.063c-1.064-0.889-3.35-1.504-4.464-0.936
	c-4.085,2.078-8.617,4.008-11.68,7.23c-9.292,9.773-18.311,19.855-26.825,30.314c-17.029,20.918-33.281,42.477-50.59,63.154
	c-9.777,11.68-21.629,21.365-36.942,25.242c-15.687,3.973-25.006-5.773-20.436-21.318c1.249-4.248,3.512-8.223,5.522-12.219
	c14.784-29.375,29.624-58.725,44.43-88.088c0.27-0.535,0.359-1.16,0.861-2.857c-9.347,10.781-17.689,20.879-26.561,30.486
	c-7.107,7.695-14.826,14.83-22.359,22.125c-1.159,1.121-2.925,2.672-4.166,2.475c-6.038-0.957-8.398,3.582-11.485,7.057
	c-17.806,20.043-37.435,37.949-60.729,51.494c-8.466,4.924-17.079,9.309-27.037,10.994c-25.495,4.314-45.228-20.393-37.538-44.395
	c5.194-16.215,13.417-30.748,22.894-44.635c7.689-11.27,16.299-21.912,23.907-33.232c3.748-5.577,6.466-11.928,9.048-18.178
	c1.638-3.965,1.786-9.037-2.391-11.246c-4.168-2.205-9.291-2.761-14.078-3.506c-0.937-0.146-2.369,2.056-3.38,3.33
	c-17.792,22.446-35.521,44.942-53.357,67.35c-2.586,3.25-5.606,6.166-8.523,9.137c-3.521,3.588-7.482,5.264-12.639,3.309
	c-1.076-0.408-3.286,0.695-4.27,1.754c-8.034,8.646-16.896,16.086-28.219,20.033c-9.269,3.232-18.654,4.594-28.396,1.824
	c-1.188-0.338-3.459,1.145-4.448,2.4c-8.916,11.316-18.692,21.75-30.53,30.057c-16.428,11.529-34.452,17.936-54.79,15.951
	c-20.714-2.023-35.917-15.566-39.185-36.455c-1.569-10.031-0.445-20.488-0.498-30.752c-0.008-1.479,0.228-2.959,0.345-4.367
	c-0.413-0.258-0.688-0.576-0.958-0.574c-3.873,0.047-7.994,0.389-9.867-4.033c-2.016-4.76-0.74-9.17,2.441-13.025
	c11.449-13.879,22.655-27.975,34.494-41.514c16.684-19.08,33.873-37.719,54.497-52.757c12.184-8.884,25.129-16.219,40.118-19.29
	c33.336-6.828,50.833,14.775,52.114,41.271c1.038,21.462-6.261,41.188-14.447,60.575C438,235.865,435.928,240.205,434.362,243.672z
	 M1371.526,224.045c2.688-0.965,6.865-1.158,7.825-3.016c7.083-13.711,13.64-27.732,15.163-43.403
	c0.441-4.551,0.097-9.257-4.246-12.028c-4.265-2.721-9.186-2.664-13.215,0.124c-4.593,3.177-9.209,6.758-12.651,11.088
	c-18.337,23.063-31.709,49.023-42.526,76.27c-2.815,7.088-3.906,14.988-4.897,22.631c-0.743,5.734,2.39,10.229,7.604,12.926
	c5.511,2.852,11.11,2.092,15.271-1.979c4.432-4.34,7.895-9.703,11.556-14.779c2.453-3.402,3.072-6.906,0.742-11.035
	c-1.661-2.943-2.51-6.561-2.895-9.971C1347.589,236.084,1352.455,221.844,1371.526,224.045z M402.224,223.107
	c5.603,2.301,8.087-1.721,10-6.82c0.815-2.174,1.968-4.219,2.856-6.369c4.374-10.59,9.045-21.1,9.531-32.816
	c0.191-4.621,0.018-9.298-4.655-11.804c-4.808-2.58-9.947-2.074-14.121,1.186c-4.554,3.556-9.087,7.449-12.58,12.001
	c-18.255,23.79-31.944,50.186-42.551,78.124c-2.407,6.34-2.978,13.545-3.415,20.414c-0.354,5.58,3.005,9.74,8.218,12.004
	c5.463,2.371,10.83,1.396,14.857-2.549c4.097-4.014,7.372-8.91,10.75-13.605c2.848-3.959,3.832-8.111,0.896-12.779
	c-1.36-2.162-1.96-4.982-2.295-7.582C377.573,235.895,382.533,221.973,402.224,223.107z M1033.688,177.033
	c-1.186-2.356-1.833-5.879-3.707-6.741c-1.89-0.87-5.083,0.667-7.534,1.601c-1.479,0.563-2.89,1.779-3.893,3.047
	c-9.775,12.366-19.636,24.674-29.033,37.322c-2.15,2.895-3.191,6.961-3.714,10.633c-0.729,5.121,2.986,7.742,7.896,5.902
	c2.133-0.801,4.297-2.043,5.906-3.633c8.387-8.283,16.946-16.436,24.756-25.245C1029.855,193.726,1032.436,185.888,1033.688,177.033
	z"/>
<path fill-rule="evenodd" clip-rule="evenodd" d="M96.813,378.703c-38.341-0.348-66.081-14.811-86.257-43.609
	c-17.369-24.791-11.552-62.527,4.77-81.18c12.053-13.773,27.243-19.408,45.226-15.684c11.775,2.438,19.189,10.35,22.301,21.844
	c3.201,11.826-0.609,21.641-9.937,29.346c-3.202,2.643-6.723,4.898-9.987,7.471c-9.655,7.611-12.083,16.342-7.564,26.814
	c4.723,10.941,13.875,15.879,25.728,14.178c16.725-2.402,30.033-11.314,42.126-22.266c20.094-18.195,33.975-40.768,45.109-65.23
	c12.521-27.51,25.421-54.848,37.75-82.442c10.901-24.397,28.26-43.728,47.106-62.001c3.104-3.009,5.891-6.665,9.562-8.68
	c3.728-2.046,8.358-3.301,12.609-3.342c6.64-0.063,10.19,5.125,8.525,11.608c-0.811,3.156-1.987,6.559-4.013,9.01
	c-14.699,17.78-21.199,39.017-25.444,60.994c-5.164,26.735-9.562,53.622-14.045,80.485c-5.282,31.648-19.584,58.426-43.068,80.186
	c-22.982,21.293-49.679,35.449-80.847,40.4C108.919,377.805,101.258,378.242,96.813,378.703z"/>
<path fill-rule="evenodd" clip-rule="evenodd" d="M1344.624,119.692c2.496-2.971,4.219-5.355,6.271-7.409
	c10.23-10.239,20.439-20.506,30.913-30.494c2.579-2.459,5.971-4.235,9.255-5.752c6.123-2.83,10.853-1.39,15.79,3.219
	c13.62,12.716,22.519,28.538,30.357,45.104c0.334,0.706,0.542,1.471,1.094,2.998c-2.128,0-3.712,0.154-5.253-0.035
	c-2.468-0.305-4.901-0.884-7.362-1.265c-11.194-1.731-20.155-5.688-25.796-17.023c-5.363-10.78-7.829-10.284-15.877-1.071
	c-1.97,2.255-4.462,4.196-5.907,6.74c-3.423,6.023-8.399,7.029-14.719,6.167C1357.642,120.085,1351.786,120.104,1344.624,119.692z"
	/>
</svg>
