<?xml version="1.0" encoding="utf-8"?>
<!-- Generator: Adobe Illustrator 16.0.0, SVG Export Plug-In . SVG Version: 6.00 Build 0)  -->
<!DOCTYPE svg PUBLIC "-//W3C//DTD SVG 1.1//EN" "http://www.w3.org/Graphics/SVG/1.1/DTD/svg11.dtd">
<svg version="1.1" id="Layer_1" xmlns="http://www.w3.org/2000/svg" xmlns:xlink="http://www.w3.org/1999/xlink" x="0px" y="0px"
	 width="1358px" height="386px" viewBox="0 0 1358 386" enable-background="new 0 0 1358 386" xml:space="preserve">
<path fill-rule="evenodd" clip-rule="evenodd" d="M930.74,387.401c0-5.61,0-10.896,0-16.669c141.901,0,283.748,0,425.919,0
	c0,5.496,0,10.903,0,16.669C1214.812,387.401,1073.076,387.401,930.74,387.401z"/>
<path fill-rule="evenodd" clip-rule="evenodd" d="M931.138,102.544c141.761,0,283.354,0,425.806,0c0,5.122,0.115,10.206-0.12,15.273
	c-0.036,0.796-1.558,1.896-2.581,2.184c-1.396,0.393-2.973,0.159-4.472,0.159c-137.293,0.003-274.586,0.004-411.879,0.002
	c-7.39,0-7.399-0.009-7.389-7.182c0.005-2.997,0.055-5.994,0.113-8.991C930.622,103.683,930.827,103.38,931.138,102.544z"/>
<path fill-rule="evenodd" clip-rule="evenodd" d="M505.659,186.674c4.648,0,9.061,0,13.841,0c0.276,4.679,0.543,9.212,0.811,13.745
	c0.378,0.3,0.756,0.601,1.134,0.9c6.738-10.807,16.15-16.894,28.682-16.892c12.815,0.003,21.654,6.407,26.931,18.77
	c1.649-2.132,2.822-3.625,3.97-5.137c8.637-11.383,21.95-16.104,35.395-12.543c11.257,2.983,20.374,13.718,21.292,27.464
	c1.085,16.256,0.841,32.602,1.156,48.908c0.049,2.498,0.115,5.005-0.021,7.498c-0.168,3.089,0.233,8.427-0.961,8.835
	c-3.75,1.279-8.158,0.979-12.253,0.623c-0.897-0.078-2.203-2.911-2.22-4.487c-0.169-15.33,0.019-30.664-0.178-45.993
	c-0.06-4.62-0.573-9.329-1.62-13.824c-2.825-12.121-10.671-17.992-21.661-16.727c-9.964,1.147-19.002,11.266-19.097,21.896
	c-0.16,17.996-0.21,35.997,0.058,53.992c0.067,4.537-1.417,5.689-5.67,5.569c-11.695-0.328-10.104,1.078-10.237-10.113
	c-0.201-16.819-0.113-33.646-0.644-50.454c-0.347-10.982-6.726-18.883-15.573-20.709c-9.15-1.89-19.085,3.253-23.542,13.016
	c-1.877,4.11-3.04,8.897-3.139,13.407c-0.365,16.49-0.272,32.995-0.059,49.49c0.055,4.221-1.359,5.461-5.438,5.357
	c-12.487-0.316-10.099,1.052-10.174-9.93c-0.165-23.829-0.092-47.66-0.182-71.49C506.245,194.223,505.879,190.599,505.659,186.674z"
	/>
<path fill-rule="evenodd" clip-rule="evenodd" d="M826.531,264.961c-6.007,5.936-12.017,10.715-19.9,12.733
	c-18.561,4.749-36.143-3.371-44.636-20.62c-9.991-20.291-5.415-47.76,10.392-62.375c13.646-12.618,35.503-13.804,48.469-2.496
	c2.449,2.136,4.447,4.789,7.164,7.762c0.601-4.814,1.119-8.977,1.662-13.332c4.438,0,8.523,0,13.184,0
	c0,5.489,0.033,10.76-0.006,16.031c-0.164,22.158-0.232,44.319-0.601,66.477c-0.105,6.292-0.569,12.677-1.801,18.834
	c-3.521,17.602-15.03,27.283-32.235,30.412c-12.486,2.271-24.863,1.313-36.829-3.14c-6.734-2.505-6.705-2.623-4.445-9.263
	c0.628-1.846,1.361-3.656,1.773-4.756c7.626,1.876,14.728,4.181,22.011,5.312c21.562,3.349,35.719-8.959,35.797-30.644
	C826.543,272.252,826.531,268.606,826.531,264.961z M826.904,231.613c-0.144-0.012-0.287-0.023-0.431-0.035
	c0-3.16,0.021-6.32-0.004-9.479c-0.081-10.449-6.751-20.05-16.276-23.457c-10.334-3.696-21.532-0.747-28.428,7.487
	c-10.316,12.32-11.625,34.961-2.66,48.744c6.304,9.692,15.567,13.299,26.676,11.361c10.271-1.793,16.964-8.392,19.551-18.346
	C826.688,242.679,826.433,237.052,826.904,231.613z"/>
<path fill-rule="evenodd" clip-rule="evenodd" d="M90.105,237.798c-0.071-16.151,6.83-29.145,20.853-37.133
	c23.018-13.116,47.256-13.9,70.546-1.29c29.355,15.895,30.3,57.822,1.793,75.183c-22.136,13.481-45.882,14.233-69.173,2.903
	C98.171,269.701,89.822,256.25,90.105,237.798z M181.327,237.736c-0.015-19.738-14.208-33.809-34.146-33.848
	c-20.949-0.04-35.394,14.037-35.305,34.407c0.084,19.095,15.082,33.588,34.776,33.608
	C166.463,271.924,181.341,257.264,181.327,237.736z"/>
<path fill-rule="evenodd" clip-rule="evenodd" d="M320.396,197.873c9.046-2.129,17.428-4.809,26.014-5.949
	c11.543-1.533,23.24-1.701,34.527,2.257c13.474,4.724,20.99,14.17,22.005,28.463c0.388,5.47,0.25,10.979,0.281,16.472
	c0.041,7.159-0.174,14.326,0.067,21.479c0.239,7.112,0.907,14.212,1.416,21.759c-6.197,0-12.258,0-18.953,0
	c-0.579-2.827-1.23-6.006-2-9.771c-1.314,0.821-2.378,1.421-3.375,2.119c-15.748,11.043-32.849,13.047-50.737,6.735
	c-9.52-3.357-16.181-10.157-17.145-20.738c-0.957-10.479,4.059-18.285,12.716-23.76c11.426-7.226,24.366-9.378,37.514-10.583
	c6.104-0.561,12.232-0.845,18.297-1.25c1.959-8.549-2.674-16.379-11.677-19.305c-12.242-3.979-24.315-2.063-36.203,1.768
	c-7.77,2.502-7.738,2.617-11.097-5.201C321.661,201.469,321.367,200.53,320.396,197.873z M382.593,237.892
	c-6.192,0-11.36-0.409-16.438,0.092c-8.743,0.861-17.557,1.928-25.129,7.032c-4.732,3.19-7.484,7.65-6.811,13.497
	c0.719,6.239,4.498,10.063,10.405,12.081c6.392,2.184,12.752,1.893,19.105,0.136c8.212-2.271,15.507-6.339,17.843-14.983
	C383.034,250.319,382.307,244.299,382.593,237.892z"/>
<path fill-rule="evenodd" clip-rule="evenodd" d="M1142.579,281.172c-23.139,0.469-41.087-15.23-44.186-38.334
	c-2.127-15.861-0.074-30.804,10.682-43.147c12.93-14.841,29.805-18.262,48.181-13.219c17.111,4.694,26.384,17.083,29.748,34.141
	c1.932,9.794,1.511,19.573-1.27,29.137C1180.149,268.951,1163.82,280.741,1142.579,281.172z M1171.605,232.764
	c0.045-8.666-1.933-17.145-7.023-24.701c-10.13-15.032-31.655-15.585-42.588-1.149c-10.36,13.679-10.686,36.831-0.713,50.747
	c11.263,15.718,32.384,15.495,43.311-0.493C1169.537,249.934,1171.596,241.824,1171.605,232.764z"/>
<path fill-rule="evenodd" clip-rule="evenodd" d="M734.06,265.367c0.724,2.979,1.54,6.332,2.621,10.779
	c-5.994,1.432-11.647,3.357-17.446,4.045c-11.257,1.332-22.596,1.88-33.429-2.696c-15.79-6.667-23.323-19.478-25.067-35.707
	c-1.662-15.474,0.799-30.401,11.244-42.765c11.35-13.433,26.175-17.296,42.821-13.088c16.006,4.046,23.279,16.166,26.097,31.44
	c0.807,4.378,0.576,8.938,1.032,13.394c0.401,3.914-1.043,5.141-5.033,5.097c-18.33-0.199-36.665-0.094-54.997-0.083
	c-6.417,0.004-6.586,0.447-5.518,6.976c3.05,18.646,16.864,27.127,34.828,26.15C718.604,268.508,725.916,266.676,734.06,265.367z
	 M725.963,223.926c1.641-15.038-8.213-27.258-22.16-28.054c-14.371-0.821-27.005,12.029-27.188,28.054
	C692.956,223.926,709.293,223.926,725.963,223.926z"/>
<path fill-rule="evenodd" clip-rule="evenodd" d="M1347.608,235.862c-21.784,0-43.342,0-64.783,0
	c-2.552,15.244,9.17,30.468,24.797,32.375c5.381,0.656,10.948,0.549,16.354,0.018c5.236-0.515,10.376-2.022,16.277-3.243
	c0.794,3.119,1.668,6.56,2.826,11.115c-5.757,1.368-11.256,3.471-16.867,3.826c-8.891,0.563-18.027,1.017-26.75-0.396
	c-13.511-2.188-23.492-10.366-28.549-23.177c-7.27-18.42-6.076-36.669,4.57-53.512c14.327-22.66,48.123-25.063,63.736-4.952
	C1346.242,206.96,1349.443,220.877,1347.608,235.862z M1283.014,223.969c16.628,0,32.865,0,49.046,0
	c2.161-14.646-7.813-27.29-21.831-28.103C1295.798,195.029,1282.865,208.2,1283.014,223.969z"/>
<path fill-rule="evenodd" clip-rule="evenodd" d="M919.209,220.055c2.958-14.232-7.608-25.41-22.846-23.616
	c-7.45,0.878-14.718,3.303-22.623,5.159c-0.821-2.444-1.901-5.654-3.163-9.409c16.22-7.91,32.494-11.375,49.157-3.55
	c12.333,5.789,15.699,17.556,16.098,30.032c0.446,13.979,0.028,27.982,0.157,41.975c0.045,4.813,0.499,9.63,0.966,14.426
	c0.299,3.064-0.869,4.395-3.892,4.107c-3.404-0.323-7.794,0.461-9.914-1.368c-1.911-1.652-1.336-6.183-1.857-9.443
	c-0.726-0.624-1.452-1.247-2.178-1.871c-0.639,1.575-0.868,3.566-1.979,4.662c-9.469,9.341-21.069,11.745-33.637,8.951
	c-10.536-2.341-17.109-9.244-19.087-20.017c-2.264-12.322,1.71-22.357,11.904-29.62c8.357-5.956,18.092-8.133,28.12-9.145
	C909.374,220.83,914.325,220.472,919.209,220.055z M920.342,241.771c0-2.33,0.322-4.727-0.132-6.965
	c-0.237-1.166-1.803-2.881-2.841-2.935c-9.554-0.499-18.998,0.185-27.605,4.93c-8.621,4.754-12.019,14.185-8.521,23.023
	c3.116,7.871,11.719,11.455,21.373,8.902C914.712,265.529,920.38,256.929,920.342,241.771z"/>
<path fill-rule="evenodd" clip-rule="evenodd" d="M66.048,269.816c0.137,0.148,0.324,0.257,0.352,0.396
	c2.787,13.848,2.461,13.136-9.246,13.695c-7.205,0.344-14.673,0.168-21.674-1.367c-10.634-2.334-16.822-10.263-17.155-21.183
	c-0.487-15.974-0.338-31.967-0.441-47.951c-0.048-7.511-0.027-7.511-7.771-7.518c-1.5-0.001-3.027-0.189-4.492,0.034
	c-4.793,0.73-5.991-1.522-5.822-5.936c0.258-6.759,0.038-6.687,6.93-6.797c12.374-0.197,11.058,2.142,11.138-11.113
	c0.063-10.395,0.007-10.421,10.068-12.514c3.386-0.705,6.808-1.236,10.924-1.973c0,7.089,0.205,13.714-0.073,20.319
	c-0.179,4.239,1.484,5.485,5.525,5.366c7.944-0.234,15.901-0.068,24.196-0.068c0,4.344,0,8.086,0,12.683
	c-7.673,0-15.262-0.008-22.851,0.003c-6.782,0.009-6.793,0.018-6.797,6.943c-0.009,12.825-0.011,25.65-0.001,38.476
	c0.012,15.168,4.255,19.366,19.308,19.034C60.804,270.286,63.437,269.997,66.048,269.816z"/>
<path fill-rule="evenodd" clip-rule="evenodd" d="M290.122,270.391c0.213,2.789,0.719,6.063,0.571,9.307
	c-0.052,1.132-1.558,2.927-2.672,3.169c-10.352,2.245-20.766,2.933-30.969-0.706c-9.988-3.563-15.519-11.136-15.686-22.021
	c-0.248-16.148-0.276-32.306-0.04-48.455c0.068-4.724-1.564-6.217-6.056-5.856c-3.763,0.301-7.569,0.062-11.694,0.062
	c0-4.351,0-8.092,0-12.683c4.021,0,7.969-0.282,11.859,0.071c4.76,0.433,6.18-1.563,5.855-6.037
	c-0.302-4.141-0.24-8.335,0.063-12.477c0.089-1.216,1.354-3.094,2.414-3.367c5.762-1.479,11.628-2.552,18.438-3.967
	c0,7.01,0.191,13.432-0.066,19.835c-0.178,4.422,1.155,6.313,5.916,6.035c6.472-0.379,12.987,0.05,19.476-0.147
	c3.396-0.104,5.018,0.982,4.691,4.518c-0.138,1.486-0.098,2.999-0.023,4.493c0.139,2.797-1.168,3.791-3.907,3.751
	c-7.159-0.105-14.322,0.024-21.481-0.047c-2.659-0.026-4.602,0.433-4.567,3.701c0.17,16.14-0.053,32.295,0.574,48.418
	c0.33,8.486,5.213,12.241,13.824,12.391C280.774,270.45,284.908,270.391,290.122,270.391z"/>
<path fill-rule="evenodd" clip-rule="evenodd" d="M464.78,217.267c0,20.149-0.091,40.299,0.079,60.446
	c0.032,3.867-0.962,5.443-5.027,5.149c-4.473-0.324-9.005,0.139-13.471-0.232c-1.188-0.099-2.434-1.861-3.256-3.119
	c-0.462-0.707-0.124-1.944-0.124-2.944c-0.003-39.63,0.072-79.262-0.099-118.892c-0.021-4.904,1.115-7.079,6.379-6.388
	c3.438,0.451,7.001,0.314,10.475,0.025c3.9-0.324,5.173,0.972,5.134,5.012C464.673,176.637,464.78,196.953,464.78,217.267z"/>
<path fill-rule="evenodd" clip-rule="evenodd" d="M1044.119,186.44c0-6.329,0.158-12.12-0.061-17.896
	c-0.13-3.432,1.034-5.2,4.502-5.82c3.535-0.632,6.987-1.736,11.242-2.832c0,9.1,0,17.478,0,26.344c8.211,0,15.793,0,23.771,0
	c0,4.23,0,7.962,0,12.441c-7.618,0-15.325,0-23.658,0c0,3.508-0.001,6.285,0,9.062c0,13.987,0.22,27.98-0.063,41.963
	c-0.272,13.484,5.523,21.161,20.167,17.771c0.445-0.104,0.962,0.1,2.145,0.247c0.26,2.81,0.872,5.744,0.644,8.609
	c-0.104,1.294-1.857,3.48-2.907,3.507c-7.216,0.181-14.8,1.241-21.584-0.554c-9.952-2.634-13.444-11.491-13.709-21.031
	c-0.485-17.471-0.372-34.958-0.491-52.438c-0.049-7.034-0.031-7.035-7.128-7.041c-2.286-0.003-4.571-0.001-7.469-0.001
	c0-2.506,0-4.452,0-6.399c0-1.79,0-3.58,0-5.931C1034.454,186.44,1038.871,186.44,1044.119,186.44z"/>
<path fill-rule="evenodd" clip-rule="evenodd" d="M957.612,274.667c1.187-3.607,2.407-7.323,3.788-11.523
	c8.209,4.142,16.269,6.873,25.15,6.224c10.856-0.795,17.537-8.368,14.875-17.751c-0.842-2.962-3.014-6.058-5.466-7.927
	c-3.364-2.566-7.55-4.077-11.432-5.939c-3.145-1.507-6.483-2.641-9.521-4.327c-11.681-6.482-16.247-15.132-14.469-26.95
	c1.466-9.739,9.939-18.049,21.17-20.826c9.724-2.405,19.109-1.064,28.388,2.266c3.216,1.155,4.764,2.66,3.005,6.21
	c-1.086,2.194-1.709,4.617-2.173,5.914c-7.464-1.158-14.38-2.722-21.367-3.172c-6.545-0.422-12.194,4.15-13.575,9.658
	c-1.471,5.867,0.774,11.029,7.109,14.432c5.253,2.821,10.948,4.807,16.346,7.376c9.057,4.312,16.443,10.097,18.006,20.957
	c1.416,9.837-1.262,18.145-9.012,24.481C996.9,283.198,970.344,283.709,957.612,274.667z"/>
<path fill-rule="evenodd" clip-rule="evenodd" d="M1091.983,91.545c-3.735,0-6.696,0-10.171,0
	c-0.946-9.556-0.353-18.886,1.71-28.166c3.883-17.47,11.294-33.043,24.695-45.274c22.06-20.13,51.772-19.614,73.255,1.144
	c17.618,17.021,28.218,47.127,25.165,72.059c-3.13,0-6.321,0-9.057,0c-1.384-10.031-2.064-20.005-4.25-29.639
	c-3.339-14.728-10.262-27.756-21.962-37.77c-17.328-14.833-40.069-14.08-56.39,1.833c-15.688,15.295-21.71,34.607-22.97,55.842
	C1091.823,84.702,1091.983,87.85,1091.983,91.545z"/>
<path fill-rule="evenodd" clip-rule="evenodd" d="M1224.305,204.168c3.517-4.687,6.333-9.233,9.935-13.035
	c4.537-4.79,10.639-6.741,17.186-6.609c1.242,0.025,3.38,1.727,3.502,2.833c0.433,3.902,0.168,7.883,0.168,12.092
	c-3.496,0.239-6.525,0.06-9.364,0.708c-10.664,2.433-16.075,10.043-18.543,20.045c-0.864,3.505-1.096,7.234-1.126,10.865
	c-0.123,14.482-0.137,28.968,0.011,43.451c0.034,3.371-0.882,4.787-4.453,4.727c-13.548-0.231-11.353,1.276-11.436-10.842
	c-0.125-18.312-0.032-36.626-0.032-54.938c0-8.783,0-17.568,0-26.718c3.862,0,7.941,0,12.698,0
	C1223.322,192.406,1223.809,198.23,1224.305,204.168z"/>
<path fill-rule="evenodd" clip-rule="evenodd" d="M1162.719,352.265c0-14.256,0-28.201,0-42.103
	c4.426-1.222,4.426-1.222,6.697,5.003c11.258-10.977,20.073-8.165,26.138,0.314c3.952-2.374,7.577-5.761,11.794-6.838
	c9.555-2.442,16.971,4.128,17.512,15.241c0.452,9.295,0.093,18.631,0.093,28.583c-2.043,0.093-3.92,0.177-6.383,0.288
	c-0.15-2.758-0.336-5.181-0.406-7.607c-0.211-7.315-0.089-14.655-0.651-21.942c-0.443-5.75-3.88-9.067-8.563-9.431
	c-5.013-0.39-9.272,2.451-10.894,7.674c-0.675,2.176-0.865,4.569-0.896,6.867c-0.104,7.951-0.039,15.904-0.039,24.135
	c-2.361,0-4.119,0-6.68,0c0-6.974,0.066-13.906-0.029-20.838c-0.044-3.144-0.191-6.316-0.686-9.413
	c-0.711-4.473-3.024-7.781-7.899-8.379c-4.944-0.606-8.477,1.909-10.541,6.021c-1.214,2.422-1.683,5.401-1.79,8.157
	c-0.253,6.486-0.055,12.988-0.1,19.484C1169.357,353.08,1169.297,353.099,1162.719,352.265z"/>
<path fill-rule="evenodd" clip-rule="evenodd" d="M1271.654,345.655c-0.426,2.772-0.714,4.65-1.032,6.722
	c-2.723,0.477-5.403,1.416-5.376-3.081c0.117-19.291,0.158-38.584,0.244-57.875c0.004-0.803,0.188-1.605,0.326-2.722
	c1.923,0,3.668,0,6.082,0c0,8.661,0,17.378,0,26.638c1.307-0.439,2.063-0.454,2.379-0.835c5.064-6.089,11.659-7.538,18.898-5.594
	c7.387,1.983,11.062,7.769,12.413,14.855c1.363,7.145,1.005,14.303-2.893,20.761c-6.459,10.703-20.06,12.141-28.801,3.16
	C1273.445,347.222,1272.938,346.813,1271.654,345.655z M1272.262,330.79c0,1.824-0.205,3.679,0.038,5.471
	c0.812,5.986,4.981,10.445,10.708,11.692c4.934,1.073,10.55-1.229,13.278-5.843c3.579-6.051,4.094-12.527,1.726-19.152
	c-2.438-6.819-7.772-10.096-14.662-9.154C1276.414,314.753,1272.153,321.208,1272.262,330.79z"/>
<path fill-rule="evenodd" clip-rule="evenodd" d="M1151.101,330.603c-0.056,13.751-8.824,23.172-21.526,23.128
	c-12.096-0.042-21.084-9.756-20.973-22.667c0.119-13.702,8.854-22.846,21.789-22.808
	C1143.111,308.293,1151.156,316.974,1151.101,330.603z M1116.052,330.746c0,1.328-0.145,2.676,0.024,3.982
	c0.861,6.668,5.484,12.314,10.945,13.49c5.371,1.156,10.507-1.037,13.777-5.885c4.544-6.736,4.17-18.096-0.804-24.423
	c-3.154-4.013-8.347-5.667-13.343-4.252C1119.649,315.644,1115.94,321.554,1116.052,330.746z"/>
<path fill-rule="evenodd" clip-rule="evenodd" d="M1099.597,346.436c0.419,1.642,0.771,3.026,1.106,4.341
	c-9.646,5.104-21.774,3.326-28.185-3.945c-6.548-7.429-7.001-21.426-0.966-29.841c5.998-8.364,17.835-11.182,29.23-6.649
	c-0.398,1.414-0.814,2.884-1.271,4.499c-8.753-1.743-17.214-2.803-22.534,6.001c-4.123,6.822-4.126,14.188,0.411,20.735
	C1082.945,349.592,1091.062,349.151,1099.597,346.436z"/>
<path fill-rule="evenodd" clip-rule="evenodd" d="M1324.694,317.166c3.539-5.377,6.833-10.01,13.996-8.515
	c0,1.855,0,3.615-0.004,5.379c-11.73,3.095-13.709,5.761-13.71,18.484c-0.001,6.471,0,12.94,0,19.819c-2.362,0-4.424,0-6.932,0
	c0-14.046,0-28.221,0-42.39C1322.527,309.035,1322.527,309.035,1324.694,317.166z"/>
<path fill-rule="evenodd" clip-rule="evenodd" d="M1057.07,345.78c0.043,5.165-2.029,7.325-7.072,7.373
	c-5.007,0.048-7.433-2.258-7.466-7.102c-0.032-4.782,2.561-7.525,7.2-7.619C1054.401,338.339,1057.031,340.972,1057.07,345.78z"/>
<path fill-rule="evenodd" clip-rule="evenodd" d="M1252.008,345.921c0.017,4.877-2.374,7.234-7.335,7.236
	c-5.096,0.002-7.204-2.119-7.202-7.246c0.002-4.862,2.541-7.498,7.206-7.48C1249.322,338.449,1251.992,341.177,1252.008,345.921z"/>
</svg>
