<svg xmlns="http://www.w3.org/2000/svg" width="1358" height="386" xml:space="preserve"><path fill-rule="evenodd" clip-rule="evenodd" d="M930.74 387.401v-16.669h425.919v16.669H930.74zm.398-284.857h425.806c0 5.122.115 10.206-.12 15.273-.036.796-1.558 1.896-2.581 2.184-1.396.393-2.973.159-4.472.159-137.293.003-274.586.004-411.879.002-7.39 0-7.399-.009-7.389-7.182.005-2.997.055-5.994.113-8.991.006-.306.211-.609.522-1.445zm-425.479 84.13H519.5l.811 13.745 1.134.9c6.738-10.807 16.15-16.894 28.682-16.892 12.815.003 21.654 6.407 26.931 18.77 1.649-2.132 2.822-3.625 3.97-5.137 8.637-11.383 21.95-16.104 35.395-12.543 11.257 2.983 20.374 13.718 21.292 27.464 1.085 16.256.841 32.602 1.156 48.908.049 2.498.115 5.005-.021 7.498-.168 3.089.233 8.427-.961 8.835-3.75 1.279-8.158.979-12.253.623-.897-.078-2.203-2.911-2.22-4.487-.169-15.33.019-30.664-.178-45.993-.06-4.62-.573-9.329-1.62-13.824-2.825-12.121-10.671-17.992-21.661-16.727-9.964 1.147-19.002 11.266-19.097 21.896-.16 17.996-.21 35.997.058 53.992.067 4.537-1.417 5.689-5.67 5.569-11.695-.328-10.104 1.078-10.237-10.113-.201-16.819-.113-33.646-.644-50.454-.347-10.982-6.726-18.883-15.573-20.709-9.15-1.89-19.085 3.253-23.542 13.016-1.877 4.11-3.04 8.897-3.139 13.407-.365 16.49-.272 32.995-.059 49.49.055 4.221-1.359 5.461-5.438 5.357-12.487-.316-10.099 1.052-10.174-9.93-.165-23.829-.092-47.66-.182-71.49-.015-3.622-.381-7.246-.601-11.171zm320.872 78.287c-6.007 5.936-12.017 10.715-19.9 12.733-18.561 4.749-36.143-3.371-44.636-20.62-9.991-20.291-5.415-47.76 10.392-62.375 13.646-12.618 35.503-13.804 48.469-2.496 2.449 2.136 4.447 4.789 7.164 7.762l1.662-13.332h13.184c0 5.489.033 10.76-.006 16.031-.164 22.158-.232 44.319-.601 66.477-.105 6.292-.569 12.677-1.801 18.834-3.521 17.602-15.03 27.283-32.235 30.412-12.486 2.271-24.863 1.313-36.829-3.14-6.734-2.505-6.705-2.623-4.445-9.263.628-1.846 1.361-3.656 1.773-4.756 7.626 1.876 14.728 4.181 22.011 5.312 21.562 3.349 35.719-8.959 35.797-30.644.013-3.644.001-7.29.001-10.935zm.373-33.348-.431-.035c0-3.16.021-6.32-.004-9.479-.081-10.449-6.751-20.05-16.276-23.457-10.334-3.696-21.532-.747-28.428 7.487-10.316 12.32-11.625 34.961-2.66 48.744 6.304 9.692 15.567 13.299 26.676 11.361 10.271-1.793 16.964-8.392 19.551-18.346 1.356-5.209 1.101-10.836 1.572-16.275zm-736.799 6.185c-.071-16.151 6.83-29.145 20.853-37.133 23.018-13.116 47.256-13.9 70.546-1.29 29.355 15.895 30.3 57.822 1.793 75.183-22.136 13.481-45.882 14.233-69.173 2.903-15.953-7.76-24.302-21.211-24.019-39.663zm91.222-.062c-.015-19.738-14.208-33.809-34.146-33.848-20.949-.04-35.394 14.037-35.305 34.407.084 19.095 15.082 33.588 34.776 33.608 19.811.021 34.689-14.639 34.675-34.167zm139.069-39.863c9.046-2.129 17.428-4.809 26.014-5.949 11.543-1.533 23.24-1.701 34.527 2.257 13.474 4.724 20.99 14.17 22.005 28.463.388 5.47.25 10.979.281 16.472.041 7.159-.174 14.326.067 21.479.239 7.112.907 14.212 1.416 21.759h-18.953l-2-9.771c-1.314.821-2.378 1.421-3.375 2.119-15.748 11.043-32.849 13.047-50.737 6.735-9.52-3.357-16.181-10.157-17.145-20.738-.957-10.479 4.059-18.285 12.716-23.76 11.426-7.226 24.366-9.378 37.514-10.583 6.104-.561 12.232-.845 18.297-1.25 1.959-8.549-2.674-16.379-11.677-19.305-12.242-3.979-24.315-2.063-36.203 1.768-7.77 2.502-7.738 2.617-11.097-5.201-.385-.899-.679-1.838-1.65-4.495zm62.197 40.019c-6.192 0-11.36-.409-16.438.092-8.743.861-17.557 1.928-25.129 7.032-4.732 3.19-7.484 7.65-6.811 13.497.719 6.239 4.498 10.063 10.405 12.081 6.392 2.184 12.752 1.893 19.105.136 8.212-2.271 15.507-6.339 17.843-14.983 1.466-5.428.739-11.448 1.025-17.855zm759.986 43.28c-23.139.469-41.087-15.23-44.186-38.334-2.127-15.861-.074-30.804 10.682-43.147 12.93-14.841 29.805-18.262 48.181-13.219 17.111 4.694 26.384 17.083 29.748 34.141 1.932 9.794 1.511 19.573-1.27 29.137-5.585 19.201-21.914 30.991-43.155 31.422zm29.026-48.408c.045-8.666-1.933-17.145-7.023-24.701-10.13-15.032-31.655-15.585-42.588-1.149-10.36 13.679-10.686 36.831-.713 50.747 11.263 15.718 32.384 15.495 43.311-.493 4.945-7.234 7.004-15.344 7.013-24.404zM734.06 265.367l2.621 10.779c-5.994 1.432-11.647 3.357-17.446 4.045-11.257 1.332-22.596 1.88-33.429-2.696-15.79-6.667-23.323-19.478-25.067-35.707-1.662-15.474.799-30.401 11.244-42.765 11.35-13.433 26.175-17.296 42.821-13.088 16.006 4.046 23.279 16.166 26.097 31.44.807 4.378.576 8.938 1.032 13.394.401 3.914-1.043 5.141-5.033 5.097-18.33-.199-36.665-.094-54.997-.083-6.417.004-6.586.447-5.518 6.976 3.05 18.646 16.864 27.127 34.828 26.15 7.391-.401 14.703-2.233 22.847-3.542zm-8.097-41.441c1.641-15.038-8.213-27.258-22.16-28.054-14.371-.821-27.005 12.029-27.188 28.054h49.348zm621.645 11.936h-64.783c-2.552 15.244 9.17 30.468 24.797 32.375 5.381.656 10.948.549 16.354.018 5.236-.515 10.376-2.022 16.277-3.243l2.826 11.115c-5.757 1.368-11.256 3.471-16.867 3.826-8.891.563-18.027 1.017-26.75-.396-13.511-2.188-23.492-10.366-28.549-23.177-7.27-18.42-6.076-36.669 4.57-53.512 14.327-22.66 48.123-25.063 63.736-4.952 7.023 9.044 10.224 22.961 8.389 37.946zm-64.594-11.893h49.046c2.161-14.646-7.813-27.29-21.831-28.103-14.431-.837-27.364 12.334-27.215 28.103zm-363.805-3.914c2.958-14.232-7.608-25.41-22.846-23.616-7.45.878-14.718 3.303-22.623 5.159l-3.163-9.409c16.22-7.91 32.494-11.375 49.157-3.55 12.333 5.789 15.699 17.556 16.098 30.032.446 13.979.028 27.982.157 41.975.045 4.813.499 9.63.966 14.426.299 3.064-.869 4.395-3.892 4.107-3.404-.323-7.794.461-9.914-1.368-1.911-1.652-1.336-6.183-1.857-9.443l-2.178-1.871c-.639 1.575-.868 3.566-1.979 4.662-9.469 9.341-21.069 11.745-33.637 8.951-10.536-2.341-17.109-9.244-19.087-20.017-2.264-12.322 1.71-22.357 11.904-29.62 8.357-5.956 18.092-8.133 28.12-9.145 4.939-.498 9.89-.856 14.774-1.273zm1.133 21.716c0-2.33.322-4.727-.132-6.965-.237-1.166-1.803-2.881-2.841-2.935-9.554-.499-18.998.185-27.605 4.93-8.621 4.754-12.019 14.185-8.521 23.023 3.116 7.871 11.719 11.455 21.373 8.902 12.096-3.197 17.764-11.797 17.726-26.955zM66.048 269.816c.137.148.324.257.352.396 2.787 13.848 2.461 13.136-9.246 13.695-7.205.344-14.673.168-21.674-1.367-10.634-2.334-16.822-10.263-17.155-21.183-.487-15.974-.338-31.967-.441-47.951-.048-7.511-.027-7.511-7.771-7.518-1.5-.001-3.027-.189-4.492.034-4.793.73-5.991-1.522-5.822-5.936.258-6.759.038-6.687 6.93-6.797 12.374-.197 11.058 2.142 11.138-11.113.063-10.395.007-10.421 10.068-12.514 3.386-.705 6.808-1.236 10.924-1.973 0 7.089.205 13.714-.073 20.319-.179 4.239 1.484 5.485 5.525 5.366 7.944-.234 15.901-.068 24.196-.068v12.683c-7.673 0-15.262-.008-22.851.003-6.782.009-6.793.018-6.797 6.943-.009 12.825-.011 25.65-.001 38.476.012 15.168 4.255 19.366 19.308 19.034 2.638-.059 5.271-.348 7.882-.529zm224.074.575c.213 2.789.719 6.063.571 9.307-.052 1.132-1.558 2.927-2.672 3.169-10.352 2.245-20.766 2.933-30.969-.706-9.988-3.563-15.519-11.136-15.686-22.021a1617.092 1617.092 0 0 1-.04-48.455c.068-4.724-1.564-6.217-6.056-5.856-3.763.301-7.569.062-11.694.062v-12.683c4.021 0 7.969-.282 11.859.071 4.76.433 6.18-1.563 5.855-6.037-.302-4.141-.24-8.335.063-12.477.089-1.216 1.354-3.094 2.414-3.367 5.762-1.479 11.628-2.552 18.438-3.967 0 7.01.191 13.432-.066 19.835-.178 4.422 1.155 6.313 5.916 6.035 6.472-.379 12.987.05 19.476-.147 3.396-.104 5.018.982 4.691 4.518-.138 1.486-.098 2.999-.023 4.493.139 2.797-1.168 3.791-3.907 3.751-7.159-.105-14.322.024-21.481-.047-2.659-.026-4.602.433-4.567 3.701.17 16.14-.053 32.295.574 48.418.33 8.486 5.213 12.241 13.824 12.391 4.132.071 8.266.012 13.48.012zm174.658-53.124c0 20.149-.091 40.299.079 60.446.032 3.867-.962 5.443-5.027 5.149-4.473-.324-9.005.139-13.471-.232-1.188-.099-2.434-1.861-3.256-3.119-.462-.707-.124-1.944-.124-2.944-.003-39.63.072-79.262-.099-118.892-.021-4.904 1.115-7.079 6.379-6.388 3.438.451 7.001.314 10.475.025 3.9-.324 5.173.972 5.134 5.012-.197 20.313-.09 40.629-.09 60.943zm579.339-30.827c0-6.329.158-12.12-.061-17.896-.13-3.432 1.034-5.2 4.502-5.82 3.535-.632 6.987-1.736 11.242-2.832v26.344h23.771v12.441h-23.658v9.062c0 13.987.22 27.98-.063 41.963-.272 13.484 5.523 21.161 20.167 17.771.445-.104.962.1 2.145.247.26 2.81.872 5.744.644 8.609-.104 1.294-1.857 3.48-2.907 3.507-7.216.181-14.8 1.241-21.584-.554-9.952-2.634-13.444-11.491-13.709-21.031-.485-17.471-.372-34.958-.491-52.438-.049-7.034-.031-7.035-7.128-7.041-2.286-.003-4.571-.001-7.469-.001v-12.33l14.599-.001zm-86.507 88.227c1.187-3.607 2.407-7.323 3.788-11.523 8.209 4.142 16.269 6.873 25.15 6.224 10.856-.795 17.537-8.368 14.875-17.751-.842-2.962-3.014-6.058-5.466-7.927-3.364-2.566-7.55-4.077-11.432-5.939-3.145-1.507-6.483-2.641-9.521-4.327-11.681-6.482-16.247-15.132-14.469-26.95 1.466-9.739 9.939-18.049 21.17-20.826 9.724-2.405 19.109-1.064 28.388 2.266 3.216 1.155 4.764 2.66 3.005 6.21-1.086 2.194-1.709 4.617-2.173 5.914-7.464-1.158-14.38-2.722-21.367-3.172-6.545-.422-12.194 4.15-13.575 9.658-1.471 5.867.774 11.029 7.109 14.432 5.253 2.821 10.948 4.807 16.346 7.376 9.057 4.312 16.443 10.097 18.006 20.957 1.416 9.837-1.262 18.145-9.012 24.481-11.534 9.428-38.09 9.939-50.822.897zm134.371-183.122h-10.171c-.946-9.556-.353-18.886 1.71-28.166 3.883-17.47 11.294-33.043 24.695-45.274 22.06-20.13 51.772-19.614 73.255 1.144 17.618 17.021 28.218 47.127 25.165 72.059h-9.057c-1.384-10.031-2.064-20.005-4.25-29.639-3.339-14.728-10.262-27.756-21.962-37.77-17.328-14.833-40.069-14.08-56.39 1.833-15.688 15.295-21.71 34.607-22.97 55.842-.185 3.128-.025 6.276-.025 9.971zm132.322 112.623c3.517-4.687 6.333-9.233 9.935-13.035 4.537-4.79 10.639-6.741 17.186-6.609 1.242.025 3.38 1.727 3.502 2.833.433 3.902.168 7.883.168 12.092-3.496.239-6.525.06-9.364.708-10.664 2.433-16.075 10.043-18.543 20.045-.864 3.505-1.096 7.234-1.126 10.865-.123 14.482-.137 28.968.011 43.451.034 3.371-.882 4.787-4.453 4.727-13.548-.231-11.353 1.276-11.436-10.842-.125-18.312-.032-36.626-.032-54.938v-26.718h12.698c.471 5.659.958 11.483 1.454 17.421zm-61.586 148.097v-42.103c4.426-1.222 4.426-1.222 6.697 5.003 11.258-10.977 20.073-8.165 26.138.314 3.952-2.374 7.577-5.761 11.794-6.838 9.555-2.442 16.971 4.128 17.512 15.241.452 9.295.093 18.631.093 28.583l-6.383.288c-.15-2.758-.336-5.181-.406-7.607-.211-7.315-.089-14.655-.651-21.942-.443-5.75-3.88-9.067-8.563-9.431-5.013-.39-9.272 2.451-10.894 7.674-.675 2.176-.865 4.569-.896 6.867-.104 7.951-.039 15.904-.039 24.135h-6.68c0-6.974.066-13.906-.029-20.838-.044-3.144-.191-6.316-.686-9.413-.711-4.473-3.024-7.781-7.899-8.379-4.944-.606-8.477 1.909-10.541 6.021-1.214 2.422-1.683 5.401-1.79 8.157-.253 6.486-.055 12.988-.1 19.484-.039 5.599-.099 5.618-6.677 4.784zm108.935-6.61-1.032 6.722c-2.723.477-5.403 1.416-5.376-3.081.117-19.291.158-38.584.244-57.875.004-.803.188-1.605.326-2.722h6.082v26.638c1.307-.439 2.063-.454 2.379-.835 5.064-6.089 11.659-7.538 18.898-5.594 7.387 1.983 11.062 7.769 12.413 14.855 1.363 7.145 1.005 14.303-2.893 20.761-6.459 10.703-20.06 12.141-28.801 3.16-.449-.462-.956-.871-2.24-2.029zm.608-14.865c0 1.824-.205 3.679.038 5.471.812 5.986 4.981 10.445 10.708 11.692 4.934 1.073 10.55-1.229 13.278-5.843 3.579-6.051 4.094-12.527 1.726-19.152-2.438-6.819-7.772-10.096-14.662-9.154-6.936.949-11.197 7.404-11.088 16.986zm-121.161-.187c-.056 13.751-8.824 23.172-21.526 23.128-12.096-.042-21.084-9.756-20.973-22.667.119-13.702 8.854-22.846 21.789-22.808 12.72.037 20.765 8.718 20.71 22.347zm-35.049.143c0 1.328-.145 2.676.024 3.982.861 6.668 5.484 12.314 10.945 13.49 5.371 1.156 10.507-1.037 13.777-5.885 4.544-6.736 4.17-18.096-.804-24.423-3.154-4.013-8.347-5.667-13.343-4.252-7.002 1.986-10.711 7.896-10.599 17.088zm-16.455 15.69 1.106 4.341c-9.646 5.104-21.774 3.326-28.185-3.945-6.548-7.429-7.001-21.426-.966-29.841 5.998-8.364 17.835-11.182 29.23-6.649-.398 1.414-.814 2.884-1.271 4.499-8.753-1.743-17.214-2.803-22.534 6.001-4.123 6.822-4.126 14.188.411 20.735 5.557 8.015 13.674 7.574 22.209 4.859zm225.097-29.27c3.539-5.377 6.833-10.01 13.996-8.515 0 1.855 0 3.615-.004 5.379-11.73 3.095-13.709 5.761-13.71 18.484v19.819h-6.932v-42.39c4.483-.908 4.483-.908 6.65 7.223zM1057.07 345.78c.043 5.165-2.029 7.325-7.072 7.373-5.007.048-7.433-2.258-7.466-7.102-.032-4.782 2.561-7.525 7.2-7.619 4.669-.093 7.299 2.54 7.338 7.348zm194.938.141c.017 4.877-2.374 7.234-7.335 7.236-5.096.002-7.204-2.119-7.202-7.246.002-4.862 2.541-7.498 7.206-7.48 4.645.018 7.315 2.746 7.331 7.49z"/></svg>