<svg xmlns="http://www.w3.org/2000/svg" width="1409.547" height="141.866" xml:space="preserve"><path fill-rule="evenodd" clip-rule="evenodd" d="M182.153 107.776c1.896 7.851 3.773 15.238 5.379 22.684.244 1.131-.408 3.293-1.257 3.699-17.862 8.537-51.786 11.864-71.613-3.18-18.98-14.401-22.064-50.252 3.531-65.68 6.231-3.756 13.068-6.499 19.579-9.802 4.29-2.177 8.619-4.32 12.7-6.85 4.541-2.815 6.237-7.194 5.476-12.469-.725-5.024-3.992-8.091-8.475-9.568-9.975-3.286-19.665-1.028-29.337 1.928-5.816 1.778-8.783 5.105-10.65 11.182-9.556 31.101-19.784 61.994-29.645 93.002-1.104 3.471-2.569 5.013-6.519 4.848-8.653-.363-17.333-.184-26-.086-2.679.029-4.109-.721-4.967-3.544C26.983 89.939 13.485 45.976.032 2c-.089-.292.032-.65.102-1.64 10.029 0 20.113-.074 30.191.127.902.018 2.281 1.683 2.576 2.809 8.758 33.4 17.405 66.829 26.087 100.249.113.435.439.813 1.127 2.041 2.357-9.768 4.297-18.86 6.761-27.809A6310.573 6310.573 0 0 1 87.842 3.493c.381-1.32 2.569-3.014 3.918-3.017 9.613-.02 19.228.598 28.838.518 6.464-.054 12.934-1.463 19.378-1.306 13.696.333 26.251 4.126 36.089 14.382 15.2 15.846 13.646 42.408-3.789 55.722-6.125 4.677-13.413 7.855-20.259 11.553-5.39 2.91-11.153 5.194-16.317 8.445-4.909 3.088-6.727 8.173-5.769 13.938.938 5.647 4.535 9.189 9.859 10.833 9.994 3.085 19.779 1.153 29.405-1.817 4.242-1.307 8.313-3.166 12.958-4.968zm254.082-24.359v55.658h-23.934c-.078-1.626-.224-3.238-.225-4.851-.013-41.664.06-83.328-.113-124.991-.018-4.344 1.268-5.565 5.5-6.016 17.422-1.857 34.831-3.501 52.187.107 17.904 3.723 28.124 14.338 30.173 30.729 2.129 17.033-5.286 31.013-20.745 39.118-.572.3-1.137.615-2.316 1.255 13.33 7.387 16.431 20.239 19.42 33.29 2.405 10.497 5.313 20.88 8.105 31.735-7.354 0-14.788.152-22.203-.156-1.174-.049-2.908-2-3.286-3.373-2.773-10.082-5.225-20.252-7.875-30.368-.881-3.365-1.807-6.754-3.13-9.961-3.249-7.866-9.318-11.902-17.806-12.154-4.45-.13-8.907-.022-13.752-.022zm-.034-19.094c7.052 0 13.743.599 20.256-.218 4.084-.512 8.375-2.501 11.753-4.957 12.308-8.946 10.083-30.095-3.741-36.099-9.151-3.975-18.675-3.223-28.268-1.257v42.531zm292.317 19.003h-22.736V63.782h45.748c.122 1.167.339 2.28.34 3.392.021 20.671.077 41.342-.098 62.012-.015 1.695-1.279 4.476-2.574 4.903-22.253 7.35-44.891 10.016-67.636 2.725-23.68-7.591-36.113-25.203-40.215-48.891-3.511-20.271-1.248-39.932 10.361-57.543 11.586-17.576 28.784-26.149 49.155-28.856 14.713-1.955 29.215-.637 43.324 4.169 1.073.366 2.062.986 3.498 1.688l-4.866 19.069c-8.694-1.591-17.049-3.912-25.525-4.505-17.304-1.212-32.797 3.136-43.455 18.149-14.482 20.402-10.584 55.802 7.993 70.81 12.94 10.451 27.934 11.469 43.522 7.753 1.265-.302 2.999-2.304 3.028-3.551.243-10.307.136-20.624.136-31.78zm-189.932 55.947H513.72c3.548-11.718 6.974-23.131 10.458-34.525 9.948-32.539 19.958-65.06 29.819-97.625 1.057-3.49 2.495-5.096 6.466-4.898 7.481.373 15-.042 22.49.24 1.445.055 3.706 1.531 4.109 2.815 13.824 44.031 27.468 88.117 41.133 132.198.143.463.195.953.398 1.975-7.926 0-15.684.143-23.423-.159-1.125-.044-2.706-2.046-3.159-3.439-3.438-10.579-6.758-21.201-9.848-31.887-.75-2.597-1.873-3.449-4.476-3.426-11.5.105-23.001.117-34.5-.008-2.71-.029-3.672 1.05-4.37 3.55-3.256 11.673-6.745 23.282-10.231 35.189zM586.669 81.3l-16.522-56.944c-5.329 18.968-10.633 37.847-16 56.944h32.522zm-297.912 29.657L320.939 2.513h25.975l-45.18 136.809h-27.729L231.661 2.354c8.485 0 16.429-.142 24.354.17 1.055.042 2.536 2.236 2.951 3.683 10.105 35.258 20.092 70.551 29.791 104.75zm832.471 28.29v-8.815c0-39.826.106-79.653-.127-119.478-.031-5.375 1.083-7.32 6.856-7.873 17.455-1.67 34.824-3.009 52.217.322 27.478 5.263 45.179 25.004 48.112 53.076 1.586 15.172.383 29.93-5.193 44.134-6.771 17.245-18.966 28.954-36.641 34.943-21.265 7.205-42.937 5.249-65.224 3.691zm17.18-12.891c7.075 0 13.712.291 20.313-.058 16.552-.874 31.405-5.633 41.727-19.739 7.126-9.737 10.179-21.04 10.323-32.763.111-9.025-.601-18.412-3.045-27.044-5.346-18.881-21.608-29.991-44.114-31.063-8.343-.397-16.75.564-25.204.91v109.757zm271.139-56.598c-.467 17.15-3.662 33.402-13.551 47.804-21.798 31.746-70.115 32.536-92.803 1.523-18.883-25.815-18.217-71.765 1.354-96.674 14.168-18.033 33.007-24.823 55.18-21.663 21.475 3.061 35.636 16.037 43.537 35.92 2.011 5.058 3.517 10.405 4.508 15.757 1.055 5.692 1.221 11.548 1.775 17.333zm-18.291 1.546c-.054-13.895-2.613-26.618-9.822-38.105-15.845-25.242-49.652-25.199-64.221.83-13.323 23.805-13.64 48.932-.544 72.928 14.884 27.271 49.859 26.997 65.598.166 6.572-11.207 8.847-23.51 8.989-35.819zM996.16 2.531h16.786v5.474c0 25.999-.389 52.007.227 77.992.195 8.276 2.016 16.881 4.94 24.639 4.215 11.183 13.44 16.436 25.519 16.369 12.154-.066 21.823-5.096 26.118-16.458 3.104-8.214 4.895-17.359 5.124-26.146.66-25.315.233-50.658.233-75.991V2.666h16.837c.093 1.066.249 2.019.248 2.971-.03 27.831.092 55.664-.207 83.492-.111 10.387-2.437 20.453-7.458 29.719-7.836 14.457-20.399 21.421-36.414 22.605-12.21.904-23.975-.48-34.064-8.35-12.089-9.426-17.176-22.814-17.64-37.18-.989-30.627-.555-61.3-.689-91.955-.003-.311.183-.624.44-1.437zM801.11 118.852c7.726 2.446 14.969 5.777 22.527 6.824 6.692.926 14.184.658 20.538-1.447 16.274-5.394 20.199-26.823 7.146-37.995-4.812-4.118-10.999-6.672-16.672-9.729-6.267-3.375-13.008-5.985-18.935-9.858-12.295-8.035-17.391-19.911-15.539-34.37 1.723-13.442 9.192-23.164 21.704-28.247 16.462-6.688 32.773-4.949 49.285 2.356l-4.317 13.807c-7.529-1.751-14.771-4.16-22.181-4.908-5.082-.513-10.776.333-15.538 2.229-13.184 5.247-16.711 22.625-6.189 32.048 5.66 5.069 13.15 8.122 19.892 11.951 6.479 3.681 13.519 6.555 19.494 10.907 12.33 8.98 15.587 22.044 13.425 36.414-2.194 14.572-10.882 24.602-24.696 29.353-17.12 5.888-34.062 4.165-50.446-3.356-1.176-.54-2.213-1.383-3.495-2.2l3.997-13.779zm139.976 20.471h-16.919V17.553h-39.97V2.74h96.405v14.576h-39.517l.001 122.007zm-555.643-.115h-23.375V2.607h23.375v136.601zm882.222.05h-16.642V2.668h16.642v136.59z"/></svg>