<?xml version="1.0" encoding="utf-8"?>
<!-- Generator: Adobe Illustrator 16.0.0, SVG Export Plug-In . SVG Version: 6.00 Build 0)  -->
<!DOCTYPE svg PUBLIC "-//W3C//DTD SVG 1.1//EN" "http://www.w3.org/Graphics/SVG/1.1/DTD/svg11.dtd">
<svg version="1.1" id="Layer_1" xmlns="http://www.w3.org/2000/svg" xmlns:xlink="http://www.w3.org/1999/xlink" x="0px" y="0px"
	 width="1409.547px" height="141.866px" viewBox="0 0 1409.547 141.866" enable-background="new 0 0 1409.547 141.866"
	 xml:space="preserve">
<path fill-rule="evenodd" clip-rule="evenodd" d="M182.153,107.776c1.896,7.851,3.773,15.238,5.379,22.684
	c0.244,1.131-0.408,3.293-1.257,3.699c-17.862,8.537-51.786,11.864-71.613-3.18c-18.98-14.401-22.064-50.252,3.531-65.68
	c6.231-3.756,13.068-6.499,19.579-9.802c4.29-2.177,8.619-4.32,12.7-6.85c4.541-2.815,6.237-7.194,5.476-12.469
	c-0.725-5.024-3.992-8.091-8.475-9.568c-9.975-3.286-19.665-1.028-29.337,1.928c-5.816,1.778-8.783,5.105-10.65,11.182
	c-9.556,31.101-19.784,61.994-29.645,93.002c-1.104,3.471-2.569,5.013-6.519,4.848c-8.653-0.363-17.333-0.184-26-0.086
	c-2.679,0.029-4.109-0.721-4.967-3.544C26.983,89.939,13.485,45.976,0.032,2c-0.089-0.292,0.032-0.65,0.102-1.64
	c10.029,0,20.113-0.074,30.191,0.127c0.902,0.018,2.281,1.683,2.576,2.809c8.758,33.4,17.405,66.829,26.087,100.249
	c0.113,0.435,0.439,0.813,1.127,2.041c2.357-9.768,4.297-18.86,6.761-27.809c6.83-24.806,13.833-49.563,20.966-74.284
	c0.381-1.32,2.569-3.014,3.918-3.017c9.613-0.02,19.228,0.598,28.838,0.518c6.464-0.054,12.934-1.463,19.378-1.306
	c13.696,0.333,26.251,4.126,36.089,14.382c15.2,15.846,13.646,42.408-3.789,55.722c-6.125,4.677-13.413,7.855-20.259,11.553
	c-5.39,2.91-11.153,5.194-16.317,8.445c-4.909,3.088-6.727,8.173-5.769,13.938c0.938,5.647,4.535,9.189,9.859,10.833
	c9.994,3.085,19.779,1.153,29.405-1.817C173.437,111.437,177.508,109.578,182.153,107.776z"/>
<path fill-rule="evenodd" clip-rule="evenodd" d="M436.235,83.417c0,18.727,0,37.003,0,55.658c-8.106,0-15.824,0-23.934,0
	c-0.078-1.626-0.224-3.238-0.225-4.851c-0.013-41.664,0.06-83.328-0.113-124.991c-0.018-4.344,1.268-5.565,5.5-6.016
	c17.422-1.857,34.831-3.501,52.187,0.107c17.904,3.723,28.124,14.338,30.173,30.729c2.129,17.033-5.286,31.013-20.745,39.118
	c-0.572,0.3-1.137,0.615-2.316,1.255c13.33,7.387,16.431,20.239,19.42,33.29c2.405,10.497,5.313,20.88,8.105,31.735
	c-7.354,0-14.788,0.152-22.203-0.156c-1.174-0.049-2.908-2-3.286-3.373c-2.773-10.082-5.225-20.252-7.875-30.368
	c-0.881-3.365-1.807-6.754-3.13-9.961c-3.249-7.866-9.318-11.902-17.806-12.154C445.537,83.309,441.08,83.417,436.235,83.417z
	 M436.201,64.323c7.052,0,13.743,0.599,20.256-0.218c4.084-0.512,8.375-2.501,11.753-4.957c12.308-8.946,10.083-30.095-3.741-36.099
	c-9.151-3.975-18.675-3.223-28.268-1.257C436.201,36.091,436.201,49.887,436.201,64.323z"/>
<path fill-rule="evenodd" clip-rule="evenodd" d="M728.518,83.326c-7.932,0-15.216,0-22.736,0c0-6.707,0-12.974,0-19.544
	c15.277,0,30.365,0,45.748,0c0.122,1.167,0.339,2.28,0.34,3.392c0.021,20.671,0.077,41.342-0.098,62.012
	c-0.015,1.695-1.279,4.476-2.574,4.903c-22.253,7.35-44.891,10.016-67.636,2.725c-23.68-7.591-36.113-25.203-40.215-48.891
	c-3.511-20.271-1.248-39.932,10.361-57.543c11.586-17.576,28.784-26.149,49.155-28.856c14.713-1.955,29.215-0.637,43.324,4.169
	c1.073,0.366,2.062,0.986,3.498,1.688c-1.696,6.644-3.363,13.179-4.866,19.069c-8.694-1.591-17.049-3.912-25.525-4.505
	c-17.304-1.212-32.797,3.136-43.455,18.149c-14.482,20.402-10.584,55.802,7.993,70.81c12.94,10.451,27.934,11.469,43.522,7.753
	c1.265-0.302,2.999-2.304,3.028-3.551C728.625,104.799,728.518,94.482,728.518,83.326z"/>
<path fill-rule="evenodd" clip-rule="evenodd" d="M538.586,139.273c-8.397,0-16.364,0-24.866,0
	c3.548-11.718,6.974-23.131,10.458-34.525c9.948-32.539,19.958-65.06,29.819-97.625c1.057-3.49,2.495-5.096,6.466-4.898
	c7.481,0.373,15-0.042,22.49,0.24c1.445,0.055,3.706,1.531,4.109,2.815c13.824,44.031,27.468,88.117,41.133,132.198
	c0.143,0.463,0.195,0.953,0.398,1.975c-7.926,0-15.684,0.143-23.423-0.159c-1.125-0.044-2.706-2.046-3.159-3.439
	c-3.438-10.579-6.758-21.201-9.848-31.887c-0.75-2.597-1.873-3.449-4.476-3.426c-11.5,0.105-23.001,0.117-34.5-0.008
	c-2.71-0.029-3.672,1.05-4.37,3.55C545.561,115.757,542.072,127.366,538.586,139.273z M586.669,81.3
	c-5.566-19.185-11.028-38.006-16.522-56.944c-5.329,18.968-10.633,37.847-16,56.944C564.948,81.3,575.563,81.3,586.669,81.3z"/>
<path fill-rule="evenodd" clip-rule="evenodd" d="M288.757,110.957c10.503-35.393,21.341-71.913,32.182-108.444
	c8.866,0,17.164,0,25.975,0c-15.123,45.793-30.145,91.282-45.18,136.809c-9.266,0-18.246,0-27.729,0
	c-14.034-45.395-28.086-90.85-42.344-136.968c8.485,0,16.429-0.142,24.354,0.17c1.055,0.042,2.536,2.236,2.951,3.683
	C269.071,41.465,279.058,76.758,288.757,110.957z"/>
<path fill-rule="evenodd" clip-rule="evenodd" d="M1121.228,139.247c0-3.498,0-6.157,0-8.815c0-39.826,0.106-79.653-0.127-119.478
	c-0.031-5.375,1.083-7.32,6.856-7.873c17.455-1.67,34.824-3.009,52.217,0.322c27.478,5.263,45.179,25.004,48.112,53.076
	c1.586,15.172,0.383,29.93-5.193,44.134c-6.771,17.245-18.966,28.954-36.641,34.943
	C1165.187,142.761,1143.515,140.805,1121.228,139.247z M1138.408,126.356c7.075,0,13.712,0.291,20.313-0.058
	c16.552-0.874,31.405-5.633,41.727-19.739c7.126-9.737,10.179-21.04,10.323-32.763c0.111-9.025-0.601-18.412-3.045-27.044
	c-5.346-18.881-21.608-29.991-44.114-31.063c-8.343-0.397-16.75,0.564-25.204,0.91C1138.408,53.5,1138.408,89.095,1138.408,126.356z
	"/>
<path fill-rule="evenodd" clip-rule="evenodd" d="M1409.547,69.758c-0.467,17.15-3.662,33.402-13.551,47.804
	c-21.798,31.746-70.115,32.536-92.803,1.523c-18.883-25.815-18.217-71.765,1.354-96.674c14.168-18.033,33.007-24.823,55.18-21.663
	c21.475,3.061,35.636,16.037,43.537,35.92c2.011,5.058,3.517,10.405,4.508,15.757C1408.827,58.117,1408.993,63.973,1409.547,69.758z
	 M1391.256,71.304c-0.054-13.895-2.613-26.618-9.822-38.105c-15.845-25.242-49.652-25.199-64.221,0.83
	c-13.323,23.805-13.64,48.932-0.544,72.928c14.884,27.271,49.859,26.997,65.598,0.166
	C1388.839,95.916,1391.114,83.613,1391.256,71.304z"/>
<path fill-rule="evenodd" clip-rule="evenodd" d="M996.16,2.531c5.523,0,10.805,0,16.786,0c0,1.94,0,3.707,0,5.474
	c0,25.999-0.389,52.007,0.227,77.992c0.195,8.276,2.016,16.881,4.94,24.639c4.215,11.183,13.44,16.436,25.519,16.369
	c12.154-0.066,21.823-5.096,26.118-16.458c3.104-8.214,4.895-17.359,5.124-26.146c0.66-25.315,0.233-50.658,0.233-75.991
	c0-1.807,0-3.614,0-5.744c5.744,0,11.127,0,16.837,0c0.093,1.066,0.249,2.019,0.248,2.971c-0.03,27.831,0.092,55.664-0.207,83.492
	c-0.111,10.387-2.437,20.453-7.458,29.719c-7.836,14.457-20.399,21.421-36.414,22.605c-12.21,0.904-23.975-0.48-34.064-8.35
	c-12.089-9.426-17.176-22.814-17.64-37.18c-0.989-30.627-0.555-61.3-0.689-91.955C995.717,3.657,995.903,3.344,996.16,2.531z"/>
<path fill-rule="evenodd" clip-rule="evenodd" d="M801.11,118.852c7.726,2.446,14.969,5.777,22.527,6.824
	c6.692,0.926,14.184,0.658,20.538-1.447c16.274-5.394,20.199-26.823,7.146-37.995c-4.812-4.118-10.999-6.672-16.672-9.729
	c-6.267-3.375-13.008-5.985-18.935-9.858c-12.295-8.035-17.391-19.911-15.539-34.37c1.723-13.442,9.192-23.164,21.704-28.247
	c16.462-6.688,32.773-4.949,49.285,2.356c-1.562,4.996-3.021,9.665-4.317,13.807c-7.529-1.751-14.771-4.16-22.181-4.908
	c-5.082-0.513-10.776,0.333-15.538,2.229c-13.184,5.247-16.711,22.625-6.189,32.048c5.66,5.069,13.15,8.122,19.892,11.951
	c6.479,3.681,13.519,6.555,19.494,10.907c12.33,8.98,15.587,22.044,13.425,36.414c-2.194,14.572-10.882,24.602-24.696,29.353
	c-17.12,5.888-34.062,4.165-50.446-3.356c-1.176-0.54-2.213-1.383-3.495-2.2C798.528,127.75,799.9,123.022,801.11,118.852z"/>
<path fill-rule="evenodd" clip-rule="evenodd" d="M941.086,139.323c-6.052,0-11.19,0-16.919,0c0-40.446,0-80.807,0-121.77
	c-13.619,0-26.666,0-39.97,0c0-5.197,0-9.798,0-14.813c32.004,0,64.036,0,96.405,0c0,4.72,0,9.436,0,14.576
	c-13.096,0-26.021,0-39.517,0C941.086,58.093,941.086,98.459,941.086,139.323z"/>
<path fill-rule="evenodd" clip-rule="evenodd" d="M385.443,139.208c-7.938,0-15.528,0-23.375,0c0-45.609,0-90.967,0-136.601
	c7.84,0,15.426,0,23.375,0C385.443,48.046,385.443,93.404,385.443,139.208z"/>
<path fill-rule="evenodd" clip-rule="evenodd" d="M1267.665,139.258c-5.701,0-10.986,0-16.642,0c0-45.55,0-90.901,0-136.59
	c5.478,0,10.887,0,16.642,0C1267.665,48.095,1267.665,93.455,1267.665,139.258z"/>
</svg>
