<?xml version="1.0" encoding="utf-8"?>
<!-- Generator: Adobe Illustrator 16.0.0, SVG Export Plug-In . SVG Version: 6.00 Build 0)  -->
<!DOCTYPE svg PUBLIC "-//W3C//DTD SVG 1.1//EN" "http://www.w3.org/Graphics/SVG/1.1/DTD/svg11.dtd">
<svg version="1.1" id="Layer_1" xmlns="http://www.w3.org/2000/svg" xmlns:xlink="http://www.w3.org/1999/xlink" x="0px" y="0px"
	 width="1467.717px" height="422.624px" viewBox="0 0 1467.717 422.624" enable-background="new 0 0 1467.717 422.624"
	 xml:space="preserve">
<path fill-rule="evenodd" clip-rule="evenodd" d="M734.462,0.269c0,9.904,0.137,19.217-0.161,28.516
	c-0.042,1.254-2.103,3.241-3.511,3.536c-29.247,6.122-58.53,12.078-87.818,18.008c-43.766,8.861-87.544,17.659-131.31,26.518
	c-56.782,11.494-113.551,23.042-170.334,34.527c-46.692,9.444-93.391,18.853-140.103,28.192c-3.32,0.663-4.991,2.564-6.5,5.38
	c-36.841,68.79-73.758,137.539-110.657,206.296c-2.832,5.276-5.482,10.661-8.55,15.796c-0.882,1.476-2.862,3.093-4.457,3.227
	c-22.553,1.883-45.125,3.523-67.694,5.212c-0.818,0.062-1.646,0.008-3.367,0.008c0.905-1.881,1.514-3.285,2.238-4.627
	C46.485,288.858,90.754,206.87,134.95,124.843c1.62-3.007,3.458-4.655,7.032-5.365c52.593-10.452,105.146-21.101,157.708-31.706
	c49.951-10.078,99.904-20.149,149.853-30.244C500.158,47.298,550.769,37.045,601.381,26.8c42.299-8.563,84.597-17.134,126.898-25.68
	C730.064,0.76,731.892,0.617,734.462,0.269z"/>
<path fill-rule="evenodd" clip-rule="evenodd" d="M733.065,0c19.011,3.792,37.088,7.362,55.148,11.008
	c44.102,8.904,88.196,17.848,132.296,26.769c65.403,13.23,130.805,26.471,196.214,39.677
	c51.906,10.479,103.823,20.905,155.732,31.369c17.739,3.576,35.448,7.308,53.224,10.696c3.357,0.641,5.176,2.144,6.725,5.021
	c29.499,54.791,59.083,109.536,88.642,164.295c14.544,26.94,29.076,53.887,43.606,80.835c0.919,1.704,1.774,3.442,3.065,5.956
	c-7.175-0.44-13.433-0.746-19.678-1.222c-16.925-1.288-33.856-2.514-50.748-4.149c-2.086-0.202-4.741-2.313-5.793-4.261
	c-30.994-57.387-61.824-114.861-92.665-172.33c-8.813-16.42-17.475-32.921-26.498-49.223c-1.173-2.117-3.905-4.233-6.25-4.712
	c-64.892-13.255-129.837-26.243-194.751-39.391c-68.331-13.84-136.635-27.82-204.958-41.698
	c-43.108-8.756-86.236-17.416-129.327-26.259c-1.488-0.306-3.771-2.097-3.81-3.257C732.929,19.668,733.065,10.199,733.065,0z"/>
<path fill-rule="evenodd" clip-rule="evenodd" d="M446.409,302.511c-3.55,4.575-7.437,8.93-10.586,13.765
	c-11.523,17.688-27.826,29.911-45.925,39.808c-9.948,5.441-19.002,2.342-21.581-6.926c-1.157-4.162-0.661-9.427,0.837-13.555
	c3.618-9.971,8.26-19.569,12.509-29.309c0.841-1.929,1.771-3.816,1.771-6.332c-4.525,5.315-8.984,10.689-13.61,15.914
	c-1.619,1.828-3.448,3.692-5.571,4.77c-1.254,0.636-4.121,0.344-4.747-0.569c-0.894-1.304-0.424-3.56-0.468-5.41
	c-0.006-0.261,0.376-0.529,0.576-0.795c11.218-14.893,22.403-29.808,33.687-44.65c1.8-2.366,3.679-5.019,6.149-6.466
	c7.116-4.169,11.176-4.229,16.002,1.702c6.481,7.966,8.339,15.7,3.811,25.23c-4.415,9.289-8.224,18.886-11.857,28.516
	c-1.09,2.888-0.699,6.336-0.986,9.528c2.907-1.525,6.213-2.577,8.662-4.645c28.475-24.033,47.992-54.97,66.445-86.713
	c5.349-9.202,10.585-18.48,16.28-27.466c3.221-5.083,4.219-4.94,8.905-0.93c1.64,1.403,3.259,2.889,4.604,4.566
	c5.635,7.028,7.423,14.311,3.049,23.023c-13.133,26.16-25.866,52.522-38.7,78.832c-1.231,2.525-2.377,5.174-2.982,7.895
	c-0.378,1.701,0.334,3.644,0.557,5.479c1.881-0.269,4.277,0.103,5.551-0.922c4.394-3.53,8.714-7.26,12.485-11.435
	c11.168-12.362,21.88-25.137,33.113-37.438c9.677-10.597,20.949-19.145,35.245-22.458c3.708-0.859,7.967-0.479,11.742,0.364
	c5.147,1.152,8.096,6.314,7.484,11.466c-0.636,5.369-5.434,10.008-10.666,10.144c-1.643,0.043-3.31-0.244-4.944-0.515
	c-6.073-1.005-10.273,3.031-8.842,9.068c1.297,5.469,3.245,10.789,4.999,16.145c1.749,5.337,3.613,10.636,5.75,16.901
	c1.638-1.439,3.462-2.809,5.009-4.439c13.393-14.122,26.333-28.704,40.253-42.281c7.747-7.555,17.312-12.967,28.744-13.676
	c14.813-0.921,25.255,10.261,22.425,25.044c-1.641,8.566-4.333,17.032-7.52,25.164c-1.772,4.523-2.389,8.262,0.469,12.732
	c1.385-0.588,3.128-0.892,4.271-1.887c5.652-4.923,11.808-9.479,16.551-15.191c8.287-9.979,15.626-20.741,23.459-31.102
	c2.709-3.581,5.504-7.14,8.628-10.35c4.294-4.415,7.31-4.332,12.108-0.314c7.635,6.39,9.86,18.282,5.138,27.761
	c-1.088,2.185-2.37,4.272-2.888,7.119c1.156-0.951,2.366-1.842,3.457-2.861c12.31-11.498,24.746-22.821,39.677-30.968
	c6.913-3.771,10.842-3.388,15.908,1.024c3.711,3.232,4.529,6.955,2.641,11.155c-4.016,8.936-8.318,17.742-12.471,26.617
	c-3.239,6.921-6.566,13.808-9.54,20.844c-0.68,1.608-0.066,3.764-0.048,5.667c1.876-0.225,4.16,0.156,5.557-0.782
	c4.935-3.318,9.642-6.993,14.273-10.733c1.791-1.446,2.974-3.648,4.77-5.086c1.137-0.91,2.897-1.044,4.378-1.526
	c0.464,1.661,1.727,3.632,1.229,4.921c-1.111,2.882-2.575,6.018-4.822,8.004c-11.465,10.132-23.064,20.129-34.957,29.752
	c-4.999,4.047-11.446,4.417-17.67,3.623c-7.579-0.968-11.814-7.029-9.101-14.565c4.209-11.688,9.463-23.003,14.381-34.431
	c1.312-3.049,3.181-5.856,4.491-8.904c1.174-2.732-0.283-4.197-2.822-3.006c-2.778,1.305-5.614,3.096-7.595,5.391
	c-11.213,12.981-22.012,26.322-33.309,39.229c-4.449,5.083-9.695,9.505-14.84,13.923c-1.822,1.563-4.372,2.965-6.677,3.116
	c-3.277,0.216-8.06,0.344-9.585-1.572c-1.763-2.214-1.069-6.729-0.703-10.166c0.212-1.992,1.896-3.82,2.885-5.738
	c6.791-13.148,13.578-26.299,20.339-39.463c0.338-0.658,0.424-1.444-0.05-2.571c-7.186,7.771-14.511,15.419-21.517,23.351
	c-6.04,6.84-12.906,11.993-22.232,13.135c-0.825,0.101-1.799,0.585-2.443,0.301c-6.615-2.93-9.385,2.077-12.956,5.915
	c-9.371,10.071-20.327,17.136-34.697,17.222c-14.713,0.088-23.864-8.872-24.279-23.81c-0.073-2.641-0.01-5.285-0.01-8.343
	c-6.302,2.303-11.78,3.772-15.225,10.93c-9,18.696-28.042,25.098-47.791,18.698c-11.081-3.589-17.095-17.542-12.409-28.25
	c3.244-7.415,10.162-9.218,17.276-9.784c6.058-0.481,12.184-0.1,19.274-0.1c0-11.295,0-23.133,0-35.528
	c-2.193,1.891-4.752,3.662-6.777,5.915c-12.902,14.357-25.583,28.914-38.547,43.216c-8.19,9.034-16.862,17.727-28.342,22.509
	c-4.786,1.993-10.173,3.281-15.339,3.471c-9.774,0.36-16.609-8.042-13.591-17.309c3.48-10.681,8.411-20.891,12.771-31.28
	c0.802-1.912,1.887-3.706,2.841-5.554C447.212,303.017,446.81,302.764,446.409,302.511z M606.218,330.003
	c1.316,2.173,2.25,5.433,4.38,6.729c1.968,1.197,5.611,1.154,7.826,0.145c5.932-2.706,8.42-9.436,6.561-15.602
	c-3.023-10.026,1.049-15.897,11.264-16.396c1.175-0.058,3.074-0.489,3.359-1.236c2.76-7.229,5.914-14.412,7.589-21.915
	c1.186-5.313-3.731-8.367-8.729-5.932c-2.456,1.195-4.716,3.169-6.522,5.26c-9.554,11.052-16.074,23.947-21.886,37.212
	C608.549,321.719,607.685,325.456,606.218,330.003z M530.953,330.427c-0.391-0.566-0.782-1.134-1.173-1.7
	c-3.759-0.376-7.587-1.347-11.254-0.924c-2.574,0.297-5.617,1.987-7.118,4.034c-0.879,1.199,0.166,5.455,1.577,6.313
	c2.323,1.414,6.404,2.506,8.379,1.367C525.075,337.38,527.812,333.553,530.953,330.427z"/>
<path fill-rule="evenodd" clip-rule="evenodd" d="M1005.02,204.488c3.521,2.896,6.533,4.807,8.834,7.358
	c18.725,20.756,25.094,45.524,23.574,72.908c-1.183,21.309-7.542,40.347-22.786,55.92c-14.697,15.013-32.714,20.897-53.333,20.205
	c-13.828-0.465-26.951-3.77-39.389-9.681c-2.772-1.317-4.5-0.61-6.743,0.867c-17.184,11.325-35.854,14.369-55.766,9.398
	c-7.281-1.817-13.392-5.789-18.224-11.604c-5.231-6.298-9.035-13.524-6.088-21.561c3.155-8.604,10.77-13.134,19.624-14.319
	c14.681-1.967,28.657,1.23,41.993,7.447c1.65,0.77,3.278,1.589,5.642,2.737c2.476-4.705,4.901-9.318,7.458-14.179
	c-1.526-0.988-2.563-1.764-3.688-2.37c-19.829-10.686-29.826-27.159-29.788-49.805c0.058-34.309,22.561-63.863,55.839-72.264
	c18.559-4.686,36.725-2.171,53.979,5.762c4.334,1.992,7.414,1.826,11.35-0.467c7.789-4.541,15.964-8.288,25.332-7.979
	c1.314,0.043,2.745,0.033,3.895,0.55c1.235,0.556,2.688,1.526,3.107,2.662c0.258,0.699-1.016,2.377-1.993,3.041
	c-2.882,1.957-6.05,3.492-8.938,5.44C1014.688,197.405,1010.611,200.471,1005.02,204.488z M912.448,299.242
	c9.123-16.658,17.653-33.155,27.055-49.139c9.514-16.172,21.531-30.542,35.201-43.634c-32.605-20.526-77.38-2.069-87.684,35.171
	C878.939,270.844,896.447,292.222,912.448,299.242z M932.063,337.957c20.195,5.296,43.943-0.195,56.354-21.063
	c13.429-22.578,16.954-47.339,13.853-73.05c-0.981-8.143-4.604-15.691-10.326-21.994c-22.218,22.577-26.538,52.974-38.582,80.11
	c1.268,0.164,1.597,0.296,1.875,0.225c0.641-0.165,1.29-0.363,1.878-0.663c13.124-6.699,23.096-15.815,23.897-31.75
	c0.176-3.489,1.534-5.121,5.186-5.062c3.706,0.061,4.028,2.64,3.89,5.101c-0.213,3.768-0.419,7.692-1.606,11.223
	c-6.305,18.754-20.242,29.411-38.427,35.382c-1.358,0.445-3.106,0.808-3.861,1.817C941.436,324.597,936.909,331.135,932.063,337.957
	z M891.601,335.025c-0.131-0.641-0.263-1.281-0.394-1.923c-9.599-5.201-19.62-9.337-30.763-9.551
	c-4.495-0.087-8.661,2.193-10.274,6.572c-0.822,2.23-0.461,5.712,0.796,7.741c3.895,6.288,12.658,9.534,19.626,6.932
	C877.805,342.101,884.615,338.328,891.601,335.025z"/>
<path fill-rule="evenodd" clip-rule="evenodd" d="M1158.427,339.827c-6.765,4.743-12.656,9.05-18.731,13.08
	c-5.401,3.583-11.441,5.309-17.973,4.93c-10.686-0.619-17.093-7.747-16.461-18.406c0.186-3.114,0.753-6.208,1.321-10.713
	c-2.334,2.001-3.791,3.376-5.374,4.587c-8.98,6.872-17.794,13.993-27.095,20.405c-3.549,2.445-8.139,4.073-12.434,4.597
	c-8.383,1.021-14.82-5.001-14.086-13.387c0.541-6.169,2.225-12.392,4.385-18.226c2.53-6.834,6.142-13.267,9.258-19.886
	c0.876-1.858,1.655-3.762,1.449-6.2c-4.646,5.398-9.289,10.799-13.941,16.191c-0.869,1.008-1.633,2.607-2.692,2.85
	c-2.312,0.527-5.373,1.304-7.054,0.256c-2.757-1.717-0.903-4.31,0.664-6.394c11.013-14.628,21.979-29.291,33.005-43.909
	c3.44-4.561,7.105-9.202,13.337-9.489c2.433-0.112,5.044,1.413,7.384,2.577c1.082,0.538,1.649,2.048,2.549,3.027
	c6.136,6.679,7.529,13.879,3.656,22.416c-4.594,10.13-8.678,20.505-12.578,30.925c-0.982,2.626-0.423,5.831-0.572,8.77
	c2.631-1.417,5.758-2.324,7.812-4.331c14.509-14.182,29.591-27.712,42.136-43.926c13.828-17.873,35.219-22.922,57.311-15.089
	c1.604-3.249,3.2-6.629,4.918-9.943c4.303-8.3,8.677-8.979,15.44-2.46c8.608,8.3,9.66,13.708,4.234,24.439
	c-6.079,12.022-12.571,23.836-18.518,35.921c-1.941,3.944-2.955,8.404-3.92,12.733c-0.286,1.286,0.691,3.353,1.768,4.249
	c0.599,0.499,2.908-0.307,3.903-1.158c4.382-3.754,8.891-7.442,12.764-11.692c13.348-14.644,25.825-30.145,39.908-44.026
	c6.891-6.793,16.252-11.453,25.164-15.664c4.381-2.069,10.403-1.747,15.466-1.014c5.943,0.861,8.294,5.582,7.536,12.072
	c-0.616,5.267-5.119,9.438-10.426,9.573c-1.324,0.034-2.672-0.074-3.98-0.289c-7.36-1.212-11.297,2.675-9.418,9.987
	c1.563,6.089,3.972,11.957,5.928,17.948c1.436,4.393,2.744,8.825,4.398,14.178c2.436-1.895,4.666-3.654,6.924-5.377
	c1.421-1.085,2.771-2.689,4.362-3.009c1.724-0.346,4.479-0.07,5.333,1.045c0.83,1.084,0.41,3.94-0.483,5.387
	c-3.618,5.863-8.808,10.13-15.54,11.77c-3.078,0.75-4.291,2.329-5.463,4.938c-6.097,13.575-16.145,22.66-31.306,23.785
	c-6.727,0.498-13.968-0.821-20.417-2.983c-8.331-2.793-13.137-13.806-11.59-23.25c1.275-7.794,8.023-13.206,17.903-13.692
	c4.951-0.243,9.953,0.362,14.922,0.728c2.468,0.182,4.909,0.566,4.921-2.997c0.036-10.932,0.014-21.862,0.014-33.269
	c-1.985,1.676-4.45,3.297-6.342,5.427c-9.394,10.571-18.04,21.881-28.083,31.78c-12.414,12.24-25.649,23.71-39.188,34.702
	c-3.59,2.915-9.559,3.759-14.499,3.958c-8.632,0.349-13.628-6.279-12.249-14.827C1158.24,342.501,1158.271,341.532,1158.427,339.827
	z M1182.673,284.367c-0.948-1.303-2.155-4.321-3.346-4.315c-2.528,0.015-5.688,0.938-7.464,2.655
	c-11.088,10.724-20.163,23.014-26.688,37.038c-1.509,3.241-3.212,7.307,0.332,10.108c3.561,2.815,6.702-0.35,9.256-2.469
	c11.737-9.743,20.471-21.747,26.025-35.988C1181.566,289.403,1181.916,287.243,1182.673,284.367z M1254.391,328.773
	c-4.682-0.424-8.793-1.365-12.758-0.939c-2.349,0.253-5.121,2.238-6.444,4.267c-0.804,1.231,0.132,4.914,1.469,5.913
	c1.958,1.463,5.204,2.493,7.496,1.961C1249.536,338.723,1252.139,334.24,1254.391,328.773z"/>
<path fill-rule="evenodd" clip-rule="evenodd" d="M268.259,290.52c2.748-3.65,5.508-7.291,8.24-10.953
	c13.971-18.729,26.452-38.323,35.509-59.984c1.847-4.417,4.669-8.427,7.042-12.625c1.991-3.522,4.901-3.942,7.998-1.858
	c6.477,4.359,11.722,9.891,10.93,18.323c-1.164,12.386-3.037,24.707-4.548,37.063c-1.188,9.708-2.755,19.428,0.027,30.482
	c1.2-2.091,1.936-3.187,2.491-4.367c15.451-32.812,35.461-62.491,60.915-88.396c2.903-2.954,6.086-5.764,9.554-7.999
	c5.719-3.686,10.091-1.124,10.596,5.582c0.473,6.269-2.536,10.86-6.673,14.952c-9.47,9.365-19.433,18.272-28.425,28.072
	c-21.441,23.369-36.084,50.92-47.823,80.157c-3.219,8.018-6.597,15.977-10.123,23.865c-5.283,11.822-14.775,12.821-22.407,2.263
	c-6.305-8.722-7.799-19.087-8.054-29.392c-0.314-12.729,0.465-25.485,0.774-38.307c-0.834,1.056-1.896,2.415-2.971,3.764
	c-16.8,21.1-32.562,43.099-52.759,61.263c-3.709,3.336-7.605,6.489-11.609,9.463c-2.248,1.67-4.787,3.623-7.391,3.967
	c-3.375,0.447-6.945-0.582-10.43-0.976c0.394-3.108,0.098-6.519,1.304-9.271c4.45-10.151,10.516-19.733,13.812-30.209
	c2.789-8.863,3.056-18.64,3.607-28.062c0.945-16.18-0.447-32.559,5.625-49.402c-6.618,3.702-11.985,6.885-17.515,9.755
	c-8.232,4.271-16.214,9.02-26.273,7.855c-11.184-1.294-19.896-7.726-20.992-17.245c-0.763-6.627,1.381-12.883,4.946-18.444
	c7.672-11.965,18.24-20.135,32.194-23.591c1.119-0.277,2.39-0.679,3.422-0.4c1.901,0.514,3.676,1.492,5.504,2.276
	c-0.998,1.587-1.667,3.586-3.053,4.686c-4.49,3.565-8.891,7.049-9.953,13.176c-1.421,8.196,3.666,14.595,11.99,14.825
	c9.451,0.262,17.588-3.616,24.858-9.053c8.125-6.077,15.54-13.106,23.693-19.141c4.015-2.972,8.875-4.986,13.619-6.689
	c1.564-0.561,5.384,0.847,5.682,1.999c0.572,2.217,0.256,5.994-1.242,7.201c-9.877,7.96-10.8,19.129-11.309,30.283
	c-0.705,15.464-0.734,30.957-1.128,46.436c-0.069,2.713-0.51,5.416-0.779,8.124C267.51,290.164,267.884,290.342,268.259,290.52z"/>
<path fill-rule="evenodd" clip-rule="evenodd" d="M427.779,246.566c-10.899-0.052-16.113-6.56-13.859-17.297
	c2.658-12.663,9.886-21.103,20.669-21.864c13.448-0.95,19.331,5.458,16.84,17.729C448.7,238.579,439.683,246.622,427.779,246.566z"
	/>
<path fill-rule="evenodd" clip-rule="evenodd" d="M1107.809,246.567c-10.521-0.012-14.766-4.482-14.313-15.076
	c0.456-10.646,8.945-22.039,18.133-23.69c12.212-2.196,22.087,2.172,19.606,17.622C1129.393,236.9,1119.114,246.58,1107.809,246.567
	z"/>
<path fill-rule="evenodd" clip-rule="evenodd" d="M487.772,402.871c-88.069,0-176.138,0-264.206,0
	c-0.001-0.413-0.002-0.827-0.002-1.24c88.046,0,176.093,0,264.139,0C487.727,402.043,487.749,402.458,487.772,402.871z"/>
<path fill-rule="evenodd" clip-rule="evenodd" d="M1264.951,402.869c-88.069,0-176.138,0-264.206,0
	c-0.001-0.412-0.002-0.824-0.003-1.236c88.046,0,176.092,0,264.138,0C1264.903,402.044,1264.927,402.457,1264.951,402.869z"/>
<path fill-rule="evenodd" clip-rule="evenodd" d="M736.053,386.739c0,9.742,0.093,19.485-0.069,29.225
	c-0.037,2.228-0.952,4.439-1.462,6.66c-0.672-2.229-1.877-4.445-1.924-6.688c-0.211-9.989-0.187-19.986,0.002-29.977
	c0.031-1.674,1.288-3.323,1.978-4.985c1.833,1.05,4.424,1.646,5.373,3.226c5.304,8.834,10.208,17.908,15.26,26.895
	c0.953,1.694,1.96,3.357,2.942,5.034c0.437-0.057,0.873-0.113,1.309-0.171c0-2.357-0.001-4.717,0-7.075
	c0.001-8.161-0.077-16.324,0.085-24.482c0.024-1.267,1.143-2.512,1.755-3.767c0.567,0.221,1.133,0.441,1.7,0.661
	c0,12.798,0.03,25.597-0.059,38.394c-0.007,0.973-0.799,2.724-1.314,2.758c-1.331,0.087-3.095-0.189-3.981-1.048
	c-1.389-1.346-2.26-3.255-3.245-4.987c-5.665-9.955-11.298-19.929-16.943-29.896C736.989,386.588,736.521,386.665,736.053,386.739z"
	/>
<path fill-rule="evenodd" clip-rule="evenodd" d="M870.042,402.128c0.475-3.103,0.638-6.292,1.48-9.291
	c2.842-10.116,10.195-13.05,18.425-12.654c9.906,0.476,15.327,6.01,16.156,15.606c0.355,4.115,0.412,8.346-0.117,12.431
	c-1.31,10.123-8.548,15.661-19.317,15.264c-9.298-0.343-15.303-6.386-16.132-16.314c-0.139-1.652-0.02-3.325-0.02-4.99
	C870.359,402.163,870.201,402.146,870.042,402.128z M888.683,383.436c-6.986-0.012-12.169,3.295-13.41,10.183
	c-0.976,5.413-0.945,11.259-0.05,16.696c1.077,6.542,5.882,9.766,12.487,10.051c6.314,0.272,12.205-2.821,13.431-8.913
	c1.204-5.985,1.324-12.522,0.291-18.538C900.276,386.182,895.528,383.447,888.683,383.436z"/>
<path fill-rule="evenodd" clip-rule="evenodd" d="M690.051,383.603c-2.737,0-5.475-0.001-8.213,0c-9.825,0-9.824,0.001-9.8,9.744
	c0.004,1.651,0.001,3.304,0.001,5.695c5.484,0.277,10.689,0.542,15.893,0.806c0.011,0.714,0.021,1.428,0.032,2.142
	c-2.375,0.149-4.748,0.363-7.125,0.431c-2.648,0.075-5.3,0.018-8.752,0.018c0,5.224-0.17,10.156,0.158,15.055
	c0.059,0.868,2.14,2.179,3.373,2.283c3.639,0.31,7.321,0.057,10.984,0.149c1.466,0.037,2.925,0.402,4.388,0.618
	c-0.023,0.662-0.047,1.322-0.069,1.982c-3.102,0.137-6.203,0.382-9.304,0.393c-13.127,0.045-13.127,0.02-13.127-13.106
	c0-7.829,0.255-15.67-0.097-23.483c-0.205-4.554,1.451-5.856,5.744-5.514c4.138,0.33,8.323,0.028,12.486,0.103
	c1.164,0.021,2.321,0.391,3.481,0.601C690.087,382.212,690.069,382.908,690.051,383.603z"/>
<path fill-rule="evenodd" clip-rule="evenodd" d="M538.134,383.93c0,5.247,0,9.882,0,15.145c5.284,0.248,10.438,0.49,15.594,0.733
	c0.044,0.57,0.088,1.141,0.132,1.712c-4.763,2.255-10.269-0.073-15.538,1.416c0,5.295,0,10.7,0,17.138c5.874,0,11.793,0,17.712,0
	c0.052,0.435,0.104,0.87,0.154,1.305c-0.548,0.457-1.087,1.299-1.644,1.311c-5.827,0.126-11.66,0.244-17.478,0.019
	c-0.913-0.035-2.51-1.791-2.523-2.768c-0.172-12.79-0.114-25.583-0.114-38.576c7.467,0,14.422,0,21.377,0
	c0.047,0.595,0.094,1.19,0.14,1.785C550.176,383.402,544.406,383.656,538.134,383.93z"/>
<path fill-rule="evenodd" clip-rule="evenodd" d="M595.13,380.35c1.105,1.338,2.67,2.506,3.242,4.042
	c3.644,9.799,7.063,19.682,10.575,29.528c0.438,1.229,0.99,2.417,2.008,4.88c2.053-5.675,3.758-10.255,5.368-14.867
	c2.295-6.577,4.439-13.208,6.839-19.745c0.535-1.455,1.87-2.618,2.835-3.916c0.506,0.297,1.011,0.594,1.516,0.891
	c-0.438,1.495-0.801,3.015-1.323,4.478c-4.02,11.257-7.999,22.528-12.2,33.718c-0.521,1.389-2.123,2.859-3.511,3.237
	c-0.713,0.194-2.56-1.754-3.042-3.05c-4.692-12.595-9.203-25.258-13.764-37.9C594.158,381.213,594.644,380.782,595.13,380.35z"/>
<path fill-rule="evenodd" clip-rule="evenodd" d="M945.517,417.885c4.68,0.803,8.805,1.921,12.972,2.105
	c3.88,0.172,7.202-2.291,7.237-6.11c0.025-2.813-1.707-6.209-3.729-8.313c-2.065-2.15-5.468-2.992-8.238-4.493
	c-7.047-3.819-9.436-9.867-6.22-15.612c2.897-5.179,12.223-7.106,17.778-3.517c1.006,0.651,1.507,2.083,2.682,3.798
	c-4.148-0.922-7.339-2.394-10.333-2.064c-2.538,0.279-5.695,2.097-7.051,4.214c-1.84,2.871-0.459,6.227,2.499,8.222
	c2.459,1.657,5.129,3.026,7.794,4.348c7.994,3.964,10.594,8.675,8.259,15.201c-2.205,6.162-9.468,9.475-17.033,7.332
	C949.38,422.216,945.106,422.417,945.517,417.885z"/>
<path fill-rule="evenodd" clip-rule="evenodd" d="M803.572,381.476c10.101,0,20.201,0,30.302,0c0.039,0.623,0.077,1.248,0.116,1.871
	c-3.054,0.086-6.125,0.41-9.159,0.197c-3.73-0.262-4.915,1.125-4.833,4.851c0.222,9.983,0.15,19.978-0.012,29.963
	c-0.023,1.43-1.197,2.843-1.839,4.263c-0.541-1.358-1.532-2.712-1.55-4.076c-0.134-10.153-0.203-20.313-0.004-30.464
	c0.068-3.511-1.086-4.8-4.557-4.521c-2.827,0.228-5.686,0.047-8.53,0.047C803.528,382.897,803.55,382.186,803.572,381.476z"/>
</svg>
