<svg xmlns="http://www.w3.org/2000/svg" width="1467.717" height="422.624" xml:space="preserve"><path fill-rule="evenodd" clip-rule="evenodd" d="M734.462.269c0 9.904.137 19.217-.161 28.516-.042 1.254-2.103 3.241-3.511 3.536-29.247 6.122-58.53 12.078-87.818 18.008-43.766 8.861-87.544 17.659-131.31 26.518-56.782 11.494-113.551 23.042-170.334 34.527a63695.269 63695.269 0 0 1-140.103 28.192c-3.32.663-4.991 2.564-6.5 5.38-36.841 68.79-73.758 137.539-110.657 206.296-2.832 5.276-5.482 10.661-8.55 15.796-.882 1.476-2.862 3.093-4.457 3.227-22.553 1.883-45.125 3.523-67.694 5.212-.818.062-1.646.008-3.367.008.905-1.881 1.514-3.285 2.238-4.627 44.247-82 88.516-163.988 132.712-246.015 1.62-3.007 3.458-4.655 7.032-5.365 52.593-10.452 105.146-21.101 157.708-31.706 49.951-10.078 99.904-20.149 149.853-30.244 50.615-10.23 101.226-20.483 151.838-30.728 42.299-8.563 84.597-17.134 126.898-25.68 1.785-.36 3.613-.503 6.183-.851z"/><path fill-rule="evenodd" clip-rule="evenodd" d="M733.065 0c19.011 3.792 37.088 7.362 55.148 11.008 44.102 8.904 88.196 17.848 132.296 26.769 65.403 13.23 130.805 26.471 196.214 39.677 51.906 10.479 103.823 20.905 155.732 31.369 17.739 3.576 35.448 7.308 53.224 10.696 3.357.641 5.176 2.144 6.725 5.021 29.499 54.791 59.083 109.536 88.642 164.295a174440.41 174440.41 0 0 1 43.606 80.835c.919 1.704 1.774 3.442 3.065 5.956-7.175-.44-13.433-.746-19.678-1.222-16.925-1.288-33.856-2.514-50.748-4.149-2.086-.202-4.741-2.313-5.793-4.261-30.994-57.387-61.824-114.861-92.665-172.33-8.813-16.42-17.475-32.921-26.498-49.223-1.173-2.117-3.905-4.233-6.25-4.712-64.892-13.255-129.837-26.243-194.751-39.391-68.331-13.84-136.635-27.82-204.958-41.698-43.108-8.756-86.236-17.416-129.327-26.259-1.488-.306-3.771-2.097-3.81-3.257-.31-9.456-.174-18.925-.174-29.124zM446.409 302.511c-3.55 4.575-7.437 8.93-10.586 13.765-11.523 17.688-27.826 29.911-45.925 39.808-9.948 5.441-19.002 2.342-21.581-6.926-1.157-4.162-.661-9.427.837-13.555 3.618-9.971 8.26-19.569 12.509-29.309.841-1.929 1.771-3.816 1.771-6.332-4.525 5.315-8.984 10.689-13.61 15.914-1.619 1.828-3.448 3.692-5.571 4.77-1.254.636-4.121.344-4.747-.569-.894-1.304-.424-3.56-.468-5.41-.006-.261.376-.529.576-.795 11.218-14.893 22.403-29.808 33.687-44.65 1.8-2.366 3.679-5.019 6.149-6.466 7.116-4.169 11.176-4.229 16.002 1.702 6.481 7.966 8.339 15.7 3.811 25.23-4.415 9.289-8.224 18.886-11.857 28.516-1.09 2.888-.699 6.336-.986 9.528 2.907-1.525 6.213-2.577 8.662-4.645 28.475-24.033 47.992-54.97 66.445-86.713 5.349-9.202 10.585-18.48 16.28-27.466 3.221-5.083 4.219-4.94 8.905-.93 1.64 1.403 3.259 2.889 4.604 4.566 5.635 7.028 7.423 14.311 3.049 23.023-13.133 26.16-25.866 52.522-38.7 78.832-1.231 2.525-2.377 5.174-2.982 7.895-.378 1.701.334 3.644.557 5.479 1.881-.269 4.277.103 5.551-.922 4.394-3.53 8.714-7.26 12.485-11.435 11.168-12.362 21.88-25.137 33.113-37.438 9.677-10.597 20.949-19.145 35.245-22.458 3.708-.859 7.967-.479 11.742.364 5.147 1.152 8.096 6.314 7.484 11.466-.636 5.369-5.434 10.008-10.666 10.144-1.643.043-3.31-.244-4.944-.515-6.073-1.005-10.273 3.031-8.842 9.068 1.297 5.469 3.245 10.789 4.999 16.145 1.749 5.337 3.613 10.636 5.75 16.901 1.638-1.439 3.462-2.809 5.009-4.439 13.393-14.122 26.333-28.704 40.253-42.281 7.747-7.555 17.312-12.967 28.744-13.676 14.813-.921 25.255 10.261 22.425 25.044-1.641 8.566-4.333 17.032-7.52 25.164-1.772 4.523-2.389 8.262.469 12.732 1.385-.588 3.128-.892 4.271-1.887 5.652-4.923 11.808-9.479 16.551-15.191 8.287-9.979 15.626-20.741 23.459-31.102 2.709-3.581 5.504-7.14 8.628-10.35 4.294-4.415 7.31-4.332 12.108-.314 7.635 6.39 9.86 18.282 5.138 27.761-1.088 2.185-2.37 4.272-2.888 7.119 1.156-.951 2.366-1.842 3.457-2.861 12.31-11.498 24.746-22.821 39.677-30.968 6.913-3.771 10.842-3.388 15.908 1.024 3.711 3.232 4.529 6.955 2.641 11.155-4.016 8.936-8.318 17.742-12.471 26.617-3.239 6.921-6.566 13.808-9.54 20.844-.68 1.608-.066 3.764-.048 5.667 1.876-.225 4.16.156 5.557-.782 4.935-3.318 9.642-6.993 14.273-10.733 1.791-1.446 2.974-3.648 4.77-5.086 1.137-.91 2.897-1.044 4.378-1.526.464 1.661 1.727 3.632 1.229 4.921-1.111 2.882-2.575 6.018-4.822 8.004-11.465 10.132-23.064 20.129-34.957 29.752-4.999 4.047-11.446 4.417-17.67 3.623-7.579-.968-11.814-7.029-9.101-14.565 4.209-11.688 9.463-23.003 14.381-34.431 1.312-3.049 3.181-5.856 4.491-8.904 1.174-2.732-.283-4.197-2.822-3.006-2.778 1.305-5.614 3.096-7.595 5.391-11.213 12.981-22.012 26.322-33.309 39.229-4.449 5.083-9.695 9.505-14.84 13.923-1.822 1.563-4.372 2.965-6.677 3.116-3.277.216-8.06.344-9.585-1.572-1.763-2.214-1.069-6.729-.703-10.166.212-1.992 1.896-3.82 2.885-5.738a19325.481 19325.481 0 0 0 20.339-39.463c.338-.658.424-1.444-.05-2.571-7.186 7.771-14.511 15.419-21.517 23.351-6.04 6.84-12.906 11.993-22.232 13.135-.825.101-1.799.585-2.443.301-6.615-2.93-9.385 2.077-12.956 5.915-9.371 10.071-20.327 17.136-34.697 17.222-14.713.088-23.864-8.872-24.279-23.81-.073-2.641-.01-5.285-.01-8.343-6.302 2.303-11.78 3.772-15.225 10.93-9 18.696-28.042 25.098-47.791 18.698-11.081-3.589-17.095-17.542-12.409-28.25 3.244-7.415 10.162-9.218 17.276-9.784 6.058-.481 12.184-.1 19.274-.1v-35.528c-2.193 1.891-4.752 3.662-6.777 5.915-12.902 14.357-25.583 28.914-38.547 43.216-8.19 9.034-16.862 17.727-28.342 22.509-4.786 1.993-10.173 3.281-15.339 3.471-9.774.36-16.609-8.042-13.591-17.309 3.48-10.681 8.411-20.891 12.771-31.28.802-1.912 1.887-3.706 2.841-5.554-.395-.255-.797-.508-1.198-.761zm159.809 27.492c1.316 2.173 2.25 5.433 4.38 6.729 1.968 1.197 5.611 1.154 7.826.145 5.932-2.706 8.42-9.436 6.561-15.602-3.023-10.026 1.049-15.897 11.264-16.396 1.175-.058 3.074-.489 3.359-1.236 2.76-7.229 5.914-14.412 7.589-21.915 1.186-5.313-3.731-8.367-8.729-5.932-2.456 1.195-4.716 3.169-6.522 5.26-9.554 11.052-16.074 23.947-21.886 37.212-1.511 3.451-2.375 7.188-3.842 11.735zm-75.265.424-1.173-1.7c-3.759-.376-7.587-1.347-11.254-.924-2.574.297-5.617 1.987-7.118 4.034-.879 1.199.166 5.455 1.577 6.313 2.323 1.414 6.404 2.506 8.379 1.367 3.711-2.137 6.448-5.964 9.589-9.09zm474.067-125.939c3.521 2.896 6.533 4.807 8.834 7.358 18.725 20.756 25.094 45.524 23.574 72.908-1.183 21.309-7.542 40.347-22.786 55.92-14.697 15.013-32.714 20.897-53.333 20.205-13.828-.465-26.951-3.77-39.389-9.681-2.772-1.317-4.5-.61-6.743.867-17.184 11.325-35.854 14.369-55.766 9.398-7.281-1.817-13.392-5.789-18.224-11.604-5.231-6.298-9.035-13.524-6.088-21.561 3.155-8.604 10.77-13.134 19.624-14.319 14.681-1.967 28.657 1.23 41.993 7.447 1.65.77 3.278 1.589 5.642 2.737 2.476-4.705 4.901-9.318 7.458-14.179-1.526-.988-2.563-1.764-3.688-2.37-19.829-10.686-29.826-27.159-29.788-49.805.058-34.309 22.561-63.863 55.839-72.264 18.559-4.686 36.725-2.171 53.979 5.762 4.334 1.992 7.414 1.826 11.35-.467 7.789-4.541 15.964-8.288 25.332-7.979 1.314.043 2.745.033 3.895.55 1.235.556 2.688 1.526 3.107 2.662.258.699-1.016 2.377-1.993 3.041-2.882 1.957-6.05 3.492-8.938 5.44-4.223 2.851-8.3 5.917-13.891 9.934zm-92.572 94.754c9.123-16.658 17.653-33.155 27.055-49.139 9.514-16.172 21.531-30.542 35.201-43.634-32.605-20.526-77.38-2.069-87.684 35.171-8.081 29.204 9.427 50.582 25.428 57.602zm19.615 38.715c20.195 5.296 43.943-.195 56.354-21.063 13.429-22.578 16.954-47.339 13.853-73.05-.981-8.143-4.604-15.691-10.326-21.994-22.218 22.577-26.538 52.974-38.582 80.11 1.268.164 1.597.296 1.875.225.641-.165 1.29-.363 1.878-.663 13.124-6.699 23.096-15.815 23.897-31.75.176-3.489 1.534-5.121 5.186-5.062 3.706.061 4.028 2.64 3.89 5.101-.213 3.768-.419 7.692-1.606 11.223-6.305 18.754-20.242 29.411-38.427 35.382-1.358.445-3.106.808-3.861 1.817-4.758 6.364-9.285 12.902-14.131 19.724zm-40.462-2.932-.394-1.923c-9.599-5.201-19.62-9.337-30.763-9.551-4.495-.087-8.661 2.193-10.274 6.572-.822 2.23-.461 5.712.796 7.741 3.895 6.288 12.658 9.534 19.626 6.932 7.213-2.695 14.023-6.468 21.009-9.771z"/><path fill-rule="evenodd" clip-rule="evenodd" d="M1158.427 339.827c-6.765 4.743-12.656 9.05-18.731 13.08-5.401 3.583-11.441 5.309-17.973 4.93-10.686-.619-17.093-7.747-16.461-18.406.186-3.114.753-6.208 1.321-10.713-2.334 2.001-3.791 3.376-5.374 4.587-8.98 6.872-17.794 13.993-27.095 20.405-3.549 2.445-8.139 4.073-12.434 4.597-8.383 1.021-14.82-5.001-14.086-13.387.541-6.169 2.225-12.392 4.385-18.226 2.53-6.834 6.142-13.267 9.258-19.886.876-1.858 1.655-3.762 1.449-6.2-4.646 5.398-9.289 10.799-13.941 16.191-.869 1.008-1.633 2.607-2.692 2.85-2.312.527-5.373 1.304-7.054.256-2.757-1.717-.903-4.31.664-6.394 11.013-14.628 21.979-29.291 33.005-43.909 3.44-4.561 7.105-9.202 13.337-9.489 2.433-.112 5.044 1.413 7.384 2.577 1.082.538 1.649 2.048 2.549 3.027 6.136 6.679 7.529 13.879 3.656 22.416-4.594 10.13-8.678 20.505-12.578 30.925-.982 2.626-.423 5.831-.572 8.77 2.631-1.417 5.758-2.324 7.812-4.331 14.509-14.182 29.591-27.712 42.136-43.926 13.828-17.873 35.219-22.922 57.311-15.089 1.604-3.249 3.2-6.629 4.918-9.943 4.303-8.3 8.677-8.979 15.44-2.46 8.608 8.3 9.66 13.708 4.234 24.439-6.079 12.022-12.571 23.836-18.518 35.921-1.941 3.944-2.955 8.404-3.92 12.733-.286 1.286.691 3.353 1.768 4.249.599.499 2.908-.307 3.903-1.158 4.382-3.754 8.891-7.442 12.764-11.692 13.348-14.644 25.825-30.145 39.908-44.026 6.891-6.793 16.252-11.453 25.164-15.664 4.381-2.069 10.403-1.747 15.466-1.014 5.943.861 8.294 5.582 7.536 12.072-.616 5.267-5.119 9.438-10.426 9.573a21.32 21.32 0 0 1-3.98-.289c-7.36-1.212-11.297 2.675-9.418 9.987 1.563 6.089 3.972 11.957 5.928 17.948 1.436 4.393 2.744 8.825 4.398 14.178 2.436-1.895 4.666-3.654 6.924-5.377 1.421-1.085 2.771-2.689 4.362-3.009 1.724-.346 4.479-.07 5.333 1.045.83 1.084.41 3.94-.483 5.387-3.618 5.863-8.808 10.13-15.54 11.77-3.078.75-4.291 2.329-5.463 4.938-6.097 13.575-16.145 22.66-31.306 23.785-6.727.498-13.968-.821-20.417-2.983-8.331-2.793-13.137-13.806-11.59-23.25 1.275-7.794 8.023-13.206 17.903-13.692 4.951-.243 9.953.362 14.922.728 2.468.182 4.909.566 4.921-2.997.036-10.932.014-21.862.014-33.269-1.985 1.676-4.45 3.297-6.342 5.427-9.394 10.571-18.04 21.881-28.083 31.78-12.414 12.24-25.649 23.71-39.188 34.702-3.59 2.915-9.559 3.759-14.499 3.958-8.632.349-13.628-6.279-12.249-14.827.153-.951.184-1.92.34-3.625zm24.246-55.46c-.948-1.303-2.155-4.321-3.346-4.315-2.528.015-5.688.938-7.464 2.655-11.088 10.724-20.163 23.014-26.688 37.038-1.509 3.241-3.212 7.307.332 10.108 3.561 2.815 6.702-.35 9.256-2.469 11.737-9.743 20.471-21.747 26.025-35.988.778-1.993 1.128-4.153 1.885-7.029zm71.718 44.406c-4.682-.424-8.793-1.365-12.758-.939-2.349.253-5.121 2.238-6.444 4.267-.804 1.231.132 4.914 1.469 5.913 1.958 1.463 5.204 2.493 7.496 1.961 5.382-1.252 7.985-5.735 10.237-11.202zM268.259 290.52c2.748-3.65 5.508-7.291 8.24-10.953 13.971-18.729 26.452-38.323 35.509-59.984 1.847-4.417 4.669-8.427 7.042-12.625 1.991-3.522 4.901-3.942 7.998-1.858 6.477 4.359 11.722 9.891 10.93 18.323-1.164 12.386-3.037 24.707-4.548 37.063-1.188 9.708-2.755 19.428.027 30.482 1.2-2.091 1.936-3.187 2.491-4.367 15.451-32.812 35.461-62.491 60.915-88.396 2.903-2.954 6.086-5.764 9.554-7.999 5.719-3.686 10.091-1.124 10.596 5.582.473 6.269-2.536 10.86-6.673 14.952-9.47 9.365-19.433 18.272-28.425 28.072-21.441 23.369-36.084 50.92-47.823 80.157a671.961 671.961 0 0 1-10.123 23.865c-5.283 11.822-14.775 12.821-22.407 2.263-6.305-8.722-7.799-19.087-8.054-29.392-.314-12.729.465-25.485.774-38.307-.834 1.056-1.896 2.415-2.971 3.764-16.8 21.1-32.562 43.099-52.759 61.263-3.709 3.336-7.605 6.489-11.609 9.463-2.248 1.67-4.787 3.623-7.391 3.967-3.375.447-6.945-.582-10.43-.976.394-3.108.098-6.519 1.304-9.271 4.45-10.151 10.516-19.733 13.812-30.209 2.789-8.863 3.056-18.64 3.607-28.062.945-16.18-.447-32.559 5.625-49.402-6.618 3.702-11.985 6.885-17.515 9.755-8.232 4.271-16.214 9.02-26.273 7.855-11.184-1.294-19.896-7.726-20.992-17.245-.763-6.627 1.381-12.883 4.946-18.444 7.672-11.965 18.24-20.135 32.194-23.591 1.119-.277 2.39-.679 3.422-.4 1.901.514 3.676 1.492 5.504 2.276-.998 1.587-1.667 3.586-3.053 4.686-4.49 3.565-8.891 7.049-9.953 13.176-1.421 8.196 3.666 14.595 11.99 14.825 9.451.262 17.588-3.616 24.858-9.053 8.125-6.077 15.54-13.106 23.693-19.141 4.015-2.972 8.875-4.986 13.619-6.689 1.564-.561 5.384.847 5.682 1.999.572 2.217.256 5.994-1.242 7.201-9.877 7.96-10.8 19.129-11.309 30.283-.705 15.464-.734 30.957-1.128 46.436-.069 2.713-.51 5.416-.779 8.124.376.176.75.354 1.125.532zm159.52-43.954c-10.899-.052-16.113-6.56-13.859-17.297 2.658-12.663 9.886-21.103 20.669-21.864 13.448-.95 19.331 5.458 16.84 17.729-2.729 13.445-11.746 21.488-23.65 21.432zm680.03.001c-10.521-.012-14.766-4.482-14.313-15.076.456-10.646 8.945-22.039 18.133-23.69 12.212-2.196 22.087 2.172 19.606 17.622-1.842 11.477-12.121 21.157-23.426 21.144zM487.772 402.871H223.566l-.002-1.24h264.139c.024.412.046.827.069 1.24zm777.179-.002h-264.206l-.003-1.236h264.138l.071 1.236zm-528.898-16.13c0 9.742.093 19.485-.069 29.225-.037 2.228-.952 4.439-1.462 6.66-.672-2.229-1.877-4.445-1.924-6.688-.211-9.989-.187-19.986.002-29.977.031-1.674 1.288-3.323 1.978-4.985 1.833 1.05 4.424 1.646 5.373 3.226 5.304 8.834 10.208 17.908 15.26 26.895.953 1.694 1.96 3.357 2.942 5.034.437-.057.873-.113 1.309-.171v-7.075c.001-8.161-.077-16.324.085-24.482.024-1.267 1.143-2.512 1.755-3.767l1.7.661c0 12.798.03 25.597-.059 38.394-.007.973-.799 2.724-1.314 2.758-1.331.087-3.095-.189-3.981-1.048-1.389-1.346-2.26-3.255-3.245-4.987-5.665-9.955-11.298-19.929-16.943-29.896-.471.072-.939.149-1.407.223zm133.989 15.389c.475-3.103.638-6.292 1.48-9.291 2.842-10.116 10.195-13.05 18.425-12.654 9.906.476 15.327 6.01 16.156 15.606.355 4.115.412 8.346-.117 12.431-1.31 10.123-8.548 15.661-19.317 15.264-9.298-.343-15.303-6.386-16.132-16.314-.139-1.652-.02-3.325-.02-4.99a85.976 85.976 0 0 1-.475-.052zm18.641-18.692c-6.986-.012-12.169 3.295-13.41 10.183-.976 5.413-.945 11.259-.05 16.696 1.077 6.542 5.882 9.766 12.487 10.051 6.314.272 12.205-2.821 13.431-8.913 1.204-5.985 1.324-12.522.291-18.538-1.156-6.733-5.904-9.468-12.749-9.479zm-198.632.167h-8.213c-9.825 0-9.824.001-9.8 9.744.004 1.651.001 3.304.001 5.695 5.484.277 10.689.542 15.893.806l.032 2.142c-2.375.149-4.748.363-7.125.431-2.648.075-5.3.018-8.752.018 0 5.224-.17 10.156.158 15.055.059.868 2.14 2.179 3.373 2.283 3.639.31 7.321.057 10.984.149 1.466.037 2.925.402 4.388.618l-.069 1.982c-3.102.137-6.203.382-9.304.393-13.127.045-13.127.02-13.127-13.106 0-7.829.255-15.67-.097-23.483-.205-4.554 1.451-5.856 5.744-5.514 4.138.33 8.323.028 12.486.103 1.164.021 2.321.391 3.481.601l-.053 2.083zm-151.917.327v15.145l15.594.733.132 1.712c-4.763 2.255-10.269-.073-15.538 1.416v17.138h17.712c.052.435.104.87.154 1.305-.548.457-1.087 1.299-1.644 1.311-5.827.126-11.66.244-17.478.019-.913-.035-2.51-1.791-2.523-2.768-.172-12.79-.114-25.583-.114-38.576h21.377l.14 1.785-17.812.78zm56.996-3.58c1.105 1.338 2.67 2.506 3.242 4.042 3.644 9.799 7.063 19.682 10.575 29.528.438 1.229.99 2.417 2.008 4.88 2.053-5.675 3.758-10.255 5.368-14.867 2.295-6.577 4.439-13.208 6.839-19.745.535-1.455 1.87-2.618 2.835-3.916l1.516.891c-.438 1.495-.801 3.015-1.323 4.478-4.02 11.257-7.999 22.528-12.2 33.718-.521 1.389-2.123 2.859-3.511 3.237-.713.194-2.56-1.754-3.042-3.05-4.692-12.595-9.203-25.258-13.764-37.9.485-.433.971-.864 1.457-1.296zm350.387 37.535c4.68.803 8.805 1.921 12.972 2.105 3.88.172 7.202-2.291 7.237-6.11.025-2.813-1.707-6.209-3.729-8.313-2.065-2.15-5.468-2.992-8.238-4.493-7.047-3.819-9.436-9.867-6.22-15.612 2.897-5.179 12.223-7.106 17.778-3.517 1.006.651 1.507 2.083 2.682 3.798-4.148-.922-7.339-2.394-10.333-2.064-2.538.279-5.695 2.097-7.051 4.214-1.84 2.871-.459 6.227 2.499 8.222 2.459 1.657 5.129 3.026 7.794 4.348 7.994 3.964 10.594 8.675 8.259 15.201-2.205 6.162-9.468 9.475-17.033 7.332-2.754-.78-7.028-.579-6.617-5.111zm-141.945-36.409h30.302l.116 1.871c-3.054.086-6.125.41-9.159.197-3.73-.262-4.915 1.125-4.833 4.851.222 9.983.15 19.978-.012 29.963-.023 1.43-1.197 2.843-1.839 4.263-.541-1.358-1.532-2.712-1.55-4.076-.134-10.153-.203-20.313-.004-30.464.068-3.511-1.086-4.8-4.557-4.521-2.827.228-5.686.047-8.53.047l.066-2.131z"/></svg>