<?xml version="1.0" encoding="utf-8"?>
<!-- Generator: Adobe Illustrator 16.0.0, SVG Export Plug-In . SVG Version: 6.00 Build 0)  -->
<!DOCTYPE svg PUBLIC "-//W3C//DTD SVG 1.1//EN" "http://www.w3.org/Graphics/SVG/1.1/DTD/svg11.dtd">
<svg version="1.1" id="Layer_1" xmlns="http://www.w3.org/2000/svg" xmlns:xlink="http://www.w3.org/1999/xlink" x="0px" y="0px"
	 width="1178.593px" height="302.656px" viewBox="0 0 1178.593 302.656" enable-background="new 0 0 1178.593 302.656"
	 xml:space="preserve">
<g>
	<path fill-rule="evenodd" clip-rule="evenodd" d="M1178.593,302.656c-392.864,0-785.729,0-1178.593,0C0,201.771,0,100.885,0,0
		c392.864,0,785.729,0,1178.593,0C1178.593,100.885,1178.593,201.771,1178.593,302.656z M589.14,288.487
		c91.838,0,183.677,0,275.516,0c98.484,0,196.969,0.001,295.452-0.001c4.341,0,4.331-0.009,4.331-4.229
		c-0.001-88.135,0.004-176.269-0.013-264.403c-0.001-6.018,1.142-5.686-5.804-5.686c-246.646,0-493.292,0-739.937,0
		c-133.346,0-266.692,0-400.038,0.001c-4.504,0-4.496,0.006-4.496,4.391c0.002,88.462,0.002,176.923,0.001,265.384
		c0,0.654,0.048,1.313-0.019,1.961c-0.185,1.8,0.556,2.66,2.402,2.581c1.196-0.051,2.396,0.001,3.595,0.001
		C209.802,288.487,399.471,288.487,589.14,288.487z"/>
	<path fill-rule="evenodd" clip-rule="evenodd" d="M372.75,95.563c-106.624,0-213.247,0-319.871,0
		c-0.033-0.333-0.066-0.666-0.099-0.998c5.855-3.195,11.715-6.383,17.566-9.585c13.606-7.447,27.197-14.921,40.814-22.347
		c18.378-10.021,36.757-20.042,55.2-29.943c1.419-0.762,3.353-0.779,5.047-0.78c68.959-0.037,137.918-0.024,206.877-0.034
		c42.269-0.006,84.538-0.039,126.806-0.041c1.005,0,2.009,0.213,3.111,1.047c-29.388,15.818-58.777,31.636-88.166,47.453
		c0.019,0.305,0.038,0.609,0.057,0.914c61.628,0,123.255,0,184.882,0c0.07,0.393,0.139,0.785,0.209,1.178
		c-2.612,1.336-5.212,2.692-7.835,4.006c-24.718,12.373-49.417,24.783-74.165,37.095c-32.569,16.202-65.194,32.291-97.764,48.492
		c-29.119,14.485-58.176,29.095-87.295,43.578c-21.935,10.91-43.939,21.68-65.887,32.565c-14.278,7.082-28.488,14.3-42.788,21.337
		c-1.663,0.817-3.702,1.225-5.566,1.227c-61.116,0.063-122.231,0.052-183.347,0.052c-2.318,0-4.635,0-6.953,0
		c-0.053-0.332-0.105-0.664-0.158-0.996c113.082-57.71,226.163-115.419,339.244-173.128
		C372.697,96.291,372.723,95.926,372.75,95.563z"/>
	<path fill-rule="evenodd" clip-rule="evenodd" d="M773.341,157.966c0-1.983,0-3.117,0-4.251
		c0.002-19.392-0.049-38.784,0.063-58.175c0.016-2.717-0.754-3.543-3.476-3.539c-52.51,0.082-105.021,0.081-157.53,0.082
		c-1.133,0-2.265-0.182-3.397-0.278c-0.063-0.287-0.126-0.574-0.188-0.861c12.014-5.719,24.028-11.439,36.042-17.159
		c0.027-0.228,0.055-0.455,0.081-0.683c-1.021-0.197-2.044-0.568-3.066-0.567c-60.79,0.006-121.579,0.046-182.369,0.061
		c-1.089,0-2.177-0.26-3.287-1.047c5.996-3.179,12-6.342,17.985-9.54c16.542-8.838,33.148-17.564,49.571-26.619
		c4.645-2.561,9.233-3.595,14.514-3.593c193.154,0.096,386.311,0.081,579.466,0.081c2.64,0,5.279,0,7.92,0
		c0.058,0.328,0.115,0.655,0.173,0.983c-3.829,2.051-7.663,4.095-11.487,6.156c-18.144,9.78-36.274,19.585-54.431,29.342
		c-16.429,8.829-32.869,17.64-49.361,26.35c-1.345,0.71-3.131,0.811-4.714,0.813c-32.465,0.044-64.93,0.145-97.394-0.064
		c-6.147-0.04-11.622,1.06-17.116,3.86c-18.174,9.261-36.517,18.189-54.8,27.232c-19.82,9.802-39.649,19.587-59.471,29.387
		C776.121,156.404,775.21,156.945,773.341,157.966z"/>
	<path fill-rule="evenodd" clip-rule="evenodd" d="M246.096,269.718c5.089-2.551,10.175-5.109,15.27-7.653
		c14.836-7.407,29.681-14.798,44.514-22.214c15.901-7.95,31.787-15.928,47.688-23.876c5.139-2.569,10.248-5.211,15.489-7.553
		c1.889-0.844,4.127-1.268,6.207-1.27c102.828-0.059,205.656-0.051,308.485-0.054c2.939-0.001,5.881-0.057,8.821-0.036
		c1.024,0.007,2.047,0.168,3.229,0.975c-2.466,1.358-4.916,2.745-7.398,4.071c-20.28,10.841-40.579,21.648-60.847,32.513
		c-15.577,8.351-31.095,16.81-46.707,25.095c-1.526,0.81-3.523,1.017-5.303,1.02c-36.491,0.057-72.982,0.036-109.473,0.044
		c-72.328,0.015-144.656,0.039-216.983,0.04c-0.983,0-1.966-0.25-2.95-0.384C246.125,270.196,246.11,269.958,246.096,269.718z"/>
	<path fill-rule="evenodd" clip-rule="evenodd" d="M599.739,269.704c11.221-6.092,22.441-12.185,33.663-18.275
		c14.583-7.915,29.154-15.851,43.772-23.699c1.273-0.684,2.841-0.902,4.304-1.126c1.171-0.18,2.392-0.04,3.59-0.04
		c151.325,0,302.65,0,453.977,0c1.198,0,2.398,0.041,3.595,0.001c1.614-0.053,2.373,0.582,2.368,2.301
		c-0.037,13.183,0.016,26.365-0.122,39.546c-0.009,0.793-1.279,1.918-2.198,2.267c-1.049,0.397-2.362,0.101-3.561,0.101
		c-177.363,0-354.728,0-532.09,0c-2.419,0-4.837,0-7.255,0C599.767,270.42,599.753,270.063,599.739,269.704z M990.217,257.827
		c-0.521-0.752-0.909-1.121-1.07-1.571c-2.365-6.64-4.757-13.271-7.011-19.949c-0.727-2.152-2.034-2.829-4.179-2.71
		c-2.469,0.137-2.255,1.945-2.375,3.51c-0.566,7.356-1.153,14.713-1.554,22.08c-0.075,1.383,0.473,3.927,1.06,4.028
		c2.869,0.493,1.964-2.393,2.761-3.818c0.146-0.261,0.098-0.639,0.109-0.964c0.202-5.54,0.381-11.081,0.613-16.619
		c0.05-1.2,0.288-2.392,0.544-4.418c0.727,1.157,1.021,1.475,1.147,1.85c2.374,7.096,4.683,14.215,7.137,21.283
		c0.374,1.078,1.401,1.931,2.126,2.887c0.949-0.91,2.286-1.649,2.774-2.762c1.524-3.475,2.757-7.08,4.052-10.653
		c1.421-3.923,2.787-7.866,4.177-11.801c0.88,1.307,1.097,2.604,1.148,3.908c0.237,5.974,0.287,11.96,0.752,17.915
		c0.094,1.201,1.696,2.286,2.604,3.425c0.454-1.233,1.348-2.488,1.292-3.698c-0.35-7.591-0.93-15.17-1.386-22.756
		c-0.094-1.566,0.043-3.137-2.14-3.35c-2.002-0.196-3.611,0.071-4.424,2.317c-1.255,3.466-2.759,6.843-4.052,10.296
		C992.938,249.96,991.673,253.709,990.217,257.827z M748.738,256.412c-0.316,0.059-0.633,0.117-0.949,0.176
		c-0.3-0.274-0.66-0.505-0.892-0.829c-4.79-6.706-9.504-13.47-14.416-20.087c-0.688-0.927-2.335-1.143-3.538-1.688
		c-0.464,1.092-1.313,2.178-1.33,3.277c-0.123,7.718-0.126,15.44-0.02,23.159c0.014,0.959,0.896,1.904,1.377,2.856
		c0.571-0.969,1.611-1.925,1.637-2.907c0.147-5.65,0.031-11.307,0.063-16.961c0.006-1.045,0.278-2.089,0.481-3.513
		c0.799,0.601,1.113,0.739,1.284,0.98c4.906,6.897,9.74,13.847,14.759,20.661c0.69,0.939,2.284,1.215,3.46,1.798
		c0.405-1.032,1.147-2.06,1.162-3.097c0.113-8.045,0.13-16.093,0.035-24.138c-0.009-0.788-0.965-1.565-1.48-2.348
		c-0.55,0.861-1.533,1.705-1.573,2.59c-0.171,3.798-0.063,7.608-0.061,11.414C748.74,250.642,748.738,253.526,748.738,256.412z
		 M1139.454,248.552c0.003-9.076-5.589-14.866-14.42-14.936c-9.208-0.071-15.279,6.035-15.25,15.339
		c0.029,8.938,5.81,14.773,14.612,14.752C1133.533,263.685,1139.452,257.728,1139.454,248.552z M823.206,263.694
		c8.967,0.191,15.213-5.667,15.419-14.463c0.224-9.485-5.32-15.491-14.409-15.611c-8.923-0.118-15.108,5.807-15.302,14.654
		C808.714,257.479,814.297,263.503,823.206,263.694z M1027.127,263.701c9.296-0.094,15.106-6.112,14.993-15.533
		c-0.106-8.918-6.021-14.736-14.8-14.561c-9.106,0.182-14.931,6.216-14.868,15.405
		C1012.512,257.95,1018.348,263.791,1027.127,263.701z M954.504,263.7c9.15-0.034,15.053-5.968,15.063-15.142
		c0.008-9.161-5.82-15.071-14.741-14.946c-9.104,0.127-14.972,6.154-14.933,15.339C939.931,257.9,945.708,263.733,954.504,263.7z
		 M878.533,262.865c-0.044-0.5,0.008-0.948-0.129-1.328c-3.046-8.474-6.05-16.964-9.261-25.375
		c-0.382-1.001-1.917-2.171-2.909-2.163c-1.03,0.009-2.54,1.139-2.984,2.154c-1.648,3.764-2.982,7.668-4.361,11.545
		c-1.77,4.978-3.468,9.98-5.232,15.074c2.958,1.335,3.949,0.015,4.634-2.342c1.67-5.751,1.73-5.733,7.406-5.731
		c6.346,0.002,6.409-0.02,8.488,6.103C874.966,263.104,876.063,264.092,878.533,262.865z M802.814,264.24
		c0.734-3.933-0.514-10.263-2.391-12.161c-1.74-1.76-1.71-2.764,0.212-4.395c4.63-3.93,2.982-12.015-2.597-13.002
		c-2.854-0.505-5.776-0.791-8.674-0.843c-4.928-0.085-5.216,0.305-5.219,5.104c-0.002,6.742,0,13.483,0.005,20.226
		c0.001,0.761-0.152,1.592,0.102,2.263c0.261,0.69,0.934,1.226,1.426,1.828c0.523-0.57,1.396-1.084,1.498-1.722
		c0.241-1.485,0.127-3.032,0.129-4.554c0.007-6.25,0.577-6.89,6.636-5.561c1.605,0.353,3.281,1.973,4.198,3.458
		c1.044,1.692,1.121,3.95,1.917,5.838C800.524,261.831,801.572,262.699,802.814,264.24z M908.161,244.88
		c-0.165-0.022-0.331-0.043-0.497-0.065c0-2.505,0.178-5.029-0.08-7.508c-0.117-1.12-1.1-2.15-1.689-3.222
		c-0.468,1.073-1.301,2.133-1.343,3.224c-0.215,5.547-0.084,11.107-0.358,16.649c-0.166,3.339-2.547,5.756-5.549,6.331
		c-6.401,1.229-10.179-1.629-10.406-8.148c-0.183-5.223,0.013-10.459-0.137-15.684c-0.022-0.811-0.993-1.595-1.526-2.392
		c-0.511,0.813-1.447,1.617-1.466,2.441c-0.124,5.662-0.222,11.335-0.002,16.991c0.207,5.297,3.657,9.216,8.275,9.987
		c6.254,1.045,11.327-1.12,13.02-6.471C907.619,253.169,907.618,248.938,908.161,244.88z M704.543,248.404
		c0,4.24,0.054,8.48-0.025,12.72c-0.033,1.796,0.658,2.62,2.451,2.618c4.131-0.006,8.264,0.094,12.391-0.015
		c0.771-0.021,1.521-0.815,2.281-1.252c-0.804-0.541-1.576-1.485-2.415-1.55c-2.702-0.203-5.431-0.056-8.147-0.104
		c-0.848-0.015-2.418-0.173-2.431-0.349c-0.239-3.541-0.328-7.095-0.304-10.646c0.001-0.157,1.357-0.42,2.087-0.437
		c2.281-0.053,4.583,0.155,6.841-0.083c1.003-0.105,1.919-1.037,2.875-1.594c-1.002-0.503-1.959-1.174-3.02-1.457
		c-0.913-0.243-1.943-0.041-2.922-0.04c-7.079,0.004-7.038,0.007-6.557-7.014c0.13-1.89,0.86-2.765,2.805-2.708
		c2.715,0.078,5.443,0.146,8.147-0.045c0.693-0.049,1.319-1.079,1.976-1.66c-0.667-0.412-1.325-1.163-2.003-1.181
		c-3.91-0.1-7.825-0.018-11.738-0.015c-1.876,0.002-2.354,1.039-2.322,2.742C704.586,240.358,704.536,244.382,704.543,248.404z
		 M1081.912,234.606c1.019,2.999,1.995,5.947,3.021,8.88c2.075,5.936,4.081,11.9,6.361,17.758c0.389,0.997,2.048,2.162,3.028,2.085
		c1.014-0.081,2.341-1.403,2.795-2.49c2.299-5.503,4.393-11.094,6.488-16.68c1.195-3.185,2.258-6.42,3.428-9.771
		c-2.315-0.743-3.646-0.507-4.341,1.527c-1.858,5.445-3.789,10.866-5.646,16.313c-0.814,2.39-1.516,4.819-2.582,8.239
		c-0.766-1.904-1.209-2.839-1.523-3.815c-2.158-6.708-4.354-13.407-6.397-20.151C1085.799,234.04,1084.569,233.329,1081.912,234.606
		z M691.748,260.44c-1.088,0-2.18,0.054-3.264-0.009c-5.664-0.324-9.709-3.541-10.592-8.384c-1.226-6.723,0.861-12.078,6.439-14.102
		c3.016-1.095,6.609-0.551,9.929-0.881c0.979-0.098,1.913-0.656,2.868-1.003c-0.813-0.722-1.542-1.931-2.454-2.093
		c-12.571-2.229-21.728,5.396-20.091,18.058c1.144,8.83,12.87,14.916,21.051,10.99c0.646-0.31,0.994-1.242,1.48-1.884
		c-0.704-0.323-1.39-0.854-2.118-0.92C693.93,260.117,692.833,260.354,691.748,260.44z M1058.072,250.093
		c0-3.48,0.07-6.962-0.026-10.439c-0.055-1.972,0.736-2.791,2.677-2.735c1.846,0.053,3.719,0.151,5.528-0.117
		c0.701-0.104,1.264-1.155,1.89-1.775c-0.646-0.468-1.285-1.331-1.937-1.341c-6.522-0.099-13.048-0.096-19.571,0.012
		c-0.62,0.011-1.227,0.924-1.84,1.418c0.658,0.597,1.244,1.568,1.987,1.71c1.471,0.279,3.043,0.241,4.546,0.079
		c2.928-0.315,3.74,0.933,3.665,3.757c-0.179,6.737-0.108,13.485,0.016,20.226c0.015,0.809,0.979,1.599,1.503,2.397
		c0.52-0.808,1.448-1.597,1.486-2.426C1058.162,257.275,1058.066,253.683,1058.072,250.093z M927.088,250.251
		c0-3.482,0.088-6.969-0.032-10.447c-0.074-2.137,0.769-2.979,2.861-2.893c1.843,0.074,3.712,0.119,5.531-0.114
		c0.644-0.082,1.176-1.025,1.759-1.575c-0.575-0.524-1.143-1.495-1.726-1.505c-6.635-0.105-13.272-0.104-19.907,0.008
		c-0.574,0.01-1.132,1-1.697,1.536c0.592,0.535,1.115,1.394,1.791,1.538c1.251,0.267,2.592,0.136,3.895,0.134
		c4.396-0.007,4.384-0.013,4.377,4.209c-0.01,6.53-0.054,13.062,0.063,19.59c0.016,0.857,0.898,1.698,1.38,2.546
		c0.569-0.858,1.583-1.693,1.632-2.582C927.206,257.223,927.093,253.733,927.088,250.251z M766.463,249.801
		c-0.004,0-0.007,0-0.011,0c0,3.699-0.094,7.403,0.072,11.095c0.037,0.817,0.99,1.594,1.521,2.39
		c0.512-0.812,1.17-1.569,1.487-2.449c0.244-0.676,0.063-1.506,0.063-2.268c-0.002-6.202,0.072-12.406-0.051-18.605
		c-0.045-2.295,0.792-3.188,3.035-3.049c1.625,0.101,3.299,0.232,4.878-0.055c0.831-0.151,1.504-1.172,2.248-1.799
		c-0.741-0.487-1.475-1.385-2.224-1.397c-6.309-0.112-12.621-0.111-18.93,0.004c-0.738,0.014-1.46,0.925-2.19,1.421
		c0.758,0.615,1.445,1.614,2.286,1.766c1.58,0.285,3.255,0.168,4.879,0.059c2.306-0.154,3.07,0.854,2.972,3.098
		C766.356,243.268,766.463,246.536,766.463,249.801z M1075.782,248.584c0-3.907,0.097-7.819-0.069-11.721
		c-0.041-0.951-0.946-1.867-1.455-2.799c-0.545,0.887-1.551,1.766-1.564,2.66c-0.125,7.923-0.123,15.849-0.007,23.771
		c0.014,0.937,0.939,1.858,1.442,2.787c0.553-0.992,1.532-1.963,1.58-2.979C1075.896,256.406,1075.785,252.492,1075.782,248.584z"/>
	<path fill-rule="evenodd" clip-rule="evenodd" d="M900.758,110.113c0,1.361,0,2.506,0,3.652c0,33.431-0.037,66.863,0.063,100.294
		c0.009,2.889-0.791,3.697-3.664,3.69c-40.074-0.085-80.149-0.085-120.223,0.001c-2.881,0.006-3.696-0.81-3.66-3.697
		c0.156-12.521,0.112-25.045,0.02-37.567c-0.016-2.123,0.606-3.536,2.494-4.474c20.474-10.172,40.959-20.321,61.402-30.555
		c20.731-10.377,41.419-20.842,62.131-31.258C899.495,110.112,899.742,110.167,900.758,110.113z"/>
	<path fill-rule="evenodd" clip-rule="evenodd" d="M32.083,95.68c-0.091-1.798-0.2-2.94-0.2-4.083
		c-0.01-18.726,0.063-37.453-0.077-56.178c-0.022-3.022,1.04-3.595,3.771-3.59c36.255,0.054,72.51,0.007,108.765,0.003
		c0.916,0,1.831,0.212,2.881,1.036C109.086,53.672,70.951,74.476,32.083,95.68z"/>
	<path fill-rule="evenodd" clip-rule="evenodd" d="M1146.718,31.683c0,2.116,0,3.394,0,4.672
		c-0.001,18.292-0.003,36.584-0.001,54.876c0,4.314,0.006,4.322-4.217,4.323c-34.951,0.003-69.902,0.002-104.854,0.003
		c-2.063,0-4.125,0-6.188,0c-0.021-0.325-0.041-0.649-0.061-0.975C1069.562,73.766,1107.727,52.95,1146.718,31.683z"/>
	<path fill-rule="evenodd" clip-rule="evenodd" d="M1136.26,248.936c-0.145,7.411-4.742,11.765-11.908,11.73
		c-7.082-0.033-11.55-5.08-11.374-12.254c0.186-7.575,4.869-11.759,11.907-11.729
		C1131.974,236.712,1136.453,241.748,1136.26,248.936z"/>
	<path fill-rule="evenodd" clip-rule="evenodd" d="M835.444,248.802c-0.151,7.221-4.95,12.069-11.803,11.929
		c-7.021-0.145-11.738-5.111-11.528-12.184c0.227-7.66,4.652-11.762,11.798-11.881C830.887,236.549,835.594,241.711,835.444,248.802
		z"/>
	<path fill-rule="evenodd" clip-rule="evenodd" d="M1015.656,248.422c0.133-7.522,4.836-11.769,11.887-11.746
		c7.063,0.023,11.572,5.102,11.389,12.247c-0.193,7.47-4.729,11.754-11.897,11.741
		C1019.97,260.652,1015.465,255.604,1015.656,248.422z"/>
	<path fill-rule="evenodd" clip-rule="evenodd" d="M966.36,249.165c-0.237,7.195-4.682,11.469-11.801,11.51
		c-7.172,0.042-11.736-5.126-11.45-12.494c0.274-7.055,5.043-11.728,11.796-11.558C962.061,236.804,966.672,241.852,966.36,249.165z
		"/>
	<path fill-rule="evenodd" clip-rule="evenodd" d="M866.219,236.979c1.629,4.82,2.975,8.798,4.316,12.776
		c0.035,0.103,0.094,0.238,0.056,0.316c-1.491,3.076-4.207,0.977-6.315,1.344c-0.689,0.119-2.456-1.469-2.338-1.867
		C863.111,245.558,864.575,241.652,866.219,236.979z"/>
	<path fill-rule="evenodd" clip-rule="evenodd" d="M786.495,241.813c0.908-1.688,1.404-4.155,2.812-4.9
		c2.826-1.497,8.707,0.42,10.045,2.566c1.645,2.64,0.483,6.729-2.798,7.784c-2.47,0.794-5.318,0.507-7.994,0.465
		c-0.435-0.007-1.091-1.204-1.219-1.927c-0.206-1.156-0.055-2.375-0.055-3.566C787.022,242.094,786.759,241.953,786.495,241.813z"/>
</g>
</svg>
