<svg xmlns="http://www.w3.org/2000/svg" width="1178.593" height="302.656" xml:space="preserve"><g fill-rule="evenodd" clip-rule="evenodd"><path d="M1178.593 302.656H0V0h1178.593v302.656zM589.14 288.487h275.516c98.484 0 196.969.001 295.452-.001 4.341 0 4.331-.009 4.331-4.229-.001-88.135.004-176.269-.013-264.403-.001-6.018 1.142-5.686-5.804-5.686H418.685l-400.038.001c-4.504 0-4.496.006-4.496 4.391.002 88.462.002 176.923.001 265.384 0 .654.048 1.313-.019 1.961-.185 1.8.556 2.66 2.402 2.581 1.196-.051 2.396.001 3.595.001h569.01z"/><path d="M372.75 95.563H52.879l-.099-.998c5.855-3.195 11.715-6.383 17.566-9.585 13.606-7.447 27.197-14.921 40.814-22.347 18.378-10.021 36.757-20.042 55.2-29.943 1.419-.762 3.353-.779 5.047-.78 68.959-.037 137.918-.024 206.877-.034 42.269-.006 84.538-.039 126.806-.041 1.005 0 2.009.213 3.111 1.047l-88.166 47.453.057.914h184.882l.209 1.178c-2.612 1.336-5.212 2.692-7.835 4.006-24.718 12.373-49.417 24.783-74.165 37.095-32.569 16.202-65.194 32.291-97.764 48.492-29.119 14.485-58.176 29.095-87.295 43.578-21.935 10.91-43.939 21.68-65.887 32.565-14.278 7.082-28.488 14.3-42.788 21.337-1.663.817-3.702 1.225-5.566 1.227-61.116.063-122.231.052-183.347.052h-6.953l-.158-.996L372.669 96.655l.081-1.092z"/><path d="M773.341 157.966v-4.251c.002-19.392-.049-38.784.063-58.175.016-2.717-.754-3.543-3.476-3.539-52.51.082-105.021.081-157.53.082-1.133 0-2.265-.182-3.397-.278l-.188-.861 36.042-17.159c.027-.228.055-.455.081-.683-1.021-.197-2.044-.568-3.066-.567-60.79.006-121.579.046-182.369.061a5.459 5.459 0 0 1-3.287-1.047c5.996-3.179 12-6.342 17.985-9.54 16.542-8.838 33.148-17.564 49.571-26.619 4.645-2.561 9.233-3.595 14.514-3.593 193.154.096 386.311.081 579.466.081h7.92l.173.983c-3.829 2.051-7.663 4.095-11.487 6.156-18.144 9.78-36.274 19.585-54.431 29.342-16.429 8.829-32.869 17.64-49.361 26.35-1.345.71-3.131.811-4.714.813-32.465.044-64.93.145-97.394-.064-6.147-.04-11.622 1.06-17.116 3.86-18.174 9.261-36.517 18.189-54.8 27.232-19.82 9.802-39.649 19.587-59.471 29.387-.948.467-1.859 1.008-3.728 2.029zM246.096 269.718c5.089-2.551 10.175-5.109 15.27-7.653 14.836-7.407 29.681-14.798 44.514-22.214 15.901-7.95 31.787-15.928 47.688-23.876 5.139-2.569 10.248-5.211 15.489-7.553 1.889-.844 4.127-1.268 6.207-1.27 102.828-.059 205.656-.051 308.485-.054 2.939-.001 5.881-.057 8.821-.036 1.024.007 2.047.168 3.229.975-2.466 1.358-4.916 2.745-7.398 4.071-20.28 10.841-40.579 21.648-60.847 32.513-15.577 8.351-31.095 16.81-46.707 25.095-1.526.81-3.523 1.017-5.303 1.02-36.491.057-72.982.036-109.473.044-72.328.015-144.656.039-216.983.04-.983 0-1.966-.25-2.95-.384-.013-.24-.028-.478-.042-.718zm353.643-.014c11.221-6.092 22.441-12.185 33.663-18.275 14.583-7.915 29.154-15.851 43.772-23.699 1.273-.684 2.841-.902 4.304-1.126 1.171-.18 2.392-.04 3.59-.04h453.977c1.198 0 2.398.041 3.595.001 1.614-.053 2.373.582 2.368 2.301-.037 13.183.016 26.365-.122 39.546-.009.793-1.279 1.918-2.198 2.267-1.049.397-2.362.101-3.561.101H599.782l-.043-1.076zm390.478-11.877c-.521-.752-.909-1.121-1.07-1.571-2.365-6.64-4.757-13.271-7.011-19.949-.727-2.152-2.034-2.829-4.179-2.71-2.469.137-2.255 1.945-2.375 3.51-.566 7.356-1.153 14.713-1.554 22.08-.075 1.383.473 3.927 1.06 4.028 2.869.493 1.964-2.393 2.761-3.818.146-.261.098-.639.109-.964.202-5.54.381-11.081.613-16.619.05-1.2.288-2.392.544-4.418.727 1.157 1.021 1.475 1.147 1.85 2.374 7.096 4.683 14.215 7.137 21.283.374 1.078 1.401 1.931 2.126 2.887.949-.91 2.286-1.649 2.774-2.762 1.524-3.475 2.757-7.08 4.052-10.653 1.421-3.923 2.787-7.866 4.177-11.801.88 1.307 1.097 2.604 1.148 3.908.237 5.974.287 11.96.752 17.915.094 1.201 1.696 2.286 2.604 3.425.454-1.233 1.348-2.488 1.292-3.698-.35-7.591-.93-15.17-1.386-22.756-.094-1.566.043-3.137-2.14-3.35-2.002-.196-3.611.071-4.424 2.317-1.255 3.466-2.759 6.843-4.052 10.296-1.384 3.703-2.649 7.452-4.105 11.57zm-241.479-1.415-.949.176c-.3-.274-.66-.505-.892-.829-4.79-6.706-9.504-13.47-14.416-20.087-.688-.927-2.335-1.143-3.538-1.688-.464 1.092-1.313 2.178-1.33 3.277a780.739 780.739 0 0 0-.02 23.159c.014.959.896 1.904 1.377 2.856.571-.969 1.611-1.925 1.637-2.907.147-5.65.031-11.307.063-16.961.006-1.045.278-2.089.481-3.513.799.601 1.113.739 1.284.98 4.906 6.897 9.74 13.847 14.759 20.661.69.939 2.284 1.215 3.46 1.798.405-1.032 1.147-2.06 1.162-3.097.113-8.045.13-16.093.035-24.138-.009-.788-.965-1.565-1.48-2.348-.55.861-1.533 1.705-1.573 2.59-.171 3.798-.063 7.608-.061 11.414.003 2.887.001 5.771.001 8.657zm390.716-7.86c.003-9.076-5.589-14.866-14.42-14.936-9.208-.071-15.279 6.035-15.25 15.339.029 8.938 5.81 14.773 14.612 14.752 9.137-.022 15.056-5.979 15.058-15.155zm-316.248 15.142c8.967.191 15.213-5.667 15.419-14.463.224-9.485-5.32-15.491-14.409-15.611-8.923-.118-15.108 5.807-15.302 14.654-.2 9.205 5.383 15.229 14.292 15.42zm203.921.007c9.296-.094 15.106-6.112 14.993-15.533-.106-8.918-6.021-14.736-14.8-14.561-9.106.182-14.931 6.216-14.868 15.405.06 8.938 5.896 14.779 14.675 14.689zm-72.623-.001c9.15-.034 15.053-5.968 15.063-15.142.008-9.161-5.82-15.071-14.741-14.946-9.104.127-14.972 6.154-14.933 15.339.038 8.949 5.815 14.782 14.611 14.749zm-75.971-.835c-.044-.5.008-.948-.129-1.328-3.046-8.474-6.05-16.964-9.261-25.375-.382-1.001-1.917-2.171-2.909-2.163-1.03.009-2.54 1.139-2.984 2.154-1.648 3.764-2.982 7.668-4.361 11.545-1.77 4.978-3.468 9.98-5.232 15.074 2.958 1.335 3.949.015 4.634-2.342 1.67-5.751 1.73-5.733 7.406-5.731 6.346.002 6.409-.02 8.488 6.103.781 2.302 1.878 3.29 4.348 2.063zm-75.719 1.375c.734-3.933-.514-10.263-2.391-12.161-1.74-1.76-1.71-2.764.212-4.395 4.63-3.93 2.982-12.015-2.597-13.002a55.71 55.71 0 0 0-8.674-.843c-4.928-.085-5.216.305-5.219 5.104-.002 6.742 0 13.483.005 20.226.001.761-.152 1.592.102 2.263.261.69.934 1.226 1.426 1.828.523-.57 1.396-1.084 1.498-1.722.241-1.485.127-3.032.129-4.554.007-6.25.577-6.89 6.636-5.561 1.605.353 3.281 1.973 4.198 3.458 1.044 1.692 1.121 3.95 1.917 5.838.468 1.112 1.516 1.98 2.758 3.521zm105.347-19.36-.497-.065c0-2.505.178-5.029-.08-7.508-.117-1.12-1.1-2.15-1.689-3.222-.468 1.073-1.301 2.133-1.343 3.224-.215 5.547-.084 11.107-.358 16.649-.166 3.339-2.547 5.756-5.549 6.331-6.401 1.229-10.179-1.629-10.406-8.148-.183-5.223.013-10.459-.137-15.684-.022-.811-.993-1.595-1.526-2.392-.511.813-1.447 1.617-1.466 2.441-.124 5.662-.222 11.335-.002 16.991.207 5.297 3.657 9.216 8.275 9.987 6.254 1.045 11.327-1.12 13.02-6.471 1.216-3.844 1.215-8.075 1.758-12.133zm-203.618 3.524c0 4.24.054 8.48-.025 12.72-.033 1.796.658 2.62 2.451 2.618 4.131-.006 8.264.094 12.391-.015.771-.021 1.521-.815 2.281-1.252-.804-.541-1.576-1.485-2.415-1.55-2.702-.203-5.431-.056-8.147-.104-.848-.015-2.418-.173-2.431-.349a143.716 143.716 0 0 1-.304-10.646c.001-.157 1.357-.42 2.087-.437 2.281-.053 4.583.155 6.841-.083 1.003-.105 1.919-1.037 2.875-1.594-1.002-.503-1.959-1.174-3.02-1.457-.913-.243-1.943-.041-2.922-.04-7.079.004-7.038.007-6.557-7.014.13-1.89.86-2.765 2.805-2.708 2.715.078 5.443.146 8.147-.045.693-.049 1.319-1.079 1.976-1.66-.667-.412-1.325-1.163-2.003-1.181-3.91-.1-7.825-.018-11.738-.015-1.876.002-2.354 1.039-2.322 2.742.073 4.024.023 8.048.03 12.07zm377.369-13.798c1.019 2.999 1.995 5.947 3.021 8.88 2.075 5.936 4.081 11.9 6.361 17.758.389.997 2.048 2.162 3.028 2.085 1.014-.081 2.341-1.403 2.795-2.49 2.299-5.503 4.393-11.094 6.488-16.68 1.195-3.185 2.258-6.42 3.428-9.771-2.315-.743-3.646-.507-4.341 1.527-1.858 5.445-3.789 10.866-5.646 16.313-.814 2.39-1.516 4.819-2.582 8.239-.766-1.904-1.209-2.839-1.523-3.815-2.158-6.708-4.354-13.407-6.397-20.151-.745-2.461-1.975-3.172-4.632-1.895zM691.748 260.44c-1.088 0-2.18.054-3.264-.009-5.664-.324-9.709-3.541-10.592-8.384-1.226-6.723.861-12.078 6.439-14.102 3.016-1.095 6.609-.551 9.929-.881.979-.098 1.913-.656 2.868-1.003-.813-.722-1.542-1.931-2.454-2.093-12.571-2.229-21.728 5.396-20.091 18.058 1.144 8.83 12.87 14.916 21.051 10.99.646-.31.994-1.242 1.48-1.884-.704-.323-1.39-.854-2.118-.92-1.066-.095-2.163.142-3.248.228zm366.324-10.347c0-3.48.07-6.962-.026-10.439-.055-1.972.736-2.791 2.677-2.735 1.846.053 3.719.151 5.528-.117.701-.104 1.264-1.155 1.89-1.775-.646-.468-1.285-1.331-1.937-1.341a616.827 616.827 0 0 0-19.571.012c-.62.011-1.227.924-1.84 1.418.658.597 1.244 1.568 1.987 1.71 1.471.279 3.043.241 4.546.079 2.928-.315 3.74.933 3.665 3.757-.179 6.737-.108 13.485.016 20.226.015.809.979 1.599 1.503 2.397.52-.808 1.448-1.597 1.486-2.426.166-3.584.07-7.176.076-10.766zm-130.984.158c0-3.482.088-6.969-.032-10.447-.074-2.137.769-2.979 2.861-2.893 1.843.074 3.712.119 5.531-.114.644-.082 1.176-1.025 1.759-1.575-.575-.524-1.143-1.495-1.726-1.505a608.78 608.78 0 0 0-19.907.008c-.574.01-1.132 1-1.697 1.536.592.535 1.115 1.394 1.791 1.538 1.251.267 2.592.136 3.895.134 4.396-.007 4.384-.013 4.377 4.209-.01 6.53-.054 13.062.063 19.59.016.857.898 1.698 1.38 2.546.569-.858 1.583-1.693 1.632-2.582.191-3.473.078-6.963.073-10.445zm-160.625-.45h-.011c0 3.699-.094 7.403.072 11.095.037.817.99 1.594 1.521 2.39.512-.812 1.17-1.569 1.487-2.449.244-.676.063-1.506.063-2.268-.002-6.202.072-12.406-.051-18.605-.045-2.295.792-3.188 3.035-3.049 1.625.101 3.299.232 4.878-.055.831-.151 1.504-1.172 2.248-1.799-.741-.487-1.475-1.385-2.224-1.397a526.247 526.247 0 0 0-18.93.004c-.738.014-1.46.925-2.19 1.421.758.615 1.445 1.614 2.286 1.766 1.58.285 3.255.168 4.879.059 2.306-.154 3.07.854 2.972 3.098-.142 3.256-.035 6.524-.035 9.789zm309.319-1.217c0-3.907.097-7.819-.069-11.721-.041-.951-.946-1.867-1.455-2.799-.545.887-1.551 1.766-1.564 2.66a781.596 781.596 0 0 0-.007 23.771c.014.937.939 1.858 1.442 2.787.553-.992 1.532-1.963 1.58-2.979.187-3.897.076-7.811.073-11.719z"/><path d="M900.758 110.113v3.652c0 33.431-.037 66.863.063 100.294.009 2.889-.791 3.697-3.664 3.69-40.074-.085-80.149-.085-120.223.001-2.881.006-3.696-.81-3.66-3.697.156-12.521.112-25.045.02-37.567-.016-2.123.606-3.536 2.494-4.474 20.474-10.172 40.959-20.321 61.402-30.555 20.731-10.377 41.419-20.842 62.131-31.258.174-.087.421-.032 1.437-.086zM32.083 95.68c-.091-1.798-.2-2.94-.2-4.083-.01-18.726.063-37.453-.077-56.178-.022-3.022 1.04-3.595 3.771-3.59 36.255.054 72.51.007 108.765.003.916 0 1.831.212 2.881 1.036L32.083 95.68zm1114.635-63.997v4.672c-.001 18.292-.003 36.584-.001 54.876 0 4.314.006 4.322-4.217 4.323-34.951.003-69.902.002-104.854.003h-6.188a299.97 299.97 0 0 1-.061-.975l115.321-62.899zm-10.458 217.253c-.145 7.411-4.742 11.765-11.908 11.73-7.082-.033-11.55-5.08-11.374-12.254.186-7.575 4.869-11.759 11.907-11.729 7.089.029 11.568 5.065 11.375 12.253zm-300.816-.134c-.151 7.221-4.95 12.069-11.803 11.929-7.021-.145-11.738-5.111-11.528-12.184.227-7.66 4.652-11.762 11.798-11.881 6.976-.117 11.683 5.045 11.533 12.136zm180.212-.38c.133-7.522 4.836-11.769 11.887-11.746 7.063.023 11.572 5.102 11.389 12.247-.193 7.47-4.729 11.754-11.897 11.741-7.065-.012-11.57-5.06-11.379-12.242zm-49.296.743c-.237 7.195-4.682 11.469-11.801 11.51-7.172.042-11.736-5.126-11.45-12.494.274-7.055 5.043-11.728 11.796-11.558 7.156.181 11.767 5.229 11.455 12.542zm-100.141-12.186c1.629 4.82 2.975 8.798 4.316 12.776.035.103.094.238.056.316-1.491 3.076-4.207.977-6.315 1.344-.689.119-2.456-1.469-2.338-1.867 1.173-3.99 2.637-7.896 4.281-12.569zm-79.724 4.834c.908-1.688 1.404-4.155 2.812-4.9 2.826-1.497 8.707.42 10.045 2.566 1.645 2.64.483 6.729-2.798 7.784-2.47.794-5.318.507-7.994.465-.435-.007-1.091-1.204-1.219-1.927-.206-1.156-.055-2.375-.055-3.566l-.791-.422z"/></g></svg>